<svg id="Layer_1" enable-background="new 0 0 512 512" height="512" viewBox="0 0 512 512" width="512" xmlns="http://www.w3.org/2000/svg"><g clip-rule="evenodd" fill-rule="evenodd"><path d="m171.9 501.1 14.5-21.1h-28.9z" fill="#fadbcc"/><path d="m157.2 463.3h29.5v8.7h-29.5z" fill="#fadbcc"/><path d="m157.2 204h10.7v251.4h-10.7z" fill="#e63677"/><path d="m187.6 184.9 5.8-21.5-17.4-32.1v15.4.2c4.6 1.6 7.8 6 7.8 11.1 0 6.5-5.3 11.8-11.8 11.8s-11.8-5.3-11.8-11.8c0-5.1 3.3-9.5 7.8-11.1 0-.1 0-.1 0-.2v-15.4l-17.3 32.1 5.8 21.5z" fill="#3e6276"/><path d="m175.9 204h10.7v251.4h-10.7z" fill="#e74a78"/><path d="m40.1 504.2h73v-15.6h-12.8c-2.2 0-4-1.8-4-4s1.8-4 4-4h12.8v-15.6h-21.5c-2.2 0-4-1.8-4-4s1.8-4 4-4h21.4v-15.6h-12.8c-2.2 0-4-1.8-4-4s1.8-4 4-4h12.8v-15.6h-21.4c-2.2 0-4-1.8-4-4s1.8-4 4-4h21.4v-15.6h-12.8c-2.2 0-4-1.8-4-4s1.8-4 4-4h12.8v-15.6h-21.4c-2.2 0-4-1.8-4-4s1.8-4 4-4h21.4v-15.6h-12.8c-2.2 0-4-1.8-4-4s1.8-4 4-4h12.8v-15.6h-21.4c-2.2 0-4-1.8-4-4s1.8-4 4-4h21.4v-15.6h-12.8c-2.2 0-4-1.8-4-4s1.8-4 4-4h12.8v-15.8h-21.4c-2.2 0-4-1.8-4-4s1.8-4 4-4h21.4v-16h-12.8c-2.2 0-4-1.8-4-4s1.8-4 4-4h12.8v-15.6h-21.4c-2.2 0-4-1.8-4-4s1.8-4 4-4h21.4v-15.6h-72.9z" fill="#f8bd43"/><path d="m171.9 161.8c2.1 0 3.8-1.7 3.8-3.8s-1.7-3.8-3.8-3.8-3.8 1.7-3.8 3.8 1.7 3.8 3.8 3.8z" fill="#fff"/><path d="m73 7.8h-2.4v38.5h2.4c10.6 0 19.2-8.6 19.2-19.3 0-10.6-8.6-19.2-19.2-19.2z" fill="#1d6e9c"/><path d="m331.9 236.4v23.6c0 10.2 8.3 18.5 18.6 18.5 10.2 0 18.6-8.3 18.6-18.5v-23.6c0-10.2-8.3-18.6-18.6-18.6s-18.6 8.4-18.6 18.6z" fill="#1d6e9c"/><path d="m346.4 286.8c0-.2 0-.4.1-.5-12.8-1.9-22.6-12.9-22.6-26.2v-23.6c0-13.3 9.8-24.3 22.6-26.3v-60.5c-65.2 2-117.5 55.7-117.5 121.3v41.7h117.5v-25.9z" fill="#fff"/><path d="m354.4 149.6v60.5c12.8 1.9 22.6 13 22.6 26.3v23.6c0 13.3-9.8 24.3-22.6 26.2 0 .2.1.4.1.5v25.9h117.5v-41.6c-.1-65.6-52.5-119.3-117.6-121.4z" fill="#fff"/><path d="m228.9 382.7c0 66.9 54.5 121.5 121.5 121.5 66.9 0 121.5-54.5 121.5-121.5v-62h-243z" fill="#1d6e9c"/><path d="m196.1 193h-5.4-37.2-5.5c-.8 0-1.5.7-1.5 1.5s.7 1.5 1.5 1.5h5.2 37.5 5.3c.8 0 1.5-.7 1.5-1.5s-.6-1.5-1.4-1.5z" fill="#fff"/><path d="m53.7 7.8h8.9v38.5h-8.9z" fill="#fff"/><path d="m354.4 141.6v-24.7c0-52.5-42.7-95.3-95.3-95.3h-159.4c-2.5-12.4-13.5-21.8-26.7-21.8h-23.2c-2.2 0-4 1.8-4 4v46.5c0 2.2 1.8 4 4 4h23.2c14.2 0 25.8-10.9 27.1-24.7h159c48.1 0 87.3 39.1 87.3 87.3v24.7c-69.6 2.1-125.5 59.4-125.5 129.4v111.7c0 71.4 58 129.5 129.5 129.5s129.5-58 129.5-129.5v-111.7c0-70-56-127.3-125.5-129.4zm-291.8-95.2h-8.9v-38.6h8.9zm10.4 0h-2.4v-38.6h2.4c10.6 0 19.2 8.6 19.2 19.2 0 10.7-8.6 19.4-19.2 19.4zm277.4 171.4c10.2 0 18.6 8.3 18.6 18.6v23.6c0 10.2-8.3 18.5-18.6 18.5-10.2 0-18.6-8.3-18.6-18.5v-23.6c.1-10.2 8.4-18.6 18.6-18.6zm-121.5 53.2c0-65.6 52.3-119.3 117.5-121.4v60.5c-12.8 1.9-22.6 13-22.6 26.3v23.6c0 13.3 9.8 24.3 22.6 26.2 0 .2-.1.4-.1.5v25.9h-117.4zm243 111.7c0 66.9-54.5 121.5-121.5 121.5-66.9 0-121.5-54.5-121.5-121.5v-62h243zm0-70h-117.5v-25.9c0-.2 0-.4-.1-.5 12.8-1.9 22.6-12.9 22.6-26.2v-23.6c0-13.3-9.8-24.3-22.6-26.3v-60.5c65.1 2.1 117.5 55.7 117.5 121.4v41.7h.1z"/><path d="m196.1 184.9h-.2l5.6-21c.3-1 .1-2-.3-2.9l-25.6-47.4c-.7-1.3-2-2.1-3.5-2.1s-2.8.8-3.5 2.1l-25.7 47.4c-.5.9-.6 1.9-.3 2.9l5.6 21h-.3c-5.2 0-9.5 4.3-9.5 9.5s4.2 9.5 9.5 9.5h1.2v276.7c0 .8.2 1.6.7 2.3l18.7 27.5c.7 1.1 2 1.7 3.3 1.7s2.6-.7 3.3-1.7l18.7-27.5c.5-.7.7-1.4.7-2.3v-276.7h1.3c5.2 0 9.5-4.2 9.5-9.5.2-5.1-4-9.5-9.2-9.5zm-24.2-30.7c2.1 0 3.8 1.7 3.8 3.8s-1.7 3.8-3.8 3.8-3.8-1.7-3.8-3.8 1.7-3.8 3.8-3.8zm-4-22.9v15.4.2c-4.6 1.6-7.8 6-7.8 11.1 0 6.5 5.3 11.8 11.8 11.8s11.8-5.3 11.8-11.8c0-5.1-3.3-9.5-7.8-11.1 0-.1 0-.1 0-.2v-15.4l17.3 32.1-5.8 21.5h-31.1l-5.8-21.5zm4 369.8-14.4-21.1h28.7zm14.8-29.1h-29.5v-8.7h29.5zm-29.5-16.7v-251.3h10.7v251.4h-10.7zm29.5 0h-10.7v-251.3h10.7zm9.4-259.3h-5.3-37.5-5.3c-.8 0-1.5-.7-1.5-1.5s.7-1.5 1.5-1.5h5.3 37.2 5.4c.8 0 1.5.7 1.5 1.5.1.8-.5 1.5-1.3 1.5z"/><path d="m117 196.8h-80.9c-2.2 0-4 1.8-4 4v307.4c0 2.2 1.8 4 4 4h81c2.2 0 4-1.8 4-4v-307.4c-.1-2.3-1.8-4-4.1-4zm-4 23.6h-21.4c-2.2 0-4 1.8-4 4s1.8 4 4 4h21.4v15.6h-12.8c-2.2 0-4 1.8-4 4s1.8 4 4 4h12.8v15.6h-21.4c-2.2 0-4 1.8-4 4s1.8 4 4 4h21.4v15.6h-12.8c-2.2 0-4 1.8-4 4s1.8 4 4 4h12.8v15.6h-21.4c-2.2 0-4 1.8-4 4s1.8 4 4 4h21.4v15.6h-12.8c-2.2 0-4 1.8-4 4s1.8 4 4 4h12.8v15.6h-21.4c-2.2 0-4 1.8-4 4s1.8 4 4 4h21.4v15.6h-12.8c-2.2 0-4 1.8-4 4s1.8 4 4 4h12.8v15.6h-21.4c-2.2 0-4 1.8-4 4s1.8 4 4 4h21.4v15.6h-12.8c-2.2 0-4 1.8-4 4s1.8 4 4 4h12.8v15.6h-21.4c-2.2 0-4 1.8-4 4s1.8 4 4 4h21.4v15.6h-12.8c-2.2 0-4 1.8-4 4s1.8 4 4 4h12.8v16h-72.9v-299.2h73v15.6z"/></g></svg>