<svg id="Layer_1" enable-background="new 0 0 512 512" height="512" viewBox="0 0 512 512" width="512" xmlns="http://www.w3.org/2000/svg"><g clip-rule="evenodd" fill-rule="evenodd"><g fill="#1d6e9c"><path d="m319.4 318.5 28.8-30.1-40-11.7-10.1 2.7 11.2 41.8z"/><path d="m17.7 354.5c-3.6 1-6.6 3.9-8.3 8.4-1.9 4.8-2.1 10.7-.6 16.4 3 11.3 12.2 19.1 20.1 17l11.3-3-11.2-41.8z"/><path d="m42 346.6h15.7v43.3h-15.7z" transform="matrix(.966 -.259 .259 .966 -93.625 25.464)"/></g><path d="m290.4 281.5-230.8 61.8 11.2 41.8 230.8-61.8zm-79.7 47.8-67.8 18.2c-.3.1-.7.1-1 .1-1.8 0-3.4-1.2-3.9-3-.6-2.1.7-4.3 2.8-4.9l67.8-18.2c2.1-.6 4.3.7 4.9 2.8.6 2.3-.6 4.4-2.8 5z" fill="#a0c76a"/><path d="m178.1 489.7h326v-55.7h-326zm124-33.2h78c2.2 0 4 1.8 4 4s-1.8 4-4 4h-78c-2.2 0-4-1.8-4-4s1.8-4 4-4z" fill="#3e6276"/><path d="m178.1 77.8h326v-55.3l-326-.4zm160.3-34.1h34.6c2.2 0 4 1.8 4 4s-1.8 4-4 4h-34.6c-2.2 0-4-1.8-4-4s1.8-4 4-4zm-29.3.6h4.6c2.2 0 4 1.8 4 4s-1.8 4-4 4h-4.6c-2.2 0-4-1.8-4-4s1.8-4 4-4z" fill="#3e6276"/><path d="m178.1 303.2 129.1-34.6c.7-.2 1.4-.2 2.2 0l47.5 13.8c1.3.4 2.4 1.5 2.7 2.8s0 2.8-1 3.8l-34.2 35.7c-.5.5-1.1.9-1.9 1.1l-144.4 38.7v61.2h326v-340.1h-326z" fill="#e7f2fb"/><path d="m338.4 51.7h34.6c2.2 0 4-1.8 4-4s-1.8-4-4-4h-34.6c-2.2 0-4 1.8-4 4s1.8 4 4 4z"/><path d="m302.1 464.5h78c2.2 0 4-1.8 4-4s-1.8-4-4-4h-78c-2.2 0-4 1.8-4 4s1.8 4 4 4z"/><path d="m505.1 14.5-328-.4c-2 0-3.8.8-5.1 2.4-1.2 1.4-1.9 3.2-1.9 5.1v283.9l-135.4 36.3-6.5-24.2 57-15.3c2.1-.6 3.4-2.8 2.8-4.9s-2.8-3.4-4.9-2.8l-60.8 16.3c-1 .3-1.9.9-2.4 1.9-.5.9-.7 2-.4 3l7.5 28.1-11.3 3c-6.1 1.6-11 6.3-13.7 13.1-2.5 6.4-2.8 14-.9 21.4 3.7 13.8 14.4 23.3 25.2 23.3 1.6 0 3.1-.2 4.7-.6l139.1-37.2v123.5c0 4.1 3.2 7.5 7 7.5h328c3.9 0 7-3.3 7-7.5v-468.3c0-4.3-3.2-7.6-7-7.6zm-476.2 381.8c-7.9 2.1-17.1-5.7-20.1-17-1.5-5.8-1.3-11.6.6-16.4 1.7-4.4 4.7-7.4 8.3-8.4l11.3-3 11.2 41.8zm19-5.1-11.2-41.8 15.2-4.1 11.2 41.8zm22.9-6.2-11.2-41.8 230.8-61.8 11.2 41.8zm227.3-105.6 10-2.7 40.1 11.7-28.9 30.1-10 2.7zm206 210.3h-326v-55.7h326zm0-63.8h-326v-61.2l144.4-38.7c.7-.2 1.3-.6 1.9-1.1l34.2-35.7c1-1 1.3-2.5 1-3.8s-1.4-2.4-2.7-2.8l-47.5-13.8c-.7-.2-1.4-.2-2.2 0l-129.1 34.6v-217.6h326zm0-348.1h-326v-55.7l326 .4z"/><path d="m208.7 321.6-67.8 18.2c-2.1.6-3.4 2.8-2.8 4.9.5 1.8 2.1 3 3.9 3 .3 0 .7 0 1-.1l67.8-18.2c2.1-.6 3.4-2.8 2.8-4.9-.6-2.2-2.8-3.5-4.9-2.9z"/><path d="m309.1 52.3h4.6c2.2 0 4-1.8 4-4s-1.8-4-4-4h-4.6c-2.2 0-4 1.8-4 4s1.8 4 4 4z"/></g></svg>