<svg id="Layer_1" enable-background="new 0 0 512 512" height="512" viewBox="0 0 512 512" width="512" xmlns="http://www.w3.org/2000/svg"><g clip-rule="evenodd" fill-rule="evenodd"><g fill="#095c83"><path d="m444.9 275.5c0 1.8-1.2 3.4-2.9 3.9l-369.8 103.9c-.4.1-.7.1-1.1.1-.9 0-1.7-.3-2.4-.8-1-.8-1.6-1.9-1.6-3.2v-36.9h-8v47.5c0 2.2 1.8 4 4 4 .5 0 .9-.1 1.3-.2.1 0 .2-.1.2-.1l385.4-108.3c1.7-.5 2.9-2.1 2.9-3.8v-47.5h-8z"/><path d="m216.9 420.2h78.2l-39.1-67.8z"/><path d="m175.6 440.8c0 6.9 5.7 12.6 12.6 12.6h135.5c6.9 0 12.6-5.7 12.6-12.6s-5.7-12.6-12.6-12.6h-135.4c-7 0-12.7 5.6-12.7 12.6z"/><path d="m111.8 330.8c0-2.1-1.7-3.7-3.7-3.7h-88.2c-2.1 0-3.7 1.7-3.7 3.7 0 2.1 1.7 3.7 3.7 3.7h88.2c2 0 3.7-1.7 3.7-3.7z"/></g><path d="m50.6 283h25v5.8h-25z" fill="#3e6276"/><path d="m448.9 194.7c4.6 0 8.7-2.5 10.8-6.3h-21.6c2.2 3.7 6.2 6.3 10.8 6.3z" fill="#3e6276"/><path d="m496.8 222.3c0-2.1-1.7-3.7-3.7-3.7h-88.2c-2.1 0-3.7 1.7-3.7 3.7s1.7 3.7 3.7 3.7h52 36c2.2 0 3.9-1.6 3.9-3.7z" fill="#095c83"/><path d="m63.1 303c4.6 0 8.7-2.5 10.8-6.3h-21.7c2.2 3.8 6.2 6.3 10.9 6.3z" fill="#3e6276"/><path d="m436.4 174.5h25v5.8h-25z" fill="#3e6276"/><path d="m436.4 151.9v14.6h8.5v-26.5c-.3-.2-.6-.4-.9-.7l-9.3-9.3c-1.6-1.6-1.6-4.1 0-5.7s4.1-1.6 5.7 0l4.5 4.5v-10.8c0-2.2 1.8-4 4-4s4 1.8 4 4v10.8l4.5-4.5c1.6-1.6 4.1-1.6 5.7 0s1.6 4.1 0 5.7l-9.3 9.3c-.3.3-.6.5-.9.7v26.5h8.5v-14.6c0-1.6.9-3 2.4-3.7 13.7-6 22.6-19.5 22.6-34.4 0-20.7-16.8-37.5-37.5-37.5s-37.5 16.8-37.5 37.5c0 15 8.9 28.5 22.6 34.4 1.5.7 2.4 2.1 2.4 3.7z" fill="#fbca41"/><path d="m63.1 184.7c-20.7 0-37.5 16.8-37.5 37.5 0 15 8.9 28.5 22.6 34.4 1.5.6 2.4 2.1 2.4 3.7v14.7h8.5v-26.5c-.3-.2-.6-.4-.9-.7l-9.3-9.3c-1.6-1.6-1.6-4.1 0-5.7s4.1-1.6 5.7 0l4.5 4.5v-10.8c0-2.2 1.8-4 4-4s4 1.8 4 4v10.8l4.5-4.5c1.6-1.6 4.1-1.6 5.7 0s1.6 4.1 0 5.7l-9.3 9.3c-.3.3-.6.5-.9.7v26.5h8.5v-14.6c0-1.6.9-3 2.4-3.7 13.7-6 22.6-19.5 22.6-34.4 0-20.7-16.8-37.6-37.5-37.6z" fill="#fbca41"/><path d="m474.6 69.5c.6.4 1.3.5 2 .5 1.4 0 2.7-.7 3.5-2l2-3.4c1.1-1.9.4-4.4-1.5-5.5s-4.4-.4-5.5 1.5l-2 3.4c-1 1.9-.4 4.4 1.5 5.5z"/><path d="m448.9 202.7c11.3 0 20.5-9.2 20.5-20.5v-27.7c15.3-7.7 25-23.4 25-40.6 0-25.1-20.4-45.5-45.5-45.5s-45.5 20.4-45.5 45.5c0 17.3 9.7 32.9 25 40.6v27.7c0 11.3 9.2 20.5 20.5 20.5zm0-8c-4.6 0-8.7-2.5-10.8-6.3h21.6c-2.1 3.7-6.1 6.3-10.8 6.3zm12.5-14.4h-25v-5.8h25zm-50-66.5c0-20.7 16.8-37.5 37.5-37.5s37.5 16.8 37.5 37.5c0 15-8.9 28.5-22.6 34.4-1.5.6-2.4 2.1-2.4 3.7v14.6h-8.5v-26.5c.3-.2.6-.4.9-.7l9.3-9.3c1.6-1.6 1.6-4.1 0-5.7s-4.1-1.6-5.7 0l-4.5 4.5v-10.8c0-2.2-1.8-4-4-4s-4 1.8-4 4v10.8l-4.5-4.5c-1.6-1.6-4.1-1.6-5.7 0s-1.6 4.1 0 5.7l9.3 9.3c.3.3.6.5.9.7v26.5h-8.5v-14.6c0-1.6-.9-3-2.4-3.7-13.7-5.9-22.6-19.4-22.6-34.4z"/><path d="m13.2 246.4-3.4 2c-1.9 1.1-2.6 3.6-1.5 5.5.7 1.3 2.1 2 3.5 2 .7 0 1.4-.2 2-.5l3.4-2c1.9-1.1 2.6-3.6 1.5-5.5-1.2-1.9-3.6-2.6-5.5-1.5z"/><path d="m399.1 137.9-3.4 2c-1.9 1.1-2.6 3.6-1.5 5.5.7 1.3 2.1 2 3.5 2 .7 0 1.4-.2 2-.5l3.4-2c1.9-1.1 2.6-3.6 1.5-5.5s-3.6-2.6-5.5-1.5z"/><path d="m502.3 139.9-3.4-2c-1.9-1.1-4.4-.4-5.5 1.5s-.4 4.4 1.5 5.5l3.4 2c.6.4 1.3.5 2 .5 1.4 0 2.7-.7 3.5-2 1-1.9.4-4.4-1.5-5.5z"/><path d="m114.3 222.3c0 2.2 1.8 4 4 4h4c2.2 0 4-1.8 4-4s-1.8-4-4-4h-4c-2.2 0-4 1.8-4 4z"/><path d="m508.2 109.8h-4c-2.2 0-4 1.8-4 4s1.8 4 4 4h4c2.2 0 4-1.8 4-4s-1.8-4-4-4z"/><path d="m496.8 90.2c.7 0 1.4-.2 2-.5l3.4-2c1.9-1.1 2.6-3.6 1.5-5.5s-3.6-2.6-5.5-1.5l-3.4 2c-1.9 1.1-2.6 3.6-1.5 5.5.8 1.3 2.2 2 3.5 2z"/><path d="m63.1 176.7c-25.1 0-45.5 20.4-45.5 45.5 0 17.3 9.7 32.9 25 40.6v27.7c0 11.3 9.2 20.5 20.5 20.5s20.5-9.2 20.5-20.5v-27.7c15.3-7.7 25-23.4 25-40.6 0-25-20.4-45.5-45.5-45.5zm0 126.3c-4.6 0-8.7-2.5-10.8-6.3h21.6c-2.2 3.8-6.2 6.3-10.8 6.3zm12.5-14.2h-25v-5.8h25zm2.4-32.1c-1.5.6-2.4 2.1-2.4 3.7v14.6h-8.5v-26.5c.3-.2.6-.4.9-.7l9.3-9.3c1.6-1.6 1.6-4.1 0-5.7s-4.1-1.6-5.7 0l-4.5 4.5v-10.8c0-2.2-1.8-4-4-4s-4 1.8-4 4v10.8l-4.5-4.5c-1.6-1.6-4.1-1.6-5.7 0s-1.6 4.1 0 5.7l9.3 9.3c.3.3.6.5.9.7v26.5h-8.5v-14.6c0-1.6-.9-3-2.4-3.7-13.7-6-22.6-19.5-22.6-34.4 0-20.7 16.8-37.5 37.5-37.5s37.5 16.8 37.5 37.5c0 14.9-8.9 28.4-22.6 34.4z"/><path d="m108.9 253.3 3.4 2c.6.4 1.3.5 2 .5 1.4 0 2.7-.7 3.5-2 1.1-1.9.4-4.4-1.5-5.5l-3.4-2c-1.9-1.1-4.4-.4-5.5 1.5-1.1 2-.4 4.4 1.5 5.5z"/><path d="m504.8 222.3c0-6.5-5.3-11.7-11.7-11.7h-88.2c-6.5 0-11.7 5.3-11.7 11.7s5.3 11.7 11.7 11.7h32v38.4l-361.8 101.8v-31.7h33c6.5 0 11.7-5.3 11.7-11.7 0-6.5-5.3-11.7-11.7-11.7h-88.2c-6.5 0-11.7 5.3-11.7 11.7 0 6.5 5.3 11.7 11.7 11.7h31v47.5c0 6.6 5.4 12 12 12 1.3 0 2.6-.2 3.9-.6l180.9-50.8-40.2 69.6h-19.4c-11.4 0-20.6 9.2-20.6 20.6s9.2 20.6 20.6 20.6h135.5c11.4 0 20.6-9.2 20.6-20.6s-9.2-20.6-20.6-20.6h-19.4l-42.5-73.7 190.5-53.5c5.2-1.4 8.8-6.2 8.7-11.5v-47.5h32c6.6 0 11.9-5.2 11.9-11.7zm-484.9 112.2c-2.1 0-3.7-1.7-3.7-3.7 0-2.1 1.7-3.7 3.7-3.7h88.2c2.1 0 3.7 1.7 3.7 3.7 0 2.1-1.7 3.7-3.7 3.7zm303.8 93.7c6.9 0 12.6 5.7 12.6 12.6s-5.7 12.6-12.6 12.6h-135.4c-6.9 0-12.6-5.7-12.6-12.6s5.7-12.6 12.6-12.6zm-28.6-8h-78.3l39.1-67.7zm157.8-138.7c0 1.8-1.2 3.4-2.9 3.8l-385.3 108.4c-.1 0-.2.1-.2.1-.4.2-.9.2-1.3.2-2.2 0-4-1.8-4-4v-47.5h8v36.9c0 1.3.6 2.4 1.6 3.2.7.5 1.6.8 2.4.8.4 0 .7 0 1.1-.1l370-104c1.7-.5 2.9-2.1 2.9-3.9v-41.4h8zm4-55.5h-52c-2.1 0-3.7-1.7-3.7-3.7s1.7-3.7 3.7-3.7h88.2c2.1 0 3.7 1.7 3.7 3.7s-1.7 3.7-3.7 3.7z"/><path d="m88.7 177.8c.6.4 1.3.5 2 .5 1.4 0 2.7-.7 3.5-2l2-3.4c1.1-1.9.4-4.4-1.5-5.5s-4.4-.4-5.5 1.5l-2 3.4c-1.1 2-.4 4.4 1.5 5.5z"/><path d="m448.9 62.6c2.2 0 4-1.8 4-4v-4c0-2.2-1.8-4-4-4s-4 1.8-4 4v4c0 2.2 1.8 4 4 4z"/><path d="m63.1 171c2.2 0 4-1.8 4-4v-4c0-2.2-1.8-4-4-4s-4 1.8-4 4v4c0 2.2 1.8 4 4 4z"/><path d="m9.7 196.1 3.4 2c.6.4 1.3.5 2 .5 1.4 0 2.7-.7 3.5-2 1.1-1.9.4-4.4-1.5-5.5l-3.4-2c-1.9-1.1-4.4-.4-5.5 1.5-1 2-.4 4.4 1.5 5.5z"/><path d="m110.9 198.7c.7 0 1.4-.2 2-.5l3.4-2c1.9-1.1 2.6-3.6 1.5-5.5s-3.5-2.6-5.5-1.5l-3.4 2c-1.9 1.1-2.6 3.6-1.5 5.5.7 1.3 2.1 2 3.5 2z"/><path d="m31.9 176.4c.7 1.3 2.1 2 3.5 2 .7 0 1.4-.2 2-.5 1.9-1.1 2.6-3.6 1.5-5.5l-2-3.4c-1.1-1.9-3.5-2.6-5.5-1.5-1.9 1.1-2.6 3.6-1.5 5.5z"/><path d="m395.7 87.7 3.4 2c.6.4 1.3.5 2 .5 1.4 0 2.7-.7 3.5-2 1.1-1.9.4-4.4-1.5-5.5l-3.4-2c-1.9-1.1-4.4-.4-5.5 1.5s-.4 4.4 1.5 5.5z"/><path d="m3.8 226.3h4c2.2 0 4-1.8 4-4s-1.8-4-4-4h-4c-2.2 0-4 1.8-4 4s1.8 4 4 4z"/><path d="m417.9 68c.7 1.3 2.1 2 3.5 2 .7 0 1.4-.2 2-.5 1.9-1.1 2.6-3.6 1.5-5.5l-2-3.4c-1.1-1.9-3.6-2.6-5.5-1.5s-2.6 3.6-1.5 5.5z"/><path d="m389.8 117.8h4c2.2 0 4-1.8 4-4s-1.8-4-4-4h-4c-2.2 0-4 1.8-4 4s1.7 4 4 4z"/></g></svg>