<svg id="Layer_1" enable-background="new 0 0 512 512" height="512" viewBox="0 0 512 512" width="512" xmlns="http://www.w3.org/2000/svg"><g clip-rule="evenodd" fill-rule="evenodd"><path d="m117.7 101.7v271.2h276.9v-271.2zm191.3 60.1c1.5-1.6 4.1-1.6 5.7-.1l9.1 8.8 19.7-23.9c1.4-1.7 3.9-1.9 5.6-.5s1.9 3.9.5 5.6l-22.4 27.2c-.7.9-1.7 1.4-2.9 1.4-.1 0-.2 0-.2 0-1 0-2-.4-2.8-1.1l-12.2-11.8c-1.6-1.5-1.6-4.1-.1-5.6zm-97.9 179.4c0 2.2-1.8 4-4 4h-61.6c-2.2 0-4-1.8-4-4v-16.5c0-2.2 1.8-4 4-4h2.5l7.4-48.9v-12.8h-8.8c-2.2 0-4-1.8-4-4v-27.3c0-2.2 1.8-4 4-4h10.8c2.2 0 4 1.8 4 4v10.8h5.6v-10.8c0-2.2 1.8-4 4-4h10.8c2.2 0 4 1.8 4 4v10.8h5.6v-10.8c0-2.2 1.8-4 4-4h10.8c2.2 0 4 1.8 4 4v27.3c0 2.2-1.8 4-4 4h-8.8v12.8l7.4 48.9h2.5c2.2 0 4 1.8 4 4v16.5zm39.6-2.5c-5.8 0-11.6-.5-17.5-1.5-2.2-.4-3.6-2.4-3.3-4.6.4-2.2 2.5-3.6 4.6-3.3 51.1 8.9 100-25.5 108.8-76.7 2.8-16.1 1.3-32.7-4.2-48l-8.2 17.7c-.7 1.5-2.1 2.3-3.6 2.3-.6 0-1.1-.1-1.7-.4-2-.9-2.9-3.3-1.9-5.3l12.3-26.6c.9-2 3.3-2.9 5.3-1.9l26.6 12.3c2 .9 2.9 3.3 1.9 5.3-.9 2-3.3 2.9-5.3 1.9l-18-8.3c6.1 16.7 7.7 34.7 4.6 52.3-8.4 49.8-51.6 84.8-100.4 84.8zm118.7-8.4c1.6 1.6 1.6 4.1 0 5.7-.8.8-1.8 1.2-2.8 1.2s-2-.4-2.8-1.2l-9.6-9.6-9.6 9.6c-.8.8-1.8 1.2-2.8 1.2s-2-.4-2.8-1.2c-1.6-1.6-1.6-4.1 0-5.7l9.6-9.6-9.6-9.6c-1.6-1.6-1.6-4.1 0-5.7s4.1-1.6 5.7 0l9.6 9.6 9.6-9.6c1.6-1.6 4.1-1.6 5.7 0s1.6 4.1 0 5.7l-9.6 9.6z" fill="#e7f2fb"/><g fill="#b98147"><path d="m202.1 231.6h-2.8v10.8c0 2.2-1.8 4-4 4h-13.6c-2.2 0-4-1.8-4-4v-10.8h-2.8v10.8c0 2.2-1.8 4-4 4h-13.6c-2.2 0-4-1.8-4-4v-10.8h-2.8v19.3h51.5z"/><path d="m163.3 258.8h25.9v9.1h-25.9z"/><path d="m156.1 320.6h40.4l-1.1-7.3h-38.2z"/><path d="m158.4 305.3h35.8l-4.4-29.4h-27z"/><path d="m201.2 328.6h-49.8-1.9v8.5h53.6v-8.5z"/></g><g fill="#3e6276"><path d="m96.4 79h319.3v14.7h-319.3z"/><path d="m402.5 380.9h-292.9v-279.2h-7.8v283c0 2.1 1.7 3.9 3.9 3.9h105.2 27.3 35.5 27.3 105.2c2.1 0 3.9-1.7 3.9-3.9v-283h-7.8v279.2z"/><path d="m287.7 396.6 15 26 8.4 14.6h-110.1l10.4-18.1c0-.1.1-.1.1-.2l.1-.2 12.8-22.1h-8.9l-10.6 18.5c0 .1-.1.1-.1.2l-47.9 83.1c-1.1 1.8-.4 4.2 1.4 5.3s4.2.4 5.3-1.4l33-57.2h119.1l33 57.2c1.1 1.8 3.4 2.5 5.3 1.4.9-.5 1.5-1.3 1.8-2.3s.1-2-.4-2.9l-45.9-79.6-2.1-3.5-10.8-18.7h-8.9z"/></g><path d="m369.4 305.5c-1.6-1.6-4.1-1.6-5.7 0l-9.6 9.6-9.6-9.6c-1.6-1.6-4.1-1.6-5.7 0s-1.6 4.1 0 5.7l9.6 9.6-9.6 9.6c-1.6 1.6-1.6 4.1 0 5.7.8.8 1.8 1.2 2.8 1.2s2-.4 2.8-1.2l9.6-9.6 9.6 9.6c.8.8 1.8 1.2 2.8 1.2s2-.4 2.8-1.2c1.6-1.6 1.6-4.1 0-5.7l-9.6-9.6 9.6-9.6c1.8-1.6 1.8-4.1.2-5.7z"/><path d="m207.1 320.6h-2.5l-7.4-48.9v-12.8h8.8c2.2 0 4-1.8 4-4v-27.3c0-2.2-1.8-4-4-4h-10.8c-2.2 0-4 1.8-4 4v10.8h-5.6v-10.8c0-2.2-1.8-4-4-4h-10.8c-2.2 0-4 1.8-4 4v10.8h-5.6v-10.8c0-2.2-1.8-4-4-4h-10.8c-2.2 0-4 1.8-4 4v27.3c0 2.2 1.8 4 4 4h8.8v12.8l-7.4 48.9h-2.5c-2.2 0-4 1.8-4 4v16.5c0 2.2 1.8 4 4 4h61.6c2.2 0 4-1.8 4-4v-16.5c.2-2.2-1.6-4-3.8-4zm-56.5-69.8v-19.3h2.8v10.8c0 2.2 1.8 4 4 4h13.6c2.2 0 4-1.8 4-4v-10.8h2.8v10.8c0 2.2 1.8 4 4 4h13.6c2.2 0 4-1.8 4-4v-10.8h2.8v19.3zm39.2 25.1 4.4 29.3h-35.9l4.4-29.3zm-26.5-8v-9.1h25.9v9.1zm32.1 45.4 1.1 7.3h-40.5l1.1-7.3zm7.7 23.8h-53.6v-8.5h1.9 49.7 1.9v8.5z"/><path d="m321.3 179.2c.7.7 1.7 1.1 2.8 1.1h.2c1.1-.1 2.2-.6 2.9-1.4l22.5-27.2c1.4-1.7 1.2-4.2-.5-5.6s-4.2-1.2-5.6.5l-19.7 23.9-9.1-8.8c-1.6-1.5-4.1-1.5-5.7.1-1.5 1.6-1.5 4.1.1 5.7z"/><path d="m346.7 201.8 18 8.3c2 .9 4.4.1 5.3-1.9s.1-4.4-1.9-5.3l-26.6-12.3c-2-.9-4.4-.1-5.3 1.9l-12.3 26.6c-.9 2-.1 4.4 1.9 5.3.5.3 1.1.4 1.7.4 1.5 0 3-.9 3.6-2.3l8.2-17.7c5.5 15.3 7 31.9 4.2 48-8.9 51.1-57.6 85.5-108.8 76.7-2.2-.4-4.2 1.1-4.6 3.3s1.1 4.2 3.3 4.6c5.9 1 11.7 1.5 17.5 1.5 48.7 0 92-35 100.6-84.7 2.8-17.7 1.2-35.8-4.8-52.4z"/><path d="m92.4 101.7h1.4v283c0 6.5 5.3 11.9 11.9 11.9h100.6l-8.2 14.2c-.1.2-.2.3-.3.5l-47.9 83.1c-3.3 5.7-1.3 12.9 4.3 16.2 1.9 1.1 3.9 1.6 5.9 1.6 4.1 0 8.1-2.1 10.3-5.9l30.7-53.2h109.8l30.7 53.2c3.3 5.7 10.5 7.6 16.2 4.3 2.7-1.6 4.7-4.1 5.5-7.2s.4-6.3-1.2-9l-56.4-97.8h100.6c6.5 0 11.9-5.3 11.9-11.9v-283h1.4c2.2 0 4-1.8 4-4v-22.7c0-2.2-1.8-4-4-4h-102.5c-.1-.7-.4-1.3-.9-1.9l-57.1-67.9c-.8-.9-1.9-1.4-3.1-1.4s-2.3.5-3.1 1.4l-57.1 67.8c-.5.6-.7 1.2-.9 1.9h-102.5c-2.2 0-4 1.8-4 4v22.7c0 2.3 1.7 4.1 4 4.1zm215 313.6 2.1 3.5 45.9 79.6c.5.9.7 1.9.4 2.9s-.9 1.8-1.8 2.3c-1.8 1.1-4.2.4-5.3-1.4l-33-57.2h-119.1l-33 57.2c-1.1 1.8-3.4 2.5-5.3 1.4-1.8-1.1-2.5-3.4-1.4-5.3l47.9-83.1c0-.1.1-.1.1-.2l10.7-18.5h8.9l-12.8 22.1-.1.2c0 .1-.1.1-.1.2l-10.5 18.2h110.1l-8.4-14.6-15-26h8.9zm-10.1 13.9h-82.4l3.5-6c.1-.2.2-.4.3-.5l15-26h44.7l13.3 23.1zm113-44.5c0 2.1-1.7 3.9-3.9 3.9h-105.2-27.3-35.5-27.4-105.3c-2.1 0-3.9-1.7-3.9-3.9v-283h7.8v279.2h292.9v-279.2h7.8zm-292.6-11.8v-271.2h276.9v271.2zm138.3-362.9 51.3 61h-102.5zm-159.6 69h319.3v14.7h-319.3z"/></g></svg>