<svg id="Layer_1" enable-background="new 0 0 512 512" height="512" viewBox="0 0 512 512" width="512" xmlns="http://www.w3.org/2000/svg"><g clip-rule="evenodd" fill-rule="evenodd"><ellipse cx="93.1" cy="107.7" fill="#3e6276" rx="18.1" ry="18.1" transform="matrix(.987 -.16 .16 .987 -16.007 16.251)"/><ellipse cx="93.1" cy="206.7" fill="#3e6276" rx="18.1" ry="18.1" transform="matrix(.994 -.109 .109 .994 -21.953 11.367)"/><path d="m265.8 213.7c.1 1.2.1 2.4.1 3.6 0 32.2-26.2 58.3-58.3 58.3-4.2 0-8.4-.5-12.4-1.3 2.5 7.5 6.7 14.2 12.1 19.7 4.3-1 8.8-1.6 13.4-1.6 14.4 0 27.6 5.3 37.8 13.9 20.1-6.6 34.7-25.5 34.7-47.8.1-19.5-11.1-36.5-27.4-44.8z" fill="#e63d7d"/><path d="m257.9 217.3c0-2.4-.2-4.7-.5-7-4.6-1.4-9.4-2.1-14.4-2.1-27.7 0-50.3 22.6-50.3 50.3 0 2.4.2 4.7.5 7 4.6 1.4 9.4 2.1 14.4 2.1 27.8 0 50.3-22.6 50.3-50.3z" fill="#975590"/><path d="m243 316.8c-14.4 0-27.6-5.3-37.8-13.9-20.1 6.6-34.7 25.5-34.7 47.8 0 27.7 22.6 50.3 50.3 50.3s50.3-22.6 50.3-50.3c0-13.8-5.6-26.4-14.7-35.5-4.3 1.1-8.8 1.6-13.4 1.6z" fill="#fbca41"/><path d="m243 200.2c4.2 0 8.4.5 12.4 1.3-6.6-20-25.5-34.5-47.8-34.5-27.7 0-50.3 22.6-50.3 50.3 0 19.5 11.2 36.5 27.5 44.8-.1-1.2-.1-2.4-.1-3.6-.1-32.2 26.2-58.3 58.3-58.3z" fill="#7dc6ee"/><path d="m387.3 38.4h-359.9v67h39.6c1.1-13.4 12.3-23.9 26-23.9 14.4 0 26.1 11.7 26.1 26.1s-11.7 26.1-26.1 26.1c-12.4 0-22.8-8.7-25.4-20.3h-40.2v91h39.6c1.1-13.4 12.3-23.9 26-23.9 14.4 0 26.1 11.7 26.1 26.1s-11.7 26.1-26.1 26.1c-12.4 0-22.8-8.7-25.4-20.3h-40.2v91h39.6c1.1-13.4 12.3-23.9 26-23.9 14.4 0 26.1 11.7 26.1 26.1s-11.7 26.1-26.1 26.1c-12.4 0-22.8-8.7-25.4-20.3h-40.2v91h39.6c1.1-13.4 12.3-23.9 26-23.9 14.4 0 26.1 11.7 26.1 26.1s-11.7 26.1-26.1 26.1c-12.4 0-22.8-8.7-25.4-20.3h-40.2v63.3h359.9zm-122.4 274.2c8.9 10.2 14.3 23.6 14.3 38.2 0 32.2-26.2 58.3-58.3 58.3-32.2 0-58.3-26.2-58.3-58.3 0-24.4 15.1-45.4 36.5-54.1-6.2-7.1-10.6-15.7-12.8-25.1-21.6-8.6-36.9-29.6-36.9-54.2 0-32.2 26.2-58.3 58.3-58.3 27.7 0 50.9 19.4 56.8 45.3 21.6 8.6 36.9 29.6 36.9 54.2-.1 24.3-15.2 45.3-36.5 54z" fill="#fff"/><ellipse cx="93.1" cy="404.5" fill="#3e6276" rx="18.1" ry="18.1" transform="matrix(.987 -.16 .16 .987 -63.417 20.062)"/><ellipse cx="93.1" cy="305.5" fill="#3e6276" rx="18.1" ry="18.1" transform="matrix(.987 -.16 .16 .987 -47.609 18.792)"/><path d="m248.2 308.5c-7.9-5.1-17.3-8.2-27.4-8.2-1.8 0-3.5.1-5.2.3 7.9 5.1 17.3 8.2 27.4 8.2 1.8 0 3.5-.1 5.2-.3z" fill="#f29a4e"/><path d="m438 400.3h37.1v-217.8h-37.1zm14.5-139.8c0-2.2 1.8-4 4-4s4 1.8 4 4v61.7c0 2.2-1.8 4-4 4s-4-1.8-4-4z" fill="#a0c76a"/><path d="m438 416 18.5 14.7 18.6-14.7v-7.7h-37.1z" fill="#1d6e9c"/><path d="m456.5 140c-10 0-18.5 5.8-18.5 12.7v21.8h37.1v-21.8c0-6.9-8.6-12.7-18.6-12.7z" fill="#1d6e9c"/><path d="m456.5 326.2c2.2 0 4-1.8 4-4v-61.7c0-2.2-1.8-4-4-4s-4 1.8-4 4v61.7c0 2.2 1.8 4 4 4z"/><path d="m3.8 402.3c-2.2 0-4 1.8-4 4s1.8 4 4 4h15.6v67.3c0 2.2 1.8 4 4 4h367.9c2.2 0 4-1.8 4-4v-443.3c0-2.2-1.8-4-4-4h-367.9c-2.2 0-4 1.8-4 4v71.1h-15.6c-2.2 0-4 1.8-4 4s1.8 4 4 4h15.6v91h-15.6c-2.2 0-4 1.8-4 4s1.8 4 4 4h15.6v91h-15.6c-2.2 0-4 1.8-4 4s1.8 4 4 4h15.6v91h-15.6zm23.6 8h40.2c2.6 11.6 13 20.3 25.4 20.3 14.4 0 26.1-11.7 26.1-26.1s-11.7-26.1-26.1-26.1c-13.7 0-24.9 10.5-26 23.9h-39.6v-91h40.2c2.6 11.6 13 20.3 25.4 20.3 14.4 0 26.1-11.7 26.1-26.1s-11.7-26.1-26.1-26.1c-13.7 0-24.9 10.5-26 23.9h-39.6v-91h40.2c2.6 11.6 13 20.3 25.4 20.3 14.4 0 26.1-11.7 26.1-26.1s-11.7-26.1-26.1-26.1c-13.7 0-24.9 10.5-26 23.9h-39.6v-91h40.2c2.6 11.6 13 20.3 25.4 20.3 14.4 0 26.1-11.7 26.1-26.1s-11.7-26.1-26.1-26.1c-13.7 0-24.9 10.5-26 23.9h-39.6v-67h359.9v435.3h-359.9zm47.6-5.8c0-10 8.1-18.1 18.1-18.1s18.1 8.1 18.1 18.1-8.1 18.1-18.1 18.1c-9.9 0-18.1-8.1-18.1-18.1zm0-99c0-10 8.1-18.1 18.1-18.1s18.1 8.1 18.1 18.1-8.1 18.1-18.1 18.1c-9.9 0-18.1-8.1-18.1-18.1zm0-98.8c0-10 8.1-18.1 18.1-18.1s18.1 8.1 18.1 18.1-8.1 18.1-18.1 18.1c-9.9 0-18.1-8.2-18.1-18.1zm0-99c0-10 8.1-18.1 18.1-18.1s18.1 8.1 18.1 18.1-8.1 18.1-18.1 18.1c-9.9 0-18.1-8.1-18.1-18.1z"/><path d="m508.2 162.4h-25.1v-9.8c0-11.4-11.9-20.7-26.5-20.7s-26.5 9.3-26.5 20.7v265.2c0 1.2.6 2.4 1.5 3.1l22.5 17.9c.7.6 1.6.9 2.5.9s1.8-.3 2.5-.9l22.5-17.9c1-.8 1.5-1.9 1.5-3.1v-247.5h21.1v51.4c0 2.2 1.8 4 4 4s4-1.8 4-4v-55.4c0-2.1-1.8-3.9-4-3.9zm-33.1 253.6-18.5 14.7-18.6-14.7v-7.7h37.1zm0-15.7h-37.1v-217.8h37.1zm0-225.8h-37.1v-21.8c0-6.9 8.5-12.7 18.5-12.7s18.5 5.8 18.5 12.7v21.8z"/><path d="m264.5 204.3c-5.9-25.9-29.2-45.3-56.8-45.3-32.2 0-58.3 26.2-58.3 58.3 0 24.6 15.3 45.6 36.9 54.2 2.2 9.5 6.6 18.1 12.8 25.1-21.4 8.7-36.5 29.6-36.5 54.1 0 32.2 26.2 58.3 58.3 58.3 32.2 0 58.3-26.2 58.3-58.3 0-14.6-5.4-27.9-14.3-38.2 21.4-8.7 36.5-29.6 36.5-54.1-.1-24.5-15.4-45.5-36.9-54.1zm-79.8 57.8c-16.3-8.3-27.5-25.3-27.5-44.8 0-27.7 22.6-50.3 50.3-50.3 22.2 0 41.1 14.5 47.8 34.5-4-.9-8.1-1.3-12.4-1.3-32.2 0-58.3 26.2-58.3 58.3 0 1.2 0 2.4.1 3.6zm8-3.6c0-27.7 22.6-50.3 50.3-50.3 5 0 9.9.7 14.4 2.1.3 2.3.5 4.6.5 7 0 27.7-22.6 50.3-50.3 50.3-5 0-9.9-.7-14.4-2.1-.3-2.3-.5-4.6-.5-7zm78.4 92.3c0 27.7-22.6 50.3-50.3 50.3s-50.3-22.6-50.3-50.3c0-22.3 14.6-41.3 34.7-47.8 10.2 8.7 23.4 13.9 37.8 13.9 4.6 0 9.1-.6 13.4-1.6 9.1 9 14.7 21.7 14.7 35.5zm-55.5-50.1c1.7-.2 3.4-.3 5.2-.3 10.1 0 19.5 3 27.4 8.2-1.7.2-3.4.3-5.2.3-10.1-.1-19.5-3.1-27.4-8.2zm43 5.6c-10.2-8.7-23.4-13.9-37.8-13.9-4.6 0-9.1.6-13.4 1.6-5.5-5.5-9.6-12.2-12.1-19.7 4 .9 8.1 1.3 12.4 1.3 32.2 0 58.3-26.2 58.3-58.3 0-1.2 0-2.4-.1-3.6 16.3 8.3 27.5 25.3 27.5 44.8-.1 22.3-14.7 41.3-34.8 47.8z"/></g></svg>