<svg id="Layer_1" enable-background="new 0 0 512 512" height="512" viewBox="0 0 512 512" width="512" xmlns="http://www.w3.org/2000/svg"><g clip-rule="evenodd" fill-rule="evenodd"><path d="m263.1 338.8c0-3.9-3.2-7.1-7.1-7.1s-7.1 3.2-7.1 7.1 3.2 7.1 7.1 7.1c4-.1 7.1-3.2 7.1-7.1z" fill="#fff"/><path d="m92.8 179.2c-7.1 0-12.8 5.7-12.8 12.8s5.7 12.8 12.8 12.8c7 0 12.8-5.7 12.8-12.8s-5.7-12.8-12.8-12.8z" fill="#fff"/><path d="m233.1 283.6h-11c-2.1 0-3.8 1.7-3.8 3.8s1.7 3.7 3.8 3.7h7.7 52.7 7.5c2.1 0 3.8-1.7 3.8-3.7 0-2.1-1.7-3.8-3.8-3.8h-11z" fill="#3e6276"/><path d="m232.8 299.1-8.6 32.3 27.9 51.7v-29.8c-6.4-1.8-11.1-7.6-11.1-14.5 0-8.3 6.8-15.1 15.1-15.1s15.1 6.8 15.1 15.1c0 6.9-4.7 12.7-11.1 14.5v29.8l27.9-51.7-8.6-32.3z" fill="#3e6276"/><path d="m309.8 200.6c0-29.7-24.1-53.8-53.8-53.8s-53.8 24.1-53.8 53.8c0 21.5 12.7 40.8 32.4 49.4 1.5.6 2.4 2.1 2.4 3.7v21.9h14.9v-39.5c-.6-.2-1.2-.5-1.7-1l-12.9-12.9c-1.6-1.6-1.6-4.1 0-5.7s4.1-1.6 5.7 0l9 9v-18.8c0-2.2 1.8-4 4-4s4 1.8 4 4v18.8l9-9c1.6-1.6 4.1-1.6 5.7 0s1.6 4.1 0 5.7l-12.9 12.9c-.5.5-1.1.8-1.7 1v39.5h14.9v-21.9c0-1.6.9-3 2.4-3.7 19.6-8.6 32.4-28 32.4-49.4z" fill="#fbca41"/><path d="m462.7 344.5c0 7 5.7 12.8 12.8 12.8 7 0 12.8-5.7 12.8-12.8s-5.7-12.8-12.8-12.8-12.8 5.7-12.8 12.8z" fill="#fff"/><path d="m191.5 158.6-4.8-2.7c-1.9-1.1-4.4-.4-5.5 1.5s-.4 4.4 1.5 5.5l4.8 2.7c.6.4 1.3.5 2 .5 1.4 0 2.7-.7 3.5-2 1-2 .4-4.4-1.5-5.5z"/><path d="m187.4 235.5-4.8 2.8c-1.9 1.1-2.6 3.5-1.5 5.5.7 1.3 2.1 2 3.5 2 .7 0 1.4-.2 2-.5l4.8-2.8c1.9-1.1 2.6-3.5 1.5-5.5-1.1-1.9-3.5-2.6-5.5-1.5z"/><path d="m317.8 200.6c0-34.1-27.7-61.8-61.8-61.8s-61.8 27.7-61.8 61.8c0 23.8 13.6 45.3 34.8 55.6v19.4h-7c-6.5 0-11.8 5.3-11.8 11.8s5.3 11.7 11.8 11.7h2.5l-8.5 31.7c-.3 1-.1 2 .3 2.9l36.2 67c.7 1.3 2 2.1 3.5 2.1s2.8-.8 3.5-2.1l36.2-67c.5-.9.6-1.9.3-2.9l-8.5-31.7h2.3c6.5 0 11.8-5.3 11.8-11.7 0-6.5-5.3-11.8-11.8-11.8h-7v-19.4c21.4-10.3 35-31.8 35-55.6zm-61.7 145.2c-3.9 0-7.1-3.2-7.1-7.1s3.2-7.1 7.1-7.1 7.1 3.2 7.1 7.1-3.2 7.1-7.1 7.1zm31.9-14.4-27.9 51.7v-29.8c6.4-1.8 11.1-7.6 11.1-14.5 0-8.3-6.8-15.1-15.1-15.1s-15.1 6.8-15.1 15.1c0 6.9 4.7 12.7 11.1 14.5v29.8l-27.9-51.7 8.6-32.3h46.5zm1.9-47.8c2.1 0 3.8 1.7 3.8 3.8s-1.7 3.7-3.8 3.7h-7.5-52.7-7.7c-2.1 0-3.8-1.7-3.8-3.7 0-2.1 1.7-3.8 3.8-3.8h11 45.9zm-12.6-33.6c-1.5.6-2.4 2.1-2.4 3.7v21.9h-14.9v-39.5c.6-.2 1.2-.5 1.7-1l12.9-12.9c1.6-1.6 1.6-4.1 0-5.7s-4.1-1.6-5.7 0l-9 9v-18.8c0-2.2-1.8-4-4-4s-4 1.8-4 4v18.8l-9-9c-1.6-1.6-4.1-1.6-5.7 0s-1.6 4.1 0 5.7l12.9 12.9c.5.5 1.1.8 1.7 1v39.5h-14.9v-21.9c0-1.6-.9-3-2.4-3.7-19.7-8.5-32.4-27.9-32.4-49.4 0-29.7 24.1-53.8 53.8-53.8s53.8 24.1 53.8 53.8c.1 21.4-12.7 40.8-32.4 49.4z"/><path d="m256 127.6c2.2 0 4-1.8 4-4v-5.5c0-2.2-1.8-4-4-4s-4 1.8-4 4v5.5c0 2.2 1.8 4 4 4z"/><path d="m328.9 200.6c0 2.2 1.8 4 4 4h5.5c2.2 0 4-1.8 4-4s-1.8-4-4-4h-5.4c-2.3 0-4.1 1.8-4.1 4z"/><path d="m292.4 137.4c.6.4 1.3.5 2 .5 1.4 0 2.7-.7 3.5-2l2.8-4.8c1.1-1.9.5-4.4-1.5-5.5-1.9-1.1-4.4-.5-5.5 1.5l-2.8 4.8c-1.1 1.9-.4 4.4 1.5 5.5z"/><path d="m322.5 166c.7 0 1.4-.2 2-.5l4.8-2.7c1.9-1.1 2.6-3.5 1.5-5.5-1.1-1.9-3.5-2.6-5.5-1.5l-4.8 2.7c-1.9 1.1-2.6 3.5-1.5 5.5.8 1.3 2.1 2 3.5 2z"/><path d="m214.1 135.9c.7 1.3 2.1 2 3.5 2 .7 0 1.4-.2 2-.5 1.9-1.1 2.6-3.6 1.5-5.5l-2.8-4.8c-1.1-1.9-3.6-2.6-5.5-1.5s-2.6 3.6-1.5 5.5z"/><path d="m183 200.6c0-2.2-1.8-4-4-4h-5.5c-2.2 0-4 1.8-4 4s1.8 4 4 4h5.5c2.3 0 4-1.8 4-4z"/><path d="m373.5 62.4c-29.8.9-61.7 6.7-94.3 16.9-28.7-18.2-58-32-86.6-40.6-58.5-17.8-106.8-11.4-136 17.9-29.2 29.2-35.6 77.6-17.9 136.1 3.6 12.1 8.2 24.3 13.7 36.5-20.3 24.9-35.2 50.3-43.9 74.8-12.5 35.4-11.4 67.6 3.2 93 19.7 34.1 61.5 52.6 118.3 52.6 2.8 0 5.6 0 8.5-.1 29.8-.9 61.7-6.7 94.2-16.9 28.7 18.2 58.1 32 86.7 40.7 21.7 6.6 42 9.8 60.4 9.8 31.3 0 57.2-9.3 75.7-27.7 21.2-21.2 30.5-52.7 26.9-91.4 8.1-2.8 13.9-10.5 13.9-19.6 0-11.5-9.3-20.8-20.8-20.8-.3 0-.6 0-.9 0-3.8-13.4-8.8-27-15-40.8 8.5-10.4 16.1-21.1 22.7-31.8 32.2-51.9 38.6-100.3 17.9-136.1-20.5-35.7-65.6-54.4-126.7-52.5zm-327.3 128c-16.8-55.6-11.1-101.1 16-128.2 41.4-41.4 124-30.5 207.1 20.3-29.9 10.1-60.3 23.9-89.8 40.9-26.6 15.4-51.5 32.8-74.1 51.9-3.5-2.7-7.9-4.3-12.6-4.3-11.5 0-20.8 9.3-20.8 20.8 0 4.2 1.3 8.1 3.4 11.4-6.1 6.3-11.9 12.6-17.4 19-4.6-10.6-8.5-21.3-11.8-31.8zm59.4 1.6c0 7.1-5.7 12.8-12.8 12.8s-12.8-5.7-12.8-12.8 5.7-12.8 12.8-12.8 12.8 5.7 12.8 12.8zm32.7 249.6c-58 1.8-100.5-15.4-119.7-48.5-13.4-23.3-14.3-53.1-2.6-86.3 8-22.7 21.6-46.2 40-69.4 20.7 43.6 52.3 87.5 91.8 126.9 24.1 24.1 49.8 45.2 76.2 62.8-29.6 8.6-58.6 13.6-85.7 14.5zm15.1-83c-39.8-39.8-71.5-84.2-91.8-128.1 6-7.2 12.4-14.3 19.3-21.4 3.4 2.3 7.4 3.7 11.8 3.7 11.5 0 20.8-9.3 20.8-20.8 0-3.8-1.1-7.4-2.9-10.5 22.1-18.7 46.5-35.9 72.8-51 31.5-18.2 63.6-32.3 94.6-42.3 27.4 17.7 54.6 39.6 80.5 65.3 39.4 39.4 71.4 84.3 91.8 128.2-31 37.1-73 71.8-121.8 100-31.1 18-63.1 32.2-94.7 42.3-27.7-18-55-40-80.4-65.4zm322.2-26.9c7 0 12.8 5.7 12.8 12.8 0 7-5.7 12.8-12.8 12.8s-12.8-5.7-12.8-12.8c-.1-7.1 5.6-12.8 12.8-12.8zm-8.8-6.1c-7.1 3.3-12.1 10.5-12.1 18.9 0 11.1 8.8 20.2 19.7 20.7 3.2 36-5.2 65.2-24.7 84.7-27 27-72.6 32.7-128.1 15.9-26-7.8-52.6-20.2-79-36.2 30-10.1 60.3-23.9 89.9-40.9 48.2-27.9 90.1-62 121.4-98.8 5.2 11.9 9.6 23.9 12.9 35.7zm8.8-78.8c-5.8 9.4-12.4 18.7-19.7 27.9-20.8-43.6-52.6-88-91.7-127-24.1-24.1-49.8-45.2-76.2-62.8 93.5-27.6 176-16.8 205.3 33.9 19.2 33.3 12.9 78.8-17.7 128z"/><path d="m330.9 243.7c1.1-1.9.4-4.4-1.5-5.5l-4.8-2.8c-1.9-1.1-4.4-.4-5.5 1.5s-.4 4.4 1.5 5.5l4.8 2.8c.6.4 1.3.5 2 .5 1.3 0 2.6-.7 3.5-2z"/></g></svg>