<svg id="Layer_1" enable-background="new 0 0 512 512" height="512" viewBox="0 0 512 512" width="512" xmlns="http://www.w3.org/2000/svg"><g><path d="m319.5 133.5c0 9.2-7.5 16.7-16.7 16.7h-9.5v42.3h46.2c2.2 0 4 1.8 4 4v13.5c0 4.8 3.9 8.7 8.7 8.7s8.7-3.9 8.7-8.7v-13.5c0-2.2 1.8-4 4-4h46.2c-2.1-64.2-53.8-115.9-117.9-118v42.2h9.5c9.3 0 16.8 7.5 16.8 16.8z" fill="#e63d7d"/><path d="m258.9 259.5c0-9.2 7.5-16.7 16.7-16.7h9.5v-42.2h-46.2c-2.2 0-4-1.8-4-4v-13.6c0-4.8-3.9-8.7-8.7-8.7s-8.7 3.9-8.7 8.7v13.5c0 2.2-1.8 4-4 4h-46.2c2.1 64.1 53.8 115.8 117.9 117.9v-42.2h-9.5c-9.2 0-16.8-7.5-16.8-16.7z" fill="#a0c76a"/><path d="m209.5 183c0-9.2 7.5-16.7 16.7-16.7s16.8 7.5 16.8 16.7v9.5h42.2v-46.3c0-2.2 1.8-4 4-4h13.5c4.8 0 8.7-3.9 8.7-8.7s-3.9-8.7-8.7-8.7h-13.5c-2.2 0-4-1.8-4-4v-46.3c-64.1 2.1-115.9 53.8-117.9 117.9h42.2z" fill="#7dc6ee"/><path d="m369 210c0 9.2-7.5 16.8-16.7 16.8s-16.8-7.5-16.8-16.8v-9.5h-42.2v46.2c0 2.2-1.8 4-4 4h-13.5c-4.8 0-8.7 3.9-8.7 8.7s3.9 8.7 8.7 8.7h13.5c2.2 0 4 1.8 4 4v46.2c64.1-2.1 115.8-53.8 117.9-117.9h-42.2z" fill="#fbca41"/><path d="m289.2 8c-94.3 0-174.7 70.4-186.9 163.8-.1.7-.4 1.3-.8 1.9l-64.5 85.8 65 17.4c1.8.5 3 2.1 3 3.9v121h91.5c2.2 0 4 1.8 4 4v98.2h181l-.5-140.7c0-1.4.8-2.8 2-3.5 58.3-33.6 94.5-96.2 94.5-163.4.1-103.8-84.4-188.4-188.3-188.4zm130 188.5c0 71.7-58.3 130-130 130s-130-58.3-130-130 58.3-130 130-130c71.7-.1 130 58.2 130 130 0-.1 0-.1 0 0z" fill="#fadbcc"/><path d="m289.2 0c-48 0-94.2 17.5-130.1 49.3-35.3 31.3-58.2 74-64.6 120.5l-67.4 89.7c-.8 1.1-1 2.5-.6 3.7.4 1.3 1.5 2.2 2.8 2.6l67.8 18.2v121.9c0 2.2 1.8 4 4 4h91.5v98.1c0 2.2 1.8 4 4 4h189c1.1 0 2.1-.4 2.8-1.2.8-.8 1.2-1.8 1.2-2.8l-.5-142.4c29.1-17.2 53.3-41.6 70.1-70.7 17.3-29.8 26.4-63.8 26.4-98.4.1-108.4-88.1-196.5-196.4-196.5zm94 359.8c-1.2.7-2 2-2 3.5l.5 140.7h-181v-98.2c0-2.2-1.8-4-4-4h-91.5v-121c0-1.8-1.2-3.4-3-3.9l-65-17.4 64.5-85.8c.4-.6.7-1.2.8-1.9 12.1-93.4 92.4-163.8 186.7-163.8 103.9 0 188.4 84.5 188.4 188.5 0 67.1-36.2 129.7-94.4 163.3z"/><path d="m419.2 196.4c0-71.7-58.3-130-130-130s-130 58.3-130 130 58.3 130 130 130c71.7.1 130-58.2 130-130 0 .1 0 .1 0 0zm-126-121.9c64.1 2.1 115.8 53.8 117.9 117.9h-46.2c-2.2 0-4 1.8-4 4v13.6c0 4.8-3.9 8.7-8.7 8.7s-8.7-3.9-8.7-8.7v-13.5c0-2.2-1.8-4-4-4h-46.2v-42.3h9.5c9.2 0 16.7-7.5 16.7-16.7s-7.5-16.7-16.7-16.7h-9.5v-42.3zm-8 0v46.2c0 2.2 1.8 4 4 4h13.5c4.8 0 8.7 3.9 8.7 8.7s-3.9 8.7-8.7 8.7h-13.5c-2.2 0-4 1.8-4 4v46.3h-42.2v-9.4c0-9.2-7.5-16.7-16.8-16.7-9.2 0-16.7 7.5-16.7 16.7v9.5h-42.2c2-64.1 53.8-115.9 117.9-118zm0 243.9c-64.1-2.1-115.9-53.8-117.9-117.9h46.2c2.2 0 4-1.8 4-4v-13.5c0-4.8 3.9-8.7 8.7-8.7s8.7 3.9 8.7 8.7v13.5c0 2.2 1.8 4 4 4h46.2v42.2h-9.5c-9.2 0-16.7 7.5-16.7 16.7s7.5 16.8 16.7 16.8h9.5v42.2zm8 0v-46.2c0-2.2-1.8-4-4-4h-13.5c-4.8 0-8.7-3.9-8.7-8.7s3.9-8.7 8.7-8.7h13.5c2.2 0 4-1.8 4-4v-46.2h42.2v9.5c0 9.2 7.5 16.8 16.8 16.8 9.2 0 16.7-7.5 16.7-16.8v-9.5h42.2c-2 64-53.8 115.7-117.9 117.8z"/></g></svg>