<svg id="Layer_1" enable-background="new 0 0 512 512" height="512" viewBox="0 0 512 512" width="512" xmlns="http://www.w3.org/2000/svg"><g clip-rule="evenodd" fill-rule="evenodd"><path d="m326.9 262.7v190.6h102.6v-275.1h-102.6z" fill="#a0c76a"/><path d="m373.2 107.9h9.9v62.3h-9.9z" fill="#3e6276"/><path d="m383.1 22.4h-108l17.4 37.6c.5 1.1.5 2.3 0 3.4l-17.3 36.4h108v-77.4z" fill="#7dc6ee"/><path d="m216.3 346.8v106.5h102.6v-186.6h-102.6z" fill="#fbca41"/><path d="m105.6 350.8h102.6v102.6h-102.6z" fill="#e63d7d"/><path d="m61.6 493.6v-485.8h-6.6v496.4h402v-6.6h-391.4c-2.3 0-4-1.8-4-4z" fill="#3e6276"/><path d="m322.9 170.2c-2.2 0-4 1.8-4 4v84.5h-106.6c-2.2 0-4 1.8-4 4v80.1h-106.6c-2.2 0-4 1.8-4 4v110.6c0 2.2 1.8 4 4 4h110.6 110.6 110.6c2.2 0 4-1.8 4-4v-283.2c0-2.2-1.8-4-4-4h-42.3v-66.3-85.5c0-2.2-1.8-4-4-4h-118.3c-1.4 0-2.6.7-3.4 1.8-.7 1.1-.8 2.6-.3 3.8l19.2 41.6-19.2 40.4c-.6 1.2-.5 2.7.2 3.9s2 1.9 3.4 1.9h96.4v62.3zm-114.6 283.1h-102.6v-102.5h102.6zm110.6 0h-102.6v-106.5-80.1h102.6zm-43.7-353.4 17.3-36.4c.5-1.1.5-2.3 0-3.4l-17.4-37.6h108.1v77.5h-108zm107.9 8v62.3h-9.9v-62.3zm46.4 70.3v275.1h-102.6v-190.6-84.5z"/><path d="m65.6-.2h-14.6c-2.2 0-4 1.8-4 4v504.4c0 2.2 1.8 4 4 4h410c2.2 0 4-1.8 4-4v-14.6c0-2.2-1.8-4-4-4h-391.4v-485.8c0-2.2-1.8-4-4-4zm391.4 497.8v6.6h-402v-496.4h6.6v485.7c0 2.2 1.8 4 4 4z"/></g></svg>