<svg id="Layer_1" enable-background="new 0 0 512 512" height="512" viewBox="0 0 512 512" width="512" xmlns="http://www.w3.org/2000/svg"><g clip-rule="evenodd" fill-rule="evenodd"><path d="m283.8 410.4v-15.8c0-.6.2-1.3.5-1.8l10.7-20.6-10.7-34.3-13.7-2.3c-.6-.1-1.1-.3-1.6-.7-.7 3.5-2.4 6.8-5 9.3-3.5 3.5-8.1 5.4-13 5.4-.8 0-1.6-.1-2.4-.2.3 3-.2 6-1.3 8.9l16.3 7c1.4.6 2.3 1.9 2.4 3.5l.8 14.7c.1 2.2-1.6 4.1-3.8 4.2-.1 0-.1 0-.2 0-2.1 0-3.9-1.6-4-3.8l-.7-12.2-15.6-6.7c-3.4 3-7.6 4.6-12.2 4.6-1.5 0-3-.2-4.4-.5v.1c0 4.9-1.9 9.5-5.4 13-3.6 3.6-8.3 5.4-13 5.4s-9.4-1.8-13-5.4l-19.6-19.6v14.4l12 33.5h97v-.1z" fill="#fadbcc"/><path d="m303.2 430.9c0-6.9-5.6-12.6-12.6-12.6h-109.5c-6.9 0-12.6 5.6-12.6 12.6 0 6.9 5.6 12.6 12.6 12.6h109.6c6.9 0 12.5-5.6 12.5-12.6z" fill="#fff"/><path d="m214.8 376.5c1.9-1.9 3-4.6 3-7.3s-1.1-5.4-3-7.3l-27.3-27.3c-1.9-1.9-4.6-3-7.3-3-2.8 0-5.4 1.1-7.3 3-4 4-4 10.6 0 14.7l.9.9 26.4 26.4c4 3.9 10.5 3.9 14.6-.1z" fill="#fadbcc"/><path d="m256.8 220.9c9.1 0 16.9-5.8 19.9-13.9h-39.8c2.9 8.1 10.7 13.9 19.9 13.9z" fill="#3e6276"/><path d="m233.1 149.5c1.5.6 2.4 2.1 2.4 3.7v24.6h17.3v-44.2c-.7-.1-1.5-.5-2-1.1l-14.2-14.2c-1.6-1.6-1.6-4.1 0-5.7s4.1-1.6 5.7 0l10.6 10.6v-21.7c0-2.2 1.8-4 4-4s4 1.8 4 4v21.7l10.6-10.6c1.6-1.6 4.1-1.6 5.7 0s1.6 4.1 0 5.7l-14.2 14.2c-.6.6-1.3.9-2 1.1v44.2h17v-24.6c0-1.6.9-3 2.4-3.7 21.8-9.5 36-30.9 36-54.7 0-32.9-26.7-59.6-59.6-59.6s-59.6 26.7-59.6 59.6c-.1 23.8 14 45.3 35.9 54.7z" fill="#fbca41"/><path d="m235.5 185.8h42.5v13.1h-42.5z" fill="#3e6276"/><path d="m195.5 331.1 24.9 24.9c.6.6 1.1 1.2 1.5 1.8.3.2.6.4.9.6 1.9 1.9 4.6 3 7.3 3s5.4-1.1 7.3-3c4-4 4-10.6 0-14.7l-27.3-27.3c-1.9-1.9-4.6-3-7.3-3-2.8 0-5.4 1.1-7.3 3s-3 4.6-3 7.3c0 2.9 1.1 5.5 3 7.4z" fill="#fadbcc"/><path d="m189.7 451.5h92.4v52.8h-92.4z" fill="#3e6276"/><path d="m216.2 311.2 27 27c.1.1.1.2.2.2l.1.1c1.9 1.9 4.6 3 7.3 3 2.8 0 5.4-1.1 7.3-3s3-4.6 3-7.3c0-2.8-1.1-5.4-3-7.3l-18.5-18.7-8.7-8.7c-1.9-1.9-4.6-3-7.3-3-2.8 0-5.4 1.1-7.3 3s-3 4.6-3 7.3c-.1 2.8 1 5.4 2.9 7.4z" fill="#fadbcc"/><path d="m267.2 322.6v-60.8c0-5.7-4.7-10.4-10.4-10.4s-10.4 4.7-10.4 10.4v38.8l17.5 17.5c1.4 1.4 2.5 2.9 3.3 4.5z" fill="#fadbcc"/><path d="m185.5 48.9-5.3-3c-1.9-1.1-4.4-.4-5.5 1.5s-.4 4.4 1.5 5.5l5.3 3c.6.4 1.3.5 2 .5 1.4 0 2.7-.7 3.5-2 1-1.9.4-4.4-1.5-5.5z"/><path d="m185.7 512.4h100.4c2.2 0 4-1.8 4-4v-56.8h.6c11.3 0 20.6-9.2 20.6-20.6 0-11-8.6-19.9-19.4-20.5v-14.9l11-21.2c.5-.9.6-2 .3-3l-12-38.2c-.4-1.4-1.7-2.5-3.1-2.7l-12.8-2.2v-66.3c0-10.1-8.2-18.4-18.4-18.4s-18.4 8.2-18.4 18.4v30.8l-1.8-1.8c-3.5-3.5-8.1-5.4-13-5.4s-9.5 1.9-13 5.4-5.4 8.1-5.4 13c0 .6 0 1.2.1 1.8-.8-.1-1.6-.2-2.4-.2-4.9 0-9.5 1.9-13 5.4s-5.4 8.1-5.4 13v.1c-1.4-.3-2.9-.5-4.4-.5-4.9 0-9.5 1.9-13 5.4-7.1 7.1-7.1 18.5-.3 25.7v23.1c0 .5.1.9.2 1.3l11.3 31.6c-10.1 1.3-17.9 9.9-17.9 20.4 0 11.3 9.2 20.6 20.6 20.6h.6v56.7c0 2.2 1.8 4 4 4zm96.4-8h-92.4v-52.8h92.4zm-35.7-242.6c0-5.7 4.7-10.4 10.4-10.4s10.4 4.7 10.4 10.4v60.8c-.8-1.6-1.9-3.1-3.3-4.4l-17.5-17.5zm-30.2 34.7c1.9-1.9 4.6-3 7.3-3 2.8 0 5.4 1.1 7.3 3l8.7 8.7 18.6 18.6c1.9 1.9 3 4.6 3 7.3 0 2.8-1.1 5.4-3 7.3s-4.6 3-7.3 3c-2.8 0-5.4-1.1-7.3-3l-.1-.1c-.1-.1-.1-.2-.2-.2l-27-27c-1.9-1.9-3-4.6-3-7.3 0-2.8 1.1-5.4 3-7.3zm-20.7 20c1.9-1.9 4.6-3 7.3-3 2.8 0 5.4 1.1 7.3 3l27.3 27.3c4 4 4 10.6 0 14.7-1.9 1.9-4.6 3-7.3 3s-5.4-1.1-7.3-3c-.3-.3-.6-.5-.9-.6-.5-.6-1-1.2-1.5-1.8l-24.9-24.9c-1.9-1.9-3-4.6-3-7.3 0-2.9 1.1-5.5 3-7.4zm-21.8 33.4-.9-.9c-4-4-4-10.6 0-14.7 1.9-1.9 4.6-3 7.3-3 2.8 0 5.4 1.1 7.3 3l27.3 27.3c1.9 1.9 3 4.6 3 7.3s-1.1 5.4-3 7.3c-4 4-10.6 4-14.7 0zm1.2 27v-14.4l19.6 19.6c3.6 3.6 8.3 5.4 13 5.4s9.4-1.8 13-5.4c3.5-3.5 5.4-8.1 5.4-13v-.1c1.4.3 2.9.5 4.4.5 4.5 0 8.8-1.6 12.2-4.6l15.6 6.7.7 12.2c.1 2.1 1.9 3.8 4 3.8h.2c2.2-.1 3.9-2 3.8-4.2l-.8-14.7c-.1-1.5-1-2.9-2.4-3.5l-16.3-7c1.2-2.8 1.6-5.9 1.3-8.9.8.1 1.6.2 2.4.2 4.9 0 9.5-1.9 13-5.4 2.6-2.6 4.3-5.8 5-9.3.5.3 1 .6 1.6.7l13.7 2.3 10.7 34.3-10.7 20.6c-.3.6-.5 1.2-.5 1.8v15.8h-97zm6.2 66.6c-6.9 0-12.6-5.6-12.6-12.6 0-6.9 5.6-12.6 12.6-12.6h109.6c6.9 0 12.6 5.6 12.6 12.6 0 6.9-5.6 12.6-12.6 12.6z"/><path d="m166 90.8c-2.2 0-4 1.8-4 4s1.8 4 4 4h6.1c2.2 0 4-1.8 4-4s-1.8-4-4-4z"/><path d="m181.5 133.6-5.3 3c-1.9 1.1-2.6 3.6-1.5 5.5.7 1.3 2.1 2 3.5 2 .7 0 1.4-.2 2-.5l5.3-3c1.9-1.1 2.6-3.6 1.5-5.5-1.2-1.9-3.6-2.6-5.5-1.5z"/><path d="m341.5 98.8h6.1c2.2 0 4-1.8 4-4s-1.8-4-4-4h-6.1c-2.2 0-4 1.8-4 4s1.8 4 4 4z"/><path d="m227.5 155.8v43.7c0 16.1 13.1 29.3 29.3 29.3 16.1 0 29.3-13.1 29.3-29.3v-43.7c23.4-11.2 38.4-34.9 38.4-61 0-37.3-30.3-67.6-67.6-67.6s-67.6 30.3-67.6 67.6c-.2 26.1 14.8 49.8 38.2 61zm29.3 65.1c-9.1 0-16.9-5.8-19.9-13.9h39.8c-2.9 8.1-10.7 13.9-19.9 13.9zm21.3-22h-42.5v-13.1h42.5zm-21.3-163.8c32.9 0 59.6 26.7 59.6 59.6 0 23.8-14.1 45.3-36 54.7-1.5.6-2.4 2.1-2.4 3.7v24.6h-17.3v-44.2c.7-.1 1.5-.5 2-1.1l14.2-14.2c1.6-1.6 1.6-4.1 0-5.7s-4.1-1.6-5.7 0l-10.6 10.6v-21.7c0-2.2-1.8-4-4-4s-4 1.8-4 4v21.7l-10.6-10.6c-1.6-1.6-4.1-1.6-5.7 0s-1.6 4.1 0 5.7l14.2 14.2c.6.6 1.3.9 2 1.1v44.2h-17.3v-24.6c0-1.6-.9-3-2.4-3.7-21.8-9.5-36-30.9-36-54.7.3-32.9 27.1-59.6 60-59.6z"/><path d="m333.4 45.9-5.3 3c-1.9 1.1-2.6 3.6-1.5 5.5.7 1.3 2.1 2 3.5 2 .7 0 1.4-.2 2-.5l5.3-3c1.9-1.1 2.6-3.6 1.5-5.5-1.1-2-3.6-2.6-5.5-1.5z"/><path d="m328.1 140.6 5.3 3c.6.4 1.3.5 2 .5 1.4 0 2.7-.7 3.5-2 1.1-1.9.4-4.4-1.5-5.5l-5.3-3c-1.9-1.1-4.4-.4-5.5 1.5-1 1.9-.4 4.4 1.5 5.5z"/><path d="m260.8 9.7v-6.1c0-2.2-1.8-4-4-4s-4 1.8-4 4v6.1c0 2.2 1.8 4 4 4s4-1.8 4-4z"/><path d="m299.2 25.1c1.4 0 2.7-.7 3.5-2l3-5.3c1.1-1.9.4-4.4-1.5-5.5s-4.4-.4-5.5 1.5l-3 5.3c-1.1 1.9-.4 4.4 1.5 5.5.6.4 1.3.5 2 .5z"/><path d="m214.4 25.1c.7 0 1.4-.2 2-.5 1.9-1.1 2.6-3.6 1.5-5.5l-3-5.3c-1.1-1.9-3.5-2.6-5.5-1.5-1.9 1.1-2.6 3.6-1.5 5.5l3 5.3c.8 1.3 2.2 2 3.5 2z"/></g></svg>