<svg id="Layer_1" enable-background="new 0 0 512 512" height="512" viewBox="0 0 512 512" width="512" xmlns="http://www.w3.org/2000/svg"><g clip-rule="evenodd" fill-rule="evenodd"><path d="m166.2 399.5c0-13.9 11.3-25.2 25.2-25.2h18.6v-75.9h-79.9c-2.2 0-4-1.8-4-4v-22.5c0-9.5-7.7-17.2-17.2-17.2-7.1 0-13.3 4.3-15.9 10.5-.9 2.1-1.4 4.3-1.4 6.7v22.5c0 2.2-1.8 4-4 4h-79.8c2.1 110.5 91.7 200 202.2 202.2v-75.8h-18.5c-14-.1-25.3-11.4-25.3-25.3z" fill="#a0c76a"/><path d="m218 378.3c0 2.2-1.8 4-4 4h-22.5c-9.5 0-17.2 7.7-17.2 17.2s7.7 17.2 17.2 17.2h22.5c2.2 0 4 1.8 4 4v79.8c110.5-2.1 199.9-91.7 202.1-202.1h-75.8v18.5c0 13.9-11.3 25.2-25.2 25.2s-25.2-11.3-25.2-25.2v-18.5h-76v79.9z" fill="#fbca41"/><path d="m83.7 271.9c0-13.9 11.3-25.2 25.2-25.2s25.2 11.3 25.2 25.2v18.5h75.9v-79.9c0-2.2 1.8-4 4-4h22.5c9.5 0 17.2-7.7 17.2-17.2s-7.7-17.2-17.2-17.2h-22.5c-2.2 0-4-1.8-4-4v-79.7c-110.5 2.1-200 91.6-202.2 202.1h75.8v-18.6z" fill="#7dc6ee"/><path d="m302 11.4v75.8h18.5c13.9 0 25.2 11.3 25.2 25.2s-11.3 25.2-25.2 25.2h-18.5v75.9h79.9c2.2 0 4 1.8 4 4v22.5c0 9.5 7.7 17.2 17.2 17.2s17.2-7.7 17.2-17.2v-22.5c0-2.2 1.8-4 4-4h79.8c-2.1-110.4-91.6-199.9-202.1-202.1z" fill="#e63d7d"/><path d="m62.6 445.8c40.4 40.4 94.3 62.7 151.4 62.7 57.2 0 111-22.3 151.4-62.7s62.7-94.3 62.7-151.4c0-2.2-1.8-4-4-4h-83.9c-2.2 0-4 1.8-4 4v22.5c0 9.5-7.7 17.2-17.2 17.2s-17.2-7.7-17.2-17.2v-22.5c0-2.2-1.8-4-4-4h-79.8v-75.9h18.5c13.9 0 25.2-11.3 25.2-25.2s-11.3-25.2-25.2-25.2h-18.5v-79.8c0-1.1-.4-2.1-1.2-2.8-.8-.8-1.8-1.2-2.8-1.2-57.2 0-111 22.3-151.4 62.7-40.5 40.4-62.8 94.3-62.8 151.4 0 57.3 22.3 111 62.8 151.4zm147.4 54.8c-110.5-2.1-200-91.6-202.2-202.2h79.8c2.2 0 4-1.8 4-4v-22.5c0-2.4.5-4.6 1.4-6.7 2.6-6.2 8.7-10.5 15.9-10.5 9.5 0 17.2 7.7 17.2 17.2v22.5c0 2.2 1.8 4 4 4h79.9v75.9h-18.5c-13.9 0-25.2 11.3-25.2 25.2 0 13.9 11.3 25.2 25.2 25.2h18.5zm83.8-202.2v18.5c0 13.9 11.3 25.2 25.2 25.2s25.2-11.3 25.2-25.2v-18.5h75.8c-2.1 110.5-91.6 199.9-202.1 202.1v-79.8c0-2.2-1.8-4-4-4h-22.5c-9.5 0-17.2-7.7-17.2-17.2s7.7-17.2 17.2-17.2h22.5c2.2 0 4-1.8 4-4v-79.9h76zm-83.8-210.1v79.7c0 2.2 1.8 4 4 4h22.5c9.5 0 17.2 7.7 17.2 17.2s-7.7 17.2-17.2 17.2h-22.5c-2.2 0-4 1.8-4 4v79.9h-75.9v-18.5c0-13.9-11.3-25.2-25.2-25.2s-25.2 11.3-25.2 25.2v18.5h-75.9c2.2-110.4 91.7-199.8 202.2-202z"/><path d="m298 3.4c-2.2 0-4 1.8-4 4v83.9c0 2.2 1.8 4 4 4h22.5c9.5 0 17.2 7.7 17.2 17.2s-7.7 17.2-17.2 17.2h-22.5c-2.2 0-4 1.8-4 4v83.9c0 2.2 1.8 4 4 4h79.9v18.5c0 13.9 11.3 25.2 25.2 25.2s25.2-11.3 25.2-25.2v-18.5h79.9c1.1 0 2.1-.4 2.8-1.2.8-.8 1.2-1.8 1.2-2.8 0-57.2-22.3-111-62.7-151.4-40.5-40.5-94.2-62.8-151.5-62.8zm126.3 210.2c-2.2 0-4 1.8-4 4v22.5c0 9.5-7.7 17.2-17.2 17.2s-17.2-7.7-17.2-17.2v-22.5c0-2.2-1.8-4-4-4h-79.9v-75.9h18.5c13.9 0 25.2-11.3 25.2-25.2s-11.3-25.2-25.2-25.2h-18.5v-75.8c110.5 2.1 199.9 91.6 202.1 202.1h-79.9z"/></g></svg>