<svg id="Layer_1" enable-background="new 0 0 512 512" height="512" viewBox="0 0 512 512" width="512" xmlns="http://www.w3.org/2000/svg"><g clip-rule="evenodd" fill-rule="evenodd"><path d="m215 297.9c-.1 0-.2 0-.3 0s-.2 0-.3 0h-19.5c-5.5 0-9.9 4.5-9.9 9.9s4.5 9.9 9.9 9.9h13.8 94.7 13.5c5.5 0 9.9-4.5 9.9-9.9s-4.5-9.9-9.9-9.9h-19.8z" fill="#3e6276"/><path d="m211.8 325.8-16.5 61.5 56.7 105.1v-68.6c-11.2-1.9-19.8-11.7-19.8-23.5 0-13.1 10.7-23.8 23.8-23.8s23.9 10.6 23.9 23.7c0 11.8-8.6 21.6-19.8 23.5v68.6l56.7-105.1-16.5-61.5h-88.6v.1z" fill="#3e6276"/><path d="m272 400.2c0-8.7-7.1-15.8-15.8-15.8s-15.8 7.1-15.8 15.8c0 8.8 7.1 15.9 15.8 15.9s15.8-7.1 15.8-15.9z" fill="#fff"/><path d="m260 95.3v67.5 127h33.2l-.2-39.7c0-2 1.4-3.6 3.3-4 12.6-2.2 23.2-11 27.4-22.5-.9.1-1.8.1-2.7.1-23.7 0-43-19.3-43-43 0-2.2 1.8-4 4-4s4 1.8 4 4c0 19.3 15.7 35 35 35s35-15.7 35-35c0-7.4-2.2-14.3-6.4-20.3-7.9 9.1-19.6 14.9-32.5 14.9-2.2 0-4-1.8-4-4s1.8-4 4-4c19.3 0 35-15.7 35-35 0-11.5-5.6-22.2-14.9-28.7-3.8 19.8-21.3 34.8-42.2 34.8-2.2 0-4-1.8-4-4s1.8-4 4-4c19.3 0 35-15.7 35-35s-15.7-35-35-35c-19.3-.1-35 15.6-35 34.9z" fill="#f6cadb"/><path d="m216.3 243.5c1.5.6 2.4 2.1 2.4 3.7v42.6h33.2v-94.8l-39.2-39.2c-1.6-1.6-1.6-4.1 0-5.7s4.1-1.6 5.7 0l33.5 33.5v-20.8-67.5c0-18.5 11.7-34.2 28.1-40.3-8.4-1.9-16.8-2.9-24.1-2.9-55 0-99.9 44.8-99.9 99.9.1 39.8 23.7 75.7 60.3 91.5z" fill="#fbca41"/><path d="m210.7 249.8v40h-15.8c-9.9 0-17.9 8-17.9 17.9s8 17.9 17.9 17.9h8.6l-16.3 61c-.3 1-.1 2 .3 2.9l65 120.4c.7 1.3 2 2.1 3.5 2.1s2.8-.8 3.5-2.1l65-120.4c.5-.9.6-1.9.3-2.9l-16.3-61h8.3c9.9 0 17.9-8 17.9-17.9s-8-17.9-17.9-17.9h-15.8l-.2-36.5c15.4-3.9 27.8-16 31.5-31.1 18.2-5 31.5-21.7 31.5-41.5 0-9.7-3.3-19.2-9.3-26.8-.1-.1-.2-.2-.3-.3 3.6-6.3 5.7-13.6 5.7-21.3 0-15.7-8.5-30-22.1-37.6-.4-21.6-16.7-39.3-37.6-41.9-14.6-5.4-31.2-8.6-44.4-8.6-59.4-.1-107.8 48.2-107.8 107.8.1 42.1 24.6 80.2 62.7 97.8zm45.5 166.3c-8.7 0-15.8-7.1-15.8-15.9 0-8.7 7.1-15.8 15.8-15.8s15.8 7.1 15.8 15.8c0 8.8-7.1 15.9-15.8 15.9zm60.7-28.8-56.7 105.1v-68.6c11.2-1.9 19.8-11.7 19.8-23.5 0-13.1-10.7-23.8-23.8-23.8s-23.8 10.7-23.8 23.8c0 11.8 8.6 21.6 19.8 23.5v68.6l-56.7-105.1 16.5-61.5h88.6zm.1-89.4c5.5 0 9.9 4.5 9.9 9.9s-4.5 9.9-9.9 9.9h-13.5-94.7-13.9c-5.5 0-9.9-4.5-9.9-9.9s4.5-9.9 9.9-9.9h19.5.3.3 82.2zm13.1-202.6c0 19.3-15.7 35-35 35-2.2 0-4 1.8-4 4s1.8 4 4 4c20.9 0 38.4-15 42.2-34.8 9.3 6.5 14.9 17.2 14.9 28.7 0 19.3-15.7 35-35 35-2.2 0-4 1.8-4 4s1.8 4 4 4c13 0 24.6-5.8 32.5-14.9 4.2 5.9 6.4 12.9 6.4 20.3 0 19.3-15.7 35-35 35s-35-15.7-35-35c0-2.2-1.8-4-4-4s-4 1.8-4 4c0 23.7 19.3 43 43 43 .9 0 1.8 0 2.7-.1-4.3 11.5-14.8 20.4-27.4 22.5-1.9.3-3.3 2-3.3 4l.2 39.7h-33.3v-127-67.4c0-19.3 15.7-35 35-35s35.1 15.7 35.1 35zm-74.2-43.2c7.3 0 15.6 1 24.1 2.9-16.4 6.1-28.1 21.9-28.1 40.3v67.5 20.8l-33.5-33.5c-1.6-1.6-4.1-1.6-5.7 0s-1.6 4.1 0 5.7l39.2 39.1v94.9h-33.2v-42.6c0-1.6-.9-3-2.4-3.7-36.6-15.8-60.2-51.8-60.2-91.7 0-55 44.8-99.7 99.8-99.7z"/><path d="m186.9 36.3c.7 0 1.4-.2 2-.5 1.9-1.1 2.6-3.5 1.5-5.5l-5-8.6c-1.1-1.9-3.5-2.6-5.5-1.5-1.9 1.1-2.6 3.5-1.5 5.5l5 8.6c.8 1.3 2.1 2 3.5 2z"/><path d="m260 13.8v-9.9c0-2.2-1.8-4-4-4s-4 1.8-4 4v9.9c0 2.2 1.8 4 4 4s4-1.7 4-4z"/><path d="m373.5 224.4 8.6 5c.6.4 1.3.5 2 .5 1.4 0 2.7-.7 3.5-2 1.1-1.9.4-4.4-1.5-5.5l-8.6-5c-1.9-1.1-4.4-.4-5.5 1.5-1 2-.4 4.4 1.5 5.5z"/><path d="m325 36.3c1.4 0 2.7-.7 3.5-2l5-8.6c1.1-1.9.4-4.4-1.5-5.5s-4.4-.4-5.5 1.5l-5 8.6c-1.1 1.9-.4 4.4 1.5 5.5.6.4 1.3.5 2 .5z"/><path d="m404.1 147.9h-9.9c-2.2 0-4 1.8-4 4s1.8 4 4 4h9.9c2.2 0 4-1.8 4-4s-1.8-4-4-4z"/><path d="m375.5 86.8c.7 0 1.4-.2 2-.5l8.6-5c1.9-1.1 2.6-3.5 1.5-5.5-1.1-1.9-3.5-2.6-5.5-1.5l-8.6 5c-1.9 1.1-2.6 3.5-1.5 5.5.8 1.3 2.1 2 3.5 2z"/><path d="m125.8 81.3 8.6 5c.6.4 1.3.5 2 .5 1.4 0 2.7-.7 3.5-2 1.1-1.9.4-4.4-1.5-5.5l-8.6-5c-1.9-1.1-4.4-.4-5.5 1.5-1.1 2-.4 4.4 1.5 5.5z"/><path d="m124.3 227.9c.7 1.3 2.1 2 3.5 2 .7 0 1.4-.2 2-.5l8.6-5c1.9-1.1 2.6-3.5 1.5-5.5-1.1-1.9-3.5-2.6-5.5-1.5l-8.6 5c-1.9 1.2-2.6 3.6-1.5 5.5z"/><path d="m117.9 155.9c2.2 0 4-1.8 4-4s-1.8-4-4-4h-9.9c-2.2 0-4 1.8-4 4s1.8 4 4 4z"/></g></svg>