<svg id="Layer_1" enable-background="new 0 0 512 512" height="512" viewBox="0 0 512 512" width="512" xmlns="http://www.w3.org/2000/svg"><g clip-rule="evenodd" fill-rule="evenodd"><path d="m470.6 377.7v15.2c4.4 1.6 7.5 5.8 7.5 10.8v7.8c0 4.9-3.1 9.1-7.5 10.8v4.1h33.6v-11.3c0-19.4-14.8-35.4-33.6-37.4z" fill="#fff"/><g fill="#3e6276"><path d="m428.8 452.2c0 20.7 16.9 37.6 37.6 37.6s37.6-16.9 37.6-37.6v-17.9h-75.4v17.9z"/><path d="m7.8 360.6c0 9.5 7.3 17.2 16.2 17.2h367.2c8.9 0 16.2-7.7 16.2-17.2v-17.8h-399.6zm196.2-4.3h7.4c2.2 0 4 1.8 4 4s-1.8 4-4 4h-7.4c-2.2 0-4-1.8-4-4s1.7-4 4-4z"/><path d="m130.9 465.6v24.2h153.3v-24.2c0-13.4-10.9-24.2-24.2-24.2h-104.8c-13.4 0-24.3 10.9-24.3 24.2z"/><path d="m181.5 385.8h52.1v47.6h-52.1z"/></g><path d="m32 119.3h33.5v192h-33.5z" fill="#fff"/><path d="m462.5 422.3c-4.4-1.6-7.5-5.8-7.5-10.8v-7.8c0-4.9 3.1-9.1 7.5-10.8v-15.2c-18.9 2-33.6 18-33.6 37.4v11.2h33.6z" fill="#fff"/><path d="m465.6 414.9c.3-.1.6-.1.9-.1s.6 0 .9.1c1.5-.4 2.6-1.7 2.6-3.4v-7.8c0-1.9-1.6-3.5-3.5-3.5s-3.5 1.6-3.5 3.5v7.8c0 1.6 1.1 3 2.6 3.4z" fill="#3e6276"/><path d="m114 112.9h102.5v79.8h-102.5z" fill="#7dc6ee"/><path d="m391.2 97.1h-41.5v14.1h34.2c4 0 7.3 3.3 7.3 7.3v193.4c0 4-3.3 7.3-7.3 7.3h-352.5c-4 0-7.3-3.3-7.3-7.3v-193.4c0-4 3.3-7.3 7.3-7.3h34.2v-14.1h-41.6c-8.9 0-16.2 7.7-16.2 17.2v220.5h399.6v-220.5c0-9.5-7.3-17.2-16.2-17.2z" fill="#3e6276"/><path d="m341.7 64h-116.3l-15.8 10.9h-136v236.5h268.1zm-78.9 44.9c0-2.2 1.8-4 4-4h45.9c2.2 0 4 1.8 4 4v28.6c0 2.2-1.8 4-4 4h-45.9c-2.2 0-4-1.8-4-4zm-1.3 59.1c0-2.2 1.8-4 4-4h45.9c2.2 0 4 1.8 4 4v28.6c0 2.2-1.8 4-4 4h-45.9c-2.2 0-4-1.8-4-4zm-155.5-59.1c0-2.2 1.8-4 4-4h110.5c2.2 0 4 1.8 4 4v87.8c0 2.2-1.8 4-4 4h-110.5c-2.2 0-4-1.8-4-4zm207.3 172.2h-204.5c-2.2 0-4-1.8-4-4s1.8-4 4-4h204.6c2.2 0 4 1.8 4 4s-1.9 4-4.1 4zm0-42.3h-204.5c-2.2 0-4-1.8-4-4s1.8-4 4-4h204.6c2.2 0 4 1.8 4 4s-1.9 4-4.1 4z" fill="#fff"/><path d="m269.5 172h37.9v20.6h-37.9z" fill="#a0c76a"/><path d="m270.8 112.9h37.9v20.6h-37.9z" fill="#fbca41"/><path d="m349.7 119.3h33.5v192h-33.5z" fill="#fff"/><path d="m222.9 56h118.8v-15.3c0-10.3-8.4-18.6-18.6-18.6h-230.9c-10.3 0-18.6 8.4-18.6 18.6v26.1h133.5zm-119.3-7.4h-7.4c-2.2 0-4-1.8-4-4s1.8-4 4-4h7.4c2.2 0 4 1.8 4 4s-1.8 4-4 4zm31.6 0h-7.4c-2.2 0-4-1.8-4-4s1.8-4 4-4h7.4c2.2 0 4 1.8 4 4s-1.8 4-4 4zm31.5 0h-7.4c-2.2 0-4-1.8-4-4s1.8-4 4-4h7.4c2.2 0 4 1.8 4 4s-1.8 4-4 4z" fill="#e63d7d"/><path d="m110 200.7h110.5c2.2 0 4-1.8 4-4v-87.8c0-2.2-1.8-4-4-4h-110.5c-2.2 0-4 1.8-4 4v87.8c0 2.2 1.8 4 4 4zm4-87.8h102.5v79.8h-102.5z"/><path d="m166.7 40.5h-7.4c-2.2 0-4 1.8-4 4s1.8 4 4 4h7.4c2.2 0 4-1.8 4-4s-1.8-4-4-4z"/><path d="m266.8 141.5h45.9c2.2 0 4-1.8 4-4v-28.6c0-2.2-1.8-4-4-4h-45.9c-2.2 0-4 1.8-4 4v28.6c0 2.2 1.8 4 4 4zm4-28.6h37.9v20.6h-37.9z"/><path d="m103.6 40.5h-7.4c-2.2 0-4 1.8-4 4s1.8 4 4 4h7.4c2.2 0 4-1.8 4-4s-1.8-4-4-4z"/><path d="m135.2 40.5h-7.4c-2.2 0-4 1.8-4 4s1.8 4 4 4h7.4c2.2 0 4-1.8 4-4s-1.8-4-4-4z"/><path d="m204 364.3h7.4c2.2 0 4-1.8 4-4s-1.8-4-4-4h-7.4c-2.2 0-4 1.8-4 4s1.7 4 4 4z"/><path d="m313.3 230.8h-204.5c-2.2 0-4 1.8-4 4s1.8 4 4 4h204.6c2.2 0 4-1.8 4-4s-1.9-4-4.1-4z"/><path d="m265.5 200.7h45.9c2.2 0 4-1.8 4-4v-28.7c0-2.2-1.8-4-4-4h-45.9c-2.2 0-4 1.8-4 4v28.6c0 2.3 1.8 4.1 4 4.1zm4-28.7h37.9v20.6h-37.9z"/><path d="m313.3 273.1h-204.5c-2.2 0-4 1.8-4 4s1.8 4 4 4h204.6c2.2 0 4-1.8 4-4s-1.9-4-4.1-4z"/><path d="m470.6 369.7v-94.3c0-17.4-14.1-31.5-31.5-31.5h-23.5v-129.6c0-13.9-10.9-25.2-24.2-25.2h-41.5v-48.4c0-14.7-11.9-26.6-26.6-26.6h-231c-14.7 0-26.6 11.9-26.6 26.6v48.3h-41.7c-13.3 0-24.2 11.3-24.2 25.2v246.3c0 13.9 10.9 25.2 24.2 25.2h149.5v47.6h-18.3c-17.8 0-32.2 14.5-32.2 32.2v28.2c0 2.2 1.8 4 4 4h161.3c2.2 0 4-1.8 4-4v-28.2c0-17.8-14.5-32.2-32.2-32.2h-18.3v-47.6h149.5c13.3 0 24.2-11.3 24.2-25.2v-108.6h23.5c13 0 23.5 10.6 23.5 23.5v94.3c-23.3 2-41.6 21.6-41.6 45.4v37.1c0 25.2 20.5 45.6 45.6 45.6s45.6-20.5 45.6-45.6v-37.1c.1-23.8-18.2-43.4-41.5-45.4zm-120.9-250.4h33.5v192h-33.5zm-276.1-78.6c0-10.3 8.4-18.6 18.6-18.6h230.8c10.3 0 18.6 8.4 18.6 18.6v15.3h-118.7l-15.8 10.9h-133.5zm0 34.2h136l15.8-10.8h116.3v247.3h-268.1zm186.4 366.5c13.4 0 24.2 10.9 24.2 24.2v24.2h-153.3v-24.2c0-13.4 10.9-24.2 24.2-24.2zm-78.5-8v-47.6h52.1v47.6zm225.9-72.8c0 9.5-7.3 17.2-16.2 17.2h-367.2c-8.9 0-16.2-7.7-16.2-17.2v-17.8h399.6zm0-25.8h-399.6v-220.5c0-9.5 7.3-17.2 16.2-17.2h41.5v14.1h-34.2c-4 0-7.3 3.3-7.3 7.3v193.4c0 4 3.3 7.3 7.3 7.3h352.5c4 0 7.3-3.3 7.3-7.3v-193.4c0-4-3.3-7.3-7.3-7.3h-34.2v-14.1h41.5c8.9 0 16.2 7.7 16.2 17.2v220.5zm-341.8-215.5v192h-33.5v-192zm397.4 284.4c0-1.9 1.6-3.5 3.5-3.5s3.5 1.6 3.5 3.5v7.8c0 1.6-1.1 3-2.6 3.4-.3-.1-.6-.1-.9-.1s-.6 0-.9.1c-1.5-.4-2.6-1.7-2.6-3.4zm-34.2 11.4c0-19.4 14.8-35.4 33.6-37.4v15.2c-4.4 1.6-7.5 5.8-7.5 10.8v7.8c0 4.9 3.1 9.1 7.5 10.8v4.1h-33.6zm75.4 37.1c0 20.7-16.9 37.6-37.6 37.6s-37.6-16.9-37.6-37.6v-17.9h75.3v17.9zm0-25.9h-33.6v-4.1c4.4-1.6 7.5-5.8 7.5-10.8v-7.8c0-4.9-3.1-9.1-7.5-10.8v-15.2c18.9 2 33.6 18 33.6 37.4z"/></g></svg>