<svg id="Layer_1" enable-background="new 0 0 512 512" height="512" viewBox="0 0 512 512" width="512" xmlns="http://www.w3.org/2000/svg"><g clip-rule="evenodd" fill-rule="evenodd"><path d="m418.6 217.8c-1.2 1.2-3.1 1.5-4.7.7-2.8-1.5-5.7-2.7-8.7-3.6-1.7-.5-2.8-2.1-2.8-3.8v-23.7h-27.9v23.7c0 1.7-1.1 3.3-2.8 3.8-3 .9-5.9 2.2-8.7 3.6-1.6.8-3.4.5-4.7-.7l-16.8-16.8-19.8 19.8 16.8 16.8c1.2 1.2 1.5 3.1.7 4.7-1.5 2.8-2.7 5.7-3.6 8.7-.5 1.7-2.1 2.8-3.8 2.8h-23.8v27.9h23.7c1.7 0 3.3 1.1 3.8 2.8 1 3 2.2 5.9 3.6 8.7.8 1.5.5 3.4-.7 4.7l-16.8 16.8 19.8 19.8 16.8-16.8c1.2-1.2 3.1-1.5 4.7-.7 2.8 1.5 5.7 2.7 8.7 3.6 1.7.5 2.8 2.1 2.8 3.8v23.6h27.9v-23.7c0-1.7 1.1-3.3 2.8-3.8 3-1 5.9-2.2 8.7-3.6 1.5-.8 3.4-.5 4.7.7l16.8 16.8 19.8-19.8-16.8-16.8c-1.2-1.2-1.5-3.1-.7-4.7 1.5-2.8 2.7-5.7 3.6-8.7.5-1.7 2.1-2.8 3.8-2.8h23.7v-27.9h-23.7c-1.7 0-3.3-1.1-3.8-2.8-1-3-2.2-5.9-3.6-8.7-.8-1.5-.5-3.4.7-4.7l16.8-16.8-19.8-19.8zm-30.2 92c-23.2 0-42-18.9-42-42s18.9-42 42-42 42 18.9 42 42-18.8 42-42 42z" fill="#3e6276"/><path d="m202.1 76.9v142.1h24.9l-.1-18.6c0-2 1.4-3.6 3.3-4 9.3-1.6 17.2-7.9 20.8-16.3-.3 0-.6 0-.9 0-19.4 0-35.1-15.8-35.1-35.1 0-2.2 1.8-4 4-4s4 1.8 4 4c0 15 12.2 27.1 27.1 27.1s27.1-12.2 27.1-27.1c0-5.4-1.5-10.4-4.4-14.8-6.4 7-15.6 11.4-25.9 11.4-2.2 0-4-1.8-4-4s1.8-4 4-4c15 0 27.1-12.2 27.1-27.1 0-8.5-4-16.4-10.6-21.5-3.6 15.6-17.6 27.2-34.2 27.2-2.2 0-4-1.8-4-4s1.8-4 4-4c15 0 27.1-12.2 27.1-27.1s-12.2-27.1-27.1-27.1c-14.9-.1-27.1 11.9-27.1 26.9z" fill="#f6cadb"/><ellipse cx="388.4" cy="267.7" fill="#fff" rx="34" ry="34" transform="matrix(.979 -.202 .202 .979 -46.059 83.948)"/><path d="m345.6 504.2c4 0 7.3-3.3 7.3-7.3v-99.4c0-3.3-2-6-5.2-7l-96.5-27.9-47.6 141.6z" fill="#3e6276"/><path d="m169.1 198.1v20.9h24.9v-62.2l-31-31c-1.6-1.6-1.6-4.1 0-5.7s4.1-1.6 5.7 0l25.4 25.4v-68.5c0-14.2 8.4-26.4 20.5-31.9-5.8-1.2-11.5-1.8-16.5-1.8-43.5 0-78.9 35.4-78.9 78.9 0 31.5 18.7 59.9 47.5 72.5 1.4.4 2.4 1.8 2.4 3.4z" fill="#fbca41"/><path d="m43.1 397.6v99.4c0 4 3.3 7.3 7.3 7.3h142l-47.6-141.5-96.5 27.9c-3 .8-5.2 3.6-5.2 6.9z" fill="#3e6276"/><path d="m243.5 360.5-.8-.2-42.4 30c-1.4 1-3.2 1-4.6 0l-42.4-30-.8.2 45.4 135.1z" fill="#fff"/><path d="m236.2 355.1c-7.7-12.1-10.7-23.8-9.1-35.1-8.5 3.4-17.8 5.2-27.4 5.2-.1 0-.3 0-.4 0-10.8-.1-21.1-2-30.5-5.7 1.8 11.4-1.2 23.3-9 35.5l38.2 27z" fill="#fadbcc"/><path d="m229.9 309.9c.1-.2.1-.3.2-.5l.4.2c5.3-2.9 10.2-6.5 14.6-10.8 13.1-13 20.3-31.7 20.3-52.7v-19.1h-34.4-65.7-.1-.2-34.4v19.1c0 48.8 34.5 71 68.7 71.2 11-.1 21.4-2.6 30.6-7.4z" fill="#fadbcc"/><path d="m298.3 59.5-6.9 4c-1.9 1.1-2.6 3.6-1.5 5.5.7 1.3 2.1 2 3.5 2 .7 0 1.4-.2 2-.5l6.9-4c1.9-1.1 2.6-3.6 1.5-5.5-1.1-2-3.6-2.6-5.5-1.5z"/><path d="m87.8 118h-7.9c-2.2 0-4 1.8-4 4s1.8 4 4 4h7.9c2.2 0 4-1.8 4-4s-1.8-4-4-4z"/><path d="m142.9 30.5c.7 0 1.4-.2 2-.5 1.9-1.1 2.6-3.6 1.5-5.5l-4-6.9c-1.1-1.9-3.5-2.6-5.5-1.5-1.9 1.1-2.6 3.6-1.5 5.5l4 6.9c.8 1.3 2.1 2 3.5 2z"/><path d="m46.2 382.9c-6.6 1.9-11 7.8-11 14.6v99.4c0 8.4 6.8 15.3 15.3 15.3h295.1c8.4 0 15.3-6.8 15.3-15.3v-99.4c0-6.8-4.4-12.7-11-14.6l-105.9-30.5c-8.9-13.2-11.4-25.3-7.6-36.8 5.2-3 10-6.7 14.3-11 14.6-14.5 22.7-35.3 22.7-58.3v-23.2c0-2.2-1.8-4-4-4h-34.5l-.1-15.4c12.1-3.3 21.9-12.9 25-24.8 14.6-4.3 25.3-17.8 25.3-33.7 0-7.8-2.7-15.5-7.5-21.7 2.8-5 4.4-10.8 4.4-16.9 0-12.6-6.7-24.2-17.7-30.5-.5-17.4-13.7-31.6-30.7-33.8-11.6-4.3-24.9-6.9-35.6-6.9-47.9 0-86.9 38.9-86.9 86.9 0 33.8 19.5 64.3 49.9 78.7v18h-34.5c-2.2 0-4 1.8-4 4v23.1c0 24 7.9 44.3 22.7 58.5 4.2 4.1 9 7.6 14.2 10.5 3.9 11.6 1.5 23.8-7.5 37.2zm205-20.2 96.5 27.9c3.2.9 5.2 3.7 5.2 7v99.4c0 4-3.3 7.3-7.3 7.3h-142zm5.1-285.8c0 15-12.2 27.1-27.1 27.1-2.2 0-4 1.8-4 4s1.8 4 4 4c16.6 0 30.6-11.6 34.2-27.2 6.6 5.1 10.6 13 10.6 21.5 0 15-12.2 27.1-27.1 27.1-2.2 0-4 1.8-4 4s1.8 4 4 4c10.2 0 19.4-4.4 25.9-11.4 2.9 4.4 4.4 9.5 4.4 14.8 0 15-12.2 27.1-27.1 27.1s-27.1-12.2-27.1-27.1c0-2.2-1.8-4-4-4s-4 1.8-4 4c0 19.4 15.8 35.1 35.1 35.1h.9c-3.6 8.4-11.5 14.7-20.8 16.3-1.9.3-3.3 2-3.3 4l.1 18.6h-24.9v-142c0-15 12.2-27.1 27.1-27.1 14.9.1 27.1 12.2 27.1 27.2zm-137.2 45.1c0-43.5 35.4-78.9 78.9-78.9 5 0 10.7.6 16.5 1.8-12.1 5.7-20.5 17.9-20.5 32v68.5l-25.5-25.4c-1.6-1.6-4.1-1.6-5.7 0s-1.6 4.1 0 5.7l31 31v62.3h-24.9v-20.9c0-1.6-.9-3-2.4-3.7-28.7-12.6-47.4-41-47.4-72.4zm11.5 124.1v-19.1h34.4.1.1 65.8 34.5v19.1c0 20.9-7.2 39.6-20.3 52.7-4.4 4.3-9.3 7.9-14.6 10.8l-.4-.2c-.1.2-.1.3-.2.5-9.2 4.8-19.7 7.3-30.6 7.3-34.3-.3-68.8-22.3-68.8-71.1zm38.2 73.4c9.3 3.7 19.6 5.6 30.5 5.7h.4c9.6 0 18.9-1.8 27.4-5.2-1.7 11.3 1.4 23 9.1 35.1l-38.2 27-38.2-27c7.8-12.3 10.8-24.2 9-35.6zm-15.5 40.8 42.4 30c1.4 1 3.2 1 4.6 0l42.4-30 .8.2-45.4 135.1-45.4-135.1zm-8.5 2.4 47.6 141.5h-142c-4 0-7.3-3.3-7.3-7.3v-99.4c0-3.3 2-6 5.2-7z"/><path d="m253.1 30.5c1.4 0 2.7-.7 3.5-2l4-6.9c1.1-1.9.4-4.4-1.5-5.5s-4.4-.4-5.5 1.5l-4 6.9c-1.1 1.9-.4 4.4 1.5 5.5.7.3 1.3.5 2 .5z"/><path d="m308.2 126h7.9c2.2 0 4-1.8 4-4s-1.8-4-4-4h-7.9c-2.2 0-4 1.8-4 4s1.8 4 4 4z"/><path d="m388.4 225.7c-23.2 0-42 18.9-42 42s18.9 42 42 42 42-18.9 42-42-18.8-42-42-42zm0 76.1c-18.8 0-34-15.3-34-34s15.3-34 34-34 34 15.3 34 34-15.2 34-34 34z"/><path d="m291.4 180.5 6.9 4c.6.4 1.3.5 2 .5 1.4 0 2.7-.7 3.5-2 1.1-1.9.4-4.4-1.5-5.5l-6.9-4c-1.9-1.1-4.4-.4-5.5 1.5-1 2-.4 4.4 1.5 5.5z"/><path d="m202.1 11.7v-7.9c0-2.2-1.8-4-4-4s-4 1.8-4 4v7.9c0 2.2 1.8 4 4 4s4-1.8 4-4z"/><path d="m100.6 173.6-6.9 4c-1.9 1.1-2.6 3.6-1.5 5.5.7 1.3 2.1 2 3.5 2 .7 0 1.4-.2 2-.5l6.9-4c1.9-1.1 2.6-3.6 1.5-5.5-1.2-2-3.6-2.6-5.5-1.5z"/><path d="m464.8 220.8c0-1.1-.4-2.1-1.2-2.8l-25.4-25.4c-.8-.8-1.8-1.2-2.8-1.2s-2.1.4-2.8 1.2l-17.6 17.6c-1.5-.7-3-1.3-4.6-1.9v-24.8c0-2.2-1.8-4-4-4h-35.9c-2.2 0-4 1.8-4 4v24.8c-1.5.6-3.1 1.2-4.6 1.9l-17.6-17.6c-1.6-1.6-4.1-1.6-5.7 0l-25.5 25.4c-1.6 1.6-1.6 4.1 0 5.7l17.6 17.6c-.7 1.5-1.3 3-1.9 4.6h-24.8c-2.2 0-4 1.8-4 4v35.9c0 2.2 1.8 4 4 4h24.8c.6 1.5 1.2 3.1 1.9 4.6l-17.6 17.6c-1.6 1.6-1.6 4.1 0 5.7l25.4 25.4c1.6 1.6 4.1 1.6 5.7 0l17.6-17.6c1.5.7 3 1.3 4.6 1.9v24.6c0 2.2 1.8 4 4 4h35.9c2.2 0 4-1.8 4-4v-24.8c1.5-.6 3.1-1.2 4.6-1.9l17.6 17.6c1.6 1.6 4.1 1.6 5.7 0l25.4-25.4c.8-.8 1.2-1.8 1.2-2.8s-.4-2.1-1.2-2.8l-17.6-17.6c.7-1.5 1.3-3 1.9-4.6h24.8c2.2 0 4-1.8 4-4v-35.9c0-2.2-1.8-4-4-4h-24.8c-.6-1.5-1.2-3.1-1.9-4.6l17.6-17.6c.8-.7 1.2-1.8 1.2-2.8zm-26.4 16.7c-1.2 1.2-1.5 3.1-.7 4.7 1.5 2.8 2.7 5.7 3.6 8.7.5 1.7 2.1 2.8 3.8 2.8h23.7v27.9h-23.7c-1.7 0-3.3 1.1-3.8 2.8-.9 3-2.2 5.9-3.6 8.7-.8 1.5-.5 3.4.7 4.7l16.8 16.8-19.8 19.8-16.8-16.8c-1.2-1.2-3.1-1.5-4.7-.7-2.8 1.5-5.7 2.7-8.7 3.6-1.7.5-2.8 2.1-2.8 3.8v23.7h-27.9v-23.7c0-1.7-1.1-3.3-2.8-3.8-3-.9-5.9-2.2-8.7-3.6-1.5-.8-3.4-.5-4.7.7l-16.8 16.8-19.8-19.8 16.8-16.8c1.2-1.2 1.5-3.1.7-4.7-1.5-2.8-2.7-5.7-3.6-8.7-.5-1.7-2.1-2.8-3.8-2.8h-23.8v-27.9h23.7c1.7 0 3.3-1.1 3.8-2.8.9-3 2.2-5.9 3.6-8.7.8-1.5.5-3.4-.7-4.7l-16.8-16.8 19.8-19.8 16.8 16.8c1.2 1.2 3.1 1.5 4.7.7 2.8-1.5 5.7-2.7 8.7-3.6 1.7-.5 2.8-2.1 2.8-3.8v-23.7h27.9v23.7c0 1.7 1.1 3.3 2.8 3.8 3 .9 5.9 2.2 8.7 3.6 1.5.8 3.4.5 4.7-.7l16.8-16.8 19.8 19.8z"/><path d="m104.6 63.4-6.9-4c-1.9-1.1-4.4-.4-5.5 1.5s-.4 4.4 1.5 5.5l6.9 4c.6.4 1.3.5 2 .5 1.4 0 2.7-.7 3.5-2 1-1.9.4-4.4-1.5-5.5z"/></g></svg>