<svg id="Layer_1" enable-background="new 0 0 512 512" height="512" viewBox="0 0 512 512" width="512" xmlns="http://www.w3.org/2000/svg"><g><path d="m216.3 435.8v1.4h79.5c0-.5 0-1 .1-1.4v-33.8h-79.6z" fill="#3e6276"/><path d="m250 469.5h12.1c15.3 0 28.3-10.3 32.4-24.3h-76.9c4.1 14 17.1 24.3 32.4 24.3z" fill="#3e6276"/><path d="m256.2 108c-57.7 2.2-110.6 38.4-206.5 103.9-8.4 5.7-17.2 11.8-26.4 18 9.2 6.2 18 12.2 26.4 18 63.8 43.6 107.3 73.3 146.2 89.6l-8.7-32.5c-.3-1-.2-2 .3-2.9l3.1-5.8c-17.7-17.4-27.8-41.5-27.8-66.4 0-51.4 41.9-93.3 93.3-93.3s93.3 41.8 93.3 93.3c0 25-10.2 49.1-28 66.6l3 5.6c.4.9.6 1.9.3 2.9l-8.7 32.7c38.8-16.2 82.3-45.8 146.2-89.5 8.5-5.8 17.4-11.9 26.9-18.3-9.1-6.2-17.9-12.2-26.4-18-95.9-65.6-148.8-101.7-206.5-103.9z" fill="#fff"/><path d="m259.8 199.6v68.7c11.2 1.9 19.8 11.7 19.8 23.5 0 13.1-10.7 23.8-23.8 23.8-13.2 0-23.9-10.7-23.9-23.8 0-11.8 8.6-21.6 19.9-23.5v-68.7l-56.7 105 10 37.3c.8.9 1.1 2 .9 3.2l5.6 21h88.4l16.5-61.5z" fill="#fbca41"/><path d="m208.5 374.2h-13.5c-5.4 0-9.9 4.4-9.9 9.9 0 5.4 4.4 9.9 9.9 9.9h19.9 82.4 19.7c5.4 0 9.9-4.4 9.9-9.9s-4.5-10-10-9.9h-13.8z" fill="#3e6276"/><path d="m341.5 230c0-47.1-38.3-85.4-85.4-85.4s-85.4 38.3-85.4 85.4c0 22 8.6 43.3 23.8 59.1l57.9-107.2c.7-1.3 2-2.1 3.5-2.1s2.8.8 3.5 2.1l58.1 107.4c15.3-15.9 24-37.2 24-59.3z" fill="#7dc6ee"/><path d="m240 291.7c0 8.7 7.1 15.8 15.9 15.8 8.7 0 15.8-7.1 15.8-15.8s-7.1-15.8-15.8-15.8c-8.8 0-15.9 7.1-15.9 15.8z" fill="#fff"/><path d="m157.5 92c.8 1.3 2.1 2 3.5 2 .7 0 1.4-.1 2-.5 2-1.1 2.6-3.6 1.5-5.5l-13-22.5c-1.1-2-3.6-2.6-5.5-1.5-2 1.1-2.6 3.6-1.5 5.5z"/><path d="m256 68.5c2.2 0 4-1.8 4-4v-26c0-2.2-1.8-4-4-4s-4 1.8-4 4v26c0 2.2 1.8 4 4 4z"/><path d="m349.1 93.5c.6.3 1.3.5 2 .5 1.4 0 2.8-.7 3.5-2l13-22.5c1.1-2 .5-4.4-1.5-5.5s-4.4-.4-5.5 1.5l-13 22.5c-1.1 1.9-.5 4.3 1.5 5.5z"/><path d="m498.3 226.7c-10.9-7.4-21.3-14.5-31.3-21.3-97.2-66.4-150.8-103-210.8-105.3-.1 0-.2 0-.3 0-60.1 2.3-113.6 38.8-210.8 105.3-9.9 6.8-20.3 13.9-31.3 21.3-1.1.7-1.8 2-1.8 3.3s.7 2.6 1.8 3.3c10.9 7.4 21.3 14.5 31.2 21.3 67.3 46 112.2 76.7 153.3 92.7l5.1 18.9h-8.4c-9.9 0-17.9 8-17.9 17.9s8 17.9 17.9 17.9h13.2v33.8c0 23 18.7 41.7 41.7 41.7h12.1c23 0 41.7-18.7 41.7-41.7v-33.8h13.2c9.9 0 17.9-8 17.9-17.9s-8-17.9-17.9-17.9h-8.6l5-18.7c41.2-16 86-46.6 153.3-92.6 10-6.8 20.5-14 31.6-21.5 1.1-.7 1.8-2 1.8-3.3s-.6-2.7-1.7-3.4zm-236.2 242.8h-12.1c-15.3 0-28.3-10.3-32.4-24.3h76.9c-4.1 14-17.1 24.3-32.4 24.3zm33.8-33.7c-.1.4-.1.9-.1 1.4h-79.5c0-.5 0-1 0-1.4v-33.8h79.6zm21-61.6c5.5-.1 10 4.4 10 9.9s-4.5 9.9-9.9 9.9h-19.7-82.4-19.9c-5.5 0-9.9-4.5-9.9-9.9 0-5.5 4.5-9.9 9.9-9.9h13.5 94.6zm-16.9-8.1h-88.4l-5.6-21c.2-1.2-.1-2.3-.9-3.2l-10-37.3 56.7-105v68.7c-11.3 1.9-19.9 11.7-19.9 23.5 0 13.1 10.7 23.8 23.9 23.8 13.1 0 23.8-10.7 23.8-23.8 0-11.8-8.6-21.6-19.8-23.5v-68.7l56.7 105zm-44.1-186.3c-1.5 0-2.8.8-3.5 2.1l-57.9 107.2c-15.2-15.8-23.8-37.1-23.8-59.1 0-47.1 38.3-85.4 85.4-85.4s85.4 38.3 85.4 85.4c0 22.1-8.7 43.4-24 59.3l-58.1-107.4c-.7-1.3-2-2.1-3.5-2.1zm15.8 111.9c0 8.7-7.1 15.8-15.8 15.8-8.8 0-15.9-7.1-15.9-15.8s7.1-15.8 15.9-15.8c8.7 0 15.8 7.1 15.8 15.8zm190.5-43.5c-63.9 43.7-107.4 73.3-146.2 89.5l8.7-32.7c.3-1 .1-2-.3-2.9l-3-5.6c17.8-17.5 28-41.6 28-66.6 0-51.5-41.9-93.3-93.3-93.3s-93.3 41.9-93.3 93.3c0 24.9 10.1 49 27.8 66.4l-3.1 5.8c-.5.9-.6 1.9-.3 2.9l8.7 32.5c-38.9-16.3-82.4-46-146.2-89.6-8.4-5.8-17.2-11.8-26.4-18 9.2-6.2 18-12.3 26.4-18 95.9-65.5 148.8-101.7 206.5-103.9 57.7 2.2 110.6 38.3 206.5 103.9 8.5 5.8 17.3 11.8 26.4 18-9.5 6.4-18.4 12.5-26.9 18.3z"/></g></svg>