<svg id="Layer_1" enable-background="new 0 0 512 512" height="512" viewBox="0 0 512 512" width="512" xmlns="http://www.w3.org/2000/svg"><g><path d="m261 267.5 19.7 9.9c2 1 2.7 3.4 1.8 5.4-1 2-3.4 2.7-5.4 1.8l-16.1-8.1v179.8c55.4-32 110.8-63.9 166.1-95.9l-17.8-9.1c-2-1-2.7-3.4-1.8-5.4 1-2 3.4-2.7 5.4-1.8l18.7 9.4v-192.7l-170.6 98.5zm107.9 59c1-2 3.4-2.7 5.4-1.8l22 11.1c2 1 2.7 3.4 1.8 5.4-1 2-3.4 2.7-5.4 1.8l-22-11.1c-2-1-2.7-3.4-1.8-5.4zm-38.5-19.5c1-2 3.4-2.7 5.4-1.8l22 11.1c2 1 2.7 3.4 1.8 5.4-1 2-3.4 2.7-5.4 1.8l-22-11.1c-2-1-2.7-3.4-1.8-5.4zm-38.6-19.5c1-2 3.4-2.8 5.4-1.8l22 11.1c2 1 2.7 3.4 1.8 5.4-1 2-3.4 2.8-5.4 1.8l-22-11.1c-2-1-2.7-3.4-1.8-5.4z" fill="#7dc6ee"/><path d="m261 250.1 166.6-96.2c-55.5-32.1-111.1-64.1-166.6-96.2v18.5c0 2.2-1.8 4-4 4s-4-1.8-4-4v-18.5c-55.5 32.1-111.1 64.1-166.6 96.2l83.3 48.1 83.3 48.1v-21.2c0-2.2 1.8-4 4-4s4 1.8 4 4zm-8-154.8c0-2.2 1.8-4 4-4s4 1.8 4 4v25.4c0 2.2-1.8 4-4 4s-4-1.8-4-4zm0 44.6c0-2.2 1.8-4 4-4s4 1.8 4 4v25.4c0 2.2-1.8 4-4 4s-4-1.8-4-4zm4 73.9c-2.2 0-4-1.8-4-4v-25.4c0-2.2 1.8-4 4-4s4 1.8 4 4v25.4c0 2.2-1.8 4-4 4z" fill="#a0c76a"/><path d="m82.4 160.7v192.7l18.4-9.3c2-1 4.4-.2 5.4 1.8s.2 4.4-1.8 5.4l-17.7 8.9c55.4 32 110.8 64 166.3 96v-179.9l-16.3 8.2c-2 1-4.4.2-5.4-1.8s-.2-4.4 1.8-5.4l19.9-10v-8.1l-87.3-50.4zm60.6 171.2-22 11.1c-2 1-4.4.2-5.4-1.8s-.2-4.4 1.8-5.4l22-11.1c2-1 4.4-.2 5.4 1.8s.2 4.4-1.8 5.4zm51.5-35 22-11.1c2-1 4.4-.2 5.4 1.8s.2 4.4-1.8 5.4l-22 11.1c-2 1-4.4.2-5.4-1.8s-.2-4.4 1.8-5.4zm-11.1 10.2c1 2 .2 4.4-1.8 5.4l-22 11.1c-2 1-4.4.2-5.4-1.8s-.2-4.4 1.8-5.4l22-11.1c2-1 4.4-.2 5.4 1.8z" fill="#e63d7d"/><path d="m332.2 312.4 22 11.1c2 .9 4.4.2 5.4-1.8.9-2 .2-4.4-1.8-5.4l-22-11.1c-2-.9-4.4-.2-5.4 1.8-.9 2-.2 4.4 1.8 5.4z"/><path d="m293.6 292.9 22 11.1c2 1 4.4.2 5.4-1.8.9-2 .2-4.4-1.8-5.4l-22-11.1c-2-1-4.4-.2-5.4 1.8-.9 2-.2 4.4 1.8 5.4z"/><path d="m370.7 331.9 22 11.1c2 .9 4.4.2 5.4-1.8.9-2 .2-4.4-1.8-5.4l-22-11.1c-2-.9-4.4-.2-5.4 1.8-.9 2-.2 4.4 1.8 5.4z"/><path d="m261 184.4c0-2.2-1.8-4-4-4s-4 1.8-4 4v25.4c0 2.2 1.8 4 4 4s4-1.8 4-4z"/><path d="m509 1h-93.3c-2.2 0-4 1.8-4 4s1.8 4 4 4h89.3v89.3c0 2.2 1.8 4 4 4s4-1.8 4-4v-93.3c0-2.2-1.8-4-4-4z"/><path d="m439.5 360.1v-206.2c0-1.3-.7-2.7-2-3.4-59.5-34.4-119-68.7-178.5-103.1-1.1-.7-2.7-.8-4 0-59.4 34.3-118.9 68.6-178.3 102.9-1.3.7-2.2 2-2.2 3.6v206.2c0 1.4.7 2.8 2 3.5 59.5 34.4 119 68.7 178.5 103.1 1.2.7 2.7.7 4 0 59.4-34.4 118.9-68.7 178.3-103 1.3-.7 2.2-2 2.2-3.6zm-186.5-92.8-19.9 10c-2 1-2.8 3.4-1.8 5.4s3.4 2.8 5.4 1.8l16.3-8.2v179.9c-55.5-32-110.9-64-166.3-96l17.7-8.9c2-1 2.8-3.4 1.8-5.4s-3.4-2.8-5.4-1.8l-18.4 9.3v-192.7l83.3 48.1 87.3 50.4zm4-42.4c-2.2 0-4 1.8-4 4v21.2l-83.3-48.1-83.3-48.1c55.5-32.1 111.1-64.1 166.6-96.2v18.5c0 2.2 1.8 4 4 4s4-1.8 4-4v-18.5c55.5 32.1 111.1 64.1 166.6 96.2l-166.6 96.2v-21.2c0-2.2-1.8-4-4-4zm174.6 128.6-18.7-9.4c-2-.9-4.4-.2-5.4 1.8-.9 2-.2 4.4 1.8 5.4l17.8 9.1c-55.3 32-110.7 63.9-166.1 95.9v-179.8l16.1 8.1c2 .9 4.4.2 5.4-1.8.9-2 .2-4.4-1.8-5.4l-19.7-9.9v-8.2l170.6-98.5z"/><path d="m509 411.7c-2.2 0-4 1.8-4 4v89.3h-89.3c-2.2 0-4 1.8-4 4s1.8 4 4 4h93.3c2.2 0 4-1.8 4-4v-93.3c0-2.2-1.8-4-4-4z"/><path d="m98.3 505h-89.3v-89.3c0-2.2-1.8-4-4-4s-4 1.8-4 4v93.3c0 2.2 1.8 4 4 4h93.3c2.2 0 4-1.8 4-4s-1.8-4-4-4z"/><path d="m139.4 324.7-22 11.1c-2 1-2.8 3.4-1.8 5.4s3.4 2.8 5.4 1.8l22-11.1c2-1 2.8-3.4 1.8-5.4s-3.4-2.8-5.4-1.8z"/><path d="m5 102.3c2.2 0 4-1.8 4-4v-89.3h89.3c2.2 0 4-1.8 4-4s-1.8-4-4-4h-93.3c-2.2 0-4 1.8-4 4v93.3c0 2.2 1.8 4 4 4z"/><path d="m257 169.3c2.2 0 4-1.8 4-4v-25.4c0-2.2-1.8-4-4-4s-4 1.8-4 4v25.4c0 2.2 1.8 4 4 4z"/><path d="m198.1 304.1 22-11.1c2-1 2.8-3.4 1.8-5.4s-3.4-2.8-5.4-1.8l-22 11.1c-2 1-2.8 3.4-1.8 5.4s3.4 2.8 5.4 1.8z"/><path d="m154.2 321.8c1 2 3.4 2.8 5.4 1.8l22-11.1c2-1 2.8-3.4 1.8-5.4s-3.4-2.8-5.4-1.8l-22 11.1c-2 1-2.8 3.4-1.8 5.4z"/><path d="m257 124.7c2.2 0 4-1.8 4-4v-25.4c0-2.2-1.8-4-4-4s-4 1.8-4 4v25.4c0 2.2 1.8 4 4 4z"/></g></svg>