<svg id="Layer_1" enable-background="new 0 0 512 512" height="512" viewBox="0 0 512 512" width="512" xmlns="http://www.w3.org/2000/svg"><g clip-rule="evenodd" fill-rule="evenodd"><path d="m128.1 339.2c-25.1 0-47.6-12-61.8-30.5-.1.2-.3.5-.4.7-10 12.5-15.2 27.6-15.2 43.6 0 38.6 31.4 70 70 70s70-31.4 70-70c0-2.2 1.8-4 4-4s4 1.8 4 4c0 43-35 78.1-78.1 78.1-3.3 0-6.6-.2-9.9-.6 1.4.6 2.3 2 2.3 3.6 0 38.6 31.4 70 70 70 22.4 0 43.5-10.8 56.7-28.9l.3-284.1c0-38.6-31.4-70-70-70s-70 31.4-70 70 31.4 70 70 70c2.2 0 4 1.8 4 4s-1.8 4-4 4c-39.8 0-72.8-29.9-77.5-68.5-21.4 12.6-34.5 35.5-34.5 60.4 0 38.6 31.4 70 70 70 2.2 0 4 1.8 4 4 .2 2.3-1.7 4.2-3.9 4.2z" fill="#f6cadb"/><path d="m305.3 504.2c38.6 0 70-31.4 70-70 0-1.6.9-3 2.3-3.6-3.2.4-6.5.6-9.9.6-43 0-78.1-35-78.1-78.1 0-2.2 1.8-4 4-4s4 1.8 4 4c0 38.6 31.4 70 70 70s70-31.4 70-70c0-16-5.3-31.1-15.2-43.6-.2-.2-.3-.4-.4-.7-14.3 18.5-36.7 30.5-61.8 30.5-2.2 0-4-1.8-4-4s1.8-4 4-4c38.6 0 70-31.4 70-70 0-16.6-5.8-32.3-16.3-44.9l-73.9 113.1c-.8 1.2-2 1.8-3.4 1.8-.5 0-1.1-.1-1.6-.3-1.8-.8-2.7-2.8-2.2-4.7l36-137.5h-77.1c-1.5 0-2.9-.8-3.6-2.2-.7-1.3-.6-2.9.3-4.2l42.9-59.9c-4.4-.9-8.9-1.3-13.5-1.3-38.6 0-70 31.4-70 70l-.3 283.1c13.5 18.8 34.9 29.9 57.8 29.9z" fill="#f6cadb"/><path d="m374.3 180.7c1.2 0 2.4.6 3.2 1.6s1 2.3.7 3.5l-31.1 118.6 111.1-170h-69.4c-1.2 0-2.4-.6-3.2-1.6s-1-2.3-.7-3.5l27.7-105.5-112.6 156.9z" fill="#fbca41"/><path d="m59.6 304.4c-11.1 13.9-17 30.7-17 48.6 0 38.9 28.6 71.3 65.8 77.2-1.9.3-3.3 2-3.3 3.9 0 43 35 78.1 78.1 78.1 23.8 0 46.2-10.9 61-29.4 14.8 18.5 37.2 29.4 61 29.4 43 0 78.1-35 78.1-78.1 0-2-1.4-3.6-3.3-3.9 37.2-5.9 65.8-38.2 65.8-77.2 0-17.8-5.9-34.6-17-48.6-.7-.9-1.6-1.4-2.7-1.5 7.7-12.1 12.2-26.4 12.2-41.7 0-19.3-7-37.5-19.7-51.8l50.1-76.9c.8-1.2.9-2.8.2-4.1s-2-2.1-3.5-2.1h-71.8l31.9-121.5c.5-1.9-.4-3.8-2.2-4.6-1.7-.8-3.8-.3-5 1.3l-81.7 113.9c-6-1.5-12.3-2.2-18.6-2.2-34.4 0-63.7 22.4-74.1 53.4-10.3-31-39.6-53.4-74.1-53.4-43 0-78.1 35-78.1 78.1v.9c-.3.1-.6.2-.9.4-25.3 13.6-41.1 40-41.1 68.7 0 15.3 4.5 29.7 12.1 41.7-.6.1-1.5.6-2.2 1.4zm352.7-280.7-27.7 105.5c-.3 1.2-.1 2.5.7 3.5s1.9 1.6 3.2 1.6h69.4l-111.1 170 31.2-118.6c.3-1.2.1-2.5-.7-3.5s-1.9-1.6-3.2-1.6h-74.5zm-164.1 167.5c0-38.6 31.4-70 70-70 4.5 0 9.1.4 13.5 1.3l-42.9 59.9c-.9 1.2-1 2.8-.3 4.2.7 1.3 2.1 2.2 3.6 2.2h77.1l-36 137.5c-.5 1.9.5 3.9 2.2 4.7.5.2 1.1.3 1.6.3 1.3 0 2.6-.7 3.4-1.8l73.9-113.1c10.5 12.6 16.3 28.3 16.3 44.9 0 38.6-31.4 70-70 70-2.2 0-4 1.8-4 4s1.8 4 4 4c25.2 0 47.5-12 61.8-30.5.1.2.3.5.4.7 10 12.5 15.2 27.6 15.2 43.6 0 38.6-31.4 70-70 70s-70-31.4-70-70c0-2.2-1.8-4-4-4s-4 1.8-4 4c0 43 35 78.1 78.1 78.1 3.3 0 6.6-.2 9.9-.6-1.4.6-2.3 2-2.3 3.6 0 38.6-31.4 70-70 70-22.8 0-44.2-11.1-57.3-29.8zm-120.1 140c-38.6 0-70-31.4-70-70 0-24.9 13.2-47.8 34.5-60.4 4.7 38.5 37.7 68.5 77.5 68.5 2.2 0 4-1.8 4-4s-1.8-4-4-4c-38.6 0-70-31.4-70-70s31.4-70 70-70 70 31.4 70 70l-.3 284.1c-13.2 18.1-34.3 28.9-56.7 28.9-38.6 0-70-31.4-70-70 0-1.6-.9-3-2.3-3.6 3.2.4 6.5.6 9.9.6 43 0 78.1-35 78.1-78.1 0-2.2-1.8-4-4-4s-4 1.8-4 4c0 38.6-31.4 70-70 70s-70-31.4-70-70c0-16 5.3-31.1 15.2-43.6.2-.2.3-.4.4-.7 14.3 18.5 36.7 30.5 61.8 30.5 2.2 0 4-1.8 4-4-.2-2.3-1.9-4.2-4.1-4.2z"/></g></svg>