<svg id="Layer_1" enable-background="new 0 0 512 512" height="512" viewBox="0 0 512 512" width="512" xmlns="http://www.w3.org/2000/svg"><g clip-rule="evenodd" fill-rule="evenodd"><path d="m433.3 317c0 92.3-75.1 167.3-167.3 167.3-91 0-165.2-73-167.3-163.3h-19.9c2.1 101.4 85.3 183.1 187.1 183.1 103.2 0 187.1-84 187.1-187.1 0-101.9-81.8-184.9-183.1-187v19.7c90.4 2.1 163.4 76.3 163.4 167.3z" fill="#e63d7d"/><path d="m377.7 317c0 61.6-50.2 111.9-111.9 111.9-60.3 0-109.7-48-111.8-107.9h-19.7c2.1 70.8 60.3 127.6 131.6 127.6 72.6 0 131.6-59 131.6-131.6 0-71.3-56.8-129.5-127.6-131.6v19.7c59.8 2.2 107.8 51.6 107.8 111.9z" fill="#a0c76a"/><path d="m74.5 209.2h23.9v103.8h-23.9z" fill="#e63d7d"/><path d="m405.5 317c0 77-62.6 139.6-139.6 139.6-75.7 0-137.5-60.4-139.6-135.6h-19.7c2.1 86.1 72.8 155.4 159.3 155.4 87.9 0 159.4-71.5 159.4-159.4 0-86.6-69.3-157.2-155.4-159.3v19.7c75.1 2.2 135.6 63.9 135.6 139.6z" fill="#fbca41"/><path d="m133.4 209.2h20.6v103.8h-20.6z" fill="#a0c76a"/><path d="m106.4 209.2h18.9v103.8h-18.9z" fill="#fbca41"/><path d="m162.1 321c2.1 55.4 47.8 99.9 103.8 99.9 57.2 0 103.9-46.6 103.9-103.9 0-55.9-44.4-101.7-99.9-103.8v19.7c44.5 2.1 80.1 39.1 80.1 84.1 0 46.4-37.7 84.2-84.2 84.2-45 0-82-35.6-84.1-80.2z" fill="#7dc6ee"/><path d="m58.9 192.6c0 4.8 3.9 8.6 8.6 8.6h123.7c4.8 0 8.6-3.9 8.6-8.6 0-4.8-3.9-8.6-8.6-8.6h-123.6c-4.8 0-8.7 3.9-8.7 8.6z" fill="#3e6276"/><path d="m130.5 41.3c3.8 0 6.9-3.1 6.9-6.9s-3.1-6.9-6.9-6.9-6.9 3.1-6.9 6.9c-.1 3.8 3.1 6.9 6.9 6.9z" fill="#fff"/><path d="m109 49.9v126.1h40.7v-123.7l.9-1.1c4-4.7 6.2-10.7 6.2-17 0-14.6-11.9-26.4-26.4-26.4-14.4 0-26.4 11.9-26.4 26.4 0 5.2 1.5 10.3 4.4 14.6zm21.5-30.5c8.2 0 14.9 6.7 14.9 14.9s-6.7 14.9-14.9 14.9-14.9-6.7-14.9-14.9c-.1-8.2 6.6-14.9 14.9-14.9z" fill="#3e6276"/><path d="m162 209.2h22.3v103.8h-22.3z" fill="#7dc6ee"/><path d="m67.6 176c-9.2 0-16.6 7.5-16.6 16.6 0 8.8 6.9 16 15.6 16.6v107.8c0 2.2 1.8 4 4 4h.2c2.1 105.8 88.9 191.1 195 191.1 107.6 0 195.2-87.5 195.2-195.1s-87.6-195.1-195.1-195.1c-2.2 0-4 1.8-4 4v111c0 2.2 1.8 4 4 4 42 0 76.2 34.1 76.2 76.2 0 42-34.1 76.2-76.2 76.2-40.7 0-74.2-32.1-76.1-72.5 1.5-.6 2.5-2 2.5-3.7v-107.9c8.7-.5 15.6-7.8 15.6-16.6 0-9.2-7.5-16.6-16.6-16.6h-33.4v-120.8c4.6-6 7.1-13.3 7.1-20.9 0-19-15.5-34.4-34.4-34.4s-34.4 15.5-34.4 34.4c0 6.4 1.8 12.6 5.1 18v123.7zm202.3-46c101.3 2.1 183.1 85.2 183.1 187 0 103.2-84 187.1-187.1 187.1-101.9 0-185-81.7-187.2-183.1h19.7c2.1 90.5 76.4 163.3 167.3 163.3 92.3 0 167.3-75.1 167.3-167.3 0-91-73-165.2-163.3-167.3zm-195.4 183v-103.8h23.9v103.8zm195.4-155.3c86.1 2.1 155.4 72.8 155.4 159.3 0 87.9-71.5 159.4-159.4 159.4-86.6 0-157.2-69.3-159.3-155.4h19.7c2.1 75.2 63.9 135.6 139.6 135.6 77 0 139.6-62.6 139.6-139.6 0-75.7-60.4-137.5-135.6-139.6zm-163.5 155.3v-103.8h18.9v103.8zm163.5-127.6c70.8 2.1 127.6 60.3 127.6 131.6 0 72.6-59 131.6-131.6 131.6-71.3 0-129.5-56.8-131.6-127.6h19.7c2.1 59.8 51.4 107.9 111.8 107.9 61.6 0 111.9-50.2 111.9-111.9 0-60.3-48-109.7-107.9-111.8zm-136.5 127.6v-103.8h20.6v103.8zm132.5 88.2c46.4 0 84.2-37.7 84.2-84.2 0-45-35.6-82-80.2-84.1v-19.7c55.4 2.1 99.9 47.8 99.9 103.8 0 57.2-46.6 103.9-103.9 103.9-55.9 0-101.7-44.4-103.8-99.9h19.7c2.1 44.5 39 80.2 84.1 80.2zm-103.9-88.2v-103.8h22.3v103.8zm-31.5-305.2c14.6 0 26.4 11.9 26.4 26.4 0 6.2-2.2 12.2-6.2 17l-.9 1.1v123.7h-40.7v-126.1l-.7-1c-2.9-4.3-4.4-9.4-4.4-14.6-.1-14.6 11.9-26.5 26.5-26.5zm60.7 176.2c4.8 0 8.6 3.9 8.6 8.6 0 4.8-3.9 8.6-8.6 8.6h-123.6c-4.8 0-8.6-3.9-8.6-8.6 0-4.8 3.9-8.6 8.6-8.6z"/><path d="m130.5 49.3c8.2 0 14.9-6.7 14.9-14.9s-6.7-14.9-14.9-14.9-14.9 6.7-14.9 14.9c-.1 8.2 6.6 14.9 14.9 14.9zm0-21.9c3.8 0 6.9 3.1 6.9 6.9s-3.1 6.9-6.9 6.9-6.9-3.1-6.9-6.9c-.1-3.8 3.1-6.9 6.9-6.9z"/></g></svg>