<svg id="Layer_1" enable-background="new 0 0 512 512" height="512" viewBox="0 0 512 512" width="512" xmlns="http://www.w3.org/2000/svg"><g clip-rule="evenodd" fill-rule="evenodd"><path d="m366.9 490.9 136-138.5h-136z" fill="#fff"/><path d="m143.1 378.8 127-34c.7-.2 1.5-.2 2.2 0l41.7 12.1c1.3.4 2.4 1.5 2.7 2.8.4 1.4 0 2.8-1 3.8l-30 31.3c-.5.5-1.1.9-1.9 1.1l-140.7 37.7v61.4h216c0-.1 0-.2 0-.3v-146.3c0-2.2 1.8-4 4-4h140c.4 0 .8.1 1.2.2v-327.6h-361.2zm337.2-54.4h-313.3c-2.2 0-4-1.8-4-4s1.8-4 4-4h313.2c2.2 0 4 1.8 4 4s-1.7 4-3.9 4zm0-27.9h-313.3c-2.2 0-4-1.8-4-4s1.8-4 4-4h313.2c2.2 0 4 1.8 4 4s-1.7 4-3.9 4zm0-28h-313.3c-2.2 0-4-1.8-4-4s1.8-4 4-4h313.2c2.2 0 4 1.8 4 4s-1.7 4-3.9 4zm0-27.9h-313.3c-2.2 0-4-1.8-4-4s1.8-4 4-4h313.2c2.2 0 4 1.8 4 4s-1.7 4-3.9 4zm0-27.9h-313.3c-2.2 0-4-1.8-4-4s1.8-4 4-4h313.2c2.2 0 4 1.8 4 4s-1.7 4-3.9 4zm0-28h-313.3c-2.2 0-4-1.8-4-4s1.8-4 4-4h313.2c2.2 0 4 1.8 4 4s-1.7 4-3.9 4zm-110.9-147.8h110.9c2.2 0 4 1.8 4 4s-1.8 4-4 4h-110.9c-2.2 0-4-1.8-4-4s1.8-4 4-4zm0 28h110.9c2.2 0 4 1.8 4 4s-1.8 4-4 4h-110.9c-2.2 0-4-1.8-4-4s1.8-4 4-4zm0 28h110.9c2.2 0 4 1.8 4 4s-1.8 4-4 4h-110.9c-2.2 0-4-1.8-4-4s1.8-4 4-4zm0 27.9h110.9c2.2 0 4 1.8 4 4s-1.8 4-4 4h-110.9c-2.2 0-4-1.8-4-4s1.8-4 4-4zm0 27.9h110.9c2.2 0 4 1.8 4 4s-1.8 4-4 4h-110.9c-2.2 0-4-1.8-4-4s1.8-4 4-4zm-206.4-107.8c0-2.2 1.8-4 4-4h174.4c2.2 0 4 1.8 4 4v107.2c0 2.2-1.8 4-4 4h-174.4c-2.2 0-4-1.8-4-4z" fill="#fff"/><path d="m171 45h166.4v99.2h-166.4z" fill="#e7f2fb"/><path d="m280.7 388.5 24.6-25.7-34.2-10-8.2 2.2 9.6 35.7z" fill="#3e6276"/><path d="m38 414.1h12.8v37h-12.8z" fill="#e74a78" transform="matrix(.966 -.259 .259 .966 -110.446 26.217)"/><path d="m255.2 357.1-201.6 54 9.6 35.7 201.6-54zm-69.5 41.8-59.5 16c-.3.1-.7.1-1 .1-1.8 0-3.4-1.2-3.9-3-.6-2.1.7-4.3 2.8-4.9l59.5-16c2.1-.6 4.3.7 4.9 2.8.6 2.3-.7 4.5-2.8 5z" fill="#a0c76a"/><path d="m16.3 421c-3 .8-5.5 3.3-7 7-1.6 4.1-1.8 9.2-.5 14.1 1.3 5 4 9.2 7.5 12 3.1 2.5 6.5 3.4 9.6 2.6l9.4-2.5-9.6-35.7z" fill="#3e6276"/><path d="m167 152.1h174.4c2.2 0 4-1.8 4-4v-107.2c0-2.2-1.8-4-4-4h-174.4c-2.2 0-4 1.8-4 4v107.2c0 2.2 1.8 4 4 4zm4-107.1h166.4v99.2h-166.4z"/><path d="m480.3 204.7h-313.3c-2.2 0-4 1.8-4 4s1.8 4 4 4h313.2c2.2 0 4-1.8 4-4s-1.7-4-3.9-4z"/><path d="m480.3 176.7h-313.3c-2.2 0-4 1.8-4 4s1.8 4 4 4h313.2c2.2 0 4-1.8 4-4s-1.7-4-3.9-4z"/><path d="m480.3 260.5h-313.3c-2.2 0-4 1.8-4 4s1.8 4 4 4h313.2c2.2 0 4-1.8 4-4s-1.7-4-3.9-4z"/><path d="m183.6 391.2-59.5 16c-2.1.6-3.4 2.8-2.8 4.9.5 1.8 2.1 3 3.9 3 .3 0 .7 0 1-.1l59.5-16c2.1-.6 3.4-2.8 2.8-4.9-.6-2.2-2.8-3.5-4.9-2.9z"/><path d="m369.4 100.9h110.9c2.2 0 4-1.8 4-4s-1.8-4-4-4h-110.9c-2.2 0-4 1.8-4 4s1.8 4 4 4z"/><path d="m480.3 232.6h-313.3c-2.2 0-4 1.8-4 4s1.8 4 4 4h313.2c2.2 0 4-1.8 4-4s-1.7-4-3.9-4z"/><path d="m369.4 156.7h110.9c2.2 0 4-1.8 4-4s-1.8-4-4-4h-110.9c-2.2 0-4 1.8-4 4s1.8 4 4 4z"/><path d="m369.4 45h110.9c2.2 0 4-1.8 4-4s-1.8-4-4-4h-110.9c-2.2 0-4 1.8-4 4 0 2.1 1.8 4 4 4z"/><path d="m480.3 316.4h-313.3c-2.2 0-4 1.8-4 4s1.8 4 4 4h313.2c2.2 0 4-1.8 4-4s-1.7-4-3.9-4z"/><path d="m369.4 72.9h110.9c2.2 0 4-1.8 4-4s-1.8-4-4-4h-110.9c-2.2 0-4 1.8-4 4s1.8 4 4 4z"/><path d="m369.4 128.8h110.9c2.2 0 4-1.8 4-4s-1.8-4-4-4h-110.9c-2.2 0-4 1.8-4 4s1.8 4 4 4z"/><path d="m480.3 288.5h-313.3c-2.2 0-4 1.8-4 4s1.8 4 4 4h313.2c2.2 0 4-1.8 4-4s-1.7-4-3.9-4z"/><path d="m508.2 9h-369.1c-2.2 0-4 1.8-4 4v367.9l-103.8 27.8-5.4-20.3 49.5-13.3c2.1-.6 3.4-2.8 2.8-4.9s-2.8-3.4-4.9-2.8l-53.4 14.3c-2.1.6-3.4 2.8-2.8 4.9l6.5 24.2-9.4 2.5c-5.5 1.5-9.9 5.7-12.4 11.8-2.3 5.7-2.5 12.5-.8 19.1 1.8 6.6 5.4 12.4 10.2 16.2 3.8 3.1 8.1 4.6 12.3 4.6 1.5 0 2.9-.2 4.3-.6l107.2-28.7v63.3c0 2.2 1.8 4 4 4h225.5c1.1 0 2.1-.4 2.9-1.2l143.6-146.4c.7-.7 1.1-1.8 1.1-2.8v-339.6c.1-2.2-1.7-4-3.9-4zm-482.4 447.8c-3 .8-6.4-.1-9.6-2.6-3.5-2.8-6.1-7-7.5-12-1.3-5-1.2-10 .5-14.1 1.5-3.7 4-6.2 7-7l9.4-2.5 9.6 35.7zm17.2-4.6-9.6-35.7 12.4-3.3 9.6 35.7zm20.1-5.4-9.6-35.7 201.6-54 9.6 35.7zm199.8-91.8 8.2-2.2 34.3 10-24.7 25.8-8.2 2.2zm104 135.9v-138.5h135.9zm137.3-146.3c-.4-.1-.8-.2-1.2-.2h-140.1c-2.2 0-4 1.8-4 4v146.4.3h-215.8v-61.3l140.7-37.8c.7-.2 1.3-.6 1.9-1.1l30-31.3c1-1 1.3-2.5 1-3.8-.4-1.4-1.4-2.4-2.7-2.8l-41.7-12.1c-.7-.2-1.4-.2-2.2 0l-127 34v-361.9h361.2v327.6z"/></g></svg>