<svg id="Layer_1" enable-background="new 0 0 512 512" height="512" viewBox="0 0 512 512" width="512" xmlns="http://www.w3.org/2000/svg"><g clip-rule="evenodd" fill-rule="evenodd"><path d="m157.8 311.4-17.1-29.6-53.1 30.7c4.8-.7 9.7-1.1 14.7-1.1z" fill="#fff"/><path d="m41.5 330.7c3.2-2.4 6.7-4.7 10.2-6.8l48.2-27.8-29-16.7z" fill="#fff"/><path d="m333.2 311.4-60.9-105.6-59 33.9 41.4 71.7z" fill="#f7b447"/><path d="m420.9 311.4-82.9-143.6-58.8 34 63.2 109.6z" fill="#f8bd43"/><path d="m192.6 51.1v-15.4c0-15.3-12.4-27.7-27.7-27.7h-129.3c-7.4 0-14.4 2.9-19.7 8.2-5.2 5.2-8 12.2-8 19.5l.2 40.2h170.3z" fill="#80cef3"/><path d="m245.4 311.4-39-67.7-58.8 34.1 19.4 33.6z" fill="#f29a4e"/><path d="m335.7 159.9 25-14.4 7.6-13.2c7.6-13.2 3.1-30.2-10.1-37.9l-112-64.7c-6.5-3.7-14-4.7-21.2-2.7-7.1 2-13.1 6.5-16.7 12.9l-20 34.9z" fill="#70b150"/><path d="m112.7 206.5 71.1 41 67.9-39.2-105.2-60.7z" fill="#518c4e"/><path d="m74.9 272.4 33 19.1 67.9-39.4-67.1-38.7z" fill="#337646"/><path d="m173.8 83.9h-165.7l.4 68h126.3z" fill="#6dbbe9"/><path d="m327.7 164.5-143.4-82.8-33.8 58.9 109.3 63.1z" fill="#6da74d"/><path d="m284.3 319.4h67.9v184.7h-67.9z" fill="#e63677"/><path d="m360.2 319.4h67.9v184.7h-67.9z" fill="#e74a78"/><path d="m472.1 303.8c13.2-7.6 17.8-24.6 10.1-37.9l-64.7-112c-3.7-6.4-9.7-11-16.8-12.9-7.2-1.9-14.6-.9-21 2.7l-34.8 20.1 85.2 147.5h28.9z" fill="#fbca41"/><path d="m208.3 319.4h67.9v184.7h-67.9z" fill="#dd3073"/><path d="m476.3 319.4h-40.2v184.7h40.2c15.3 0 27.7-12.4 27.7-27.7v-129.3c0-15.3-12.4-27.7-27.7-27.7z" fill="#ec798e"/><path d="m14.9 360.9 28.2-49.1h-33.8l.3 59.9c1.6-3.7 3.3-7.3 5.3-10.8z" fill="#fff"/><path d="m86.7 235.8h-77.8l.4 68h38.4z" fill="#399ad6"/><path d="m130.2 159.8h-121.7l.4 68h82.4z" fill="#47a4dc"/><path d="m9.8 411.8c0 6.6.7 13.1 2 19.3.3 1.1 1.1 4.3 1.1 4.4 10.5 39.5 46.5 68.6 89.3 68.6h98.1v-184.7h-98.1c-51 0-92.4 41.4-92.4 92.4zm126.8 0c0 20-16.3 36.3-36.3 36.3s-36.3-16.3-36.3-36.3 16.3-36.3 36.3-36.3c20-.1 36.3 16.2 36.3 36.3z" fill="#fff"/><path d="m71.9 411.8c0 15.6 12.7 28.3 28.3 28.3s28.3-12.7 28.3-28.3-12.7-28.3-28.3-28.3c-15.6-.1-28.3 12.6-28.3 28.3z" fill="#fff"/><path d="m476.3 311.4h-1.3l1.2-.7c17-9.9 22.9-31.7 13.1-48.8l-64.7-112c-4.8-8.2-12.5-14.1-21.7-16.6s-18.9-1.2-27.1 3.5l-1.2.7.7-1.2c9.8-17 4-38.9-13.1-48.8l-112-64.7c-8.2-4.8-17.9-6-27.1-3.5s-16.9 8.4-21.6 16.6l-.7 1.2v-1.4c-.2-19.7-16.2-35.7-35.9-35.7h-129.3c-9.6 0-18.5 3.8-25.3 10.6-6.8 6.7-10.4 15.7-10.4 25.1l1.9 369.8c-.5 8.5.2 17.2 2 25.8 0 .2.2 1.1.3 1.3 9.7 45.3 50 79.3 98.2 79.3h374c19.7 0 35.7-16 35.7-35.7v-129.1c0-19.7-16-35.7-35.7-35.7zm-268-271.5c3.6-6.4 9.6-10.9 16.7-12.9 7.2-1.9 14.7-1 21.1 2.7l112 64.7c13.2 7.6 17.8 24.6 10.1 37.9l-7.6 13.2-25 14.4-147.4-85.1zm43.4 168.4-67.9 39.2-71.1-41.1 33.8-58.9zm-101.2-67.7 33.8-58.9 143.4 82.8-67.9 39.2zm25.3 111.5-67.9 39.3-33-19 33.8-58.9zm-75.9 44-48.2 27.8c-3.6 2.1-7 4.3-10.2 6.8l29.4-51.3zm40.8-14.3 17.1 29.6h-55.6c-5 0-9.9.4-14.7 1.1zm6.9-4 58.8-34 39 67.6h-78.4zm65.7-38.1 58.8-34 60.9 105.5h-78.4zm65.9-37.9 58.8-34 82.9 143.5h-78.4zm-271.3-166.1c0-7.3 2.8-14.2 8-19.5 5.3-5.3 12.3-8.2 19.7-8.2h129.3c15.3 0 27.7 12.4 27.7 27.7v15.4l-14.3 24.8h-170.2zm.2 48.2h165.6l-39 67.9h-126.2zm.4 75.9h121.7l-39 67.9h-82.3zm.4 76h77.8l-39 67.9h-38.4zm.4 76h33.8l-28.2 49.1c-2 3.5-3.8 7.1-5.3 10.8zm191 192.3h-98.1c-42.7 0-78.8-29.2-89.3-68.6 0-.1-.8-3.3-1.1-4.4-1.3-6.2-2-12.7-2-19.3 0-50.9 41.4-92.4 92.4-92.4h98.1zm76 0h-67.9v-184.7h67.9zm75.9 0h-67.9v-184.7h67.9zm75.9 0h-67.9v-184.7h67.9zm-83.2-340.3 34.8-20.1c6.4-3.7 13.8-4.7 21-2.7 7.2 1.9 13.1 6.5 16.8 12.9l64.7 112c7.6 13.2 3.1 30.2-10.1 37.9l-13.2 7.6h-28.9zm159.1 312.6c0 15.3-12.4 27.7-27.7 27.7h-40.2v-184.7h40.2c15.3 0 27.7 12.4 27.7 27.7z"/><path d="m63.9 411.8c0 20 16.3 36.3 36.3 36.3s36.3-16.3 36.3-36.3-16.3-36.3-36.3-36.3c-20-.1-36.3 16.2-36.3 36.3zm64.7 0c0 15.6-12.7 28.3-28.3 28.3-15.7 0-28.4-12.7-28.4-28.3s12.7-28.3 28.3-28.3c15.7-.1 28.4 12.6 28.4 28.3z"/></g></svg>