<svg id="Layer_1" enable-background="new 0 0 512 512" height="512" viewBox="0 0 512 512" width="512" xmlns="http://www.w3.org/2000/svg"><g clip-rule="evenodd" fill-rule="evenodd"><path d="m329.5 251.1c-16.7 0-17.7-21.8-19.2-54.7-1.4-31.2-3.4-73.3-17.9-118.9h-73.3c-6.5 20.4-10.5 40-13 58.3 0 .2 0 .3-.1.5-3.1 22.5-4 42.9-4.8 60.1-1.5 32.9-2.5 54.7-19.2 54.7h-19.8l-12.8 73.2h212.9l-12.8-73.2zm-73.7-68.9c-13.9 0-25.3-11.3-25.3-25.3 0-13.9 11.3-25.3 25.3-25.3 13.9 0 25.3 11.3 25.3 25.3s-11.3 25.3-25.3 25.3z" fill="#fff"/><path d="m314.6 144.2c2.2 19.2 3 36.8 3.7 51.8.7 15.6 1.3 28 3.2 36.4 2.4 10.6 6.1 10.6 8 10.6h23.2c1.9 0 3.6 1.4 3.9 3.3l3.1 17.9 67.8-1-38-63.4z" fill="#fff"/><path d="m239.1 332.3c-1.5 21.6 4 39.3 16.8 54 12.8-14.6 18.3-32.4 16.8-54z" fill="#fbca41"/><ellipse cx="255.8" cy="157" fill="#3e6276" rx="17.3" ry="17.3" transform="matrix(.383 -.924 .924 .383 12.822 333.249)"/><path d="m265.7 386.7c-2.1 2.9-4.5 5.6-7 8.2-.8.8-1.8 1.2-2.9 1.2s-2.1-.4-2.9-1.2c-2.6-2.6-4.9-5.4-7-8.2-13.1 2.8-24.4 11-31.1 22.7-.9 1.6-2.8 2.3-4.5 1.9-4.1-1.1-8.3-1.7-12.6-1.7-26.1 0-47.3 21.2-47.3 47.3s21.2 47.3 47.3 47.3c16.9 0 32.6-9.1 41-23.7.9-1.6 2.8-2.3 4.5-1.9 8.2 2.3 17.1 2.3 25.3 0 1.8-.5 3.6.3 4.5 1.9 8.4 14.6 24.1 23.7 41 23.7 26.1 0 47.3-21.2 47.3-47.3s-21.2-47.3-47.3-47.3c-4.3 0-8.5.6-12.6 1.7-1.8.5-3.6-.3-4.5-1.9-6.6-11.5-17.8-19.7-30.7-22.6-.2 0-.3-.1-.5-.1z" fill="#fff"/><path d="m154.9 246.4c.3-1.9 2-3.3 3.9-3.3h23.2c2 0 5.6 0 8-10.6 1.9-8.5 2.5-20.8 3.2-36.4.7-15 1.5-32.5 3.7-51.7l-74.9 55.5-38 63.4 67.6 1z" fill="#fff"/><path d="m262.3 11.4c-1.4-2.3-3.7-3.6-6.5-3.6s-5 1.3-6.5 3.6c-12 19.5-20.8 39-27.4 58h67.8c-6.6-18.8-15.4-38.4-27.4-58z" fill="#e63d7d"/><path d="m438.2 269.1c.7-1.3.7-2.8-.1-4l-42-70c-.3-.5-.6-.8-1-1.2l-81.9-60.6c-5.4-38-17-81.8-44-125.9-2.9-4.7-7.7-7.5-13.3-7.5s-10.4 2.7-13.3 7.5c-27.1 44.2-38.6 88-44 126l-81.7 60.5c-.4.3-.8.7-1 1.2l-42 70c-.7 1.2-.8 2.8-.1 4 .7 1.3 2 2 3.4 2.1l73.4 1.1-9.7 55.2c-.2 1.2.1 2.4.9 3.3s1.9 1.4 3.1 1.4h86.4c-1.1 17.9 2.3 33.7 10.2 47.3-13 3.6-24.4 11.8-31.8 23.2-3.9-.8-7.8-1.3-11.8-1.3-30.5 0-55.3 24.8-55.3 55.3s24.8 55.3 55.3 55.3c18.7 0 36.2-9.5 46.3-25.1 7.7 1.7 15.9 1.7 23.6 0 10.2 15.6 27.6 25.1 46.3 25.1 30.5 0 55.3-24.8 55.3-55.3s-24.8-55.3-55.3-55.3c-4 0-8 .4-11.8 1.3-7.4-11.3-18.8-19.6-31.8-23.2 7.9-13.6 11.4-29.5 10.2-47.3h86.3c1.2 0 2.3-.5 3.1-1.4s1.1-2.1.9-3.3l-9.7-55.2 73.5-1.1c1.3-.1 2.7-.8 3.4-2.1zm-188.9-257.7c1.4-2.3 3.7-3.6 6.5-3.6s5 1.3 6.5 3.6c12 19.5 20.8 39 27.4 58h-67.8c6.6-18.8 15.5-38.4 27.4-58zm-165.2 251.9 38-63.4 74.9-55.5c-2.2 19.2-3 36.7-3.7 51.7-.7 15.6-1.3 28-3.2 36.4-2.4 10.6-6.1 10.6-8 10.6h-23.2c-1.9 0-3.6 1.4-3.9 3.3l-3.1 17.9zm212.7 146.1c.9 1.6 2.8 2.3 4.5 1.9 4.1-1.1 8.3-1.7 12.6-1.7 26.1 0 47.3 21.2 47.3 47.3s-21.2 47.3-47.3 47.3c-16.9 0-32.6-9.1-41-23.7-.9-1.6-2.8-2.3-4.5-1.9-8.2 2.3-17.1 2.3-25.3 0-1.8-.5-3.6.3-4.5 1.9-8.4 14.6-24.1 23.7-41 23.7-26.1 0-47.3-21.2-47.3-47.3s21.2-47.3 47.3-47.3c4.3 0 8.5.6 12.6 1.7 1.8.5 3.6-.3 4.5-1.9 6.7-11.6 18.1-19.9 31.1-22.7 2.1 2.8 4.4 5.6 7 8.2.8.8 1.8 1.2 2.9 1.2s2.1-.4 2.9-1.2c2.6-2.6 4.9-5.4 7-8.2.1 0 .3.1.4.1 13 2.9 24.2 11.1 30.8 22.6zm-41-23.2c-12.8-14.6-18.3-32.4-16.8-54h33.5c1.6 21.7-3.9 39.4-16.7 54zm106.5-62h-212.9l12.8-73.2h19.8c16.7 0 17.7-21.8 19.2-54.7.8-17.1 1.7-37.6 4.8-60.1 0-.2.1-.3.1-.5 2.5-18.3 6.5-37.9 13-58.3h73.3c14.5 45.6 16.5 87.7 17.9 118.9 1.5 32.9 2.5 54.7 19.2 54.7h19.8zm-2.4-59.9-3.1-17.9c-.3-1.9-2-3.3-3.9-3.3h-23.2c-2 0-5.6 0-8-10.6-1.9-8.5-2.5-20.8-3.2-36.4-.7-15-1.5-32.6-3.7-51.8l75.1 55.6 38 63.4z"/><path d="m255.8 131.7c-13.9 0-25.3 11.3-25.3 25.3 0 13.9 11.3 25.3 25.3 25.3 13.9 0 25.3-11.3 25.3-25.3s-11.3-25.3-25.3-25.3zm0 42.5c-9.5 0-17.3-7.7-17.3-17.3 0-9.5 7.7-17.3 17.3-17.3 9.5 0 17.3 7.7 17.3 17.3s-7.8 17.3-17.3 17.3z"/></g></svg>