<svg id="Layer_1" enable-background="new 0 0 512 512" height="512" viewBox="0 0 512 512" width="512" xmlns="http://www.w3.org/2000/svg"><g><path d="m229.2 239c-3.6-1.1-6.3-3.3-10.7-7.3l-9.7 36.2 13.7-3.9c1.4-.4 2.9 0 4 1.1l9.5 10 9.9-36.7c-8.2 1.4-12.5 1.9-16.7.6z" fill="#e63d7d"/><path d="m256 345c-8.2 0-16.3-.7-24.1-2.1v80.2h48.2v-80.2c-7.9 1.4-15.9 2.1-24.1 2.1z" fill="#3e6276"/><path d="m281.3 239.5c-4.2 1.2-8.2.5-15.8-.8-.6-.1-1.1-.2-1.6-.3l9.8 36.7 9.5-10c1.1-1.1 2.6-1.5 4-1.1l13.7 3.9-9.3-34.9c-4.1 3.6-6.9 5.5-10.3 6.5z" fill="#e63d7d"/><path d="m248.1 157.3-3.4 10.5 8.8-6.4c1.4-1 3.3-1.1 4.8-.1l8.9 6.5-3.4-10.3c-.6-1.6-.1-3.5 1.4-4.6l8.9-6.5h-10.8c-1.7-.1-3.4-1.2-3.9-2.9l-3.4-10.5-3.4 10.5c-.5 1.6-2 2.8-3.8 2.8h-11l8.9 6.5c1.4 1 2 2.8 1.4 4.5z" fill="#fbca41"/><path d="m76 211.2c-9.4-4.3-17.8-10.7-24.9-18.7-7.2-8-13-17.6-16.9-28.3-3.8-10.2-5.9-21.5-5.9-33.3s2.1-23 5.9-33.3c3.9-10.7 9.7-20.2 16.9-28.3 7.1-7.9 15.5-14.3 24.9-18.7 7.9-3.7 16.4-5.9 25.4-6.4v-9.2c-10.3.5-20 3-29.1 7.2-10.6 4.9-20.2 12.1-28.1 21-7.9 8.8-14.3 19.4-18.6 31.1-4.2 11.3-6.5 23.6-6.5 36.6s2.3 25.3 6.5 36.6c4.4 11.7 10.7 22.3 18.6 31.1 8 8.9 17.5 16.1 28.1 21 10.2 4.7 21.3 7.3 33.1 7.3 1.3.2 2.6.1 3.9 0-.9-3-1.8-6.1-2.5-9.2-10.7.2-21.1-2-30.8-6.5z" fill="#fbca41"/><path d="m158.1 437.8c-4.1 4.1-6.7 9.8-6.7 16v47.1c0 .8.3 1.6.9 2.2.5.6 1.3.9 2.2.9h203.1c.8 0 1.6-.3 2.2-.9.6-.5.9-1.3.9-2.2v-47.1c0-6.2-2.6-11.9-6.7-16-4.2-4.1-9.8-6.7-16.1-6.7h-163.8c-6.2 0-11.9 2.6-16 6.7z" fill="#3e6276"/><path d="m467.8 63.5c-8-8.9-17.5-16.1-28.1-21-9.1-4.4-18.8-6.9-29.1-7.5v9.4c9 .5 17.5 2.7 25.4 6.4 9.4 4.4 17.8 10.7 24.9 18.7 7.2 8 12.9 17.6 16.9 28.3 3.8 10.2 5.8 21.5 5.8 33.3s-2.1 23-5.8 33.3c-3.9 10.7-9.7 20.2-16.9 28.3-7.1 7.9-15.5 14.3-24.9 18.7-9.1 4.2-19 6.5-29.4 6.5-.3 0-.8 0-1.4 0-.8 3.1-1.6 6.2-2.5 9.2 1.3.1 2.6.1 3.9.1 11.7 0 22.9-2.6 33.1-7.3 10.6-4.9 20.2-12.1 28.1-21 7.9-8.8 14.3-19.4 18.6-31.1 4.2-11.3 6.5-23.6 6.5-36.6s-2.3-25.4-6.5-36.6c-4.3-11.7-10.7-22.3-18.6-31.1z" fill="#fbca41"/><path d="m179.9 175.4c5.6 8.2 4.8 7.9 7.6 18.3 1.7 6.3 2.6 9.7 4.2 11.7 2.7 3.2 14.9 7.8 20.2 10.1 3.1 1.9 7 5.9 9.8 8.4 4.8 4.4 7.4 6.7 9.8 7.5 2.8.9 6.9.2 15.5-1.2 9.8-1.6 9.2-1.1 19.8.7 6.5 1.1 9.9 1.7 12.4 1 2.8-.8 5.8-3.5 12.3-9.4 7.4-6.7 7.2-5.9 17-10.1 6-2.6 9.2-3.9 10.9-5.9 2-2.2 3-6.1 5.3-14.6 2.6-9.6 2.8-8.8 8.8-17.7 3.7-5.4 5.6-8.3 6-10.8.5-2.9-.8-6.8-3.4-15.1-3-9.5-2.4-8.8-2.2-19.7.2-6.5.3-10-.8-12.4-1.2-2.7-4.3-5.3-11.1-10.9-7.7-6.4-6.8-6.2-12.4-15.4-3.4-5.6-5.2-8.5-7.3-10-2.3-1.7-6.4-2.1-15.1-3.2-9.9-1.2-9.2-1.5-18.8-6.2-5.9-2.9-9-4.4-11.6-4.4-2.9-.1-6.6 1.7-14.5 5.6-9 4.3-8.4 3.7-19.2 4.9-6.5.8-9.9 1.2-12.1 2.5-2.5 1.5-4.6 5-9.2 12.5-5.2 8.5-5.1 7.6-13.5 14.5-5 4.2-7.7 6.3-8.8 8.7-1.2 2.6-1.2 6.8-1 15.5.2 9.9-.2 9.2-3.5 19.5-2 6.2-3.1 9.5-2.7 12.1.4 2.9 2.7 6.3 7.6 13.5zm30.6-71.8c11.7-11.7 27.7-18.9 45.5-18.9 17.7 0 33.8 7.2 45.5 18.9s18.9 27.7 18.9 45.5-7.2 33.8-18.9 45.5c-11.6 11.6-27.7 18.8-45.5 18.8s-33.8-7.2-45.5-18.8c-11.6-11.7-18.8-27.7-18.8-45.5 0-17.7 7.2-33.8 18.8-45.5z" fill="#e63d7d"/><path d="m109.4 172.6c0 45.4 16.5 86.5 43.2 116.4 26.5 29.7 63.2 48.2 103.4 48.2 32.3 0 62.3-11.9 86.6-32 25-20.7 44.1-50.1 53.5-84.1 2.2-7.7 3.8-15.7 4.9-23.9 1-8 1.6-16.2 1.6-24.5v-164.7h-293.2zm58.1-25c2.3-7.2 3.3-9.2 3.1-16.9-.2-10-.3-14.7 1.8-19.1 1.9-3.9 5-6.5 11-11.4 5.8-4.8 7.8-6.1 11.7-12.5 5.2-8.6 7.7-12.6 11.8-15.1 3.7-2.3 7.7-2.8 15.4-3.7 7.5-.9 9.8-.9 16.6-4.2 9-4.4 13.3-6.4 18.1-6.3 4.4.1 8 1.8 14.9 5.2 7 3.1 8.5 4.2 16.2 5.2 9.9 1.2 14.7 1.8 18.7 4.5 3.6 2.4 5.7 5.9 9.7 12.5 3.9 6.5 4.9 8.5 10.7 13.4 7.7 6.4 11.4 9.4 13.3 13.8 1.7 4 1.6 8.1 1.4 15.8-.2 7.4-.5 9.9 1.8 17.1 3 9.6 4.5 14.1 3.7 18.8-.7 4.3-3 7.7-7.3 14s-5.8 7.9-7.7 15.3c-2.6 9.7-3.8 14.3-7.1 17.9-2.9 3.2-6.7 4.8-13.7 7.9-6.5 2.8-8.7 3.4-13.4 7.5l12.2 45.5c.2.7.2 1.5 0 2.3-.6 2.1-2.8 3.3-4.9 2.7l-18.2-5.2-12.6 13.3c-.5.6-1.2 1-2 1.2-2.1.6-4.3-.7-4.9-2.8l-12.5-46.8c-.3 0-.6 0-.9 0l-12.5 46.8c-.6 2.1-2.8 3.4-4.9 2.8-.8-.2-1.5-.7-2-1.2l-12.6-13.3-18.2 5.2c-2.1.6-4.3-.7-5-2.7-.2-.8-.2-1.6 0-2.3l12.6-46.9c-1.1-1-2.4-2.1-3.6-3.2-6.9-3-18.3-7-22.6-12.1-2.8-3.3-3.8-7.3-5.8-14.7s-2.2-9.5-6.5-15.8c-5.6-8.3-8.2-12.2-8.8-17-.6-4.3.7-8.2 3-15.5z" fill="#fbca41"/><path d="m256 205.4c15.5 0 29.6-6.3 39.8-16.5s16.5-24.3 16.5-39.8c0-15.6-6.3-29.7-16.5-39.8-10.2-10.3-24.2-16.5-39.8-16.5s-29.6 6.3-39.8 16.5-16.5 24.3-16.5 39.8c0 15.6 6.3 29.7 16.5 39.8 10.2 10.2 24.3 16.5 39.8 16.5zm-34-65.5c.9-1.2 2.2-1.7 3.5-1.6h20.2l6.3-19.5c.7-2.1 2.9-3.2 5-2.6 1.5.4 2.4 1.4 2.8 2.6l6.3 19.4h20.5c2.2 0 4 1.8 4 4 0 1.3-.7 2.5-1.6 3.2l-16.6 12 6.3 19.4c.7 2.1-.5 4.3-2.6 5-1.4.4-2.8.1-3.8-.8l-16.3-11.7-16.6 12.1c-1.8 1.3-4.3.9-5.6-.9-.8-1.1-.9-2.4-.6-3.6l6.3-19.4-16.6-12c-1.8-1.3-2.2-3.8-.9-5.6z" fill="#fff"/><path d="m222.9 145.5 16.6 12-6.3 19.4c-.3 1.2-.2 2.5.6 3.6 1.3 1.8 3.8 2.2 5.6.9l16.6-12.1 16.3 11.7c1 .9 2.4 1.2 3.8.8 2.1-.7 3.3-2.9 2.6-5l-6.3-19.4 16.6-12c.9-.7 1.6-1.9 1.6-3.2 0-2.2-1.8-4-4-4h-20.5l-6.3-19.4c-.4-1.2-1.3-2.2-2.8-2.6-2.1-.6-4.3.5-5 2.6l-6.3 19.5h-20.2c-1.3-.1-2.6.4-3.5 1.6-1.3 1.8-.9 4.3.9 5.6zm25.9.8c1.8 0 3.3-1.2 3.8-2.8l3.4-10.5 3.4 10.5c.5 1.7 2.2 2.8 3.9 2.9h10.8l-8.9 6.5c-1.5 1.1-2 3-1.4 4.6l3.4 10.3-8.9-6.5c-1.5-1-3.4-.9-4.8.1l-8.8 6.4 3.4-10.5c.6-1.7 0-3.5-1.4-4.5l-8.9-6.5z"/><path d="m256 213.4c17.8 0 33.9-7.2 45.5-18.8 11.7-11.7 18.9-27.7 18.9-45.5s-7.2-33.8-18.9-45.5-27.8-18.9-45.5-18.9c-17.8 0-33.8 7.2-45.5 18.9-11.6 11.7-18.8 27.8-18.8 45.5 0 17.8 7.2 33.8 18.8 45.5 11.7 11.6 27.7 18.8 45.5 18.8zm-39.8-104.1c10.2-10.2 24.2-16.5 39.8-16.5s29.6 6.2 39.8 16.5c10.2 10.1 16.5 24.2 16.5 39.8 0 15.5-6.3 29.6-16.5 39.8s-24.3 16.5-39.8 16.5-29.6-6.3-39.8-16.5c-10.2-10.1-16.5-24.2-16.5-39.8 0-15.5 6.3-29.6 16.5-39.8z"/><path d="m473.7 58c-8.7-9.8-19.1-17.6-30.7-23-10-4.7-20.9-7.5-32.4-8v-23c0-2.2-1.8-4-4-4h-301.2c-2.2 0-4 1.8-4 4v23c-11.4.6-22.3 3.4-32.4 8-11.6 5.4-22 13.2-30.7 23-8.6 9.6-15.5 21-20.2 33.6-4.5 12.2-7 25.5-7 39.4s2.5 27.2 7 39.4c4.8 12.6 11.6 24 20.2 33.6 8.7 9.8 19.1 17.6 30.7 23 11.2 5.2 23.5 8.1 36.4 8.1 2.2 0 4.3-.1 6.5-.3 7.8 22.5 19.8 42.7 34.8 59.5 20.8 23.3 47.5 40 77.2 47.1v81.9h-49.8c-8.5 0-16.1 3.4-21.7 9-5.5 5.6-9 13.3-9 21.7v47c0 3 1.3 5.8 3.3 7.8s4.7 3.2 7.8 3.2h203.1c3 0 5.8-1.2 7.8-3.2s3.2-4.8 3.2-7.8v-47.1c0-8.5-3.4-16.1-9-21.7-5.6-5.5-13.3-9-21.7-9h-49.8v-81.9c22-5.2 42.2-15.7 59.6-30.1 23.3-19.3 41.7-45.8 52.4-76.5 2.2.2 4.3.3 6.5.3 12.9 0 25.2-2.9 36.4-8.1 11.6-5.4 22-13.2 30.7-23 8.6-9.5 15.5-20.9 20.2-33.6 4.5-12.2 7-25.5 7-39.4s-2.5-27.2-7-39.4c-4.8-12.5-11.6-23.9-20.2-33.5zm-64.8 140.1c1.1-8.4 1.7-17 1.7-25.6v-120.1c7.7.5 15.2 2.5 22 5.7 8.4 3.9 16 9.6 22.3 16.7 6.5 7.2 11.7 16 15.3 25.7 3.5 9.3 5.4 19.6 5.4 30.5 0 10.8-1.9 21.1-5.4 30.5-3.6 9.7-8.8 18.4-15.3 25.7-6.3 7.1-13.9 12.8-22.3 16.7-7.9 3.7-16.6 5.7-25.7 5.8.8-3.9 1.5-7.7 2-11.6zm-303.8 11.6c-9.1 0-17.8-2.1-25.7-5.7-8.4-4-16-9.7-22.3-16.8-6.5-7.2-11.7-16-15.3-25.7-3.5-9.4-5.4-19.7-5.4-30.5s1.9-21.1 5.4-30.5c3.6-9.7 8.8-18.4 15.3-25.7 6.3-7.1 13.9-12.8 22.3-16.7 6.8-3.2 14.2-5.2 22-5.7v120.1c0 12.8 1.3 25.2 3.7 37.2zm.3 17.2c-11.8 0-22.9-2.6-33.1-7.3-10.6-4.9-20.1-12.1-28.1-21-7.9-8.8-14.2-19.4-18.6-31.1-4.2-11.3-6.5-23.6-6.5-36.6s2.3-25.3 6.5-36.6c4.3-11.7 10.7-22.3 18.6-31.1 7.9-8.9 17.5-16.1 28.1-21 9.1-4.2 18.8-6.7 29.1-7.2v9.2c-9 .5-17.5 2.7-25.4 6.4-9.4 4.4-17.8 10.8-24.9 18.7-7.2 8.1-13 17.6-16.9 28.3-3.8 10.3-5.9 21.5-5.9 33.3s2.1 23.1 5.9 33.3c3.9 10.7 9.7 20.3 16.9 28.3 7.1 8 15.5 14.4 24.9 18.7 9.7 4.5 20.1 6.7 30.8 6.5.7 3.1 1.6 6.2 2.5 9.2-1.3.1-2.6.2-3.9 0zm232.5 204.2c6.3 0 11.9 2.6 16.1 6.7 4.1 4.1 6.7 9.8 6.7 16v47.1c0 .9-.3 1.7-.9 2.2-.6.6-1.4.9-2.2.9h-203.1c-.9 0-1.7-.3-2.2-.9-.6-.6-.9-1.4-.9-2.2v-47.1c0-6.2 2.6-11.9 6.7-16s9.8-6.7 16-6.7zm-106-8v-80.2c7.8 1.4 15.9 2.1 24.1 2.1s16.2-.7 24.1-2.1v80.2zm170.7-250.4c0 8.3-.6 16.5-1.6 24.5-1.1 8.2-2.7 16.2-4.9 23.9-9.4 34-28.5 63.4-53.5 84.1-24.3 20.1-54.3 32-86.6 32-40.2 0-76.9-18.5-103.4-48.2-26.7-29.9-43.2-71-43.2-116.4v-164.6h293.1v164.7zm83.8-4.9c-4.3 11.7-10.7 22.3-18.6 31.1-7.9 8.9-17.5 16.1-28.1 21-10.2 4.7-21.4 7.3-33.1 7.3-1.3 0-2.6 0-3.9-.1.9-3 1.7-6.1 2.5-9.2h1.4c10.4 0 20.3-2.3 29.4-6.5 9.4-4.4 17.8-10.8 24.9-18.7 7.2-8.1 13-17.6 16.9-28.3 3.7-10.3 5.8-21.5 5.8-33.3s-2-23.1-5.8-33.3c-4-10.7-9.7-20.3-16.9-28.3-7.1-8-15.5-14.3-24.9-18.7-7.9-3.7-16.4-5.9-25.4-6.4v-9.4c10.3.6 20 3.1 29.1 7.5 10.6 4.9 20.1 12.1 28.1 21 7.9 8.8 14.3 19.4 18.6 31.1 4.2 11.2 6.5 23.6 6.5 36.6s-2.3 25.3-6.5 36.6z"/><path d="m173.3 180.1c4.3 6.3 4.5 8.4 6.5 15.8s3 11.4 5.8 14.7c4.3 5.1 15.7 9.1 22.6 12.1 1.2 1.1 2.5 2.2 3.6 3.2l-12.6 46.9c-.2.7-.2 1.5 0 2.3.7 2 2.9 3.3 5 2.7l18.2-5.2 12.6 13.3c.5.5 1.2 1 2 1.2 2.1.6 4.3-.7 4.9-2.8l12.5-46.8h.9l12.5 46.8c.6 2.1 2.8 3.4 4.9 2.8.8-.2 1.5-.6 2-1.2l12.6-13.3 18.2 5.2c2.1.6 4.3-.6 4.9-2.7.2-.8.2-1.6 0-2.3l-12.2-45.5c4.7-4.1 6.9-4.7 13.4-7.5 7-3.1 10.8-4.7 13.7-7.9 3.3-3.6 4.5-8.2 7.1-17.9 1.9-7.4 3.4-9 7.7-15.3s6.6-9.7 7.3-14c.8-4.7-.7-9.2-3.7-18.8-2.3-7.2-2-9.7-1.8-17.1.2-7.7.3-11.8-1.4-15.8-1.9-4.4-5.6-7.4-13.3-13.8-5.8-4.9-6.8-6.9-10.7-13.4-4-6.6-6.1-10.1-9.7-12.5-4-2.7-8.8-3.3-18.7-4.5-7.7-1-9.2-2.1-16.2-5.2-6.9-3.4-10.5-5.1-14.9-5.2-4.8-.1-9.1 1.9-18.1 6.3-6.8 3.3-9.1 3.3-16.6 4.2-7.7.9-11.7 1.4-15.4 3.7-4.1 2.5-6.6 6.5-11.8 15.1-3.9 6.4-5.9 7.7-11.7 12.5-6 4.9-9.1 7.5-11 11.4-2.1 4.4-2 9.1-1.8 19.1.2 7.7-.8 9.7-3.1 16.9-2.3 7.3-3.6 11.2-3 15.5.6 4.8 3.2 8.7 8.8 17zm62.7 94.9-9.5-10c-1.1-1.1-2.6-1.5-4-1.1l-13.7 3.9 9.7-36.2c4.4 4 7.1 6.2 10.7 7.3 4.2 1.3 8.5.8 16.7-.6zm64.9-7.2-13.7-3.9c-1.4-.4-2.9 0-4 1.1l-9.5 10-9.8-36.7c.5.1 1 .2 1.6.3 7.6 1.3 11.6 2 15.8.8 3.4-1 6.2-2.9 10.3-6.5zm-125.9-118c3.3-10.3 3.7-9.6 3.5-19.5-.2-8.7-.2-12.9 1-15.5 1.1-2.4 3.8-4.5 8.8-8.7 8.4-6.9 8.3-6 13.5-14.5 4.6-7.5 6.7-11 9.2-12.5 2.2-1.3 5.6-1.7 12.1-2.5 10.8-1.2 10.2-.6 19.2-4.9 7.9-3.9 11.6-5.7 14.5-5.6 2.6 0 5.7 1.5 11.6 4.4 9.6 4.7 8.9 5 18.8 6.2 8.7 1.1 12.8 1.5 15.1 3.2 2.1 1.5 3.9 4.4 7.3 10 5.6 9.2 4.7 9 12.4 15.4 6.8 5.6 9.9 8.2 11.1 10.9 1.1 2.4 1 5.9.8 12.4-.2 10.9-.8 10.2 2.2 19.7 2.6 8.3 3.9 12.2 3.4 15.1-.4 2.5-2.3 5.4-6 10.8-6 8.9-6.2 8.1-8.8 17.7-2.3 8.5-3.3 12.4-5.3 14.6-1.7 2-4.9 3.3-10.9 5.9-9.8 4.2-9.6 3.4-17 10.1-6.5 5.9-9.5 8.6-12.3 9.4-2.5.7-5.9.1-12.4-1-10.6-1.8-10-2.3-19.8-.7-8.6 1.4-12.7 2.1-15.5 1.2-2.4-.8-5-3.1-9.8-7.5-2.8-2.5-6.7-6.5-9.8-8.4-5.3-2.3-17.5-6.9-20.2-10.1-1.6-2-2.5-5.4-4.2-11.7-2.8-10.4-2-10.1-7.6-18.3-4.9-7.2-7.2-10.6-7.6-13.5-.4-2.6.7-5.9 2.7-12.1z"/></g></svg>