<svg id="Layer_1" enable-background="new 0 0 512 512" height="512" viewBox="0 0 512 512" width="512" xmlns="http://www.w3.org/2000/svg"><path d="m233.4 373.7c-2.9-3.4-3.9-7.4-6-15-2-7.6-2.3-9.8-6.7-16.3-2.4-3.6-4.3-6.3-5.7-8.7h-51.7v142.7h72.9v-100h.1c-1.1-.8-2.1-1.7-2.9-2.7z" fill="#3e6276"/><path d="m277.9 403c-3.7-1.2-6.5-3.5-11.1-7.6l-10 37.4 14.3-4.1c1.4-.4 2.9 0 4 1.1l9.8 10.4 10.2-37.8c-8.5 1.4-12.9 2-17.2.6z" fill="#e63d7d"/><path d="m331.3 403.5c-4.3 1.2-8.4.5-16.1-.9-.7-.1-1.2-.2-1.8-.3l10.2 38 9.8-10.4c1.1-1.1 2.6-1.5 4-1.1l14.3 4.1-9.8-36.1c-4.3 3.7-7.1 5.7-10.6 6.7z" fill="#e63d7d"/><path d="m25 156.5c-9.9 9.9-16 23.5-16 38.4v40.6c0 14.9 6.1 28.5 16 38.4 9.9 9.8 23.5 16 38.4 16h54.4v-.1-149.3h-54.4c-14.9 0-28.5 6.1-38.4 16z" fill="#fff"/><path d="m211.7 325c-.5-4.4.7-8.3 3.1-15.8 2.4-7.4 3.4-9.5 3.2-17.3-.2-10.3-.3-15.1 1.8-19.5 1.9-4 5.1-6.6 11.2-11.7 6-4.9 8-6.2 12-12.8 5.3-8.8 7.9-12.9 12.1-15.5 3.8-2.4 7.9-2.8 15.7-3.7 1.2-.2 2.2-.3 3.1-.4v-114.1c0-2.6-1-5-2.8-6.7-1.7-1.7-4.1-2.8-6.7-2.8h-129.1c-2.6 0-5 1.1-6.7 2.8s-2.8 4.1-2.8 6.7v202c0 2.6 1.1 5 2.8 6.7s4.1 2.8 6.7 2.8h76.5c0-.2-.1-.5-.1-.7z" fill="#7dc6ee"/><path d="m309 305.2-3.6-11-3.5 11c-.5 1.6-2 2.8-3.8 2.8h-11.6l9.4 6.8c1.4 1 2 2.8 1.4 4.5l-3.6 11 9.3-6.8c1.4-1 3.3-1.1 4.8-.1l9.4 6.9-3.5-10.9c-.6-1.6-.1-3.5 1.4-4.6l9.4-6.8h-11.4c-1.9 0-3.6-1.1-4.1-2.8z" fill="#fbca41"/><path d="m432.8 373.8c6.7 4.8 13.4 9.8 20.2 14.9v-347.1c-6.8 5.1-13.5 10.1-20.2 14.9z" fill="#7dc6ee"/><path d="m282 124.9v101.9c1.7-.5 3.6-1.3 6-2.5 9.2-4.5 13.6-6.6 18.5-6.5 4.5.1 8.2 1.9 15.3 5.3 7.2 3.5 8.8 4.7 16.7 5.6 10.2 1.2 15 1.8 19.1 4.5 3.7 2.5 5.8 6 9.9 12.8 4 6.6 5 8.8 11 13.7 7.9 6.5 11.6 9.6 13.6 14.1 1.8 4.1 1.6 8.2 1.4 16.1-.2 7.7-.5 10.1 1.8 17.5 3.1 9.8 4.6 14.4 3.8 19.2-.7 4.4-3 7.8-7.5 14.3-1.1 1.7-1.9 2.9-2.6 4 11.2 6.6 22.2 13.8 33.3 21.5.9.6 1.7 1.2 2.6 1.8v-305.9c-17.1 12-34.1 22.8-51.6 32-28.3 14.9-57.9 25.7-91.3 30.6z" fill="#fff"/><path d="m461 170.4v89.5c12-.2 22.9-5.2 30.9-13.1 8.1-8.1 13.1-19.3 13.1-31.6 0-12.4-5-23.6-13.1-31.7-7.9-7.9-18.8-12.8-30.9-13.1z" fill="#fff"/><path d="m387.5 309.7c-3.1-9.8-2.5-8.9-2.2-20.1.2-6.7.3-10.3-.8-12.7-1.2-2.7-4.5-5.4-11.4-11.2-7.9-6.5-7-6.3-12.7-15.8-3.5-5.7-5.3-8.8-7.5-10.3-2.4-1.3-6.6-1.8-15.5-2.8-10.1-1.2-9.4-1.6-19.2-6.4-6.1-2.9-9.3-4.5-11.9-4.6-3-.1-6.8 1.8-14.9 5.7-9.2 4.5-8.6 3.7-19.6 5-6.7.8-10.2 1.2-12.5 2.6-2.6 1.6-4.8 5.2-9.4 12.8-5.3 8.7-5.2 7.8-13.8 14.8-5.2 4.3-7.9 6.5-9.1 8.9-1.3 2.7-1.2 7-1 15.9.3 10.2-.2 9.4-3.6 19.9-2 6.4-3.1 9.8-2.8 12.4.4 3 2.7 6.5 7.8 13.9 5.7 8.4 4.9 8.1 7.8 18.7 1.7 6.5 2.6 9.9 4.4 12 1.9 2.3 5.8 4 14 7.5 9.4 4 8.5 4.1 16.6 11.5 5 4.5 7.6 6.9 10.1 7.7 2.9.9 7.1.2 15.9-1.3 10.1-1.7 9.3-1.2 20.2.7 6.7 1.1 10.2 1.7 12.7 1 2.9-.8 6-3.7 12.7-9.7 7.5-6.9 7.3-6.1 17.4-10.3 6.2-2.6 9.4-4 11.2-6 2-2.2 3.1-6.3 5.4-15 2.6-9.9 2.8-9 9-18.1 3.8-5.6 5.8-8.5 6.2-11.1.5-3-.8-7-3.5-15.6zm-35.6 47.8c-11.9 11.9-28.3 19.3-46.5 19.3s-34.6-7.4-46.5-19.3-19.3-28.3-19.3-46.5 7.4-34.6 19.3-46.5 28.3-19.3 46.5-19.3 34.6 7.4 46.5 19.3 19.3 28.3 19.3 46.5-7.4 34.6-19.3 46.5z" fill="#e63d7d"/><path d="m305.4 253.2c-16 0-30.4 6.5-40.9 16.9-10.4 10.5-16.9 24.9-16.9 40.9s6.5 30.4 16.9 40.8c10.5 10.5 24.9 16.9 40.9 16.9s30.4-6.5 40.9-16.9 16.9-24.9 16.9-40.8c0-16-6.5-30.4-16.9-40.9-10.5-10.5-24.9-16.9-40.9-16.9zm33.7 53.9-17 12.3 6.5 20c.7 2.1-.5 4.4-2.6 5-1.4.4-2.8.1-3.8-.8l-16.8-12.2-17 12.4c-1.8 1.3-4.3.9-5.6-.9-.8-1.1-.9-2.4-.6-3.6l6.5-20-17-12.3c-1.8-1.3-2.2-3.8-.9-5.6.8-1.2 2.2-1.7 3.5-1.6l20.7.1 6.5-20c.7-2.1 2.9-3.3 5-2.6 1.4.5 2.3 1.5 2.7 2.7l6.5 20 21-.1c2.2 0 4 1.8 4 4 0 1.3-.7 2.5-1.6 3.2z" fill="#fff"/><path d="m305.4 245.2c-18.2 0-34.6 7.4-46.5 19.3s-19.3 28.3-19.3 46.5 7.4 34.6 19.3 46.5 28.3 19.3 46.5 19.3 34.6-7.4 46.5-19.3 19.3-28.3 19.3-46.5-7.4-34.6-19.3-46.5-28.3-19.3-46.5-19.3zm40.9 106.6c-10.5 10.4-24.9 16.9-40.9 16.9s-30.4-6.4-40.9-16.9c-10.4-10.4-16.9-24.8-16.9-40.8s6.5-30.4 16.9-40.9c10.5-10.4 24.9-16.9 40.9-16.9s30.4 6.4 40.9 16.9c10.4 10.5 16.9 24.9 16.9 40.9 0 15.9-6.4 30.4-16.9 40.8z"/><path d="m336.7 299.9-21 .1-6.5-20c-.4-1.2-1.3-2.2-2.7-2.7-2.1-.7-4.3.5-5 2.6l-6.5 20-20.7-.1c-1.3-.1-2.7.4-3.5 1.6-1.3 1.8-.9 4.3.9 5.6l17 12.3-6.5 20c-.3 1.2-.2 2.5.6 3.6 1.3 1.8 3.8 2.2 5.6.9l17-12.4 16.8 12.2c1 .9 2.4 1.2 3.8.8 2.1-.6 3.3-2.9 2.6-5l-6.5-20 17-12.3c.9-.7 1.6-1.9 1.6-3.2 0-2.2-1.8-4-4-4zm-21.6 14.9c-1.5 1.1-2 3-1.4 4.6l3.5 10.9-9.4-6.9c-1.5-1-3.4-.9-4.8.1l-9.3 6.8 3.6-11c.6-1.7 0-3.5-1.4-4.5l-9.4-6.8h11.6c1.8 0 3.3-1.2 3.8-2.8l3.5-11 3.6 11c.5 1.7 2.2 2.8 4.1 2.8h11.4z"/><path d="m461 162.3v-128.8c0-.8-.3-1.7-.8-2.4-1.3-1.7-3.9-2-5.6-.7-29 22.2-56.4 41.7-85.1 56.8-27.3 14.4-55.5 24.8-87.5 29.7v-2.7c0-4.8-2-9.3-5.2-12.4s-7.6-5.1-12.4-5.1h-129.1c-4.8 0-9.2 1.9-12.4 5.1-3.1 3.2-5.1 7.6-5.1 12.4v18.3h-54.4c-17.2 0-32.8 7-44.1 18.3-11.3 11.4-18.3 27-18.3 44.1v40.6c0 17.1 7 32.7 18.3 44.1 11.3 11.3 27 18.3 44.1 18.3h54.5v18.3c0 4.8 1.9 9.2 5.1 12.4 3.2 3.1 7.6 5.1 12.4 5.1h20.1v146.8c0 2.2 1.8 4 4 4h80.9c2.2 0 4-1.8 4-4v-99.6c1.8.8 3.8 1.7 6.1 2.7 4.9 2.1 7.1 3.5 9.8 5.9l-12.9 48.1c-.2.7-.2 1.4 0 2.2.6 2.1 2.8 3.3 4.9 2.7l18.7-5.4 12.9 13.4c.5.5 1.2 1 2 1.2 2.2.6 4.3-.7 4.9-2.8l12.9-48h1l12.9 48c.6 2.1 2.7 3.4 4.9 2.8.8-.2 1.5-.6 2-1.2l12.9-13.7 18.7 5.4c2.1.6 4.3-.6 4.9-2.7.2-.7.2-1.5 0-2.2l-12.5-46.7c4.9-4.2 7.1-4.8 13.8-7.7 7.2-3.1 11.1-4.7 14-8 3.3-3.7 4.5-8.4 7.2-18.3.6-2 1.1-3.6 1.6-5 10.9 6.4 21.7 13.5 32.6 21 12.1 8.4 24.2 17.4 36.7 26.9.7.6 1.6 1 2.6 1 2.2 0 4-1.8 4-4v-128.8c14.2-.1 27.1-6 36.5-15.4 9.5-9.5 15.4-22.7 15.4-37.3s-5.8-27.7-15.4-37.3c-9.4-9.3-22.2-15.2-36.5-15.4zm-343.2 127.5-54.4.1c-14.9 0-28.5-6.2-38.4-16-9.9-9.9-16-23.5-16-38.4v-40.6c0-14.9 6.1-28.5 16-38.4s23.5-16 38.4-16h54.4zm17.5 35.9c-2.6 0-5-1.1-6.7-2.8s-2.8-4.1-2.8-6.7v-202c0-2.6 1.1-5 2.8-6.7s4.1-2.8 6.7-2.8h129.1c2.6 0 5 1.1 6.7 2.8 1.8 1.7 2.8 4.1 2.8 6.7v114.1c-.9.1-1.9.2-3.1.4-7.8.9-11.9 1.3-15.7 3.7-4.2 2.6-6.8 6.7-12.1 15.5-4 6.6-6 7.9-12 12.8-6.1 5.1-9.3 7.7-11.2 11.7-2.1 4.4-2 9.2-1.8 19.5.2 7.8-.8 9.9-3.2 17.3-2.4 7.5-3.6 11.4-3.1 15.8 0 .2.1.5.1.7zm100.9 50.7v100h-72.9v-142.7h51.7c1.4 2.4 3.3 5.1 5.7 8.7 4.4 6.5 4.7 8.7 6.7 16.3 2.1 7.6 3.1 11.6 6 15 .8 1 1.8 1.9 2.8 2.7zm48.7 63.8-9.8-10.4c-1.1-1.1-2.6-1.5-4-1.1l-14.3 4.1 10-37.4c4.6 4.1 7.4 6.4 11.1 7.6 4.3 1.4 8.7.8 17.2-.6zm66.8-7.3-14.3-4.1c-1.4-.4-2.9 0-4 1.1l-9.8 10.4-10.2-38c.6.1 1.1.2 1.8.3 7.7 1.4 11.8 2.1 16.1.9 3.5-1 6.3-3 10.6-6.7zm33.1-96.5c-6.2 9.1-6.4 8.2-9 18.1-2.3 8.7-3.4 12.8-5.4 15-1.8 2-5 3.4-11.2 6-10.1 4.2-9.9 3.4-17.4 10.3-6.7 6-9.8 8.9-12.7 9.7-2.5.7-6 .1-12.7-1-10.9-1.9-10.1-2.4-20.2-.7-8.8 1.5-13 2.2-15.9 1.3-2.5-.8-5.1-3.2-10.1-7.7-8.1-7.4-7.2-7.5-16.6-11.5-8.2-3.5-12.1-5.2-14-7.5-1.8-2.1-2.7-5.5-4.4-12-2.9-10.6-2.1-10.3-7.8-18.7-5.1-7.4-7.4-10.9-7.8-13.9-.3-2.6.8-6 2.8-12.4 3.4-10.5 3.9-9.7 3.6-19.9-.2-8.9-.3-13.2 1-15.9 1.2-2.4 3.9-4.6 9.1-8.9 8.6-7 8.5-6.1 13.8-14.8 4.6-7.6 6.8-11.2 9.4-12.8 2.3-1.4 5.8-1.8 12.5-2.6 11-1.3 10.4-.5 19.6-5 8.1-3.9 11.9-5.8 14.9-5.7 2.6.1 5.8 1.7 11.9 4.6 9.8 4.8 9.1 5.2 19.2 6.4 8.9 1 13.1 1.5 15.5 2.8 2.2 1.5 4 4.6 7.5 10.3 5.7 9.5 4.8 9.3 12.7 15.8 6.9 5.8 10.2 8.5 11.4 11.2 1.1 2.4 1 6 .8 12.7-.3 11.2-.9 10.3 2.2 20.1 2.7 8.6 4 12.6 3.5 15.6-.4 2.6-2.4 5.5-6.2 11.1zm40.1 31.8c-.9-.6-1.7-1.2-2.6-1.8-11.1-7.7-22.1-14.9-33.3-21.5.7-1.1 1.5-2.3 2.6-4 4.5-6.5 6.8-9.9 7.5-14.3.8-4.8-.7-9.4-3.8-19.2-2.3-7.4-2-9.8-1.8-17.5.2-7.9.4-12-1.4-16.1-2-4.5-5.7-7.6-13.6-14.1-6-4.9-7-7.1-11-13.7-4.1-6.8-6.2-10.3-9.9-12.8-4.1-2.7-8.9-3.3-19.1-4.5-7.9-.9-9.5-2.1-16.7-5.6-7.1-3.4-10.8-5.2-15.3-5.3-4.9-.1-9.3 2-18.5 6.5-2.4 1.2-4.3 2-6 2.5v-101.9c33.4-4.9 63-15.7 91.3-30.6 17.5-9.2 34.5-20 51.6-32zm28.1 20.5c-6.8-5.1-13.5-10.1-20.2-14.9v-317.3c6.7-4.8 13.4-9.8 20.2-14.9zm38.9-141.9c-8 7.9-18.9 12.9-30.9 13.1v-89.5c12.1.3 23 5.2 30.9 13.1 8.1 8.1 13.1 19.3 13.1 31.7 0 12.3-5 23.5-13.1 31.6z"/></svg>