<svg id="Layer_1" enable-background="new 0 0 512 512" height="512" viewBox="0 0 512 512" width="512" xmlns="http://www.w3.org/2000/svg"><g clip-rule="evenodd" fill-rule="evenodd"><path d="m105.8 79.9h59v59h-59z" fill="#70b150"/><path d="m203.8 79.9h59v59h-59z" fill="#fbca41"/><path d="m203.8 371.9h59v59h-59z" fill="#f29a4e"/><path d="m203.8 177.1h59v59h-59z" fill="#f8bd43"/><path d="m203.8 274.5h59v59h-59z" fill="#f7b447"/><path d="m301.9 371.9h59v59h-59z" fill="#dd3073"/><path d="m7.9 274.5h59v59h-59z" fill="#47a4dc"/><path d="m7.9 177.1h59v59h-59z" fill="#6dbbe9"/><path d="m105.8 177.1h59v59h-59z" fill="#6da74d"/><path d="m7.9 79.9h59v59h-59z" fill="#80cef3"/><path d="m105.8 371.9h59v59h-59z" fill="#337646"/><path d="m7.9 371.9h59v59h-59z" fill="#399ad6"/><path d="m105.8 274.5h59v59h-59z" fill="#518c4e"/><path d="m437.7 394.4v75.7c0 6.9 5.6 12.5 12.5 12.5s12.5-5.6 12.5-12.5v-75.7c-3.9 1.3-8.1 2-12.5 2s-8.6-.7-12.5-2z" fill="#e74a78"/><path d="m301.9 177.1h59v59h-59z" fill="#e74a78"/><path d="m469.9 49.2c0-10.9-8.9-19.7-19.7-19.7-10.9 0-19.7 8.9-19.7 19.7v70h39.4z" fill="#fff"/><path d="m417.9 168.9h64.7v114.5h-64.7z" fill="#fff"/><path d="m301.9 79.9h59v59h-59z" fill="#ec798e"/><path d="m417.9 356.1c0 17.8 14.5 32.3 32.3 32.3s32.3-14.5 32.3-32.3v-64.5h-64.7v64.5z" fill="#e74a78"/><path d="m301.9 274.5h59v59h-59z" fill="#e63677"/><path d="m487.3 127.2h-74.3c-9.3 0-16.9 7.6-16.9 16.9s7.6 16.9 16.9 16.9h74.3c9.3 0 16.9-7.6 16.9-16.9 0-9.4-7.6-16.9-16.9-16.9z" fill="#fff"/><path d="m364.8 363.9h-67c-2.2 0-4 1.8-4 4v67c0 2.2 1.8 4 4 4h67c2.2 0 4-1.8 4-4v-67c0-2.3-1.8-4-4-4zm-4 67h-59v-59h59z"/><path d="m266.9 71.9h-67c-2.2 0-4 1.8-4 4v67c0 2.2 1.8 4 4 4h67c2.2 0 4-1.8 4-4v-67c0-2.2-1.8-4-4-4zm-4 66.9h-59v-58.9h59z"/><path d="m266.9 266.5h-67c-2.2 0-4 1.8-4 4v67c0 2.2 1.8 4 4 4h67c2.2 0 4-1.8 4-4v-67c0-2.2-1.8-4-4-4zm-4 67.1h-59v-59h59z"/><path d="m266.9 169.1h-67c-2.2 0-4 1.8-4 4v67c0 2.2 1.8 4 4 4h67c2.2 0 4-1.8 4-4v-67c0-2.2-1.8-4-4-4zm-4 67.1h-59v-59h59z"/><path d="m364.8 71.9h-67c-2.2 0-4 1.8-4 4v67c0 2.2 1.8 4 4 4h67c2.2 0 4-1.8 4-4v-67c0-2.2-1.8-4-4-4zm-4 66.9h-59v-58.9h59z"/><path d="m487.3 119.2h-9.4v-70c0-15.3-12.4-27.7-27.7-27.7s-27.7 12.4-27.7 27.7v70h-9.4c-13.7 0-24.9 11.2-24.9 24.9 0 12.6 9.4 23.1 21.6 24.6v187.3c0 14.8 8 27.7 19.8 34.7v79.3c0 11.3 9.2 20.5 20.5 20.5s20.5-9.2 20.5-20.5v-79.3c11.9-7 19.8-20 19.8-34.7v-187.3c12.2-1.6 21.7-12 21.7-24.6.1-13.8-11.1-24.9-24.8-24.9zm-56.8-70c0-10.9 8.8-19.7 19.7-19.7s19.7 8.9 19.7 19.7v70h-39.4zm32.2 420.9c0 6.9-5.6 12.5-12.5 12.5s-12.5-5.6-12.5-12.5v-75.7c3.9 1.3 8.1 2 12.5 2s8.6-.7 12.5-2zm19.8-114c0 17.8-14.5 32.3-32.3 32.3s-32.3-14.5-32.3-32.3v-64.5h64.7v64.5zm0-72.6h-64.7v-114.6h64.7zm4.8-122.6h-74.3c-9.3 0-16.9-7.6-16.9-16.9s7.6-16.9 16.9-16.9h74.3c9.3 0 16.9 7.6 16.9 16.9 0 9.4-7.6 16.9-16.9 16.9z"/><path d="m364.8 266.5h-67c-2.2 0-4 1.8-4 4v67c0 2.2 1.8 4 4 4h67c2.2 0 4-1.8 4-4v-67c0-2.2-1.8-4-4-4zm-4 67.1h-59v-59h59z"/><path d="m266.9 363.9h-67c-2.2 0-4 1.8-4 4v67c0 2.2 1.8 4 4 4h67c2.2 0 4-1.8 4-4v-67c0-2.3-1.8-4-4-4zm-4 67h-59v-59h59z"/><path d="m364.8 169.1h-67c-2.2 0-4 1.8-4 4v67c0 2.2 1.8 4 4 4h67c2.2 0 4-1.8 4-4v-67c0-2.2-1.8-4-4-4zm-4 67.1h-59v-59h59z"/><path d="m70.9 71.9h-67c-2.2 0-4 1.8-4 4v67c0 2.2 1.8 4 4 4h67c2.2 0 4-1.8 4-4v-67c0-2.2-1.8-4-4-4zm-4 66.9h-59v-58.9h59z"/><path d="m70.9 169.1h-67c-2.2 0-4 1.8-4 4v67c0 2.2 1.8 4 4 4h67c2.2 0 4-1.8 4-4v-67c0-2.2-1.8-4-4-4zm-4 67.1h-59v-59h59z"/><path d="m70.9 266.5h-67c-2.2 0-4 1.8-4 4v67c0 2.2 1.8 4 4 4h67c2.2 0 4-1.8 4-4v-67c0-2.2-1.8-4-4-4zm-4 67.1h-59v-59h59z"/><path d="m70.9 363.9h-67c-2.2 0-4 1.8-4 4v67c0 2.2 1.8 4 4 4h67c2.2 0 4-1.8 4-4v-67c0-2.3-1.8-4-4-4zm-4 67h-59v-59h59z"/><path d="m168.9 71.9h-67c-2.2 0-4 1.8-4 4v67c0 2.2 1.8 4 4 4h67c2.2 0 4-1.8 4-4v-67c0-2.2-1.8-4-4-4zm-4 66.9h-59v-58.9h59z"/><path d="m168.9 169.1h-67c-2.2 0-4 1.8-4 4v67c0 2.2 1.8 4 4 4h67c2.2 0 4-1.8 4-4v-67c0-2.2-1.8-4-4-4zm-4 67.1h-59v-59h59z"/><path d="m168.9 363.9h-67c-2.2 0-4 1.8-4 4v67c0 2.2 1.8 4 4 4h67c2.2 0 4-1.8 4-4v-67c0-2.3-1.8-4-4-4zm-4 67h-59v-59h59z"/><path d="m168.9 266.5h-67c-2.2 0-4 1.8-4 4v67c0 2.2 1.8 4 4 4h67c2.2 0 4-1.8 4-4v-67c0-2.2-1.8-4-4-4zm-4 67.1h-59v-59h59z"/></g></svg>