<svg id="Layer_1" enable-background="new 0 0 512 512" height="512" viewBox="0 0 512 512" width="512" xmlns="http://www.w3.org/2000/svg"><g clip-rule="evenodd" fill-rule="evenodd"><g fill="#3e6276"><path d="m383.2 123.9h25v5.8h-25z"/><path d="m395.7 144c4.6 0 8.7-2.5 10.8-6.3h-21.7c2.2 3.8 6.2 6.3 10.9 6.3z"/><path d="m383.2 484.1h25v5.8h-25z"/></g><path d="m380.7 457.7c1.5.6 2.4 2.1 2.4 3.7v14.7h8.5v-26.5c-.3-.2-.6-.4-.9-.7l-9.3-9.3c-1.6-1.6-1.6-4.1 0-5.7s4.1-1.6 5.7 0l4.6 4.6v-10.8c0-2.2 1.8-4 4-4s4 1.8 4 4v10.8l4.6-4.6c1.6-1.6 4.1-1.6 5.7 0s1.6 4.1 0 5.7l-9.3 9.3c-.3.3-.6.5-.9.7v26.5h8.5v-14.7c0-1.6.9-3 2.4-3.7 13.8-6 22.6-19.5 22.6-34.5 0-20.7-16.8-37.6-37.6-37.6s-37.6 16.8-37.6 37.6c0 15 8.9 28.5 22.6 34.5z" fill="#fbca41"/><path d="m121.8 322.4h38.8v11.5h-38.8z" fill="#3e6276"/><path d="m141.2 354.4c8.2 0 15.2-5.1 18-12.3h-36.1c2.9 7.1 9.9 12.3 18.1 12.3z" fill="#3e6276"/><path d="m380.7 97.6c1.5.6 2.4 2.1 2.4 3.7v14.7h8.5v-26.5c-.3-.2-.6-.4-.9-.7l-9.3-9.3c-1.6-1.6-1.6-4.1 0-5.7s4.1-1.6 5.7 0l4.6 4.6v-10.8c0-2.2 1.8-4 4-4s4 1.8 4 4v10.8l4.6-4.6c1.6-1.6 4.1-1.6 5.7 0s1.6 4.1 0 5.7l-9.3 9.3c-.3.3-.6.5-.9.7v26.5h8.5v-14.7c0-1.6.9-3 2.4-3.7 13.8-6 22.6-19.5 22.6-34.5 0-20.7-16.8-37.6-37.6-37.6s-37.6 16.8-37.6 37.6c0 15 8.9 28.6 22.6 34.5z" fill="#fbca41"/><path d="m119.3 288.3c1.5.6 2.4 2.1 2.4 3.7v22.5h15.4v-40.5c-.7-.2-1.3-.5-1.8-1l-13.2-13.2c-1.6-1.6-1.6-4.1 0-5.7s4.1-1.6 5.7 0l9.3 9.3v-19.4c0-2.2 1.8-4 4-4s4 1.8 4 4v19.4l9.3-9.3c1.6-1.6 4.1-1.6 5.7 0s1.6 4.1 0 5.7l-13.2 13.2c-.5.5-1.1.8-1.8 1v40.5h15.4v-22.5c0-1.6.9-3 2.4-3.7 20.1-8.7 33.1-28.5 33.1-50.5 0-30.3-24.7-55-55-55s-55 24.7-55 55c.2 21.9 13.2 41.7 33.3 50.5z" fill="#fbca41"/><path d="m395.7 504.2c4.6 0 8.7-2.5 10.8-6.3h-21.7c2.2 3.8 6.2 6.3 10.9 6.3z" fill="#3e6276"/><path d="m216.1 276.4-4.9-2.8c-1.9-1.1-4.4-.4-5.5 1.5s-.4 4.4 1.5 5.5l4.9 2.8c.6.4 1.3.5 2 .5 1.4 0 2.7-.7 3.5-2 1-2 .4-4.4-1.5-5.5z"/><path d="m421.8 369.9-2 3.4c-1.1 1.9-.4 4.4 1.5 5.5.6.4 1.3.5 2 .5 1.4 0 2.7-.7 3.5-2l2-3.4c1.1-1.9.4-4.4-1.5-5.5-1.9-1-4.4-.4-5.5 1.5z"/><path d="m225.3 241.8c2.2 0 4-1.8 4-4s-1.8-4-4-4h-5.6c-2.2 0-4 1.8-4 4s1.8 4 4 4z"/><path d="m346.4 390.1c-1.9-1.1-4.4-.4-5.5 1.5s-.4 4.4 1.5 5.5l3.4 2c.6.4 1.3.5 2 .5 1.4 0 2.7-.7 3.5-2 1.1-1.9.4-4.4-1.5-5.5z"/><path d="m364 368.5c-1.9 1.1-2.6 3.6-1.5 5.5l2 3.4c.7 1.3 2.1 2 3.5 2 .7 0 1.4-.2 2-.5 1.9-1.1 2.6-3.6 1.5-5.5l-2-3.4c-1.1-2-3.6-2.6-5.5-1.5z"/><path d="m445 30-3.4 2c-1.9 1.1-2.6 3.6-1.5 5.5.7 1.3 2.1 2 3.5 2 .7 0 1.4-.2 2-.5l3.4-2c1.9-1.1 2.6-3.6 1.5-5.5-1.2-2-3.6-2.7-5.5-1.5z"/><path d="m391.7 364v4c0 2.2 1.8 4 4 4s4-1.8 4-4v-4c0-2.2-1.8-4-4-4s-4 1.8-4 4z"/><path d="m458.9 423.2c0-2.2-1.8-4-4-4h-4c-2.2 0-4 1.8-4 4s1.8 4 4 4h4c2.2 0 4-1.8 4-4z"/><path d="m441.5 94.2 3.4 2c.6.4 1.3.5 2 .5 1.4 0 2.7-.7 3.5-2 1.1-1.9.4-4.4-1.5-5.5l-3.4-2c-1.9-1.1-4.4-.4-5.5 1.5-1.1 2-.4 4.4 1.5 5.5z"/><path d="m440 448.9c-1.1 1.9-.4 4.4 1.5 5.5l3.4 2c.6.4 1.3.5 2 .5 1.4 0 2.7-.7 3.5-2 1.1-1.9.4-4.4-1.5-5.5l-3.4-2c-1.9-1.1-4.4-.5-5.5 1.5z"/><path d="m454.9 59.1h-4c-2.2 0-4 1.8-4 4s1.8 4 4 4h4c2.2 0 4-1.8 4-4s-1.8-4-4-4z"/><path d="m332.4 63.1c0 2.2 1.8 4 4 4h4c2.2 0 4-1.8 4-4s-1.8-4-4-4h-4c-2.2 0-4 1.8-4 4z"/><path d="m440 397.6c.7 1.3 2.1 2 3.5 2 .7 0 1.4-.2 2-.5l3.4-2c1.9-1.1 2.6-3.6 1.5-5.5s-3.6-2.6-5.5-1.5l-3.4 2c-1.9 1.1-2.6 3.6-1.5 5.5z"/><path d="m102 173.8c.7 0 1.4-.2 2-.5 1.9-1.1 2.6-3.6 1.5-5.5l-2.8-4.9c-1.1-1.9-3.5-2.6-5.5-1.5-1.9 1.1-2.6 3.6-1.5 5.5l2.8 4.9c.7 1.3 2.1 2 3.5 2z"/><path d="m113.8 294.5v40.3c0 15.1 12.3 27.4 27.4 27.4s27.4-12.3 27.4-27.4v-40.3c2.6-1.2 5-2.7 7.4-4.2l174.3 128c-.2 1.6-.3 3.2-.3 4.9 0 17.3 9.7 33 25.1 40.7v27.7c0 11.3 9.2 20.5 20.5 20.5s20.5-9.2 20.5-20.5v-27.7c15.3-7.7 25.1-23.4 25.1-40.7 0-25.1-20.4-45.6-45.6-45.6-20.4 0-37.7 13.5-43.5 32l-169.5-124.5c13.5-11.8 21.6-28.9 21.6-47.4 0-2.3-.1-4.5-.4-6.8l164.3-131.6c2.2 1.7 4.5 3.1 7 4.4v27.7c0 11.3 9.2 20.5 20.5 20.5s20.5-9.2 20.5-20.5v-27.7c15.3-7.7 25.1-23.4 25.1-40.7 0-25.1-20.4-45.6-45.6-45.6-25.2-.1-45.6 20.3-45.6 45.6 0 11.7 4.4 22.6 12 30.8l-159.9 128.1c-7-27.1-31.7-47.3-61-47.3-34.7 0-63 28.2-63 63 .1 24.4 14 46.4 35.7 56.9zm281.9 209.7c-4.6 0-8.7-2.5-10.8-6.3h21.7c-2.3 3.8-6.3 6.3-10.9 6.3zm12.5-14.3h-25v-5.8h25zm-12.5-104.2c20.7 0 37.6 16.8 37.6 37.6 0 15-8.9 28.5-22.6 34.5-1.5.6-2.4 2.1-2.4 3.7v14.7h-8.5v-26.5c.3-.2.6-.4.9-.7l9.3-9.3c1.6-1.6 1.6-4.1 0-5.7s-4.1-1.6-5.7 0l-4.6 4.6v-10.8c0-2.2-1.8-4-4-4s-4 1.8-4 4v10.8l-4.6-4.6c-1.6-1.6-4.1-1.6-5.7 0s-1.6 4.1 0 5.7l9.3 9.3c.3.3.6.5.9.7v26.5h-8.5v-14.7c0-1.6-.9-3-2.4-3.7-13.8-6-22.6-19.5-22.6-34.5 0-20.8 16.8-37.6 37.6-37.6zm0-241.7c-4.6 0-8.7-2.5-10.8-6.3h21.7c-2.3 3.8-6.3 6.3-10.9 6.3zm12.5-14.3h-25v-5.8h25zm-50.1-66.6c0-20.7 16.8-37.6 37.6-37.6s37.6 16.8 37.6 37.6c0 15-8.9 28.5-22.6 34.5-1.5.6-2.4 2.1-2.4 3.7v14.7h-8.5v-26.5c.3-.2.6-.4.9-.7l9.3-9.3c1.6-1.6 1.6-4.1 0-5.7s-4.1-1.6-5.7 0l-4.6 4.6v-10.8c0-2.2-1.8-4-4-4s-4 1.8-4 4v10.8l-4.6-4.6c-1.6-1.6-4.1-1.6-5.7 0s-1.6 4.1 0 5.7l9.3 9.3c.3.3.6.5.9.7v26.5h-8.5v-14.7c0-1.6-.9-3-2.4-3.7-13.7-5.9-22.6-19.5-22.6-34.5zm-216.9 291.3c-8.2 0-15.2-5.1-18-12.3h36.1c-2.9 7.1-9.9 12.3-18.1 12.3zm19.4-20.3h-38.8v-11.5h38.8zm-19.4-151.4c30.3 0 55 24.7 55 55 0 21.9-13 41.7-33.1 50.5-1.5.6-2.4 2.1-2.4 3.7v22.5h-15.4v-40.4c.7-.2 1.3-.5 1.8-1l13.2-13.2c1.6-1.6 1.6-4.1 0-5.7s-4.1-1.6-5.7 0l-9.3 9.3v-19.4c0-2.2-1.8-4-4-4s-4 1.8-4 4v19.4l-9.3-9.3c-1.6-1.6-4.1-1.6-5.7 0s-1.6 4.1 0 5.7l13.2 13.2c.5.5 1.1.8 1.8 1v40.5h-15.4v-22.5c0-1.6-.9-3-2.4-3.7-20.1-8.7-33.1-28.5-33.1-50.5-.2-30.3 24.5-55.1 54.8-55.1z"/><path d="m75.3 195.1-4.9-2.8c-1.9-1.1-4.4-.4-5.5 1.5s-.4 4.4 1.5 5.5l4.9 2.8c.6.4 1.3.5 2 .5 1.4 0 2.7-.7 3.5-2 1-1.9.4-4.4-1.5-5.5z"/><path d="m145.2 159.3v-5.6c0-2.2-1.8-4-4-4s-4 1.8-4 4v5.6c0 2.2 1.8 4 4 4s4-1.8 4-4z"/><path d="m71.3 273.6-4.9 2.8c-1.9 1.1-2.6 3.5-1.5 5.5.7 1.3 2.1 2 3.5 2 .7 0 1.4-.2 2-.5l4.9-2.8c1.9-1.1 2.6-3.5 1.5-5.5-1.2-2-3.6-2.7-5.5-1.5z"/><path d="m351.3 37.4c1.1-1.9.4-4.4-1.5-5.5l-3.4-2c-1.9-1.1-4.4-.4-5.5 1.5s-.4 4.4 1.5 5.5l3.4 2c.6.4 1.3.5 2 .5 1.4 0 2.7-.7 3.5-2z"/><path d="m368 19.2c.7 0 1.4-.2 2-.5 1.9-1.1 2.6-3.6 1.5-5.5l-2-3.4c-1.1-1.9-3.6-2.6-5.5-1.5s-2.6 3.6-1.5 5.5l2 3.4c.8 1.3 2.1 2 3.5 2z"/><path d="m57.1 233.8c-2.2 0-4 1.8-4 4s1.8 4 4 4h5.6c2.2 0 4-1.8 4-4s-1.8-4-4-4z"/><path d="m342.4 89.3c-1.9 1.1-2.6 3.6-1.5 5.5.7 1.3 2.1 2 3.5 2 .7 0 1.4-.2 2-.5l3.4-2c1.9-1.1 2.6-3.6 1.5-5.5s-3.6-2.6-5.5-1.5z"/><path d="m344.4 423.2c0-2.2-1.8-4-4-4h-4c-2.2 0-4 1.8-4 4s1.8 4 4 4h4c2.2 0 4-1.8 4-4z"/><path d="m344.4 456.8c.7 0 1.4-.2 2-.5l3.4-2c1.9-1.1 2.6-3.6 1.5-5.5s-3.5-2.6-5.5-1.5l-3.4 2c-1.9 1.1-2.6 3.6-1.5 5.5.7 1.3 2.1 2 3.5 2z"/><path d="m180.4 173.8c1.4 0 2.7-.7 3.5-2l2.8-4.9c1.1-1.9.4-4.4-1.5-5.5s-4.4-.4-5.5 1.5l-2.8 4.9c-1.1 1.9-.4 4.4 1.5 5.5.6.3 1.3.5 2 .5z"/><path d="m209.2 202.6c.7 0 1.4-.2 2-.5l4.9-2.8c1.9-1.1 2.6-3.6 1.5-5.5s-3.6-2.6-5.5-1.5l-4.9 2.8c-1.9 1.1-2.6 3.6-1.5 5.5.8 1.3 2.1 2 3.5 2z"/><path d="m399.7 7.8v-4c0-2.2-1.8-4-4-4s-4 1.8-4 4v4c0 2.2 1.8 4 4 4s4-1.8 4-4z"/><path d="m423.3 19.2c1.4 0 2.7-.7 3.5-2l2-3.4c1.1-1.9.4-4.4-1.5-5.5s-4.4-.4-5.5 1.5l-2 3.4c-1.1 1.9-.4 4.4 1.5 5.5.6.3 1.3.5 2 .5z"/></g></svg>