<svg id="Layer_1" enable-background="new 0 0 512 512" height="512" viewBox="0 0 512 512" width="512" xmlns="http://www.w3.org/2000/svg"><g><path d="m145.2 236.3c22.5-6.2 42-19.6 56-37.5 14.2-18.2 22.7-41.2 22.7-66.1 0-29.7-12-56.5-31.5-76s-46.3-31.5-76-31.5-56.5 12-76 31.5-31.4 46.3-31.4 76c0 25.2 8.7 48.4 23.2 66.7 13.7 17.3 32.7 30.3 54.5 36.6l.1-4.8c.2-8.1 3.6-15.3 9-20.6 11.7-11.3 30.1-10.9 41.4.8 4.1 4.3 7 9.9 7.9 16 .4 3 .2 5.7.1 8.9zm-35.5-68c-3 2-8.7 6-11.9 7.3-3.8 1.5-8 1.6-11.7.5s-7.1-3.5-9.5-6.9l-30-43.5c-2.8-4-3.7-8.8-2.9-13.3 1.8-9.6 11-16 20.7-14.3 6 1.1 9.2 4.2 12.5 9l19 27.6 66.1-43.4c4.1-2.7 8.9-3.5 13.4-2.5 9.6 2 15.8 11.4 13.8 21.1-.9 4.5-3.6 8.6-7.7 11.3z" fill="#fff"/><path d="m357.7 182.2c2.5 0 4.9-1 6.8-2.8l30.2-30.2c1.6-1.6 4.1-1.6 5.7 0l30.2 30.2c1.9 1.9 4.4 2.8 6.8 2.8 5.3 0 9.6-4.3 9.6-9.7 0-2.5-.9-4.9-2.8-6.8l-30.2-30.2c-1.6-1.6-1.6-4.1 0-5.6l30.2-30.2c1.9-1.9 2.8-4.4 2.8-6.8 0-5.4-4.3-9.7-9.6-9.7-2.5 0-5 .9-6.8 2.8l-30.2 30.2c-1.6 1.6-4.1 1.6-5.7 0l-30.2-30.2c-1.9-1.9-4.4-2.8-6.8-2.8-5.3 0-9.6 4.3-9.6 9.7 0 2.5.9 4.9 2.8 6.8l30.2 30.2c1.6 1.6 1.6 4.1 0 5.6l-30.2 30.2c-1.9 1.9-2.8 4.4-2.8 6.8 0 5.3 4.3 9.7 9.6 9.7z" fill="#e63d7d"/><path d="m397.5 240.2c29.7 0 56.6-12 76-31.5 19.4-19.4 31.5-46.3 31.5-76s-12-56.6-31.5-76c-19.4-19.4-46.3-31.5-76-31.5s-56.6 12-76 31.5c-19.4 19.4-31.5 46.3-31.5 76s12 56.6 31.5 76c19.4 19.4 46.3 31.5 76 31.5zm-52.3-134.9c-3.5-3.5-5.2-8-5.2-12.5 0-9.8 7.9-17.7 17.7-17.7 4.5 0 9 1.7 12.5 5.2l27.3 27.4 27.4-27.3c3.5-3.4 8-5.2 12.5-5.2 9.8 0 17.6 7.9 17.6 17.7 0 4.5-1.7 9-5.2 12.5l-27.3 27.3 27.3 27.4c3.5 3.5 5.2 8 5.2 12.5 0 9.8-7.9 17.7-17.6 17.7-4.5 0-9-1.7-12.5-5.2l-27.3-27.4-27.4 27.3c-3.5 3.4-8 5.2-12.5 5.2-9.8 0-17.7-7.9-17.7-17.7 0-4.5 1.7-9 5.2-12.5l27.3-27.4z" fill="#fff"/><path d="m173.8 96.7c-2.4-.5-5.1-.1-7.4 1.4l-69 45.3c-2 1.3-4.4 1.2-5.8-.9l-22.3-32.4c-1.5-2.2-3.8-3.6-6.3-4.1-5.4-1-10.5 2.6-11.4 7.9-.5 2.5 0 5.1 1.6 7.3l30 43.5c1.3 1.9 3.2 3.2 5.2 3.8 2.1.6 4.4.6 6.5-.3 3-1.2 8.6-5.4 11.6-7.3l70.7-46.4c2.3-1.5 3.7-3.7 4.2-6.2 1.1-5.3-2.3-10.5-7.6-11.6z" fill="#a0c76a"/><path d="m189.2 109.9c2-9.7-4.2-19.1-13.8-21.1-4.5-1-9.3-.2-13.4 2.5l-66.1 43.4-19-27.6c-3.3-4.8-6.5-7.9-12.5-9-9.7-1.7-18.9 4.7-20.7 14.3-.8 4.5.1 9.3 2.9 13.3l30 43.5c2.4 3.4 5.8 5.8 9.5 6.9s7.9 1 11.7-.5c3.2-1.3 8.9-5.3 11.9-7.3l71.8-47.1c4.1-2.7 6.8-6.8 7.7-11.3zm-12 4.6-70.7 46.4c-3 1.9-8.6 6.1-11.6 7.3-2.1.9-4.4.9-6.5.3-2-.6-3.9-1.9-5.2-3.8l-30-43.5c-1.6-2.2-2.1-4.8-1.6-7.3.9-5.3 6-8.9 11.4-7.9 2.5.5 4.8 1.9 6.3 4.1l22.3 32.4c1.4 2.1 3.8 2.2 5.8.9l69-45.3c2.3-1.5 5-1.9 7.4-1.4 5.3 1.1 8.7 6.3 7.6 11.6-.5 2.5-1.9 4.7-4.2 6.2z"/><path d="m286.8 367.9c.1-5.9-2.2-11.3-6-15.2-8.2-8.5-21.6-8.8-30.1-.5-3.3 3.2-5.6 7.4-6.3 12.1-.5 3.1-.3 7-.4 10l-.8 41.7c0 2.2-1.8 3.9-4.1 3.9-2.2 0-3.9-1.8-3.9-4.1l.8-41.8c.1-3 .4-7.2-.1-10.2-.6-4.6-2.7-8.8-5.8-12-8.2-8.5-21.6-8.7-30.1-.5-3 2.9-5.1 6.6-6.1 10.8-.6 2.7-.5 5.4-.5 8.1l-.8 45c0 2.2-1.8 4-4.1 3.9-2.2-.1-4-1.9-3.9-4.1l.8-44.7c0-2.7.2-5.4-.2-8.1-.7-4.4-2.8-8.3-5.7-11.4-8.2-8.5-21.6-8.7-30.1-.5-3.5 3.4-5.9 8-6.4 13.1-.1 1.2-.1 2.4-.1 3.5l-.9 47.2c0 2.2-1.8 3.9-4 3.9s-4-1.8-3.9-4.1c.7-38.3 1.4-76.6 2.1-114.8l.4-20.9.8-43.8c.1-6.8-.5-12.2-6-17.8-8.2-8.5-21.6-8.8-30.1-.5-3.9 3.8-6.4 9.1-6.5 14.9l-.1 5.5c-.2 3.2-.2 6.1-.3 9l-.6 32.7-2.5 134.8c.1 1.5-.7 2.9-2.1 3.7-1.9 1.1-4.3.4-5.4-1.6l-28.5-51.6c-2.8-5.1-7.5-8.6-12.8-10.1-5.2-1.5-11.1-1-16.2 1.8s-8.6 7.5-10.1 12.8c-1.5 5.2-1 11.1 1.8 16.2l57.1 103.2c1.1 1.9.4 4.4-1.6 5.4-.3.2-.7.3-1 .4h212.9c-.5-.7-.8-1.5-.8-2.5z" fill="#fadbcc"/><path d="m294.8 368.1c.2-8-3-15.4-8.2-20.8-11.2-11.7-29.7-12.1-41.4-.8-1.8 1.8-3.4 3.7-4.7 5.9-1.2-2.2-2.8-4.3-4.5-6.1-11.3-11.7-29.7-12.1-41.4-.8-1.8 1.8-3.4 3.7-4.7 5.9-1.2-2.2-2.7-4.3-4.5-6.1-11.3-11.7-29.7-12.1-41.4-.8-.3.3-.5.5-.7.7l1.2-67 .6-33.7c25.1-6.4 46.9-21.1 62.4-40.9 6.3-8.1 11.6-17.1 15.6-26.8 5.7-13.6 8.8-28.5 8.8-44.2 0-31.8-12.9-60.7-33.8-81.6s-49.8-33.8-81.7-33.8c-31.8 0-60.7 12.9-81.6 33.8-20.9 20.9-33.8 49.8-33.8 81.7 0 15.6 3.1 30.5 8.8 44.1 4.1 9.9 9.5 19.1 16.1 27.4 15.1 19.2 36.2 33.4 60.5 39.9l-.6 34.1-2.2 120-21.3-38.6c-3.8-7-10.3-11.8-17.5-13.9s-15.2-1.4-22.3 2.5-11.9 10.4-14 17.6-1.4 15.2 2.5 22.3l57.1 103.1c.5 1 1.4 1.7 2.5 2 .6.2 1.3.2 1.9 0 .4-.1.7-.2 1-.4 2-1 2.7-3.5 1.6-5.4l-57.1-103.2c-2.8-5.1-3.3-11-1.8-16.2 1.5-5.3 5-10 10.1-12.8s11-3.3 16.2-1.8c5.3 1.5 10 5 12.8 10.1l28.5 51.6c1.1 2 3.5 2.7 5.4 1.6 1.4-.8 2.2-2.2 2.1-3.7l2.5-134.8.6-32.7c.1-2.9.1-5.8.3-9l.1-5.5c.1-5.8 2.6-11.1 6.5-14.9 8.5-8.3 21.9-8 30.1.5 5.5 5.6 6.1 11 6 17.8l-.8 43.8-.4 20.9c-.7 38.2-1.4 76.5-2.1 114.8-.1 2.3 1.7 4.1 3.9 4.1s4-1.7 4-3.9l.9-47.2c0-1.1 0-2.3.1-3.5.5-5.1 2.9-9.7 6.4-13.1 8.5-8.2 21.9-8 30.1.5 2.9 3.1 5 7 5.7 11.4.4 2.7.2 5.4.2 8.1l-.8 44.7c-.1 2.2 1.7 4 3.9 4.1 2.3.1 4.1-1.7 4.1-3.9l.8-45c0-2.7-.1-5.4.5-8.1 1-4.2 3.1-7.9 6.1-10.8 8.5-8.2 21.9-8 30.1.5 3.1 3.2 5.2 7.4 5.8 12 .5 3 .2 7.2.1 10.2l-.8 41.8c0 2.3 1.7 4.1 3.9 4.1 2.3 0 4.1-1.7 4.1-3.9l.8-41.7c.1-3-.1-6.9.4-10 .7-4.7 3-8.9 6.3-12.1 8.5-8.3 21.9-8 30.1.5 3.8 3.9 6.1 9.3 6 15.2l-2.2 122.8c0 .9.3 1.8.8 2.5.7 1 1.8 1.6 3.1 1.6 1.4.1 2.6-.6 3.4-1.6.5-.6.7-1.4.7-2.3zm-157.6-156.7c-11.3-11.7-29.7-12.1-41.4-.8-5.4 5.3-8.8 12.5-9 20.6l-.1 4.8c-21.8-6.3-40.8-19.3-54.5-36.6-5.5-6.9-10.1-14.5-13.7-22.6-6.1-13.4-9.5-28.4-9.5-44.1 0-29.7 11.9-56.5 31.4-76s46.3-31.5 76-31.5 56.5 12 76 31.5 31.5 46.3 31.5 76c0 15.7-3.4 30.7-9.5 44.1-3.5 7.9-8 15.2-13.2 22-14 17.9-33.5 31.3-56 37.5.1-3.2.3-5.9-.1-8.9-.9-6.1-3.8-11.7-7.9-16z"/><path d="m397.5 248.1c31.9 0 60.7-12.9 81.6-33.8s33.8-49.8 33.8-81.7c0-31.8-12.9-60.7-33.8-81.6s-49.7-33.8-81.6-33.8c-31.8 0-60.7 12.9-81.6 33.8s-33.8 49.7-33.8 81.6 12.9 60.8 33.8 81.7 49.7 33.8 81.6 33.8zm-76-191.4c19.4-19.5 46.3-31.5 76-31.5s56.6 12.1 76 31.5c19.5 19.4 31.5 46.3 31.5 76s-12.1 56.6-31.5 76c-19.4 19.5-46.3 31.5-76 31.5s-56.6-12.1-76-31.5c-19.5-19.4-31.5-46.3-31.5-76s12.1-56.6 31.5-76z"/><path d="m340 172.5c0 9.8 7.9 17.7 17.7 17.7 4.5 0 9-1.8 12.5-5.2l27.4-27.3 27.3 27.4c3.5 3.5 8 5.2 12.5 5.2 9.7 0 17.6-7.9 17.6-17.7 0-4.5-1.7-9-5.2-12.5l-27.3-27.4 27.3-27.3c3.5-3.5 5.2-8 5.2-12.5 0-9.8-7.8-17.7-17.6-17.7-4.5 0-9 1.8-12.5 5.2l-27.4 27.3-27.3-27.4c-3.5-3.5-8-5.2-12.5-5.2-9.8 0-17.7 7.9-17.7 17.7 0 4.5 1.7 9 5.2 12.5l27.3 27.3-27.3 27.4c-3.5 3.5-5.2 8-5.2 12.5zm10.9-6.8 30.2-30.2c1.6-1.5 1.6-4 0-5.6l-30.2-30.2c-1.9-1.9-2.8-4.3-2.8-6.8 0-5.4 4.3-9.7 9.6-9.7 2.4 0 4.9.9 6.8 2.8l30.2 30.2c1.6 1.6 4.1 1.6 5.7 0l30.2-30.2c1.8-1.9 4.3-2.8 6.8-2.8 5.3 0 9.6 4.3 9.6 9.7 0 2.4-.9 4.9-2.8 6.8l-30.2 30.2c-1.6 1.5-1.6 4 0 5.6l30.2 30.2c1.9 1.9 2.8 4.3 2.8 6.8 0 5.4-4.3 9.7-9.6 9.7-2.4 0-4.9-.9-6.8-2.8l-30.2-30.2c-1.6-1.6-4.1-1.6-5.7 0l-30.2 30.2c-1.9 1.8-4.3 2.8-6.8 2.8-5.3 0-9.6-4.4-9.6-9.7 0-2.4.9-4.9 2.8-6.8z"/></g></svg>