<svg id="Layer_1" enable-background="new 0 0 512 512" height="512" viewBox="0 0 512 512" width="512" xmlns="http://www.w3.org/2000/svg"><g clip-rule="evenodd" fill-rule="evenodd"><path d="m99.9 232.5h44.5v44.5h-44.5z" fill="#e7f2fb"/><path d="m224.4 462.1c0-17.4-12.5-33.3-33.6-42.5-1.7-.8-2.7-2.6-2.3-4.5s2-3.2 3.9-3.2h124.5v-404h-245.4v408.4c0 47.6 53.8 87 120.2 87.9 20.5-9.3 32.7-25 32.7-42.1zm-44.4-390.9h109.8c2.2 0 4 1.8 4 4s-1.8 4-4 4h-109.8c-2.2 0-4-1.8-4-4s1.8-4 4-4zm0 89.8h109.8c2.2 0 4 1.8 4 4s-1.8 4-4 4h-109.8c-2.2 0-4-1.8-4-4s1.8-4 4-4zm0 89.7h109.8c2.2 0 4 1.8 4 4s-1.8 4-4 4h-109.8c-2.2 0-4-1.8-4-4s1.8-4 4-4zm-27.6 120.1c0 2.2-1.8 4-4 4h-52.5c-2.2 0-4-1.8-4-4v-52.5c0-2.2 1.8-4 4-4h52.5c2.2 0 4 1.8 4 4zm0-89.7c0 2.2-1.8 4-4 4h-52.5c-2.2 0-4-1.8-4-4v-52.5c0-2.2 1.8-4 4-4h52.5c2.2 0 4 1.8 4 4zm0-89.8c0 2.2-1.8 4-4 4h-52.5c-2.2 0-4-1.8-4-4v-52.5c0-2.2 1.8-4 4-4h52.5c2.2 0 4 1.8 4 4zm0-89.8c0 2.2-1.8 4-4 4h-52.5c-2.2 0-4-1.8-4-4v-52.5c0-2.2 1.8-4 4-4h52.5c2.2 0 4 1.8 4 4zm23.6 243c0-2.2 1.8-4 4-4h109.8c2.2 0 4 1.8 4 4s-1.8 4-4 4h-109.8c-2.2 0-4-1.8-4-4z" fill="#fff"/><g fill="#e7f2fb"><path d="m232.4 462.1c0 16.3-8.9 31.4-24.5 42.1h199.9c20.6-9.2 32.8-24.9 32.8-42.1s-12.2-32.9-32.8-42.1h-199.9c15.6 10.7 24.5 25.7 24.5 42.1z"/><path d="m99.9 53h44.5v44.5h-44.5z"/><path d="m99.9 322.3h44.5v44.5h-44.5z"/><path d="m99.9 142.8h44.5v44.5h-44.5z"/></g><path d="m180 79.2h109.8c2.2 0 4-1.8 4-4s-1.8-4-4-4h-109.8c-2.2 0-4 1.8-4 4s1.8 4 4 4z"/><path d="m180 169h109.8c2.2 0 4-1.8 4-4s-1.8-4-4-4h-109.8c-2.2 0-4 1.8-4 4s1.8 4 4 4z"/><path d="m320.8-.1h-253.3c-2.2 0-4 1.8-4 4v412.4c0 52.1 57.7 95.2 128.7 95.9h.2 216.3c.6 0 1.1-.1 1.6-.3 24-10.5 38.3-29.1 38.3-49.8s-14.3-39.3-38.3-49.8c-.5-.2-1.1-.3-1.6-.3h-83.9v-408.1c0-2.2-1.8-4-4-4zm-129.1 504.3c-66.3-1-120.2-40.3-120.2-87.9v-408.5h245.4v404h-124.4c-1.9 0-3.5 1.3-3.9 3.2s.6 3.7 2.3 4.5c21 9.2 33.6 25.1 33.6 42.5-.1 17.2-12.3 32.9-32.8 42.2zm216.2-84.3c20.6 9.2 32.8 24.9 32.8 42.1s-12.2 32.9-32.8 42.1h-200c15.6-10.8 24.5-25.8 24.5-42.1s-8.9-31.4-24.5-42.1z"/><path d="m293.9 344.5c0-2.2-1.8-4-4-4h-109.9c-2.2 0-4 1.8-4 4s1.8 4 4 4h109.8c2.3 0 4.1-1.8 4.1-4z"/><path d="m148.4 45h-52.5c-2.2 0-4 1.8-4 4v52.5c0 2.2 1.8 4 4 4h52.5c2.2 0 4-1.8 4-4v-52.5c0-2.3-1.8-4-4-4zm-4 52.5h-44.5v-44.5h44.5z"/><path d="m148.4 134.8h-52.5c-2.2 0-4 1.8-4 4v52.5c0 2.2 1.8 4 4 4h52.5c2.2 0 4-1.8 4-4v-52.5c0-2.2-1.8-4-4-4zm-4 52.5h-44.5v-44.5h44.5z"/><path d="m180 258.8h109.8c2.2 0 4-1.8 4-4s-1.8-4-4-4h-109.8c-2.2 0-4 1.8-4 4s1.8 4 4 4z"/><path d="m148.4 224.5h-52.5c-2.2 0-4 1.8-4 4v52.5c0 2.2 1.8 4 4 4h52.5c2.2 0 4-1.8 4-4v-52.5c0-2.2-1.8-4-4-4zm-4 52.6h-44.5v-44.5h44.5z"/><path d="m148.4 314.3h-52.5c-2.2 0-4 1.8-4 4v52.5c0 2.2 1.8 4 4 4h52.5c2.2 0 4-1.8 4-4v-52.5c0-2.2-1.8-4-4-4zm-4 52.5h-44.5v-44.5h44.5z"/></g></svg>