<svg id="Layer_1" enable-background="new 0 0 512 512" height="512" viewBox="0 0 512 512" width="512" xmlns="http://www.w3.org/2000/svg"><path d="m256 86.7c12.3 0 22.4-10.1 22.4-22.5 0-12.3-10.1-22.4-22.4-22.4s-22.4 10-22.4 22.4 10.1 22.5 22.4 22.5z" fill="#1d6e9c"/><path d="m391.9 299v-290h-271.8v290l135.9 96.7zm-188.1-175.8c0-18.8 15.3-34.1 34.1-34.1h.6c-7.8-5.5-12.9-14.6-12.9-24.9 0-16.8 13.6-30.4 30.4-30.4s30.4 13.6 30.4 30.4c0 10.3-5.1 19.4-12.9 24.9h.6c18.8 0 34.1 15.3 34.1 34.1v30.1c0 2.2-1.8 4-4 4h-96.4c-2.2 0-4-1.8-4-4zm-42 52.6h188.5c2.2 0 4 1.8 4 4s-1.8 4-4 4h-188.5c-2.2 0-4-1.8-4-4s1.8-4 4-4zm0 26.6h188.5c2.2 0 4 1.8 4 4s-1.8 4-4 4h-188.5c-2.2 0-4-1.8-4-4s1.8-4 4-4zm0 26.5h188.5c2.2 0 4 1.8 4 4s-1.8 4-4 4h-188.5c-2.2 0-4-1.8-4-4s1.8-4 4-4zm0 26.6h188.5c2.2 0 4 1.8 4 4s-1.8 4-4 4h-188.5c-2.2 0-4-1.8-4-4s1.8-4 4-4zm0 26.5h188.5c2.2 0 4 1.8 4 4s-1.8 4-4 4h-188.5c-2.2 0-4-1.8-4-4s1.8-4 4-4zm-4 30.6c0-2.2 1.8-4 4-4h188.5c2.2 0 4 1.8 4 4s-1.8 4-4 4h-188.5c-2.2 0-4-1.8-4-4z" fill="#fff"/><path d="m399.9 234.5v58.9l37.6-26.8z" fill="#f8bd43"/><path d="m440 502.2v-227.6l-176.5 125.6z" fill="#f8bd43"/><path d="m83.1 505h345.7l-172.7-99.9z" fill="#f29a4e"/><path d="m300.1 123.2c0-14.4-11.7-26.1-26.1-26.1h-36.1c-14.4 0-26.1 11.7-26.1 26.1h-.1v26.1h88.4z" fill="#1d6e9c"/><path d="m72 274.6v227.6l176.5-102z" fill="#f8bd43"/><path d="m112.2 293.3v-58.9l-37.6 32.2s.1 0 .2.1z" fill="#f8bd43"/><path d="m161.8 290h188.5c2.2 0 4-1.8 4-4s-1.8-4-4-4h-188.5c-2.2 0-4 1.8-4 4s1.8 4 4 4z"/><path d="m354.3 312.6c0-2.2-1.8-4-4-4h-188.5c-2.2 0-4 1.8-4 4s1.8 4 4 4h188.5c2.2 0 4-1.8 4-4z"/><path d="m161.8 263.5h188.5c2.2 0 4-1.8 4-4s-1.8-4-4-4h-188.5c-2.2 0-4 1.8-4 4s1.8 4 4 4z"/><path d="m399.8 223.9v-222.9h-287.6v222.9l-46.7 39.9c-.9.8-1.4 1.9-1.4 3v242.2c0 2.2 1.8 4 4 4h375.9c2.2 0 4-1.8 4-4v-242.1c-.1-1.2-.6-2.3-1.5-3.1zm.1 10.6 37.6 32.1-37.6 26.8zm-279.8-225.5h271.8v290l-135.9 96.7-135.9-96.7zm-7.9 225.4v58.9l-37.4-26.6c-.1-.1-.2-.1-.2-.1zm-40.2 40.2 176.5 125.6-176.5 102zm11.1 230.4 173-99.9 172.7 99.9zm356.9-2.8-176.5-102 176.5-125.6z"/><path d="m161.8 236.9h188.5c2.2 0 4-1.8 4-4s-1.8-4-4-4h-188.5c-2.2 0-4 1.8-4 4s1.8 4 4 4z"/><path d="m207.8 157.3h96.4c2.2 0 4-1.8 4-4v-30.1c0-18.8-15.3-34.1-34.1-34.1h-.6c7.8-5.5 12.9-14.6 12.9-24.9 0-16.8-13.6-30.4-30.4-30.4s-30.4 13.6-30.4 30.4c0 10.3 5.1 19.4 12.9 24.9h-.6c-18.8 0-34.1 15.3-34.1 34.1v30.1c0 2.2 1.8 4 4 4zm25.8-93.1c0-12.4 10.1-22.4 22.4-22.4s22.4 10.1 22.4 22.4c0 12.4-10.1 22.5-22.4 22.5s-22.4-10.1-22.4-22.5zm-21.9 59c.1-14.4 11.8-26.1 26.2-26.1h36.1c14.4 0 26.1 11.7 26.1 26.1v26.1h-88.4z"/><path d="m161.8 210.4h188.5c2.2 0 4-1.8 4-4s-1.8-4-4-4h-188.5c-2.2 0-4 1.8-4 4s1.8 4 4 4z"/><path d="m161.8 183.8h188.5c2.2 0 4-1.8 4-4s-1.8-4-4-4h-188.5c-2.2 0-4 1.8-4 4s1.8 4 4 4z"/></svg>