<svg id="Layer_1" enable-background="new 0 0 512 512" height="512" viewBox="0 0 512 512" width="512" xmlns="http://www.w3.org/2000/svg"><g clip-rule="evenodd" fill-rule="evenodd"><path d="m474.7 365.2c-1-1.2-1.9-2.3-2.9-3.4-.9 1.1-1.9 2.2-2.9 3.4-12.8 15.2-30.3 35.9-29.5 56 .9 20.5 16.3 31.1 31.4 31.1h.8.1.1c15.4.4 31.4-10.2 32.2-31.1 1-20.1-16.5-40.8-29.3-56z" fill="#1d6e9c"/><path d="m264.5 253.6c.5 1.5 0 3.2-1.3 4.2l-84.9 70-5.2 31 86.9 86.9 134.9-134.9c.6-.6 1.4-1 2.2-1.1l66.4-10.8-192.5-192.4v30.5c6.5 3.2 11.4 9 13.2 16.1 1.7 6.5.8 13.3-2.5 19.1-3.4 5.8-8.8 10-15.3 11.7-2.2.6-4.4.9-6.5.9-4.4 0-8.7-1.1-12.5-3.4-5.8-3.4-10-8.8-11.7-15.3-3.1-11.6 2.6-23.8 13.2-29.1v-30.5l-129.1 129.1 141.2 15.2c1.7.1 3 1.3 3.5 2.8z" fill="#1d6e9c"/><g fill="#fff"><path d="m250.8 257.7-228.6-24.5 152 87.7z"/><path d="m170.2 327.8-152-87.7 135.5 185.6z"/><path d="m259.9 158.8c1.7 0 3-1.4 3-3v-93.1c0-1.7-1.4-3-3-3-1.7 0-3 1.4-3 3v93.2c0 1.5 1.4 2.9 3 2.9z"/><path d="m248.9 146.5c-4.9 4.2-7.3 11-5.5 17.5 1.2 4.4 4 8.1 8 10.4s8.6 2.9 13 1.7 8.1-4 10.4-8 2.9-8.6 1.7-13c-.9-3.4-2.9-6.4-5.5-8.6v9.3c0 6.1-5 11-11 11-6.1 0-11-5-11-11v-9.3z"/></g><path d="m.3 225.2c-.8 1.4-.7 3.1.2 4.4l152.4 208.5c.8 1 2 1.6 3.2 1.6.3 0 .6 0 .9-.1 1.6-.4 2.8-1.6 3-3.2l11.4-67.7 85.7 85.7c.8.8 1.8 1.2 2.8 1.2s2-.4 2.8-1.2l136.8-136.8 72.9-11.9c1.5-.2 2.7-1.3 3.2-2.7s.1-3-1-4.1l-203.6-203.7v-32.6c0-6.1-5-11-11-11-6.1 0-11 5-11 11v32.6l-139.3 139.3-105.4-11.3c-1.7-.2-3.2.6-4 2zm256.6-162.5c0-1.7 1.4-3 3-3 1.7 0 3 1.4 3 3v93.2c0 1.7-1.4 3-3 3-1.7 0-3-1.4-3-3zm3 104.1c6.1 0 11-5 11-11v-9.3c2.6 2.2 4.6 5.2 5.5 8.6 1.2 4.4.6 9-1.7 13s-6 6.8-10.4 8-9 .6-13-1.7-6.8-6-8-10.4c-1.7-6.5.6-13.3 5.5-17.5v9.3c.1 6.1 5.1 11 11.1 11zm-11-60.3v30.5c-10.7 5.2-16.3 17.4-13.2 29.1 1.7 6.5 5.9 11.9 11.7 15.3 3.9 2.2 8.2 3.4 12.5 3.4 2.2 0 4.4-.3 6.5-.9 6.5-1.7 11.9-5.9 15.3-11.7s4.2-12.6 2.5-19.1c-1.9-7-6.7-12.9-13.2-16.1v-30.5l192.4 192.4-66.4 10.8c-.8.1-1.6.5-2.2 1.1l-134.9 134.9-86.9-86.8 5.2-31 84.9-70c1.2-1 1.7-2.7 1.3-4.2-.5-1.5-1.8-2.7-3.4-2.8l-141.2-15.2zm1.9 151.2-76.6 63.2-152-87.8zm-80.6 70.1-16.5 97.9-135.5-185.6z"/><path d="m512.2 421.6c1-23.3-17.7-45.4-31.4-61.5-2.1-2.5-4.1-4.8-5.9-7-.8-.9-1.9-1.5-3.1-1.5s-2.3.5-3.1 1.5c-1.8 2.2-3.8 4.5-5.9 7-13.7 16.2-32.4 38.3-31.4 61.5 1.1 25.6 20.5 38.8 39.4 38.8h1c19.3.4 39.3-12.7 40.4-38.8zm-40.3 30.8h-.2c-.3 0-.6 0-.8 0-15.1 0-30.5-10.5-31.4-31.1-.8-20.1 16.7-40.9 29.5-56 1-1.2 1.9-2.3 2.9-3.4.9 1.1 1.9 2.2 2.9 3.4 12.8 15.2 30.3 35.9 29.5 56-1 20.9-17 31.5-32.4 31.1z"/></g></svg>