<svg id="Layer_1" enable-background="new 0 0 512 512" height="512" viewBox="0 0 512 512" width="512" xmlns="http://www.w3.org/2000/svg"><g clip-rule="evenodd" fill-rule="evenodd"><ellipse cx="160" cy="170.8" fill="#3e6276" rx="22.6" ry="22.6" transform="matrix(.984 -.178 .178 .984 -27.906 31.285)"/><path d="m202.2 317.4c14.6-15.9 11.3-35.2.3-46.7l-2.6-2.6c-6.1-5.8-14.3-9.4-23.1-9.4-7.8 0-16.1 2.9-23.6 9.8-7.1 6.6-6.4 15.6-5.5 27.1 1 12.6 2.2 27.7-8.9 41.8 21-1.9 49.1-4.5 63.4-20z" fill="#3e6276"/><path d="m232 284.9c.5-.5.8-1.2.8-2s-.3-1.5-.8-2l-27.5-27.5-10-10-4.7-4.7c-.5-.5-1.2-.8-2-.8s-1.5.3-2 .8-.8 1.2-.8 2 .3 1.5.8 2l19.7 19.7c.5.5 1 .9 1.4 1.4.5.5 1 .9 1.4 1.4l19.7 19.7c1.1 1.1 2.9 1.1 4 0z" fill="#fbca41"/><path d="m216.6 254 13.7 13.7c28.4-28.4 54.9-55.4 79.2-80.7l-25.8-25.8c-25.2 24.2-52.2 50.7-80.7 79.2z" fill="#b98147"/><path d="m289.4 155.8 25.6 25.6c6.5-6.8 12.8-13.4 18.9-19.8l-24.6-24.6c-6.5 6-13.2 12.3-19.9 18.8z" fill="#fbca41"/><ellipse cx="349.3" cy="423.9" fill="#f8bd43" rx="22.6" ry="22.6" transform="matrix(.973 -.23 .23 .973 -88.04 91.596)"/><path d="m321.8 185.8c-26 27.2-54.8 56.5-85.9 87.7l1.7 1.7c2 2 3.2 4.8 3.2 7.7s-1.1 5.6-3.2 7.7-4.9 3.2-7.7 3.2-5.5-1.1-7.7-3.2l-2.7-2.7c1.8 11.3-1.3 23.9-11.5 35-16.7 18.1-47.3 20.7-69.6 22.6-3.4.3-6.7.6-9.7.9-.1 0-.3 0-.4 0-1.6 0-3.1-1-3.7-2.5-.7-1.6-.2-3.5 1.1-4.6 16.3-13.4 15.1-28.5 13.9-43-.9-12-1.9-24.4 8.1-33.6 11.2-10.3 23.7-13.3 35-11.5l-2.7-2.7c-4.2-4.2-4.2-11.1 0-15.3 2-2 4.8-3.2 7.7-3.2s5.6 1.1 7.7 3.2l1.9 1.9c24-23.9 46.9-46.5 68.6-67.5-3.2-4-5.5-8.7-6.9-14.1-4.2-16.8 1.9-39.7 18.1-68.1-57.5-4.9-114.8 14-158 52.5-44.6 39.6-70.1 96.7-70.1 156.5 0 115.8 94.2 209.9 209.9 209.9 65.8 0 126.8-26.3 163.1-70.3 34.8-42.3 41.5-106.9 17-164.4-20.6-48.4-58.8-79.3-102.3-82.6-3.1-.2-6.2-.4-9.3-.6-1.8-.4-3.7-.5-5.6-.6zm-161.8-45.6c16.9 0 30.6 13.7 30.6 30.6s-13.7 30.6-30.6 30.6-30.6-13.7-30.6-30.6 13.7-30.6 30.6-30.6zm19.1 321.6c-16.9 0-30.6-13.7-30.6-30.6s13.7-30.6 30.6-30.6 30.6 13.7 30.6 30.6-13.7 30.6-30.6 30.6zm84.3 21.1c-16.9 0-30.6-13.7-30.6-30.6s13.7-30.6 30.6-30.6 30.6 13.7 30.6 30.6-13.8 30.6-30.6 30.6zm131.4-166.7c16.9 0 30.6 13.7 30.6 30.6s-13.7 30.6-30.6 30.6-30.6-13.7-30.6-30.6c-.1-16.9 13.6-30.6 30.6-30.6zm-45.5 77.1c16.9 0 30.6 13.7 30.6 30.6s-13.7 30.6-30.6 30.6-30.6-13.7-30.6-30.6c0-16.8 13.7-30.6 30.6-30.6z" fill="#fff"/><path d="m201.7 431.3c0-12.5-10.2-22.6-22.6-22.6-12.5 0-22.6 10.2-22.6 22.6s10.2 22.6 22.6 22.6c12.5 0 22.6-10.2 22.6-22.6z" fill="#6dbbe9"/><path d="m388.5 64.3c-21.5 18.7-46.1 41.2-73.6 67l24.3 24.3c25.7-27.3 48.3-52 67-73.6 44.7-51.3 54.1-68.5 56-73.9-5.1 2.1-22.3 11.5-73.7 56.2z" fill="#b98147"/><ellipse cx="394.8" cy="346.8" fill="#e74a78" rx="22.6" ry="22.6" transform="matrix(.383 -.924 .924 .383 -76.727 578.795)"/><circle cx="263.4" cy="452.3" fill="#6da74d" r="22.6"/><path d="m349.3 454.5c16.9 0 30.6-13.7 30.6-30.6s-13.7-30.6-30.6-30.6-30.6 13.7-30.6 30.6 13.7 30.6 30.6 30.6zm0-53.1c12.5 0 22.6 10.1 22.6 22.6s-10.1 22.6-22.6 22.6-22.6-10.1-22.6-22.6 10.1-22.6 22.6-22.6z"/><path d="m160 201.4c16.9 0 30.6-13.7 30.6-30.6s-13.7-30.6-30.6-30.6-30.6 13.7-30.6 30.6 13.7 30.6 30.6 30.6zm0-53.2c12.5 0 22.6 10.1 22.6 22.6s-10.1 22.6-22.6 22.6-22.6-10.1-22.6-22.6 10.1-22.6 22.6-22.6z"/><path d="m459.9 28.5c10.8-15.6 13.3-22.9 9.3-26.9s-11.3-1.5-26.9 9.3c-13 8.9-30.8 23.2-52.9 42.3-32.2 27.8-72.1 64.5-117.6 108.5-2.3-3-3.9-6.4-4.9-10.4-3.9-15.5 3.1-38.9 20.3-67.5.7-1.2.8-2.6.2-3.8s-1.8-2-3.1-2.2c-61.8-7.1-124 12.5-170.4 53.9-22.6 20.2-40.5 44.3-53.1 71.8-13.2 28.4-19.8 59.1-19.8 90.8 0 58.2 22.7 113 63.8 154.1s95.9 63.8 154.1 63.8c34.8 0 67.7-6.7 97.7-20 28.5-12.6 53.3-31 71.7-53.2 18.7-22.7 30.1-51.7 32.7-83.8 2.5-29.9-2.5-60.7-14.5-88.9-21.8-51.2-62.5-83.9-109-87.4-2.8-.2-5.6-.4-8.4-.6 35.2-36.9 65.1-69.5 88.6-96.8 19-22.2 33.3-40 42.2-53zm-176.3 132.8 25.8 25.8c-24.2 25.2-50.7 52.2-79.2 80.7l-13.7-13.8-13.6-13.6c28.4-28.4 55.5-54.8 80.7-79.1zm-135.9 134.2c-.9-11.5-1.6-20.5 5.5-27.1 7.5-6.9 15.7-9.8 23.6-9.8 8.8 0 17 3.7 23.1 9.4l2.6 2.6c11 11.5 14.3 30.8-.3 46.7-14.3 15.6-42.4 18.2-63.3 19.9 11-13.9 9.8-29.1 8.8-41.7zm60.6-30.3c-.5-.5-.9-1-1.4-1.4-.5-.5-.9-1-1.4-1.4l-19.7-19.7c-.5-.5-.8-1.2-.8-2s.3-1.5.8-2 1.2-.8 2-.8 1.5.3 2 .8l4.7 4.7 10 10 27.5 27.5c.5.5.8 1.2.8 2s-.3 1.5-.8 2c-1.1 1.1-2.9 1.1-4 0zm128.5-78.4c43.4 3.3 81.6 34.1 102.3 82.6 24.5 57.6 17.9 122.2-17 164.4-36.3 44-97.3 70.4-163.1 70.4-115.8-.1-210-94.2-210-210 0-59.8 25.6-116.9 70.1-156.6 43.3-38.6 100.5-57.5 158.1-52.6-16.2 28.4-22.3 51.3-18.1 68.1 1.3 5.4 3.7 10.1 6.9 14.1-21.7 21-44.6 43.6-68.6 67.5l-1.9-1.9c-2-2-4.8-3.2-7.7-3.2s-5.6 1.1-7.7 3.2c-4.2 4.2-4.2 11.1 0 15.3l2.7 2.7c-11.3-1.8-23.9 1.3-35 11.5-10 9.2-9 21.6-8.1 33.6 1.1 14.6 2.3 29.6-13.9 43-1.4 1.1-1.8 3-1.1 4.6.6 1.5 2.1 2.5 3.7 2.5h.4c3-.3 6.2-.6 9.7-.9 22.3-1.9 53-4.4 69.6-22.6 10.3-11.2 13.3-23.7 11.5-35l2.7 2.7c2.1 2.1 4.9 3.2 7.7 3.2s5.5-1.1 7.7-3.2c2-2 3.2-4.8 3.2-7.7s-1.1-5.6-3.2-7.7l-1.7-1.7c31-31.1 59.8-60.4 85.9-87.7 1.9.1 3.8.3 5.8.4 3 .6 6.1.8 9.1 1zm-21.8-5.5-25.6-25.6c6.8-6.5 13.4-12.8 19.8-18.9l24.6 24.6c-6.1 6.6-12.4 13.2-18.8 19.9zm24.4-25.6-24.3-24.3c27.3-25.7 52-48.3 73.6-67 51.3-44.7 68.5-54.1 73.9-56-1.9 5.3-11.3 22.5-56 73.9-19 21.3-41.5 46.1-67.2 73.4z"/><path d="m394.8 377.4c16.9 0 30.6-13.7 30.6-30.6s-13.7-30.6-30.6-30.6-30.6 13.7-30.6 30.6c-.1 16.9 13.6 30.6 30.6 30.6zm0-53.2c12.5 0 22.6 10.1 22.6 22.6s-10.1 22.6-22.6 22.6-22.6-10.1-22.6-22.6 10-22.6 22.6-22.6z"/><path d="m179.1 400.7c-16.9 0-30.6 13.7-30.6 30.6s13.7 30.6 30.6 30.6 30.6-13.7 30.6-30.6-13.7-30.6-30.6-30.6zm0 53.1c-12.5 0-22.6-10.1-22.6-22.6s10.1-22.6 22.6-22.6 22.6 10.1 22.6 22.6-10.1 22.6-22.6 22.6z"/><path d="m263.4 421.7c-16.9 0-30.6 13.7-30.6 30.6s13.7 30.6 30.6 30.6 30.6-13.7 30.6-30.6-13.8-30.6-30.6-30.6zm0 53.2c-12.5 0-22.6-10.1-22.6-22.6s10.1-22.6 22.6-22.6 22.6 10.1 22.6 22.6-10.2 22.6-22.6 22.6z"/></g></svg>