<svg id="Layer_1" enable-background="new 0 0 512 512" height="512" viewBox="0 0 512 512" width="512" xmlns="http://www.w3.org/2000/svg"><g><path d="m187.7 147c0 38.2 31.1 69.3 69.3 69.3s69.3-31.1 69.3-69.3v-69.3h-138.6zm43.2-22.1c0-2.2 1.8-4 4-4h44.3c2.2 0 4 1.8 4 4v22.1c0 14.5-11.8 26.2-26.2 26.2s-26.1-11.7-26.1-26.2z" fill="#3e6276"/><path d="m257 165.2c9.9 0 18.2-8.4 18.2-18.2v-18.1h-36.3v18.1c0 9.9 8.3 18.2 18.1 18.2z" fill="#fff"/><path d="m454.3 359.4c-11 0-19.9 8.9-19.9 19.9s8.9 19.9 19.9 19.9c10.9 0 19.8-9 19.9-19.9 0-11-8.9-19.9-19.9-19.9z" fill="#fff"/><path d="m288.9 32.9c0-13.2-10.7-23.9-23.9-23.9h-16c-13.2 0-23.9 10.7-23.9 23.9v36.9h63.8z" fill="#3e6276"/><path d="m156 314.8-20.5 35.6h243l-20.5-35.6c-.3.1-.6.1-.9.1h-200.2c-.3 0-.6 0-.9-.1z" fill="#3e6276"/><path d="m478 437.5c0-.1 0-.1 0 0 2.1-5.8 1.7-12.3-1.5-17.9l-9.1-15.7c-3.9 2.1-8.4 3.3-13.1 3.3-15.4 0-27.9-12.5-27.9-27.9 0-9.9 5.2-18.7 13.1-23.6l-108.2-187.3c-4.4 15.6-13.7 29.2-26.1 39.1l145.2 251.5 18.4-10.5c4.4-2.6 7.6-6.5 9.2-11z" fill="#80cef3"/><path d="m182.8 168.3-109.2 189.1c6.4 5.1 10.6 13 10.6 21.9 0 15.4-12.5 27.9-27.9 27.9-3.6 0-7.1-.7-10.3-2l-8.4 14.5c-2.8 4.9-3.6 10.5-2.1 16 1.5 5.4 4.9 10 9.8 12.8l18.3 10.5 145.3-251.6c-12.3-9.9-21.6-23.5-26.1-39.1z" fill="#80cef3"/><path d="m482 446.9c-2.4 3.4-5.5 6.3-9.3 8.5l-18.3 10.5 21.7 37.6 14.5-8.3c8-4.6 10.7-14.9 6.1-22.8z" fill="#3e6276"/><path d="m32 446.8-14.8 25.5c-2.2 3.9-2.8 8.4-1.6 12.7 1.2 4.4 4 8 7.8 10.2l14.5 8.3 21.7-37.7-18.3-10.5c-3.7-2.1-6.9-5-9.3-8.5z" fill="#3e6276"/><ellipse cx="56.3" cy="379.3" fill="#fff" rx="19.9" ry="19.9" transform="matrix(.707 -.707 .707 .707 -251.716 150.905)"/><path d="m257 173.2c14.4 0 26.2-11.7 26.2-26.2v-22.1c0-2.2-1.8-4-4-4h-44.3c-2.2 0-4 1.8-4 4v22.1c0 14.5 11.7 26.2 26.1 26.2zm-18.1-44.3h36.3v18.1c0 9.8-8.3 18.2-18.2 18.2-9.8 0-18.1-8.3-18.1-18.2z"/><path d="m486.1 438c2-7.3 1.3-15.4-2.8-22.4l-9.5-16.5c5.1-5.1 8.3-12.1 8.3-19.8 0-6.6-2.3-12.6-6.1-17.4 15.8-32.8 23.8-68.1 23.8-104.9 0-58.8-21.3-115.6-60-159.8-38.1-43.6-90.4-72.1-147.3-80.4-5.5-9.5-15.8-15.8-27.5-15.8h-16c-11.7 0-21.9 6.3-27.5 15.8-57 8.3-109.3 36.9-147.4 80.5-38.6 44.2-59.9 100.9-59.9 159.7 0 35.8 7.6 70.3 22.6 102.4-5.1 5.1-8.3 12.1-8.3 19.9 0 8.9 4.2 16.8 10.6 21.9l-8.4 14.5c-3.9 6.7-4.9 14.5-2.9 22.1 0 .1.1.2.1.3l-17.5 30.3c-3.3 5.7-4.2 12.4-2.4 18.7 1.7 6.4 5.8 11.7 11.5 15l17.9 10.3c.6.4 1.3.5 2 .5 1.4 0 2.7-.7 3.5-2l25.7-44.6 20-34.6c45.5 43.9 105.2 68 168.5 68s123-24.1 168.5-68l20 34.6 25.7 44.6c.7 1.3 2.1 2 3.5 2 .7 0 1.4-.2 2-.5l17.9-10.3c5.7-3.3 9.8-8.6 11.5-15 1.6-6.4.7-13-2.6-18.7zm-31.8-38.8c-11 0-19.9-8.9-19.9-19.9s8.9-19.9 19.9-19.9 19.9 8.9 19.9 19.9c-.1 10.9-9 19.9-19.9 19.9zm37.5-142.2c0 34.8-7.4 68.1-22 99.2-4.5-3-9.8-4.8-15.6-4.8-2.6 0-5.1.4-7.4 1l-113.1-195.9c.4-3.1.6-6.3.6-9.5v-73.3c0-2.2-1.8-4-4-4h-33.4v-36.8c0-2.6-.3-5.1-.9-7.5 112.1 18.7 195.8 117.3 195.8 231.6zm-266.7-224.1c0-13.2 10.7-23.9 23.9-23.9h16c13.2 0 23.9 10.7 23.9 23.9v36.9h-63.8zm101.2 44.8v69.3c0 38.2-31.1 69.3-69.3 69.3s-69.3-31.1-69.3-69.3v-69.3zm-165.7 229.2 54.7-94.8c12 7.7 26.3 12.2 41.6 12.2s29.6-4.5 41.7-12.2l54.7 94.8zm196.5 8c.3 0 .6 0 .9-.1l20.5 35.6h-243l20.5-35.6c.3.1.6.1.9.1zm-334.9-57.9c0-114.3 83.8-212.9 195.8-231.6-.6 2.4-.9 4.9-.9 7.5v36.9h-33.4c-2.2 0-4 1.8-4 4v73.2c0 3.2.2 6.4.6 9.5l-113.7 196.9c-3.2-1.3-6.7-2-10.3-2-4.7 0-9.1 1.2-12.9 3.2-14.1-30.7-21.2-63.5-21.2-97.6zm14.2 122.3c0-11 8.9-19.9 19.9-19.9s19.9 8.9 19.9 19.9-8.9 19.9-19.9 19.9-19.9-9-19.9-19.9zm1.5 124.2-14.5-8.3c-3.8-2.2-6.6-5.8-7.8-10.2-1.2-4.3-.6-8.8 1.6-12.7l14.8-25.5c2.4 3.5 5.6 6.4 9.3 8.5l18.3 10.5zm25.7-44.5-18.3-10.5c-4.9-2.8-8.3-7.4-9.8-12.8-1.5-5.5-.7-11.1 2.1-16l8.4-14.5c3.2 1.3 6.7 2 10.3 2 15.4 0 27.9-12.5 27.9-27.9 0-8.9-4.2-16.8-10.6-21.9l109.2-189.1c4.5 15.6 13.8 29.2 26.1 39.1zm193.4 32.9c-61.9 0-120.2-23.8-164.4-67.1l38.3-66.3h251.5c.2 0 .4 0 .7-.1l38.3 66.4c-44.2 43.2-102.5 67.1-164.4 67.1zm48.2-284.4c12.4-9.9 21.7-23.5 26.1-39.1l108.2 187.3c-7.9 4.9-13.1 13.7-13.1 23.6 0 15.4 12.5 27.9 27.9 27.9 4.7 0 9.2-1.2 13.1-3.3l9.1 15.7c3.2 5.6 3.6 12.1 1.5 17.8v.1c-1.6 4.5-4.8 8.4-9.2 11l-18.4 10.5zm185.4 287.7-14.5 8.3-21.7-37.6 18.3-10.5c3.8-2.2 6.9-5.1 9.3-8.5l14.7 25.5c4.6 7.9 1.9 18.2-6.1 22.8z"/></g></svg>