<svg id="Layer_1" enable-background="new 0 0 512 512" height="512" viewBox="0 0 512 512" width="512" xmlns="http://www.w3.org/2000/svg"><g clip-rule="evenodd" fill-rule="evenodd"><g fill="#e7f2fb"><path d="m29.8 332.3h32.7v32.7h-32.7z"/><path d="m29.8 262.7h32.7v32.7h-32.7z"/><path d="m29.8 123.5h32.7v32.7h-32.7z"/><path d="m292.2 439.7c0-12.9-9.2-24.7-24.7-31.8h-152.1c10.9 8.4 17.2 19.8 17.2 31.8s-6.4 23.3-17.2 31.8h152.1c15.4-7.1 24.7-18.9 24.7-31.8z"/></g><path d="m99 407.6c-1.7-.8-2.7-2.6-2.3-4.5s2-3.2 3.9-3.2h95.6v-311.3h-188.4v315.6c0 36.3 41.2 66.3 92 67.2 15.5-7 24.7-18.8 24.7-31.7 0-13.1-9.5-25.1-25.5-32.1zm-8-271.7h85.2c2.2 0 4 1.8 4 4s-1.8 4-4 4h-85.2c-2.2 0-4-1.8-4-4s1.8-4 4-4zm0 69.6h85.2c2.2 0 4 1.8 4 4s-1.8 4-4 4h-85.2c-2.2 0-4-1.8-4-4s1.8-4 4-4zm0 69.5h85.2c2.2 0 4 1.8 4 4s-1.8 4-4 4h-85.2c-2.2 0-4-1.8-4-4s1.8-4 4-4zm-20.5 94c0 2.2-1.8 4-4 4h-40.7c-2.2 0-4-1.8-4-4v-40.7c0-2.2 1.8-4 4-4h40.7c2.2 0 4 1.8 4 4zm0-69.6c0 2.2-1.8 4-4 4h-40.7c-2.2 0-4-1.8-4-4v-40.7c0-2.2 1.8-4 4-4h40.7c2.2 0 4 1.8 4 4zm0-69.6c0 2.2-1.8 4-4 4h-40.7c-2.2 0-4-1.8-4-4v-40.7c0-2.2 1.8-4 4-4h40.7c2.2 0 4 1.8 4 4zm0-69.6c0 2.2-1.8 4-4 4h-40.7c-2.2 0-4-1.8-4-4v-40.7c0-2.2 1.8-4 4-4h40.7c2.2 0 4 1.8 4 4zm16.5 188.5c0-2.2 1.8-4 4-4h85.2c2.2 0 4 1.8 4 4s-1.8 4-4 4h-85.2c-2.2 0-4-1.8-4-4z" fill="#fff"/><path d="m29.8 193.2h32.7v32.7h-32.7z" fill="#e7f2fb"/><path d="m460.7 59.8c0-10.6-8.6-19.3-19.3-19.3h-141.1c-10.6 0-19.3 8.6-19.3 19.3 0 10.6 8.6 19.3 19.3 19.3h141.2c10.6 0 19.2-8.7 19.2-19.3z" fill="#e63d7d"/><path d="m394.4 273.4c-52-19.3-101.3-37.5-156.9 11.7-.5 30.9 9.9 61.1 29.7 85.8 25.4 31.4 63.1 49.4 103.6 49.4 66.7 0 123.6-49.8 132.2-116 .7-5.2 1-10.5 1.1-15.8-10 3.1-19.9 4.4-29.8 4.4-27.1 0-53.8-9.9-79.9-19.5z" fill="#e63d7d"/><path d="m428.8 166.9-2.3-1.1v-78.8h-111.4v78.9l-2.3 1.1c-36.8 17.8-63.8 52.2-72.4 92-1.1 5-1.9 10.1-2.3 15.1 56.8-46 108.8-26.8 159-8.2 36.6 13.6 71.3 26.3 106.8 14.2-2.5-48.1-31.4-91.9-75.1-113.2z" fill="#fff"/><path d="m66.5 254.7h-40.7c-2.2 0-4 1.8-4 4v40.7c0 2.2 1.8 4 4 4h40.7c2.2 0 4-1.8 4-4v-40.7c0-2.2-1.8-4-4-4zm-4 40.7h-32.7v-32.7h32.7z"/><path d="m91 283h85.2c2.2 0 4-1.8 4-4s-1.8-4-4-4h-85.2c-2.2 0-4 1.8-4 4s1.8 4 4 4z"/><path d="m91 143.9h85.2c2.2 0 4-1.8 4-4s-1.8-4-4-4h-85.2c-2.2 0-4 1.8-4 4s1.8 4 4 4z"/><path d="m91 213.5h85.2c2.2 0 4-1.8 4-4s-1.8-4-4-4h-85.2c-2.2 0-4 1.8-4 4s1.8 4 4 4z"/><path d="m66.5 324.2h-40.7c-2.2 0-4 1.8-4 4v40.8c0 2.2 1.8 4 4 4h40.7c2.2 0 4-1.8 4-4v-40.7c0-2.3-1.8-4.1-4-4.1zm-4 40.8h-32.7v-32.7h32.7z"/><path d="m66.5 185.1h-40.7c-2.2 0-4 1.8-4 4v40.7c0 2.2 1.8 4 4 4h40.7c2.2 0 4-1.8 4-4v-40.7c0-2.2-1.8-4-4-4zm-4 40.7h-32.7v-32.7h32.7z"/><path d="m66.5 115.5h-40.7c-2.2 0-4 1.8-4 4v40.7c0 2.2 1.8 4 4 4h40.7c2.2 0 4-1.8 4-4v-40.7c0-2.2-1.8-4-4-4zm-4 40.7h-32.7v-32.7h32.7z"/><path d="m180.2 348.7c0-2.2-1.8-4-4-4h-85.2c-2.2 0-4 1.8-4 4s1.8 4 4 4h85.2c2.2 0 4-1.8 4-4z"/><path d="m434.6 160.9v-73.8h6.9c15 0 27.3-12.2 27.3-27.3 0-15-12.2-27.3-27.3-27.3h-141.2c-15 0-27.3 12.2-27.3 27.3 0 15 12.2 27.3 27.3 27.3h6.9v73.9c-37.8 19.2-65.5 55-74.5 96.4-9 41.9 1.4 85.2 28.4 118.6 26.9 33.3 66.9 52.3 109.8 52.3 70.9 0 131-52.8 140.1-123 .8-6 1.2-12.2 1.2-18.3 0-27-7.7-53.3-22.2-76.1-13.8-21.3-32.8-38.6-55.4-50zm-134.3-81.8c-10.6 0-19.3-8.6-19.3-19.3 0-10.6 8.6-19.3 19.3-19.3h141.2c10.6 0 19.3 8.6 19.3 19.3 0 10.6-8.6 19.3-19.3 19.3zm202.7 225.2c-8.6 66.1-65.3 116-132.2 116-40.4 0-78.2-18-103.6-49.4-19.9-24.6-30.2-54.8-29.7-85.8 55.6-49.2 104.8-31 156.9-11.7 26 9.6 52.7 19.5 79.9 19.5 9.9 0 19.8-1.3 29.8-4.4-.1 5.3-.4 10.6-1.1 15.8zm-105.8-38.4c-50.2-18.6-102.2-37.8-159 8.2.5-5 1.3-10.1 2.3-15.1 8.5-39.8 35.5-74.3 72.4-92l2.3-1.1v-78.8h111.5v78.9l2.3 1.1c43.6 21.1 72.6 65 75.1 113.2-35.7 11.9-70.3-.9-106.9-14.4z"/><path d="m269.9 479.2c18.7-8.2 30.3-23.3 30.3-39.4 0-16.2-11.6-31.3-30.3-39.4-.5-.2-1.1-.3-1.6-.3h-64v-315.4c0-2.2-1.8-4-4-4h-196.4c-2.2 0-4 1.8-4 4v319.6c0 40.9 45.1 74.7 100.7 75.3h.2 167.6c.4-.1 1-.2 1.5-.4zm-170.2-7.7c-50.8-.8-92-30.8-92-67.2v-315.7h188.4v311.3h-95.6c-1.9 0-3.5 1.3-3.9 3.2s.6 3.7 2.3 4.5c15.9 7 25.5 19 25.5 32.1.1 12.9-9.1 24.7-24.7 31.8zm15.6 0c10.9-8.4 17.2-19.8 17.2-31.8s-6.4-23.3-17.2-31.8h152.1c15.5 7 24.7 18.8 24.7 31.8s-9.2 24.7-24.7 31.8z"/></g></svg>