<svg id="Layer_1" enable-background="new 0 0 512 512" height="512" viewBox="0 0 512 512" width="512" xmlns="http://www.w3.org/2000/svg"><g clip-rule="evenodd" fill-rule="evenodd"><path d="m415.3 179.7h14.2c1 0 1.9-.9 1.9-1.9v-14.2c0-1-.9-1.9-1.9-1.9h-14.2c-1 0-1.9.9-1.9 1.9v14.2c0 1.1.8 1.9 1.9 1.9z" fill="#3e6276"/><path d="m184.6 347.2h16.1c-.6-14.6-4.5-28.4-10.9-40.6l-13.9 8c-.6.4-1.3.5-2 .5-1.4 0-2.7-.7-3.5-2-1.1-1.9-.4-4.4 1.5-5.5l13.9-8c-7.6-12-17.8-22.1-29.7-29.7l-8 13.9c-.7 1.3-2.1 2-3.5 2-.7 0-1.4-.2-2-.5-1.9-1.1-2.6-3.6-1.5-5.5l8-13.9c-12.2-6.4-26-10.3-40.6-10.9v16.1c0 2.2-1.8 4-4 4s-4-1.8-4-4v-16.1c-14.6.6-28.4 4.5-40.6 10.9l8 13.9c1.1 1.9.4 4.4-1.5 5.5-.6.4-1.3.5-2 .5-1.4 0-2.7-.7-3.5-2l-8-13.9c-12 7.6-22.1 17.8-29.7 29.7l13.9 8c1.9 1.1 2.6 3.6 1.5 5.5-.7 1.3-2.1 2-3.5 2-.7 0-1.4-.2-2-.5l-13.9-8c-6.4 12.2-10.3 26-10.9 40.6h16.1c2.2 0 4 1.8 4 4s-1.8 4-4 4h-16.2c.6 14.6 4.5 28.4 10.9 40.6l13.9-8c1.9-1.1 4.4-.4 5.5 1.5s.4 4.4-1.5 5.5l-13.9 8c7.6 12 17.8 22.1 29.7 29.7l8-13.9c1.1-1.9 3.6-2.6 5.5-1.5s2.6 3.6 1.5 5.5l-8 13.9c12.2 6.4 26 10.3 40.6 10.9v-16.1c0-2.2 1.8-4 4-4s4 1.8 4 4v16.1c14.6-.6 28.4-4.5 40.6-10.9l-8-13.9c-1.1-1.9-.4-4.4 1.5-5.5s4.4-.4 5.5 1.5l8 13.9c12-7.6 22.1-17.8 29.7-29.7l-13.9-8c-1.9-1.1-2.6-3.6-1.5-5.5s3.6-2.6 5.5-1.5l13.9 8c6.4-12.2 10.3-26 10.9-40.6h-16.1c-2.2 0-4-1.8-4-4 .1-2.2 1.9-4 4.1-4zm-36.4 8h-43.7c-2.2 0-4-1.8-4-4v-62.6c0-2.2 1.8-4 4-4s4 1.8 4 4v58.6h39.7c2.2 0 4 1.8 4 4s-1.7 4-4 4z" fill="#fff"/><path d="m142.8 104.8c3.1 0 5.6-2.5 5.6-5.6s-2.5-5.6-5.6-5.6-5.6 2.5-5.6 5.6c-.1 3.1 2.5 5.6 5.6 5.6z" fill="#fff"/><path d="m456.8 91.4c0-8.8-7.2-16-16-16h-14.3v10.8c5.6 1.7 9.6 6.9 9.6 13 0 7.5-6.1 13.6-13.6 13.6s-13.6-6.1-13.6-13.6c0-6.1 4.1-11.3 9.6-13v-10.8h-61.9v10.8c5.6 1.7 9.6 6.9 9.6 13 0 7.5-6.1 13.6-13.6 13.6s-13.6-6.1-13.6-13.6c0-6.1 4.1-11.3 9.6-13v-10.8h-61.9v10.8c5.6 1.7 9.6 6.9 9.6 13 0 7.5-6.1 13.6-13.6 13.6s-13.6-6.1-13.6-13.6c0-6.1 4.1-11.3 9.6-13v-10.8h-61.9v10.8c5.6 1.7 9.6 6.9 9.6 13 0 7.5-6.1 13.6-13.6 13.6s-13.6-6.1-13.6-13.6c0-6.1 4.1-11.3 9.6-13v-10.8h-61.9v10.8c5.6 1.7 9.6 6.9 9.6 13 0 7.5-6.1 13.6-13.6 13.6s-13.6-6.1-13.6-13.6c0-6.1 4.1-11.3 9.6-13v-10.8h-14.3c-8.8 0-16 7.2-16 16v36.1h348.3z" fill="#e74a78"/><g fill="#3e6276"><path d="m415.3 237h14.2c1 0 1.9-.9 1.9-1.9v-14.2c0-1-.9-1.9-1.9-1.9h-14.2c-1 0-1.9.9-1.9 1.9v14.2c0 1.1.8 1.9 1.9 1.9z"/><path d="m219.8 219h-14.2c-1 0-1.9.9-1.9 1.9v14.2c0 1 .9 1.9 1.9 1.9h14.2c1 0 1.9-.9 1.9-1.9v-14.2c0-1-.9-1.9-1.9-1.9z"/><path d="m219.8 276.4h-14.2c-1 0-1.9.9-1.9 1.9v14.2c0 1 .9 1.9 1.9 1.9h14.2c1 0 1.9-.9 1.9-1.9v-14.2c0-1-.9-1.9-1.9-1.9z"/><path d="m149.9 161.7h-14.2c-1 0-1.9.9-1.9 1.9v14.2c0 1 .9 1.9 1.9 1.9h14.2c1 0 1.9-.9 1.9-1.9v-14.2c0-1-.8-1.9-1.9-1.9z"/><path d="m149.9 219h-14.2c-1 0-1.9.9-1.9 1.9v14.2c0 1 .9 1.9 1.9 1.9h14.2c1 0 1.9-.9 1.9-1.9v-14.2c0-1-.8-1.9-1.9-1.9z"/></g><g fill="#fff"><path d="m282.7 104.8c3.1 0 5.6-2.5 5.6-5.6s-2.5-5.6-5.6-5.6-5.6 2.5-5.6 5.6c-.2 3.1 2.4 5.6 5.6 5.6z"/><path d="m212.7 104.8c3.1 0 5.6-2.5 5.6-5.6s-2.5-5.6-5.6-5.6-5.6 2.5-5.6 5.6 2.5 5.6 5.6 5.6z"/><path d="m352.5 104.8c3.1 0 5.6-2.5 5.6-5.6s-2.5-5.6-5.6-5.6-5.6 2.5-5.6 5.6 2.5 5.6 5.6 5.6z"/><path d="m422.5 104.8c3.1 0 5.6-2.5 5.6-5.6s-2.5-5.6-5.6-5.6-5.6 2.5-5.6 5.6c-.1 3.1 2.4 5.6 5.6 5.6z"/></g><path d="m219.8 161.7h-14.2c-1 0-1.9.9-1.9 1.9v14.2c0 1 .9 1.9 1.9 1.9h14.2c1 0 1.9-.9 1.9-1.9v-14.2c0-1-.9-1.9-1.9-1.9z" fill="#3e6276"/><path d="m399.4 293.6-8.9 49.4 40.8-25.9c.1-.1.2-.2.4-.2l18.8-11.9z" fill="#e7f2fb"/><path d="m359.6 219h-14.2c-1 0-1.9.9-1.9 1.9v14.2c0 1 .9 1.9 1.9 1.9h14.2c1 0 1.9-.9 1.9-1.9v-14.2c0-1-.8-1.9-1.9-1.9z" fill="#3e6276"/><path d="m359.6 276.4h-14.2c-1 0-1.9.9-1.9 1.9v14.2c0 1 .9 1.9 1.9 1.9h14.2c1 0 1.9-.9 1.9-1.9v-14.2c0-1-.8-1.9-1.9-1.9z" fill="#3e6276"/><path d="m359.6 161.7h-14.2c-1 0-1.9.9-1.9 1.9v14.2c0 1 .9 1.9 1.9 1.9h14.2c1 0 1.9-.9 1.9-1.9v-14.2c0-1-.8-1.9-1.9-1.9z" fill="#3e6276"/><path d="m393.9 285.4c.9-.6 2-.8 3.1-.6l59.7 13.3v-162.6h-348.3v111.5c17.4.7 33.7 5.6 48 13.8.1 0 .1.1.2.1s.1.1.2.2c15.6 9.1 28.7 22.2 37.8 37.8 0 .1.1.1.2.2 0 .1.1.1.1.2 8.2 14.2 13.1 30.6 13.8 48h172.8l10.7-59.1c.2-1.2.8-2.2 1.7-2.8zm11.5-121.8c0-5.5 4.5-9.9 9.9-9.9h14.2c5.5 0 9.9 4.5 9.9 9.9v14.2c0 5.5-4.5 9.9-9.9 9.9h-14.2c-5.5 0-9.9-4.5-9.9-9.9zm0 57.3c0-5.5 4.5-9.9 9.9-9.9h14.2c5.5 0 9.9 4.5 9.9 9.9v14.2c0 5.5-4.5 9.9-9.9 9.9h-14.2c-5.5 0-9.9-4.5-9.9-9.9zm-245.6 14.2c0 5.5-4.5 9.9-9.9 9.9h-14.2c-5.5 0-9.9-4.5-9.9-9.9v-14.2c0-5.5 4.5-9.9 9.9-9.9h14.2c5.5 0 9.9 4.5 9.9 9.9zm0-57.3c0 5.5-4.5 9.9-9.9 9.9h-14.2c-5.5 0-9.9-4.5-9.9-9.9v-14.2c0-5.5 4.5-9.9 9.9-9.9h14.2c5.5 0 9.9 4.5 9.9 9.9zm69.9 114.7c0 5.5-4.5 9.9-9.9 9.9h-14.2c-5.5 0-9.9-4.5-9.9-9.9v-14.2c0-5.5 4.5-9.9 9.9-9.9h14.2c5.5 0 9.9 4.5 9.9 9.9zm0-57.4c0 5.5-4.5 9.9-9.9 9.9h-14.2c-5.5 0-9.9-4.5-9.9-9.9v-14.2c0-5.5 4.5-9.9 9.9-9.9h14.2c5.5 0 9.9 4.5 9.9 9.9zm0-57.3c0 5.5-4.5 9.9-9.9 9.9h-14.2c-5.5 0-9.9-4.5-9.9-9.9v-14.2c0-5.5 4.5-9.9 9.9-9.9h14.2c5.5 0 9.9 4.5 9.9 9.9zm70 114.7c0 5.5-4.5 9.9-9.9 9.9h-14.2c-5.5 0-9.9-4.5-9.9-9.9v-14.2c0-5.5 4.5-9.9 9.9-9.9h14.2c5.5 0 9.9 4.5 9.9 9.9zm0-57.4c0 5.5-4.5 9.9-9.9 9.9h-14.2c-5.5 0-9.9-4.5-9.9-9.9v-14.2c0-5.5 4.5-9.9 9.9-9.9h14.2c5.5 0 9.9 4.5 9.9 9.9zm0-57.3c0 5.5-4.5 9.9-9.9 9.9h-14.2c-5.5 0-9.9-4.5-9.9-9.9v-14.2c0-5.5 4.5-9.9 9.9-9.9h14.2c5.5 0 9.9 4.5 9.9 9.9zm69.8 114.7c0 5.5-4.5 9.9-9.9 9.9h-14.2c-5.5 0-9.9-4.5-9.9-9.9v-14.2c0-5.5 4.5-9.9 9.9-9.9h14.2c5.5 0 9.9 4.5 9.9 9.9zm0-57.4c0 5.5-4.5 9.9-9.9 9.9h-14.2c-5.5 0-9.9-4.5-9.9-9.9v-14.2c0-5.5 4.5-9.9 9.9-9.9h14.2c5.5 0 9.9 4.5 9.9 9.9zm0-57.3c0 5.5-4.5 9.9-9.9 9.9h-14.2c-5.5 0-9.9-4.5-9.9-9.9v-14.2c0-5.5 4.5-9.9 9.9-9.9h14.2c5.5 0 9.9 4.5 9.9 9.9z" fill="#e7f2fb"/><path d="m289.8 219h-14.2c-1 0-1.9.9-1.9 1.9v14.2c0 1 .9 1.9 1.9 1.9h14.2c1 0 1.9-.9 1.9-1.9v-14.2c0-1-.9-1.9-1.9-1.9z" fill="#3e6276"/><path d="m289.8 161.7h-14.2c-1 0-1.9.9-1.9 1.9v14.2c0 1 .9 1.9 1.9 1.9h14.2c1 0 1.9-.9 1.9-1.9v-14.2c0-1-.9-1.9-1.9-1.9z" fill="#3e6276"/><path d="m289.8 276.4h-14.2c-1 0-1.9.9-1.9 1.9v14.2c0 1 .9 1.9 1.9 1.9h14.2c1 0 1.9-.9 1.9-1.9v-14.2c0-1-.9-1.9-1.9-1.9z" fill="#3e6276"/><path d="m464.8 303.1c0 1.4-.7 2.6-1.9 3.4l-15.5 9.8h55.8l-38.5-152.5v139.3z" fill="#e7f2fb"/><path d="m359.6 211h-14.2c-5.5 0-9.9 4.5-9.9 9.9v14.2c0 5.5 4.5 9.9 9.9 9.9h14.2c5.5 0 9.9-4.5 9.9-9.9v-14.2c0-5.5-4.4-9.9-9.9-9.9zm1.9 24.1c0 1-.9 1.9-1.9 1.9h-14.2c-1 0-1.9-.9-1.9-1.9v-14.2c0-1 .9-1.9 1.9-1.9h14.2c1 0 1.9.9 1.9 1.9z"/><path d="m148.2 347.2h-39.7v-58.6c0-2.2-1.8-4-4-4s-4 1.8-4 4v62.6c0 2.2 1.8 4 4 4h43.7c2.2 0 4-1.8 4-4s-1.7-4-4-4z"/><path d="m359.6 268.4h-14.2c-5.5 0-9.9 4.5-9.9 9.9v14.2c0 5.5 4.5 9.9 9.9 9.9h14.2c5.5 0 9.9-4.5 9.9-9.9v-14.2c0-5.5-4.4-9.9-9.9-9.9zm1.9 24.1c0 1-.9 1.9-1.9 1.9h-14.2c-1 0-1.9-.9-1.9-1.9v-14.2c0-1 .9-1.9 1.9-1.9h14.2c1 0 1.9.9 1.9 1.9z"/><path d="m219.8 268.4h-14.2c-5.5 0-9.9 4.5-9.9 9.9v14.2c0 5.5 4.5 9.9 9.9 9.9h14.2c5.5 0 9.9-4.5 9.9-9.9v-14.2c0-5.5-4.4-9.9-9.9-9.9zm1.9 24.1c0 1-.9 1.9-1.9 1.9h-14.2c-1 0-1.9-.9-1.9-1.9v-14.2c0-1 .9-1.9 1.9-1.9h14.2c1 0 1.9.9 1.9 1.9z"/><path d="m219.8 211h-14.2c-5.5 0-9.9 4.5-9.9 9.9v14.2c0 5.5 4.5 9.9 9.9 9.9h14.2c5.5 0 9.9-4.5 9.9-9.9v-14.2c0-5.5-4.4-9.9-9.9-9.9zm1.9 24.1c0 1-.9 1.9-1.9 1.9h-14.2c-1 0-1.9-.9-1.9-1.9v-14.2c0-1 .9-1.9 1.9-1.9h14.2c1 0 1.9.9 1.9 1.9z"/><path d="m289.8 268.4h-14.2c-5.5 0-9.9 4.5-9.9 9.9v14.2c0 5.5 4.5 9.9 9.9 9.9h14.2c5.5 0 9.9-4.5 9.9-9.9v-14.2c0-5.5-4.5-9.9-9.9-9.9zm1.9 24.1c0 1-.9 1.9-1.9 1.9h-14.2c-1 0-1.9-.9-1.9-1.9v-14.2c0-1 .9-1.9 1.9-1.9h14.2c1 0 1.9.9 1.9 1.9z"/><path d="m289.8 153.7h-14.2c-5.5 0-9.9 4.5-9.9 9.9v14.2c0 5.5 4.5 9.9 9.9 9.9h14.2c5.5 0 9.9-4.5 9.9-9.9v-14.2c0-5.5-4.5-9.9-9.9-9.9zm1.9 24.1c0 1-.9 1.9-1.9 1.9h-14.2c-1 0-1.9-.9-1.9-1.9v-14.2c0-1 .9-1.9 1.9-1.9h14.2c1 0 1.9.9 1.9 1.9z"/><path d="m149.9 153.7h-14.2c-5.5 0-9.9 4.5-9.9 9.9v14.2c0 5.5 4.5 9.9 9.9 9.9h14.2c5.5 0 9.9-4.5 9.9-9.9v-14.2c0-5.5-4.4-9.9-9.9-9.9zm1.9 24.1c0 1-.9 1.9-1.9 1.9h-14.2c-1 0-1.9-.9-1.9-1.9v-14.2c0-1 .9-1.9 1.9-1.9h14.2c1 0 1.9.9 1.9 1.9z"/><path d="m415.3 187.7h14.2c5.5 0 9.9-4.5 9.9-9.9v-14.2c0-5.5-4.5-9.9-9.9-9.9h-14.2c-5.5 0-9.9 4.5-9.9 9.9v14.2c0 5.5 4.4 9.9 9.9 9.9zm-1.9-24.1c0-1 .9-1.9 1.9-1.9h14.2c1 0 1.9.9 1.9 1.9v14.2c0 1-.9 1.9-1.9 1.9h-14.2c-1 0-1.9-.9-1.9-1.9z"/><path d="m440.8 67.4h-14.3v-7.1c0-2.2-1.8-4-4-4s-4 1.8-4 4v7.1h-61.9v-7.1c0-2.2-1.8-4-4-4s-4 1.8-4 4v7.1h-61.9v-7.1c0-2.2-1.8-4-4-4s-4 1.8-4 4v7.1h-61.9v-7.1c0-2.2-1.8-4-4-4s-4 1.8-4 4v7.1h-61.9v-7.1c0-2.2-1.8-4-4-4s-4 1.8-4 4v7.1h-14.3c-13.3 0-24 10.8-24 24v155.5c-17.4.7-33.7 5.6-48 13.8-.1 0-.1.1-.2.1s-.1.1-.2.2c-15.6 9.1-28.7 22.2-37.8 37.8 0 .1-.1.1-.2.2 0 .1-.1.1-.1.2-8.8 15.3-13.9 33.1-13.9 52s5.1 36.7 13.9 52c0 .1.1.1.1.2.1.1.2.2.2.3 9.1 15.6 22.1 28.6 37.7 37.7.1 0 .1.1.2.2s.2.1.3.1c15.3 8.8 33 13.8 51.9 13.8s36.6-5 51.9-13.8c.1 0 .2-.1.3-.1s.1-.1.2-.2c15.6-9.1 28.6-22.1 37.7-37.7.1-.1.2-.2.2-.3s.1-.1.1-.2c8.2-14.2 13.1-30.6 13.8-48h176.3c.8 0 1.5-.2 2.1-.6l47.6-30.2h73.6c1.2 0 2.4-.6 3.2-1.5s1-2.2.7-3.4l-47.5-188.3v-39.6c.1-13.4-10.7-24.2-23.9-24.2zm-18.3 26.2c3.1 0 5.6 2.5 5.6 5.6s-2.5 5.6-5.6 5.6-5.6-2.5-5.6-5.6c-.1-3.1 2.4-5.6 5.6-5.6zm-70 0c3.1 0 5.6 2.5 5.6 5.6s-2.5 5.6-5.6 5.6-5.6-2.5-5.6-5.6 2.5-5.6 5.6-5.6zm-69.8 0c3.1 0 5.6 2.5 5.6 5.6s-2.5 5.6-5.6 5.6-5.6-2.5-5.6-5.6c-.2-3.1 2.4-5.6 5.6-5.6zm-70 0c3.1 0 5.6 2.5 5.6 5.6s-2.5 5.6-5.6 5.6-5.6-2.5-5.6-5.6 2.5-5.6 5.6-5.6zm-69.9 0c3.1 0 5.6 2.5 5.6 5.6s-2.5 5.6-5.6 5.6-5.6-2.5-5.6-5.6c-.1-3.1 2.5-5.6 5.6-5.6zm-34.4-2.2c0-8.8 7.2-16 16-16h14.3v10.8c-5.6 1.7-9.6 6.9-9.6 13 0 7.5 6.1 13.6 13.6 13.6s13.6-6.1 13.6-13.6c0-6.1-4.1-11.3-9.6-13v-10.8h61.9v10.8c-5.6 1.7-9.6 6.9-9.6 13 0 7.5 6.1 13.6 13.6 13.6s13.6-6.1 13.6-13.6c0-6.1-4.1-11.3-9.6-13v-10.8h61.9v10.8c-5.6 1.7-9.6 6.9-9.6 13 0 7.5 6.1 13.6 13.6 13.6s13.6-6.1 13.6-13.6c0-6.1-4.1-11.3-9.6-13v-10.8h61.9v10.8c-5.6 1.7-9.6 6.9-9.6 13 0 7.5 6.1 13.6 13.6 13.6s13.6-6.1 13.6-13.6c0-6.1-4.1-11.3-9.6-13v-10.8h61.9v10.8c-5.6 1.7-9.6 6.9-9.6 13 0 7.5 6.1 13.6 13.6 13.6s13.6-6.1 13.6-13.6c0-6.1-4.1-11.3-9.6-13v-10.8h14.3c8.8 0 16 7.2 16 16v36.1h-348.4v-36.1zm76.2 263.8h16.1c-.6 14.6-4.5 28.4-10.9 40.6l-13.9-8c-1.9-1.1-4.4-.4-5.5 1.5s-.4 4.4 1.5 5.5l13.9 8c-7.6 12-17.8 22.1-29.7 29.7l-8-13.9c-1.1-1.9-3.6-2.6-5.5-1.5s-2.6 3.6-1.5 5.5l8 13.9c-12.2 6.4-26 10.3-40.6 10.9v-16.1c0-2.2-1.8-4-4-4s-4 1.8-4 4v16.1c-14.6-.6-28.4-4.5-40.6-10.9l8-13.9c1.1-1.9.4-4.4-1.5-5.5s-4.4-.4-5.5 1.5l-8 13.9c-12-7.6-22.1-17.8-29.7-29.7l13.9-8c1.9-1.1 2.6-3.6 1.5-5.5s-3.5-2.6-5.5-1.5l-13.9 8c-6.4-12.2-10.3-26-10.9-40.6h16.1c2.2 0 4-1.8 4-4s-1.8-4-4-4h-16.2c.6-14.6 4.5-28.4 10.9-40.6l13.9 8c.6.4 1.3.5 2 .5 1.4 0 2.7-.7 3.5-2 1.1-1.9.4-4.4-1.5-5.5l-13.9-8c7.6-12 17.8-22.1 29.7-29.7l8 13.9c.7 1.3 2.1 2 3.5 2 .7 0 1.4-.2 2-.5 1.9-1.1 2.6-3.6 1.5-5.5l-8-13.9c12.2-6.4 26-10.3 40.6-10.9v16.1c0 2.2 1.8 4 4 4s4-1.8 4-4v-16.1c14.6.6 28.4 4.5 40.6 10.9l-8 13.9c-1.1 1.9-.4 4.4 1.5 5.5.6.4 1.3.5 2 .5 1.4 0 2.7-.7 3.5-2l8-13.9c12 7.6 22.1 17.8 29.7 29.7l-13.9 8c-1.9 1.1-2.6 3.6-1.5 5.5.7 1.3 2.1 2 3.5 2 .7 0 1.4-.2 2-.5l13.9-8c6.4 12.2 10.3 26 10.9 40.6h-16.1c-2.2 0-4 1.8-4 4 .1 2.2 1.9 4 4.1 4zm197-8h-172.9c-.7-17.4-5.6-33.7-13.8-48 0-.1-.1-.1-.1-.2s-.1-.1-.2-.2c-9.1-15.6-22.2-28.7-37.8-37.8-.1 0-.1-.1-.2-.2-.1 0-.1-.1-.2-.1-14.2-8.2-30.6-13.1-48-13.8v-111.4h348.3v162.6l-59.7-13.3c-1.1-.2-2.2 0-3.1.6s-1.5 1.5-1.7 2.6zm50.1-30.3c-.1.1-.3.2-.4.2l-40.9 25.9 8.9-49.4 51 11.4zm71.6-.6h-55.8l15.5-9.8c1.2-.7 1.9-2 1.9-3.4v-139.3z"/><path d="m149.9 211h-14.2c-5.5 0-9.9 4.5-9.9 9.9v14.2c0 5.5 4.5 9.9 9.9 9.9h14.2c5.5 0 9.9-4.5 9.9-9.9v-14.2c0-5.5-4.4-9.9-9.9-9.9zm1.9 24.1c0 1-.9 1.9-1.9 1.9h-14.2c-1 0-1.9-.9-1.9-1.9v-14.2c0-1 .9-1.9 1.9-1.9h14.2c1 0 1.9.9 1.9 1.9z"/><path d="m219.8 153.7h-14.2c-5.5 0-9.9 4.5-9.9 9.9v14.2c0 5.5 4.5 9.9 9.9 9.9h14.2c5.5 0 9.9-4.5 9.9-9.9v-14.2c0-5.5-4.4-9.9-9.9-9.9zm1.9 24.1c0 1-.9 1.9-1.9 1.9h-14.2c-1 0-1.9-.9-1.9-1.9v-14.2c0-1 .9-1.9 1.9-1.9h14.2c1 0 1.9.9 1.9 1.9z"/><path d="m415.3 245h14.2c5.5 0 9.9-4.5 9.9-9.9v-14.2c0-5.5-4.5-9.9-9.9-9.9h-14.2c-5.5 0-9.9 4.5-9.9 9.9v14.2c0 5.5 4.4 9.9 9.9 9.9zm-1.9-24.1c0-1 .9-1.9 1.9-1.9h14.2c1 0 1.9.9 1.9 1.9v14.2c0 1-.9 1.9-1.9 1.9h-14.2c-1 0-1.9-.9-1.9-1.9z"/><path d="m289.8 211h-14.2c-5.5 0-9.9 4.5-9.9 9.9v14.2c0 5.5 4.5 9.9 9.9 9.9h14.2c5.5 0 9.9-4.5 9.9-9.9v-14.2c0-5.5-4.5-9.9-9.9-9.9zm1.9 24.1c0 1-.9 1.9-1.9 1.9h-14.2c-1 0-1.9-.9-1.9-1.9v-14.2c0-1 .9-1.9 1.9-1.9h14.2c1 0 1.9.9 1.9 1.9z"/><path d="m359.6 153.7h-14.2c-5.5 0-9.9 4.5-9.9 9.9v14.2c0 5.5 4.5 9.9 9.9 9.9h14.2c5.5 0 9.9-4.5 9.9-9.9v-14.2c0-5.5-4.4-9.9-9.9-9.9zm1.9 24.1c0 1-.9 1.9-1.9 1.9h-14.2c-1 0-1.9-.9-1.9-1.9v-14.2c0-1 .9-1.9 1.9-1.9h14.2c1 0 1.9.9 1.9 1.9z"/></g></svg>