<svg id="Layer_1" enable-background="new 0 0 512 512" height="512" viewBox="0 0 512 512" width="512" xmlns="http://www.w3.org/2000/svg"><g clip-rule="evenodd" fill-rule="evenodd"><path d="m274.9 425.2c0 14.8-7.9 28.5-21.8 38.4h182.8c18.7-8.4 29.9-22.8 29.9-38.4 0-15.7-11.2-30-29.9-38.4h-182.9c14 9.9 21.9 23.6 21.9 38.4z" fill="#e7f2fb"/><path d="m266.9 425.2c0-15.9-11.5-30.4-30.7-38.8-1.7-.8-2.7-2.6-2.3-4.5s2-3.2 3.9-3.2h114.2v-370.9h-225.1v324.2h1.3c49.6 0 90.1 40.4 90.1 90.1 0 13.8-3.1 26.9-8.7 38.6 8.9 1.8 18.2 2.8 27.5 2.9 18.6-8.4 29.8-22.7 29.8-38.4zm-112.4-378.5h101c2.2 0 4 1.8 4 4s-1.8 4-4 4h-101c-2.2 0-4-1.8-4-4s1.8-4 4-4zm-8.9 52.9h187.6c2.2 0 4 1.8 4 4s-1.8 4-4 4h-187.6c-2.2 0-4-1.8-4-4s1.8-4 4-4zm0 49.4h187.6c2.2 0 4 1.8 4 4s-1.8 4-4 4h-187.6c-2.2 0-4-1.8-4-4s1.8-4 4-4zm0 49.5h187.6c2.2 0 4 1.8 4 4s-1.8 4-4 4h-187.6c-2.2 0-4-1.8-4-4s1.8-4 4-4zm0 49.5h187.6c2.2 0 4 1.8 4 4s-1.8 4-4 4h-187.6c-2.2 0-4-1.8-4-4s1.8-4 4-4zm0 57.4c-2.2 0-4-1.8-4-4s1.8-4 4-4h187.6c2.2 0 4 1.8 4 4s-1.8 4-4 4z" fill="#fff"/><path d="m128.2 340.1c-45.2 0-82.1 36.8-82.1 82.1 0 45.2 36.8 82.1 82.1 82.1 45.2 0 82.1-36.8 82.1-82.1-.1-45.3-36.9-82.1-82.1-82.1zm0 124.6c11.9 0 22.9-4.8 31.1-13.5l5.8 5.5c-9.5 10.2-23 16-36.9 16-27.9 0-50.6-22.7-50.6-50.6s22.7-50.6 50.6-50.6c13.9 0 27.4 5.8 36.9 16l-5.8 5.5c-8.1-8.7-19.2-13.5-31.1-13.5-23.5 0-42.6 19.1-42.6 42.6-.1 23.5 19 42.6 42.6 42.6z" fill="#fff"/><path d="m337.2 301.4c0-2.2-1.8-4-4-4h-187.6c-2.2 0-4 1.8-4 4s1.8 4 4 4h187.6c2.2 0 4-1.8 4-4z"/><path d="m145.6 157h187.6c2.2 0 4-1.8 4-4s-1.8-4-4-4h-187.6c-2.2 0-4 1.8-4 4s1.8 4 4 4z"/><path d="m145.6 206.5h187.6c2.2 0 4-1.8 4-4s-1.8-4-4-4h-187.6c-2.2 0-4 1.8-4 4s1.8 4 4 4z"/><path d="m145.6 256h187.6c2.2 0 4-1.8 4-4s-1.8-4-4-4h-187.6c-2.2 0-4 1.8-4 4s1.8 4 4 4z"/><path d="m145.6 107.6h187.6c2.2 0 4-1.8 4-4s-1.8-4-4-4h-187.6c-2.2 0-4 1.8-4 4s1.8 4 4 4z"/><path d="m154.5 54.7h101c2.2 0 4-1.8 4-4s-1.8-4-4-4h-101c-2.2 0-4 1.8-4 4s1.8 4 4 4z"/><path d="m355.9-.2h-233c-2.2 0-4 1.8-4 4v328.7c-45.3 4.7-80.8 43-80.8 89.6 0 49.6 40.4 90.1 90.1 90.1 32.8 0 61.6-17.7 77.5-44 10.4 2.2 21.1 3.4 32 3.6h.2 198.9c.6 0 1.1-.1 1.6-.3 22.2-9.7 35.5-26.9 35.5-46.1s-13.3-36.4-35.5-46.1c-.5-.2-1.1-.3-1.6-.3h-76.8v-375.2c-.1-2.2-1.9-4-4.1-4zm-227.7 504.4c-45.2 0-82.1-36.8-82.1-82.1 0-45.2 36.8-82.1 82.1-82.1 45.2 0 82.1 36.8 82.1 82.1-.1 45.2-36.9 82.1-82.1 82.1zm108.8-40.6c-9.3-.1-18.5-1.1-27.5-2.9 5.6-11.7 8.7-24.8 8.7-38.6 0-49.6-40.4-90.1-90.1-90.1-.4 0-.8 0-1.3 0v-324.2h225.1v371h-114.2c-1.9 0-3.5 1.3-3.9 3.2s.6 3.7 2.3 4.5c19.2 8.4 30.7 22.9 30.7 38.8.1 15.6-11.1 29.9-29.8 38.3zm198.9-76.8c18.7 8.4 29.9 22.8 29.9 38.4 0 15.7-11.2 30-29.9 38.4h-182.9c13.9-9.9 21.8-23.6 21.8-38.4s-7.9-28.5-21.8-38.4z"/><path d="m128.2 379.5c11.9 0 22.9 4.8 31.1 13.5l5.8-5.5c-9.5-10.2-23-16-36.9-16-27.9 0-50.6 22.7-50.6 50.6s22.7 50.6 50.6 50.6c13.9 0 27.4-5.8 36.9-16l-5.8-5.5c-8.1 8.7-19.2 13.5-31.1 13.5-23.5 0-42.6-19.1-42.6-42.6-.1-23.5 19-42.6 42.6-42.6z"/></g></svg>