<svg id="Layer_1" enable-background="new 0 0 512 512" height="512" viewBox="0 0 512 512" width="512" xmlns="http://www.w3.org/2000/svg"><g clip-rule="evenodd" fill-rule="evenodd"><path d="m486.9 226.9h-127.8c-9.4 0-17.1 7.7-17.1 17.1s7.7 17.1 17.1 17.1h127.8c9.4 0 17.1-7.7 17.1-17.1 0-9.5-7.7-17.1-17.1-17.1z" fill="#80cef3"/><path d="m375.5 431.3c0 26.2 21.3 47.5 47.5 47.5s47.5-21.3 47.5-47.5v-69.5l-95.1-25.9v95.4z" fill="#80cef3"/><path d="m375.5 327.6 95.1 25.8v-84.3h-95.1z" fill="#fff"/><g fill="#f6cadb"><path d="m270.2 56.3c0-12.8-10.4-23.2-23.2-23.2h-165.2c-12.8 0-23.2 10.4-23.2 23.2s10.4 23.2 23.2 23.2h165.1c12.9 0 23.3-10.4 23.3-23.2z"/><path d="m197 422.9c19.6 0 35.5-15.9 35.6-35.4-.7 0-1.5.1-2.2.1-24.1 0-43.6-19.6-43.6-43.6 0-2.2 1.8-4 4-4s4 1.8 4 4c0 19.6 16 35.6 35.6 35.6s35.6-16 35.6-35.6c0-7.5-2.3-14.6-6.6-20.7-8 9.3-19.8 15.1-33 15.1-2.2 0-4-1.8-4-4s1.8-4 4-4c19.6 0 35.6-16 35.6-35.6 0-11.7-5.7-22.6-15.2-29.2-3.9 20.1-21.6 35.4-42.8 35.4-2.2 0-4-1.8-4-4s1.8-4 4-4c19.6 0 35.6-16 35.6-35.6s-16-35.6-35.6-35.6-35.6 16-35.6 35.6l-.2 150.9c6.7 9.1 17.4 14.6 28.8 14.6z"/><path d="m124.7 221.5c-19.6 0-35.6 16-35.6 35.6s16 35.6 35.6 35.6c2.2 0 4 1.8 4 4s-1.8 4-4 4c-21.2 0-39-15.3-42.8-35.4-9.5 6.6-15.2 17.5-15.2 29.2 0 19.6 16 35.6 35.6 35.6 2.2 0 4 1.8 4 4s-1.8 4-4 4c-13.2 0-25-5.9-33-15.1-4.3 6-6.6 13.1-6.6 20.7 0 19.6 16 35.6 35.6 35.6s35.6-16 35.6-35.6c0-2.2 1.8-4 4-4s4 1.8 4 4c0 24.1-19.6 43.6-43.6 43.6-.7 0-1.5 0-2.2-.1.1 19.5 16 35.4 35.6 35.4 11.2 0 21.8-5.3 28.5-14.2l.2-151.4c-.1-19.5-16.1-35.5-35.7-35.5z"/></g><path d="m319.7 342.5c.9-6.7 1.3-13.5 1.3-20.3 0-59.6-34.7-115.1-88.5-141.1l-2.3-1.1v-92.5h-131.7v92.5l-2.3 1.1c-43.2 20.9-74.9 61.3-85 108.1-9.9 46.5 1.5 94.5 31.5 131.5 29.8 36.9 74.2 58 121.7 58 78.4.1 145.2-58.5 155.3-136.2zm-188 88.4c-24.1 0-43.6-19.6-43.6-43.6 0-.3 0-.6.1-.9-19.2-4.6-33.5-21.9-33.5-42.4 0-9.8 3.4-19.5 9.5-27.2.1-.1.2-.2.3-.3-3.7-6.4-5.8-13.8-5.8-21.7 0-15.9 8.6-30.5 22.5-38.2.4-23.7 19.8-42.9 43.6-42.9 17.6 0 32.7 10.4 39.6 25.4 6.9-15 22.1-25.4 39.6-25.4 23.8 0 43.2 19.2 43.6 42.9 13.9 7.7 22.5 22.3 22.5 38.2 0 7.9-2.1 15.3-5.8 21.7l.3.3c6.2 7.8 9.5 17.2 9.5 27.2 0 20.6-14.3 37.9-33.5 42.4.1.3.1.6.1.9 0 24.1-19.6 43.6-43.6 43.6-12.5 0-24.4-5.4-32.7-14.7-8.3 9.2-20.2 14.7-32.7 14.7z" fill="#fff"/><path d="m197 430.9c24.1 0 43.6-19.6 43.6-43.6 0-.3 0-.6-.1-.9 19.2-4.6 33.5-21.9 33.5-42.4 0-10-3.3-19.4-9.5-27.2-.1-.1-.2-.2-.3-.3 3.7-6.4 5.8-13.8 5.8-21.7 0-15.9-8.6-30.5-22.5-38.2-.4-23.7-19.8-42.9-43.6-42.9-17.6 0-32.7 10.4-39.6 25.4-6.9-15-22.1-25.4-39.6-25.4-23.8 0-43.2 19.2-43.6 42.9-13.9 7.7-22.5 22.3-22.5 38.2 0 7.9 2.1 15.3 5.8 21.7-.1.1-.2.2-.3.3-6.1 7.7-9.5 17.3-9.5 27.2 0 20.6 14.3 37.9 33.5 42.4-.1.3-.1.6-.1.9 0 24.1 19.6 43.6 43.6 43.6 12.5 0 24.4-5.4 32.7-14.7 8.3 9.2 20.1 14.7 32.7 14.7zm-28.7-173.7c0-19.6 16-35.6 35.6-35.6s35.6 16 35.6 35.6-16 35.6-35.6 35.6c-2.2 0-4 1.8-4 4s1.8 4 4 4c21.2 0 39-15.3 42.8-35.4 9.5 6.6 15.2 17.5 15.2 29.2 0 19.6-16 35.6-35.6 35.6-2.2 0-4 1.8-4 4s1.8 4 4 4c13.2 0 25-5.9 33-15.1 4.3 6 6.6 13.1 6.6 20.7 0 19.6-16 35.6-35.6 35.6s-35.6-16-35.6-35.6c0-2.2-1.8-4-4-4s-4 1.8-4 4c0 24.1 19.6 43.6 43.6 43.6.7 0 1.5 0 2.2-.1-.1 19.5-16 35.4-35.6 35.4-11.4 0-22.1-5.5-28.8-14.7zm-8.1 151.5c-6.7 8.9-17.3 14.2-28.5 14.2-19.6 0-35.5-15.9-35.6-35.4.7 0 1.5.1 2.2.1 24.1 0 43.6-19.6 43.6-43.6 0-2.2-1.8-4-4-4s-4 1.8-4 4c0 19.6-16 35.6-35.6 35.6s-35.6-16-35.6-35.6c0-7.5 2.3-14.6 6.6-20.7 8 9.3 19.8 15.1 33 15.1 2.2 0 4-1.8 4-4s-1.8-4-4-4c-19.6 0-35.6-16-35.6-35.6 0-11.7 5.7-22.6 15.2-29.2 3.9 20.1 21.6 35.4 42.8 35.4 2.2 0 4-1.8 4-4s-1.8-4-4-4c-19.6 0-35.6-16-35.6-35.6s16-35.6 35.6-35.6 35.6 16 35.6 35.6z"/><path d="m486.9 218.9h-127.8c-13.8 0-25.1 11.2-25.1 25.1 0 13.8 11.2 25.1 25.1 25.1h8.4v162.2c0 30.6 24.9 55.5 55.5 55.5s55.5-24.9 55.5-55.5v-162.1h8.4c13.8 0 25.1-11.2 25.1-25.1 0-14-11.2-25.2-25.1-25.2zm-16.3 212.4c0 26.2-21.3 47.5-47.5 47.5s-47.5-21.3-47.5-47.5v-95.5l95.1 25.9v69.6zm0-77.9-95.1-25.9v-58.5h95.1zm16.3-92.3h-127.8c-9.4 0-17.1-7.7-17.1-17.1s7.7-17.1 17.1-17.1h127.8c9.4 0 17.1 7.7 17.1 17.1 0 9.3-7.7 17.1-17.1 17.1z"/><path d="m327.6 343.5c.9-7 1.4-14.2 1.4-21.3 0-31.5-8.9-62.1-25.8-88.7-16-25-38.4-45.2-64.8-58.5v-87.5h8.7c17.2 0 31.2-14 31.2-31.2s-14-31.2-31.2-31.2h-165.1c-17.2 0-31.2 14-31.2 31.2s14 31.2 31.2 31.2h8.7v87.5c-44.2 22.3-76.8 64.1-87.1 112.5-10.5 48.9 1.6 99.3 33.1 138.2 31.3 38.8 78 61 127.9 61 82.2.1 152.4-61.5 163-143.2zm-245.9-264c-12.8 0-23.2-10.4-23.2-23.2s10.4-23.2 23.2-23.2h165.1c12.8 0 23.2 10.4 23.2 23.2s-10.4 23.2-23.2 23.2zm-39 341.3c-29.9-37-41.4-85-31.5-131.5 10-46.7 41.8-87.2 85.1-108.1l2.3-1.1v-92.5h131.7v92.5l2.3 1.1c53.7 26 88.5 81.4 88.5 141.1 0 6.8-.4 13.6-1.3 20.3-10 77.8-76.9 136.3-155.3 136.3-47.6-.1-92-21.2-121.8-58.1z"/></g></svg>