<svg id="Layer_1" enable-background="new 0 0 512 512" height="512" viewBox="0 0 512 512" width="512" xmlns="http://www.w3.org/2000/svg"><g clip-rule="evenodd" fill-rule="evenodd"><g fill="#3e6276"><path d="m434.2 42.7v35.1h70v-70h-70z"/><path d="m7.8 434.2h69.9v69.9h-69.9z"/><path d="m232.7 469.3v23.3h46.6v-46.7h-46.6z"/><path d="m7.8 7.8h69.9v69.9h-69.9z"/><path d="m19.4 232.7h46.6v46.6h-46.6z"/></g><path d="m265.6 112.9c-1.1-2.2-2.8-3.9-5-5-2.6-1.2-5.5-1.4-8.2-.5s-4.9 2.9-6.1 5.4l-128.3 265.2c-2.6 5.3-.3 11.7 5 14.3 2.6 1.2 5.5 1.4 8.2.5s4.9-2.9 6.1-5.4l41.6-86h154.1l41.6 86c1.2 2.6 3.4 4.5 6.1 5.5 2.7.9 5.6.8 8.2-.5 5.3-2.6 7.5-9 5-14.3zm-76.2 167 66.6-137.8 66.6 137.8z" fill="#7dc6ee"/><path d="m434.2 469.3v34.9h70v-70h-70z" fill="#3e6276"/><path d="m445.9 232.7h46.6v46.6h-46.6z" fill="#3e6276"/><path d="m279.3 19.4h-46.6v23.3 23.4h46.6z" fill="#3e6276"/><path d="m508.2-.2h-78c-2.2 0-4 1.8-4 4v34.9h-138.9v-23.3c0-2.2-1.8-4-4-4h-54.6c-2.2 0-4 1.8-4 4v23.3h-138.9v-34.9c0-2.2-1.8-4-4-4h-78c-2.2 0-4 1.8-4 4v78c0 2.2 1.8 4 4 4h34.9v138.9h-23.3c-2.2 0-4 1.8-4 4v54.6c0 2.2 1.8 4 4 4h23.3v138.9h-34.9c-2.2 0-4 1.8-4 4v78c0 2.2 1.8 4 4 4h78c2.2 0 4-1.8 4-4v-34.9h138.9v23.3c0 2.2 1.8 4 4 4h54.6c2.2 0 4-1.8 4-4v-23.3h138.9v34.9c0 2.2 1.8 4 4 4h78c2.2 0 4-1.8 4-4v-78c0-2.2-1.8-4-4-4h-34.9v-138.9h23.3c2.2 0 4-1.8 4-4v-54.6c0-2.2-1.8-4-4-4h-23.3v-138.9h34.9c2.2 0 4-1.8 4-4v-78c0-2.2-1.8-4-4-4zm-275.5 42.9v-23.3h46.6v46.6h-46.6zm-224.9 35.1v-70h69.9v69.9h-69.9zm11.6 201.5v-46.6h46.6v46.6zm58.4 224.9h-70v-69.9h69.9v69.9zm201.5-11.6h-46.6v-23.3-23.3h46.6zm146.9-62.4v34.9h-138.9v-23.3c0-2.2-1.8-4-4-4h-54.6c-2.2 0-4 1.8-4 4v23.3h-138.9v-34.9c0-2.2-1.8-4-4-4h-34.9v-138.9h23.3c2.2 0 4-1.8 4-4v-54.6c0-2.2-1.8-4-4-4h-23.3v-138.9h34.9c2.2 0 4-1.8 4-4v-34.9h138.9v23.3c0 2.2 1.8 4 4 4h54.6c2.2 0 4-1.8 4-4v-23.3h138.9v34.9c0 2.2 1.8 4 4 4h34.9v138.9h-23.3c-2.2 0-4 1.8-4 4v54.6c0 2.2 1.8 4 4 4h23.3v138.9h-34.9c-2.2 0-4 1.8-4 4zm78 4v69.9h-69.9v-34.9-34.9h69.9zm-11.6-201.5v46.6h-46.6v-46.6zm11.6-154.9h-69.9v-35-35h69.9z"/><path d="m272.8 109.5c-1.8-3.8-4.9-6.9-8.7-8.7-4.5-2.2-9.6-2.5-14.3-.8-4.7 1.6-8.5 5-10.7 9.5l-128.3 265.2c-4.5 9.3-.6 20.5 8.7 25 4.5 2.2 9.6 2.5 14.3.8 4.7-1.6 8.5-5 10.7-9.5l39.4-81.5h144.1l39.4 81.5c2.2 4.5 6 7.9 10.7 9.5 2 .7 4.1 1.1 6.2 1.1 2.8 0 5.5-.6 8.1-1.9 9.3-4.5 13.2-15.7 8.7-25zm116.2 282.9c-2.6 1.2-5.5 1.4-8.2.5s-4.9-2.9-6.1-5.5l-41.6-86h-154.2l-41.6 86c-1.2 2.6-3.4 4.5-6.1 5.4s-5.6.8-8.2-.5c-5.3-2.6-7.5-9-5-14.3l128.3-265.2c1.2-2.6 3.4-4.5 6.1-5.4s5.6-.8 8.2.5c2.2 1.1 3.9 2.8 5 5l128.3 265.2c2.6 5.4.4 11.8-4.9 14.3z"/><path d="m189.4 279.9h133.4l-66.6-137.8zm12.7-8 53.9-111.4 53.9 111.4z"/></g></svg>