<svg id="Layer_1" enable-background="new 0 0 512 512" height="512" viewBox="0 0 512 512" width="512" xmlns="http://www.w3.org/2000/svg"><g clip-rule="evenodd" fill-rule="evenodd"><path d="m470.5 340.2v15.2c4.4 1.6 7.5 5.8 7.5 10.8v7.8c0 4.9-3.1 9.1-7.5 10.8v4.1h33.6v-11.2c0-19.4-14.8-35.4-33.6-37.5z" fill="#fff"/><path d="m428.7 414.8c0 20.7 16.9 37.6 37.6 37.6s37.6-16.9 37.6-37.6v-17.9h-75.4v17.9z" fill="#1d6e9c"/><path d="m297.2 219.6h-22.2c-2.2 0-4-1.8-4-4v-31.3l-16.5-4.4c-1.3-.3-2.3-1.3-2.7-2.6s-.2-2.6.6-3.7l17.9-23.9c1.4-9 4.8-17.4 10.1-24.7h-205.1v105.6h222.1v-10.9h-.2zm-64.4-.8c0 2.2-1.8 4-4 4h-143.5c-2.2 0-4-1.8-4-4v-17c0-2.2 1.8-4 4-4h143.5c2.2 0 4 1.8 4 4zm0-32.5c0 2.2-1.8 4-4 4h-143.5c-2.2 0-4-1.8-4-4v-17c0-2.2 1.8-4 4-4h143.5c2.2 0 4 1.8 4 4zm0-32.5c0 2.2-1.8 4-4 4h-143.5c-2.2 0-4-1.8-4-4v-17c0-2.2 1.8-4 4-4h143.5c2.2 0 4 1.8 4 4z" fill="#fff"/><path d="m462.4 384.8c-4.4-1.6-7.5-5.8-7.5-10.8v-7.8c0-4.9 3.1-9.1 7.5-10.8v-15.2c-18.9 2-33.6 18-33.6 37.4v11.2h33.6z" fill="#fff"/><path d="m89.3 205.9h135.5v9h-135.5z" fill="#70b150"/><path d="m89.3 140.8h135.5v9h-135.5z" fill="#e63d7d"/><path d="m89.3 173.3h135.5v9h-135.5z" fill="#fbca41"/><path d="m277.2 153.7-15 19.9 13.7 3.7c1.7.5 3 2.1 3 3.9v30.3h22.2c2.2 0 4 1.8 4 4v15h34.6v-105.5h-49.2c-6.9 7.5-11.3 16.7-12.6 26.8 0 .8-.2 1.4-.7 1.9z" fill="#fadbcc"/><path d="m31.9 273.8h351.1v-192h-351.1zm35.3-152.8c0-2.2 1.8-4 4-4h217.8 54.9c2.2 0 4 1.8 4 4v113.6c0 2.2-1.8 4-4 4h-42.6-230.1c-2.2 0-4-1.8-4-4z" fill="#fff"/><path d="m391.1 59.7h-367.2c-8.9 0-16.2 7.7-16.2 17.2v220.5h399.6v-220.5c0-9.6-7.3-17.2-16.2-17.2zm0 214.9c0 4-3.3 7.3-7.3 7.3h-352.5c-4 0-7.3-3.3-7.3-7.3v-193.5c0-4 3.3-7.3 7.3-7.3h352.5c4 0 7.3 3.3 7.3 7.3z" fill="#1d6e9c"/><path d="m465.5 377.4c.3-.1.6-.1.9-.1s.6 0 .9.1c1.5-.4 2.6-1.7 2.6-3.4v-7.8c0-1.9-1.6-3.5-3.5-3.5-1.9 0-3.5 1.6-3.5 3.5v7.8c0 1.6 1.1 3 2.6 3.4z" fill="#1d6e9c"/><g fill="#3e6276"><path d="m7.7 323.1c0 9.5 7.3 17.2 16.2 17.2h153.5 60.1 153.5c8.9 0 16.2-7.7 16.2-17.2v-17.8h-399.5zm196.2-4.3h7.4c2.2 0 4 1.8 4 4s-1.8 4-4 4h-7.4c-2.2 0-4-1.8-4-4s1.7-4 4-4z"/><path d="m181.4 348.3h52.1v47.6h-52.1z"/><path d="m130.8 428.2v24.2h153.3v-24.2c0-13.4-10.9-24.2-24.2-24.2h-104.9c-13.3 0-24.2 10.9-24.2 24.2z"/></g><path d="m228.8 165.3h-143.5c-2.2 0-4 1.8-4 4v17c0 2.2 1.8 4 4 4h143.5c2.2 0 4-1.8 4-4v-17c0-2.2-1.8-4-4-4zm-4 17h-135.5v-9h135.5z"/><path d="m71.2 238.6h230.1 42.6c2.2 0 4-1.8 4-4v-113.6c0-2.2-1.8-4-4-4h-54.9-217.8c-2.2 0-4 1.8-4 4v113.6c0 2.2 1.8 4 4 4zm219.4-113.6h49.2v105.6h-34.6v-15c0-2.2-1.8-4-4-4h-22.2v-30.3c0-1.8-1.2-3.4-3-3.9l-13.7-3.7 15-19.9c.4-.5.7-1.2.8-1.9 1.2-10.1 5.6-19.4 12.5-26.9zm-215.4 0h205.1c-5.3 7.3-8.7 15.7-10.1 24.7l-17.9 23.9c-.8 1.1-1 2.5-.6 3.7.4 1.3 1.5 2.2 2.7 2.6l16.5 4.4v31.3c0 2.2 1.8 4 4 4h22.2v11h-222.1v-105.6z"/><path d="m228.8 197.9h-143.5c-2.2 0-4 1.8-4 4v17c0 2.2 1.8 4 4 4h143.5c2.2 0 4-1.8 4-4v-17c0-2.3-1.8-4-4-4zm-4 16.9h-135.5v-9h135.5z"/><path d="m228.8 132.8h-143.5c-2.2 0-4 1.8-4 4v17c0 2.2 1.8 4 4 4h143.5c2.2 0 4-1.8 4-4v-17c0-2.2-1.8-4-4-4zm-4 17h-135.5v-9h135.5z"/><path d="m383.8 73.8h-352.6c-4 0-7.3 3.3-7.3 7.3v193.4c0 4 3.3 7.3 7.3 7.3h352.5c4 0 7.3-3.3 7.3-7.3v-193.4c.1-4.1-3.2-7.3-7.2-7.3zm-.7 200h-351.2v-192h351.1v192z"/><path d="m203.9 326.8h7.4c2.2 0 4-1.8 4-4s-1.8-4-4-4h-7.4c-2.2 0-4 1.8-4 4s1.7 4 4 4z"/><path d="m470.5 332.2v-94.3c0-17.4-14.1-31.5-31.5-31.5h-23.5v-129.6c0-13.9-10.9-25.2-24.2-25.2h-367.3c-13.3 0-24.2 11.3-24.2 25.2v246.3c0 13.9 10.9 25.2 24.2 25.2h149.5v47.6h-18.3c-17.8 0-32.2 14.5-32.2 32.2v28.2c0 2.2 1.8 4 4 4h161.3c2.2 0 4-1.8 4-4v-28.2c0-17.8-14.5-32.2-32.2-32.2h-18.3v-47.6h149.5c13.3 0 24.2-11.3 24.2-25.2v-108.7h23.5c13 0 23.5 10.6 23.5 23.5v94.3c-23.3 2-41.6 21.6-41.6 45.4v37.1c0 25.2 20.5 45.6 45.6 45.6s45.6-20.5 45.6-45.6v-37.1c0-23.8-18.3-43.3-41.6-45.4zm-210.6 71.8c13.4 0 24.2 10.9 24.2 24.2v24.2h-153.3v-24.2c0-13.4 10.9-24.2 24.2-24.2zm-78.5-8.1v-47.6h52.1v47.6zm225.9-72.8c0 9.5-7.3 17.2-16.2 17.2h-153.5-60.1-153.6c-8.9 0-16.2-7.7-16.2-17.2v-17.8h399.6zm0-25.8h-399.6v-220.5c0-9.5 7.3-17.2 16.2-17.2h367.2c8.9 0 16.2 7.7 16.2 17.2zm55.6 68.9c0-1.9 1.6-3.5 3.5-3.5 1.9 0 3.5 1.6 3.5 3.5v7.8c0 1.6-1.1 3-2.6 3.4-.3-.1-.6-.1-.9-.1s-.6 0-.9.1c-1.5-.4-2.6-1.7-2.6-3.4zm-34.2 11.5c0-19.4 14.8-35.4 33.6-37.4v15.2c-4.4 1.6-7.5 5.8-7.5 10.8v7.8c0 4.9 3.1 9.1 7.5 10.8v4.1h-33.6zm75.4 37.1c0 20.7-16.9 37.6-37.6 37.6s-37.6-16.9-37.6-37.6v-17.9h75.3v17.9zm0-26h-33.6v-4.1c4.4-1.6 7.5-5.8 7.5-10.8v-7.8c0-4.9-3.1-9.1-7.5-10.8v-15.2c18.9 2 33.6 18 33.6 37.4z"/></g></svg>