<svg id="Layer_1" enable-background="new 0 0 512 512" height="512" viewBox="0 0 512 512" width="512" xmlns="http://www.w3.org/2000/svg"><g><path d="m157 416.9h118.2v87.1h-118.2z" fill="#3e6276"/><path d="m157 379.6h118.2v29.3h-118.2z" fill="#fff"/><path d="m114.7 34.2 38.8 67.2 16.5-9.5c8.3-4.8 17.2-5 24.9-.5 8.3 4.8 13.7 14.1 13.7 23.7 0 8.9-4.6 16.5-12.9 21.3l-16.5 9.5 38.8 67.3 3.5-2v-12.4c0-14.1 11.4-25.5 25.5-25.5 8.7 0 16.4 4.4 21 11.1l20.8-12c2-1.1 4.4-.4 5.5 1.5l11.5 19.9c4.3 7.4 10.2 8.9 14.4 8.9 6.7 0 13.5-3.9 16.8-9.7 2.1-3.6 3.7-9.5-.5-16.9l-11.5-19.9c-.5-.9-.7-2-.4-3s1-1.9 1.9-2.4l70.5-40.9c-58.3-96.9-183.4-130.4-282.3-75.7z" fill="#e63d7d"/><path d="m264.9 266.6c-.2-.4-.3-.9-.3-1.4v-66.3c0-9.7-7.9-17.5-17.5-17.5-9.7 0-17.5 7.9-17.5 17.5v93.9c0 2.2-1.8 4-4 4s-4-1.8-4-4v-72.3l-2.9 1.7c-.6.3-1.3.5-2 .5-.3 0-.7 0-1-.1-1-.3-1.9-1-2.4-1.9l-34.5-59.7c-16.3 24.1-40 64.2-34.4 86.7 9.2 36.9 24.5 98.2 24.5 98.2.1.3.1.7.1 1v24.7h94v-22.9c0-2.4 1.6-3.8 3.8-5.8 4.7-4.4 14.6-13.4 11.7-33.9-1.6-11.7-6.5-24-10.7-34.9-1-2.6-2-5.1-2.9-7.5z" fill="#fadbcc"/><path d="m273.3 7.5c-56.4-15.1-115.4-7.4-166 21.8-.9.5-1.6 1.4-1.9 2.4s-.1 2.1.4 3l42.8 74.2c1.1 1.9 3.5 2.6 5.5 1.5l20-11.5c7.3-4.2 13.2-2.6 16.9-.5 5.8 3.3 9.7 10.1 9.7 16.8 0 4.2-1.5 10.1-8.9 14.4l-19.9 11.5c-1.9 1.1-2.6 3.5-1.5 5.5l3.9 6.8c-20.7 30-44 71-37.7 96.3 8.7 34.9 23 91.9 24.4 97.7v24.3h-8c-2.2 0-4 1.8-4 4v132.3c0 2.2 1.8 4 4 4h126.2c2.2 0 4-1.8 4-4v-132.4c0-2.2-1.8-4-4-4h-8.1v-21.8c.3-.3.8-.7 1.2-1.1 5.3-4.9 17.7-16.2 14.2-40.9-1.8-12.6-6.8-25.4-11.2-36.7-.9-2.3-1.8-4.6-2.6-6.7v-65.6c0-2.5-.4-4.9-1-7.2l17.9-10.3 9.5 16.5c4.8 8.3 12.4 12.9 21.3 12.9 9.6 0 18.9-5.4 23.7-13.7 4.5-7.8 4.3-16.6-.5-24.9l-9.5-16.5 70.7-40.8c1.1-.6 1.8-1.7 2-3-.1-.8-.3-1.7-.7-2.5-29.3-50.5-76.4-86.7-132.8-101.8zm1.9 496.5h-118.2v-87.1h118.2zm0-124.4v29.3h-118.2v-29.3zm3.3-70.6c2.9 20.5-7 29.5-11.7 33.9-2.2 2-3.8 3.4-3.8 5.8v22.9h-94v-24.7c0-.3 0-.7-.1-1 0 0-15.3-61.3-24.5-98.2-5.6-22.5 18.1-62.6 34.4-86.7l34.5 59.7c.5.9 1.4 1.6 2.4 1.9.3.1.7.1 1 .1.7 0 1.4-.2 2-.5l2.9-1.7v72.3c0 2.2 1.8 4 4 4s4-1.8 4-4v-93.9c0-9.6 7.8-17.5 17.5-17.5 9.6 0 17.5 7.8 17.5 17.5v66.3c0 .5.1 1 .3 1.4.9 2.4 1.9 4.9 2.9 7.5 4.2 10.9 9.1 23.2 10.7 34.9zm48-158.2c-.9.5-1.6 1.4-1.9 2.4s-.1 2.1.4 3l11.5 19.9c4.2 7.4 2.6 13.3.5 16.9-3.3 5.8-10.1 9.7-16.8 9.7-4.2 0-10.1-1.5-14.4-8.9l-11.5-19.9c-1.1-1.9-3.5-2.6-5.5-1.5l-20.8 12c-4.6-6.7-12.3-11.1-21-11.1-14.1 0-25.5 11.4-25.5 25.5v12.4l-3.5 2-38.8-67.3 16.5-9.5c8.3-4.8 12.9-12.4 12.9-21.3 0-9.6-5.4-18.9-13.7-23.7-7.7-4.5-16.6-4.3-24.9.5l-16.5 9.5-38.8-67.2c98.9-54.7 224-21.2 282.3 75.7z"/></g></svg>