<svg id="Layer_1" enable-background="new 0 0 512 512" height="512" viewBox="0 0 512 512" width="512" xmlns="http://www.w3.org/2000/svg"><g><path d="m302.4 292.7h-133.3c-1.7 0-3.2-1.1-3.8-2.7l-17.3-49.8h-14.7v3.9c0 17.2-13.9 31.1-31.1 31.1s-31.1-14-31.1-31.1v-3.9h-11.6v214.8h242.9z" fill="#fddd83"/><path d="m401.4 468.6 101.3-103.1h-101.3z" fill="#fff"/><path d="m79.1 229.2h46.1v14.6h-46.1z" fill="#3e6276"/><path d="m102.2 267.2c10.1 0 18.7-6.5 21.8-15.5h-43.6c3.2 9 11.7 15.5 21.8 15.5z" fill="#3e6276"/><path d="m79.1 194.6v26.6h18.9v-50.1l-14.1-14.2c-1.6-1.6-1.6-4.1 0-5.7s4.1-1.6 5.7 0l8.5 8.5v-20.6c0-2.2 1.8-4 4-4s4 1.8 4 4v20.6l8.5-8.5c1.6-1.6 4.1-1.6 5.7 0s1.6 4.1 0 5.7l-14.2 14.2v50.1h19.1v-26.6c0-1.6.9-3.1 2.4-3.7 23.5-10.2 38.7-33.3 38.7-58.9 0-35.3-28.8-64.1-64.2-64.1-35.3 0-64.1 28.7-64.1 64.1 0 25.6 15.2 48.7 38.7 58.9 1.5.7 2.4 2.1 2.4 3.7z" fill="#fbca41"/><path d="m229.4 284.7h76.9c2.2 0 4 1.8 4 4v4.3h177.2c2.2 0 4 1.8 4 4s-1.8 4-4 4h-177.2v13.5h177.2c2.2 0 4 1.8 4 4s-1.8 4-4 4h-177.2v13.5h177.2c2.2 0 4 1.8 4 4s-1.8 4-4 4h-177.2v115c0 2.2-1.8 4-4 4h-76.9v10.1h164v-111.7c0-2.2 1.8-4 4-4h107.6v-249.6h-275.6zm173-163.4h85.2c2.2 0 4 1.8 4 4s-1.8 4-4 4h-85.2c-2.2 0-4-1.8-4-4s1.8-4 4-4zm0 21.5h85.2c2.2 0 4 1.8 4 4s-1.8 4-4 4h-85.2c-2.2 0-4-1.8-4-4s1.8-4 4-4zm0 21.5h85.2c2.2 0 4 1.8 4 4s-1.8 4-4 4h-85.2c-2.2 0-4-1.8-4-4s1.8-4 4-4zm0 21.4h85.2c2.2 0 4 1.8 4 4s-1.8 4-4 4h-85.2c-2.2 0-4-1.8-4-4s1.8-4 4-4zm0 21.5h85.2c2.2 0 4 1.8 4 4s-1.8 4-4 4h-85.2c-2.2 0-4-1.8-4-4s1.8-4 4-4zm-159.5-81.9c0-2.2 1.8-4 4-4h134c2.2 0 4 1.8 4 4v82.3c0 2.2-1.8 4-4 4h-134c-2.2 0-4-1.8-4-4zm4 103.4h240.6c2.2 0 4 1.8 4 4s-1.8 4-4 4h-240.6c-2.2 0-4-1.8-4-4s1.8-4 4-4zm0 21.4h240.6c2.2 0 4 1.8 4 4s-1.8 4-4 4h-240.6c-2.2 0-4-1.8-4-4s1.8-4 4-4zm0 21.5h240.6c2.2 0 4 1.8 4 4s-1.8 4-4 4h-240.6c-2.2 0-4-1.8-4-4s1.8-4 4-4z" fill="#fff"/><path d="m250.9 129.3h126v74.3h-126z" fill="#e7f2fb"/><path d="m402.4 193.7h85.2c2.2 0 4-1.8 4-4s-1.8-4-4-4h-85.2c-2.2 0-4 1.8-4 4s1.8 4 4 4z"/><path d="m402.4 215.2h85.2c2.2 0 4-1.8 4-4s-1.8-4-4-4h-85.2c-2.2 0-4 1.8-4 4s1.8 4 4 4z"/><path d="m402.4 172.3h85.2c2.2 0 4-1.8 4-4s-1.8-4-4-4h-85.2c-2.2 0-4 1.8-4 4s1.8 4 4 4z"/><path d="m402.4 150.8h85.2c2.2 0 4-1.8 4-4s-1.8-4-4-4h-85.2c-2.2 0-4 1.8-4 4s1.8 4 4 4z"/><path d="m246.9 258.1h240.6c2.2 0 4-1.8 4-4s-1.8-4-4-4h-240.6c-2.2 0-4 1.8-4 4s1.8 4 4 4z"/><path d="m509 99.8h-283.6c-2.2 0-4 1.8-4 4v180.9h-49.6l-17.3-49.8c-.6-1.6-2.1-2.7-3.8-2.7h-17.6v-35.1c25.1-12 41.1-37.3 41.1-65.2 0-39.8-32.4-72.1-72.2-72.1-39.6 0-72 32.4-72 72.2 0 27.9 16 53.2 41.1 65.2v35.1h-15.6c-2.2 0-4 1.8-4 4v222.7c0 2.2 1.8 4 4 4h165.9v14.2c0 2.2 1.8 4 4 4h173.2c1.1 0 2.1-.4 2.9-1.2l110.4-112.4c.7-.7 1.1-1.8 1.1-2.8v-261c0-2.2-1.8-4-4-4zm-471 32.2c0-35.4 28.8-64.1 64.1-64.1 35.4 0 64.2 28.8 64.2 64.1 0 25.6-15.2 48.7-38.7 58.9-1.5.6-2.4 2.1-2.4 3.7v26.6h-19.1v-50.1l14.2-14.2c1.6-1.6 1.6-4.1 0-5.7s-4.1-1.6-5.7 0l-8.5 8.5v-20.6c0-2.2-1.8-4-4-4s-4 1.8-4 4v20.6l-8.5-8.5c-1.6-1.6-4.1-1.6-5.7 0s-1.6 4.1 0 5.7l14.1 14.2v50.1h-18.9v-26.6c0-1.6-.9-3-2.4-3.7-23.5-10.2-38.7-33.3-38.7-58.9zm41.1 111.8v-14.6h46.1v14.6zm44.9 7.9c-3.1 9-11.7 15.5-21.8 15.5s-18.6-6.5-21.8-15.5zm-64.5 203.3v-214.8h11.6v3.9c0 17.1 13.9 31.1 31.1 31.1s31.1-13.9 31.1-31.1v-3.9h14.7l17.3 49.8c.6 1.6 2.1 2.7 3.8 2.7h133.3v162.3zm341.9 13.6v-103.1h101.3zm103.6-111.2h-107.6c-2.2 0-4 1.8-4 4v111.7h-164v-10.1h76.9c2.2 0 4-1.8 4-4v-115h177.2c2.2 0 4-1.8 4-4s-1.8-4-4-4h-177.2v-13.5h177.2c2.2 0 4-1.8 4-4s-1.8-4-4-4h-177.2v-13.5h177.2c2.2 0 4-1.8 4-4s-1.8-4-4-4h-177.2v-4.3c0-2.2-1.8-4-4-4h-76.9v-176.9h275.6z"/><path d="m246.9 279.6h240.6c2.2 0 4-1.8 4-4s-1.8-4-4-4h-240.6c-2.2 0-4 1.8-4 4s1.8 4 4 4z"/><path d="m246.9 211.6h134c2.2 0 4-1.8 4-4v-82.3c0-2.2-1.8-4-4-4h-134c-2.2 0-4 1.8-4 4v82.3c0 2.2 1.8 4 4 4zm4-82.3h126v74.3h-126z"/><path d="m402.4 129.3h85.2c2.2 0 4-1.8 4-4s-1.8-4-4-4h-85.2c-2.2 0-4 1.8-4 4s1.8 4 4 4z"/><path d="m246.9 236.7h240.6c2.2 0 4-1.8 4-4s-1.8-4-4-4h-240.6c-2.2 0-4 1.8-4 4s1.8 4 4 4z"/><path d="m188.8 132c0 2.2 1.8 4 4 4h6.5c2.2 0 4-1.8 4-4s-1.8-4-4-4h-6.5c-2.2 0-4 1.8-4 4z"/><path d="m188.3 177.1-5.6-3.3c-2-1.1-4.4-.4-5.5 1.5s-.4 4.3 1.5 5.5l5.6 3.3c.6.3 1.3.5 2 .5 1.4 0 2.8-.7 3.5-2 1.1-2 .4-4.4-1.5-5.5z"/><path d="m180.7 90.6c.7 0 1.4-.1 2-.5l5.6-3.3c2-1.1 2.6-3.6 1.5-5.5s-3.6-2.6-5.5-1.5l-5.6 3.3c-2 1.1-2.6 3.6-1.5 5.5.8 1.3 2.1 2 3.5 2z"/><path d="m98.2 34.8v6.5c0 2.2 1.8 4 4 4s4-1.8 4-4v-6.5c0-2.2-1.8-4-4-4s-4 1.8-4 4z"/><path d="m21.7 173.7-5.7 3.3c-1.9 1.1-2.6 3.6-1.5 5.5.8 1.3 2.1 2 3.5 2 .7 0 1.4-.1 2-.5l5.6-3.2c1.9-1.1 2.6-3.6 1.5-5.5s-3.5-2.6-5.4-1.6z"/><path d="m145.5 57c.6.3 1.3.5 2 .5 1.4 0 2.8-.7 3.5-2l3.3-5.7c1.1-2 .4-4.4-1.5-5.5-2-1.1-4.4-.4-5.5 1.5l-3.3 5.7c-1.1 1.9-.4 4.3 1.5 5.5z"/><path d="m15.5 132c0-2.2-1.8-4-4-4h-6.5c-2.2 0-4 1.8-4 4s1.8 4 4 4h6.5c2.2 0 4-1.8 4-4z"/><path d="m25.7 83.1-5.7-3.3c-2-1.1-4.4-.4-5.5 1.5-1.1 2-.4 4.4 1.5 5.5l5.6 3.3c.6.3 1.3.5 2 .5 1.4 0 2.8-.7 3.5-2 1.1-1.9.5-4.3-1.4-5.5z"/><path d="m53.4 55.5c.8 1.3 2.1 2 3.5 2 .7 0 1.4-.1 2-.5 1.9-1.1 2.6-3.6 1.5-5.5l-3.3-5.7c-1.1-1.9-3.6-2.6-5.5-1.5s-2.6 3.6-1.5 5.5z"/></g></svg>