<svg id="Layer_1" enable-background="new 0 0 512 512" height="512" viewBox="0 0 512 512" width="512" xmlns="http://www.w3.org/2000/svg"><g clip-rule="evenodd" fill-rule="evenodd"><path d="m32.2 82.9h350.7v191.9h-350.7z" fill="#fefefe"/><g fill="#3e6276"><path d="m228 232.2 7.6-28.2-23.8-44.2v24.4c5.7 1.7 9.8 7 9.8 13.2 0 7.6-6.2 13.8-13.8 13.8s-13.8-6.2-13.8-13.8c0-6.2 4.2-11.5 9.8-13.2v-24.4l-24 44.2 7.5 28.2z"/><path d="m237.9 240.2h-60.3c-1.6 0-2.9 1.3-2.9 2.9s1.3 2.9 2.9 2.9h60.3c1.6 0 2.9-1.3 2.9-2.9s-1.4-2.9-2.9-2.9z"/><path d="m270 187.8h9.6v9.6h-9.6z"/><path d="m202.9 111.7h9.6v9.6h-9.6z"/><path d="m135.5 187.8h9.6v9.6h-9.6z"/><path d="m181.6 349.2h52.1v47.6h-52.1z"/><path d="m8 324c0 9.5 7.3 17.1 16.2 17.1h366.8c8.9 0 16.2-7.7 16.2-17.1v-17.9h-399.2z"/><path d="m131 429v24.2h153.2v-24.2c0-13.4-10.9-24.2-24.2-24.2h-104.7c-13.4 0-24.3 10.9-24.3 24.2z"/></g><path d="m391 60.7h-366.8c-8.9 0-16.2 7.7-16.2 17.2v220.2h399.2v-220.2c0-9.5-7.3-17.2-16.2-17.2zm0 214.8c0 4-3.3 7.3-7.3 7.3h-352.2c-4 0-7.3-3.3-7.3-7.3v-193.4c0-4 3.3-7.3 7.3-7.3h352.2c4 0 7.3 3.3 7.3 7.3z" fill="#1d6e9c"/><path d="m462.3 385.7c-4.4-1.6-7.5-5.8-7.5-10.8v-7.8c0-4.9 3.1-9.1 7.5-10.8v-15.2c-18.9 2-33.6 18-33.6 37.4v11.3h33.6z" fill="#fff"/><path d="m466.3 378.4c1.9 0 3.5-1.6 3.5-3.5v-7.8c0-1.9-1.6-3.5-3.5-3.5s-3.5 1.6-3.5 3.5v7.8c0 1.9 1.5 3.5 3.5 3.5z" fill="#1d6e9c"/><path d="m503.9 415.6c0 20.8-16.9 37.6-37.6 37.6-20.8 0-37.6-16.9-37.6-37.6v-17.9h75.2z" fill="#1d6e9c"/><path d="m470.3 341.1v15.2c4.4 1.6 7.5 5.8 7.5 10.7v7.8c0 4.9-3.1 9.1-7.5 10.8v4.1h33.6v-11.2c0-19.3-14.7-35.4-33.6-37.4z" fill="#fff"/><path d="m383.7 74.9h-352.2c-4 0-7.3 3.3-7.3 7.3v193.3c0 4 3.3 7.3 7.3 7.3h352.2c4 0 7.3-3.3 7.3-7.3v-193.4c0-4-3.3-7.2-7.3-7.2zm-.7 199.9h-350.8v-191.9h350.7z"/><path d="m131.5 205.4h17.6c2.2 0 4-1.8 4-4v-17.6c0-2.2-1.8-4-4-4h-4.7c1.8-28.5 22.4-52.3 50.4-58v3.5c0 2.2 1.8 4 4 4h17.6c2.2 0 4-1.8 4-4v-3.5c27.9 5.7 48.6 29.4 50.4 58h-4.8c-2.2 0-4 1.8-4 4v17.6c0 2.2 1.8 4 4 4h17.6c2.2 0 4-1.8 4-4v-17.6c0-2.2-1.8-4-4-4h-4.9c-1.8-32.9-25.9-60.3-58.4-66.1v-6c0-2.2-1.8-4-4-4h-17.6c-2.2 0-4 1.8-4 4v6c-32.5 5.9-56.6 33.2-58.4 66.1h-5c-2.2 0-4 1.8-4 4v17.6c.2 2.2 2 4 4.2 4zm148.2-17.6v9.6h-9.6v-9.6zm-76.8-76.1h9.6v9.6h-9.6zm-67.4 76.1h9.6v9.6h-9.6z"/><path d="m470.3 333.1v-94.2c0-17.4-14.2-31.5-31.5-31.5h-23.5v-129.5c0-13.9-10.9-25.1-24.2-25.1h-366.9c-13.3-.1-24.2 11.2-24.2 25.1v246.1c0 13.9 10.9 25.1 24.2 25.1h149.4v47.6h-18.3c-17.8 0-32.2 14.5-32.2 32.2v28.2c0 2.2 1.8 4 4 4h161.2c2.2 0 4-1.8 4-4v-28.1c0-17.8-14.4-32.2-32.2-32.2h-18.3v-47.6h149.4c13.3 0 24.2-11.3 24.2-25.1v-108.7h23.5c13 0 23.6 10.6 23.6 23.5v94.2c-23.3 2-41.6 21.6-41.6 45.5v37c0 25.2 20.5 45.6 45.6 45.6s45.6-20.5 45.6-45.6v-37c-.2-23.9-18.5-43.5-41.8-45.5zm-210.3 71.7c13.3 0 24.2 10.9 24.2 24.2v24.2h-153.2v-24.2c0-13.4 10.9-24.2 24.2-24.2zm-78.4-8v-47.6h52.1v47.6zm225.6-72.8c0 9.5-7.3 17.1-16.2 17.1h-366.8c-8.9.1-16.2-7.6-16.2-17.1v-17.9h399.2zm0-25.8h-399.2v-220.3c0-9.5 7.3-17.1 16.2-17.1h366.8c8.9 0 16.2 7.7 16.2 17.1zm55.6 68.9c0-1.9 1.6-3.5 3.5-3.5s3.5 1.6 3.5 3.5v7.8c0 1.9-1.6 3.5-3.5 3.5s-3.5-1.6-3.5-3.5zm-34.2 11.5c0-19.4 14.8-35.4 33.6-37.4v15.2c-4.4 1.6-7.5 5.8-7.5 10.8v7.8c0 4.9 3.1 9.1 7.5 10.8v4h-33.6zm75.3 37c0 20.8-16.9 37.6-37.6 37.6-20.8 0-37.6-16.9-37.6-37.6v-17.9h75.2zm0-25.9h-33.6v-4.1c4.4-1.6 7.5-5.8 7.5-10.8v-7.8c0-4.9-3.1-9.1-7.5-10.7v-15.2c18.9 2 33.6 18 33.6 37.4z"/><path d="m237.9 232.2h-1.6l7.4-27.6c.3-1 .1-2-.3-2.9l-32.1-59.5c-.7-1.3-2-2.1-3.5-2.1-1.5 0-2.8.8-3.5 2.1l-32.3 59.4c-.5.9-.6 1.9-.3 2.9l7.4 27.6h-1.5c-6 0-10.9 4.9-10.9 10.9s4.9 10.9 10.9 10.9h60.3c6 0 10.9-4.9 10.9-10.9s-4.9-10.8-10.9-10.8zm-30.2-40.6c3.2 0 5.8 2.6 5.8 5.8s-2.6 5.8-5.8 5.8-5.8-2.6-5.8-5.8c-.1-3.2 2.5-5.8 5.8-5.8zm-4-31.7v24.4c-5.7 1.7-9.8 7-9.8 13.2 0 7.6 6.2 13.8 13.8 13.8s13.8-6.2 13.8-13.8c0-6.2-4.1-11.5-9.8-13.2v-24.4l23.8 44.2-7.6 28.2h-40.6l-7.5-28.2zm34.2 86.1h-60.3c-1.6 0-2.9-1.3-2.9-2.9s1.3-2.9 2.9-2.9h60.3c1.6 0 2.9 1.3 2.9 2.9s-1.4 2.9-2.9 2.9z"/><path d="m204 327.7h7.4c2.2 0 4-1.8 4-4s-1.8-4-4-4h-7.4c-2.2 0-4 1.8-4 4s1.7 4 4 4z"/></g></svg>