<svg id="Layer_1" enable-background="new 0 0 512 512" height="512" viewBox="0 0 512 512" width="512" xmlns="http://www.w3.org/2000/svg"><g clip-rule="evenodd" fill-rule="evenodd"><path d="m443.8 359.8-121.8-35.2-60.3 179.5h179.3c5.6 0 10.1-4.5 10.1-10.1v-124.5c0-4.6-2.8-8.4-7.3-9.7z" fill="#3e6276"/><path d="m311.9 321.7-53.5 37.8c-1.4 1-3.2 1-4.6 0l-53.5-37.8-2.5.7 58.2 173.1 58.2-173.2z" fill="#fff"/><path d="m261.3 60.4h7.4v86.4h-7.4z" fill="#cde3f5"/><path d="m170.5 146.7h8.2v-26c-.3-.2-.6-.4-.9-.7l-9.1-9.1c-1.6-1.6-1.6-4.1 0-5.7s4.1-1.6 5.7 0l4.4 4.4v-10.6c0-2.2 1.8-4 4-4s4 1.8 4 4v10.5l4.4-4.4c1.6-1.6 4.1-1.6 5.7 0s1.6 4.1 0 5.7l-9.1 9.1c-.3.3-.6.5-.9.7v26h8.2v-14.4c0-1.6.9-3 2.4-3.7 13.5-5.8 22.2-19.1 22.2-33.8 0-20.3-16.5-36.9-36.9-36.9-20.3 0-36.8 16.5-36.8 36.9 0 14.7 8.7 28 22.2 33.8 1.5.6 2.4 2.1 2.4 3.7v14.4h-.1z" fill="#fbca41"/><path d="m276.7 60.4h7.4v86.4h-7.4z" fill="#cde3f5"/><path d="m215 259.5c0 .1.1.1.1.2 13.1 6.8 27.9 10.1 42.7 10.1h.5c13.8 0 26.9-3.3 38.6-9.4.1-.3.3-.6.4-1l.8.3c6.5-3.6 12.5-8 17.8-13.3 16.6-16.5 25.8-40.2 25.8-66.7v-25h-53.5-30.8-58.3-28.5v25c0 40.7 18.9 66.7 44.2 79.9h.2z" fill="#fadbcc"/><path d="m305.3 316.6c-10.5-16-14.3-31.2-11.5-45.9-11 4.7-23 7.1-35.5 7.1-.2 0-.4 0-.6 0-14.1-.1-27.4-2.7-39.4-7.7 3 14.9-.8 30.2-11.4 46.4l49.2 34.8z" fill="#fadbcc"/><path d="m68.3 359.8c-4.4 1.3-7.2 5.1-7.2 9.7v124.5c0 5.6 4.5 10.1 10.1 10.1h179.3l-60.4-179.5z" fill="#3e6276"/><g fill="#cde3f5"><path d="m349.6 83.7h5.9c.8 0 1.5-.7 1.5-1.4 0-.8-.7-1.5-1.5-1.5h-5.4-37-5.3c-.8 0-1.4.7-1.4 1.5s.6 1.4 1.4 1.4h5.9z"/><path d="m347 72.8 5.7-21.4-17.2-31.8v15.4c4.5 1.6 7.8 6 7.8 11.1 0 6.5-5.3 11.8-11.8 11.8s-11.8-5.3-11.8-11.8c0-5.1 3.2-9.4 7.8-11v-15.4l-17.2 31.8 5.7 21.4h31z"/><path d="m272.7 24.6-10.4 14.1h20.7z"/><path d="m331.6 49.9c2.1 0 3.8-1.7 3.8-3.8s-1.7-3.8-3.8-3.8-3.8 1.7-3.8 3.8 1.7 3.8 3.8 3.8z"/><path d="m321.5 91.7h20v54.9h-20z"/><path d="m261.3 46.7h22.8v5.7h-22.8z"/></g><path d="m235.3 69.1c1.9-1.1 2.6-3.6 1.5-5.5s-3.6-2.6-5.5-1.5l-3.4 2c-1.9 1.1-2.6 3.6-1.5 5.5.7 1.3 2.1 2 3.5 2 .7 0 1.4-.2 2-.5z"/><path d="m132.3 128c.7 0 1.4-.2 2-.5l3.4-2c1.9-1.1 2.6-3.5 1.5-5.5-1.1-1.9-3.5-2.6-5.5-1.5l-3.4 2c-1.9 1.1-2.6 3.5-1.5 5.5.8 1.3 2.1 2 3.5 2z"/><path d="m226.5 120c-1.1 1.9-.5 4.4 1.5 5.5l3.4 2c.6.4 1.3.5 2 .5 1.4 0 2.7-.7 3.5-2 1.1-1.9.5-4.4-1.5-5.5l-3.4-2c-2-1-4.4-.4-5.5 1.5z"/><path d="m132.4 94.8c0-2.2-1.8-4-4-4h-3.9c-2.2 0-4 1.8-4 4s1.8 4 4 4h3.9c2.2 0 4-1.8 4-4z"/><path d="m178.8 36.5v3.9c0 2.2 1.8 4 4 4s4-1.8 4-4v-3.9c0-2.2-1.8-4-4-4s-4 1.8-4 4z"/><path d="m446.1 352.1-133.1-38.4c-11.6-17.1-14.8-32.7-9.7-47.7 6.6-3.8 12.6-8.4 18.1-13.8 18.1-18 28.1-43.8 28.1-72.5v-27.6-1.4-59h5.9c5.2 0 9.5-4.2 9.5-9.4s-4.2-9.5-9.5-9.5h-.2l5.6-20.8c.3-1 .1-2-.3-2.9l-25.4-47.1c-.7-1.3-2-2.1-3.5-2.1-1.5 0-2.8.8-3.5 2.1l-25.5 47.1c-.5.9-.6 1.9-.3 2.9l5.6 20.8h-.1c-5.2 0-9.4 4.2-9.4 9.5 0 5.2 4.2 9.4 9.4 9.4h5.9v54.9h-21.5v-107.8c0-.8-.3-1.7-.8-2.4l-15.4-21.1c-.8-1-2-1.6-3.2-1.6-1.3 0-2.5.6-3.2 1.6l-15.4 21.1c-.5.7-.8 1.5-.8 2.4v107.9h-50.2v-11.8c15-7.6 24.6-23 24.6-40 0-24.7-20.1-44.9-44.9-44.9-24.7 0-44.8 20.1-44.8 44.9 0 17 9.6 32.5 24.6 40v15.8 29c0 29.8 9.7 55 28.1 72.7 5.4 5.1 11.4 9.5 18 13.2 5.3 15.1 2.1 30.9-9.6 48.1l-133.2 38.4c-7.8 2.3-13 9.3-13 17.4v124.5c0 10 8.1 18.1 18.1 18.1h369.9c10 0 18.1-8.1 18.1-18.1v-124.5c0-8.1-5.2-15.1-13-17.4zm-104.4-205.4h-20v-55h20zm-10.1-104.4c2.1 0 3.8 1.7 3.8 3.8s-1.7 3.8-3.8 3.8-3.8-1.7-3.8-3.8 1.7-3.8 3.8-3.8zm-4.1-22.7v15.4c-4.5 1.6-7.8 6-7.8 11 0 6.5 5.3 11.8 11.8 11.8s11.8-5.3 11.8-11.8c0-5.1-3.3-9.4-7.8-11.1v-15.4l17.2 31.8-5.7 21.4h-30.9l-5.7-21.4zm-19.9 64.1c-.8 0-1.4-.6-1.4-1.4s.7-1.5 1.4-1.5h5.3 37 5.4c.8 0 1.5.7 1.5 1.5s-.7 1.4-1.5 1.4h-5.9-36zm-34.9-59.1 10.3 14.1h-20.7zm-11.4 22.1h22.8v5.7h-22.8zm22.7 13.7v86.4h-7.4v-86.4zm-22.7 0h7.4v86.4h-7.4zm-93.2 68.3c-13.5-5.8-22.2-19.1-22.2-33.8 0-20.3 16.5-36.9 36.8-36.9s36.9 16.5 36.9 36.9c0 14.7-8.7 28-22.2 33.8-1.5.6-2.4 2.1-2.4 3.7v14.4h-8.2v-26c.3-.2.6-.4.9-.7l9.1-9.1c1.6-1.6 1.6-4.1 0-5.7s-4.1-1.6-5.7 0l-4.4 4.4v-10.6c0-2.2-1.8-4-4-4s-4 1.8-4 4v10.5l-4.4-4.4c-1.6-1.6-4.1-1.6-5.7 0s-1.6 4.1 0 5.7l9.1 9.1c.3.3.6.5.9.7v26h-8.2v-14.4c.1-1.5-.8-3-2.3-3.6zm2.4 51v-25h28.5 58.2 30.8 53.5v25c0 26.5-9.2 50.2-25.8 66.7-5.3 5.3-11.3 9.7-17.8 13.3l-.8-.3c-.1.3-.3.6-.4 1-11.6 6.1-24.8 9.4-38.6 9.4-.2 0-.3 0-.5 0-14.8-.1-29.6-3.4-42.7-10.1 0-.1-.1-.1-.1-.2l-.2.1c-25.1-13.2-44.1-39.2-44.1-79.9zm47.8 90.5c12 5 25.3 7.6 39.4 7.7h.6c12.5 0 24.5-2.5 35.5-7.1-2.8 14.7 1 29.8 11.5 45.9l-49.2 34.8-49.2-34.8c10.6-16.4 14.4-31.7 11.4-46.5zm-147.1 233.9c-5.6 0-10.1-4.5-10.1-10.1v-124.5c0-4.6 2.8-8.4 7.2-9.7l121.8-35.2 60.4 179.5zm126.7-181.7 2.5-.7 53.5 37.8c1.4 1 3.2 1 4.6 0l53.5-37.8 2.4.7-58.2 173.2zm253.2 171.6c0 5.6-4.5 10.1-10.1 10.1h-179.3l60.3-179.5 121.8 35.2c4.4 1.3 7.2 5.1 7.2 9.7v124.5z"/><path d="m139.2 69.6c1.1-1.9.4-4.4-1.5-5.5l-3.4-2c-1.9-1.1-4.4-.4-5.5 1.5s-.4 4.4 1.5 5.5l3.4 2c.6.4 1.3.5 2 .5 1.4 0 2.7-.7 3.5-2z"/><path d="m151.7 40.8c-1.9 1.1-2.6 3.6-1.5 5.5l2 3.4c.7 1.3 2.1 2 3.5 2 .7 0 1.4-.2 2-.5 1.9-1.1 2.6-3.6 1.5-5.5l-2-3.4c-1.2-1.9-3.6-2.6-5.5-1.5z"/><path d="m245.1 94.8c0-2.2-1.8-4-4-4h-3.9c-2.2 0-4 1.8-4 4s1.8 4 4 4h3.9c2.3 0 4-1.8 4-4z"/><path d="m208.5 42.3-2 3.4c-1.1 1.9-.5 4.4 1.5 5.5.6.4 1.3.5 2 .5 1.4 0 2.7-.7 3.5-2l2-3.4c1.1-1.9.5-4.4-1.5-5.5-1.9-1.1-4.3-.4-5.5 1.5z"/></g></svg>