<svg id="Layer_1" enable-background="new 0 0 512 512" height="512" viewBox="0 0 512 512" width="512" xmlns="http://www.w3.org/2000/svg"><g><path d="m267.9 66.8c-.1 2.3 0 4.7.3 7.2.2 1.7-.7 3.4-2.3 4.1l-15.9 7.5 8.5 18 15.9-7.5c1.5-.7 3.4-.4 4.6.9 1.6 1.8 3.4 3.4 5.3 4.9 1.4 1 1.9 2.9 1.3 4.5l-5.9 16.5 18.8 6.8 5.9-16.6c.6-1.6 2.1-2.7 3.9-2.6 2.3.1 4.7 0 7.2-.3 1.7-.2 3.4.7 4.1 2.3l7.5 15.9 18.1-8.5-7.5-15.9c-.7-1.5-.4-3.4.9-4.6 1.8-1.6 3.4-3.4 4.9-5.3 1-1.4 2.9-1.9 4.5-1.3l16.5 5.9 6.8-18.8-16.6-5.9c-1.6-.6-2.7-2.2-2.6-3.9.1-2.3 0-4.7-.3-7.2-.2-1.7.7-3.4 2.3-4.1l15.9-7.5-8.5-18.1-15.9 7.5c-1.5.7-3.4.4-4.6-.9-1.6-1.8-3.4-3.4-5.3-4.9-1.4-1-1.9-2.9-1.3-4.5l5.9-16.5-18.8-6.8-6 16.6c-.6 1.6-2.2 2.7-3.9 2.6-2.3-.1-4.7 0-7.2.3-1.7.2-3.4-.7-4.1-2.3l-7.5-15.9-18.1 8.5 7.5 15.9c.7 1.5.4 3.4-.9 4.6-1.8 1.6-3.4 3.4-4.9 5.3-1 1.4-2.9 1.9-4.5 1.3l-16.5-5.9-6.7 18.8 16.6 6c1.6.6 2.7 2.2 2.6 3.9zm10.5-9.8c3-8.5 9.2-15.3 17.3-19.1s17.2-4.2 25.7-1.2 15.3 9.2 19.1 17.3 4.2 17.2 1.2 25.7-9.2 15.3-17.3 19.1c-4.5 2.1-9.4 3.2-14.3 3.2-3.8 0-7.7-.7-11.4-2-8.4-3-15.2-9.2-19.1-17.3-3.8-8.1-4.2-17.2-1.2-25.7z" fill="#fbca41"/><path d="m240.9 196c-13.6 0-26.5 5.9-35.4 16.1-8.2 9.4-12.3 21.6-11.5 33.9h93.8c.8-12.3-3.3-24.5-11.5-33.9-8.9-10.2-21.8-16.1-35.4-16.1z" fill="#fff"/><path d="m186.1 246c-.7-14.3 4-28.4 13.5-39.2 10.4-11.9 25.5-18.8 41.4-18.8s31 6.8 41.4 18.8c9.5 10.9 14.3 24.9 13.5 39.2h54.1v-23h-33.1c-1.7 0-3.3-1.1-3.8-2.8-1.2-4-2.9-8-4.9-11.9-.8-1.6-.5-3.5.7-4.7l23.4-23.4-28.4-28.4-23.4 23.4c-1.3 1.2-3.2 1.5-4.7.7-3.7-2-7.7-3.7-11.9-5-1.7-.5-2.8-2.1-2.8-3.8v-33.1h-40.2v33.1c0 1.7-1.1 3.3-2.8 3.8-4.2 1.3-8.2 3-11.9 4.9-1.6.8-3.5.5-4.7-.7l-23.4-23.4-28.4 28.4 23.4 23.4c1.2 1.3 1.5 3.2.7 4.7-2 3.8-3.7 7.8-5 11.9-.5 1.7-2.1 2.8-3.8 2.8h-33v23.1z" fill="#e63d7d"/><path d="m301.3 92.4c6.4 2.4 13.4 2 19.6-.9s10.9-8.1 13.2-14.5c2.4-6.4 2-13.4-.9-19.6s-8-10.9-14.5-13.2c-2.9-1-5.8-1.5-8.7-1.5-3.7 0-7.4.9-10.9 2.5-6.2 2.9-10.9 8.1-13.2 14.5s-1.9 13.4.9 19.5c2.9 6.2 8.1 10.9 14.5 13.2z" fill="#fff"/><path d="m424.7 178c.1-1.8 0-3.5-.2-5.2-.2-1.8.7-3.5 2.3-4.2l11.2-5.3-5.6-11.9-11.2 5.3c-1.6.8-3.5.4-4.7-.9s-2.4-2.4-3.9-3.5c-1.4-1-2-2.9-1.4-4.5l4.2-11.6-12.4-4.5-4.2 11.6c-.6 1.6-2.1 2.7-3.9 2.6-1.7 0-3.4.1-5.3.3-1.7.2-3.4-.7-4.1-2.3l-5.2-11.2-12 5.6 5.3 11.2c.7 1.6.4 3.4-.9 4.6-1.4 1.2-2.6 2.6-3.6 3.9-1 1.4-2.9 1.9-4.5 1.3l-11.6-4.2-4.5 12.4 11.6 4.2c1.6.6 2.7 2.2 2.6 3.9 0 1.7.1 3.5.3 5.3.2 1.7-.7 3.4-2.3 4.1l-11.2 5.3 5.6 11.9 11.2-5.3c1.5-.7 3.4-.4 4.6.9s2.4 2.5 3.9 3.6c1.4 1 1.9 2.9 1.3 4.5l-4.2 11.6 12.4 4.5 4.2-11.6c.6-1.6 2.1-2.7 3.9-2.6 1.7 0 3.5-.1 5.3-.3 1.7-.2 3.4.7 4.1 2.3l5.3 11.2 11.9-5.6-5.3-11.2c-.8-1.5-.4-3.4.9-4.6 1.3-1.1 2.5-2.5 3.6-3.9 1-1.4 2.9-1.9 4.5-1.3l11.6 4.2 4.6-12.5-11.6-4.2c-1.6-.6-2.7-2.2-2.6-3.9zm-6.2 7.9c-2.4 6.7-7.2 12-13.6 15-3.6 1.6-7.5 2.5-11.3 2.5-3.1 0-6.1-.6-9-1.6-6.7-2.4-12-7.2-15-13.6s-3.4-13.6-1-20.2c2.4-6.7 7.2-12 13.6-15s13.6-3.4 20.2-1c6.7 2.4 12 7.2 15.1 13.7 3 6.4 3.4 13.6 1 20.2z" fill="#a0c76a"/><path d="m399.8 159.5c-2-.7-4.1-1.1-6.2-1.1-2.7 0-5.4.6-7.9 1.8-4.5 2.1-7.8 5.8-9.5 10.4-1.6 4.6-1.4 9.6.7 14.1s5.8 7.8 10.4 9.5c9.6 3.5 20.2-1.5 23.6-11.1 1.6-4.6 1.4-9.6-.6-14.1-2.1-4.5-5.9-7.8-10.5-9.5z" fill="#fff"/><path d="m291.3 253.8h-168.1c-.6 3-1 5.9-1.4 8.7-.1.7-.4 1.3-.8 1.9l-46.2 61.6 46.5 12.5c1.8.5 3 2.1 3 3.9v88.3h66.5c2.2 0 4 1.8 4 4v71.5h131.7l-.4-100.4c0-1.5.7-2.8 2-3.5 43.6-24.7 70.7-71.1 70.6-121.3 0-9.1-.9-18.3-2.7-27.2z" fill="#fadbcc"/><path d="m402.4 152c-6.6-2.4-13.8-2-20.2 1s-11.2 8.3-13.6 15c-2.4 6.6-2 13.8 1 20.2s8.3 11.2 15 13.6c2.9 1 5.9 1.6 9 1.6 3.8 0 7.7-.9 11.3-2.5 6.4-3 11.2-8.3 13.6-15 2.4-6.6 2-13.8-1-20.2-3.1-6.5-8.4-11.3-15.1-13.7zm8.5 31.1c-3.4 9.6-14 14.6-23.6 11.1-4.6-1.7-8.3-5-10.4-9.5s-2.3-9.5-.7-14.1c1.7-4.6 5-8.3 9.5-10.4 2.5-1.2 5.2-1.8 7.9-1.8 2.1 0 4.2.4 6.2 1.1 4.6 1.7 8.4 5 10.5 9.5 2 4.5 2.2 9.5.6 14.1z"/><path d="m445.2 179.9-12.7-4.6c0-.3 0-.5 0-.8l12.2-5.8c1-.5 1.7-1.3 2.1-2.3s.3-2.1-.1-3.1l-9-19.2c-.9-2-3.3-2.9-5.3-1.9l-12.2 5.8c-.2-.2-.4-.3-.6-.5l4.6-12.7c.7-2.1-.3-4.4-2.4-5.1l-20-7.2c-1-.4-2.1-.3-3.1.1s-1.7 1.3-2.1 2.3l-4.6 12.7c-.2 0-.5 0-.7 0l-5.8-12.3c-.5-1-1.3-1.7-2.3-2.1s-2.1-.3-3.1.1l-19.2 9c-1 .5-1.7 1.3-2.1 2.3s-.3 2.1.1 3.1l5.8 12.3c-.2.2-.3.4-.5.5l-12.8-4.6c-1-.4-2.1-.3-3.1.1-1 .5-1.7 1.3-2.1 2.3l-7.1 20c-.7 2.1.3 4.4 2.4 5.1l12.7 4.6v.8l-12.2 5.8c-2 .9-2.8 3.3-1.9 5.3l9 19.2c.5 1 1.3 1.7 2.3 2.1s2.1.3 3.1-.1l12.2-5.8c.2.2.4.3.5.5l-4.6 12.8c-.7 2.1.3 4.4 2.4 5.1l20 7.2c.4.2.9.2 1.4.2.6 0 1.2-.1 1.7-.4 1-.5 1.7-1.3 2.1-2.3l4.6-12.7h.7l5.8 12.3c.5 1 1.3 1.7 2.3 2.1s2.1.3 3.1-.1l19.2-9c2-.9 2.8-3.3 1.9-5.3l-5.8-12.3c.2-.2.3-.4.5-.6l12.7 4.6c1 .4 2.1.3 3.1-.1 1-.5 1.7-1.3 2.1-2.3l7.2-20c.4-.9.4-2-.1-3s-1.3-1.7-2.3-2.1zm-10.9 18.7-11.6-4.2c-1.6-.6-3.5-.1-4.5 1.3-1.1 1.4-2.3 2.8-3.6 3.9-1.3 1.2-1.7 3.1-.9 4.6l5.3 11.2-11.9 5.6-5.3-11.2c-.7-1.6-2.4-2.5-4.1-2.3-1.8.2-3.6.3-5.3.3-1.8-.1-3.3 1-3.9 2.6l-4.2 11.6-12.4-4.5 4.2-11.6c.6-1.6.1-3.5-1.3-4.5-1.5-1.1-2.7-2.3-3.9-3.6s-3.1-1.6-4.6-.9l-11.2 5.3-5.6-11.9 11.2-5.3c1.6-.7 2.5-2.4 2.3-4.1-.2-1.8-.3-3.6-.3-5.3.1-1.7-1-3.3-2.6-3.9l-11.6-4.2 4.5-12.4 11.6 4.2c1.6.6 3.5.1 4.5-1.3 1-1.3 2.2-2.7 3.6-3.9 1.3-1.2 1.6-3 .9-4.6l-5.3-11.2 12-5.6 5.2 11.2c.7 1.6 2.4 2.5 4.1 2.3 1.9-.2 3.6-.3 5.3-.3 1.8.1 3.3-1 3.9-2.6l4.2-11.6 12.4 4.5-4.2 11.6c-.6 1.6 0 3.5 1.4 4.5 1.5 1.1 2.7 2.2 3.9 3.5s3.1 1.7 4.7.9l11.2-5.3 5.6 11.9-11.2 5.3c-1.6.7-2.5 2.4-2.3 4.2.2 1.7.3 3.4.2 5.2-.1 1.7 1 3.3 2.6 3.9l11.6 4.2z"/><path d="m298.7 100c3.7 1.3 7.6 2 11.4 2 4.9 0 9.8-1.1 14.3-3.2 8.1-3.8 14.3-10.6 17.3-19.1s2.6-17.6-1.2-25.7-10.6-14.3-19.1-17.3-17.6-2.6-25.7 1.2-14.3 10.6-17.3 19.1-2.6 17.6 1.2 25.7c3.9 8.1 10.7 14.3 19.1 17.3zm-12.8-40.3c2.3-6.4 7-11.6 13.2-14.5 3.5-1.6 7.2-2.5 10.9-2.5 2.9 0 5.8.5 8.7 1.5 6.5 2.3 11.6 7 14.5 13.2s3.3 13.2.9 19.6c-2.3 6.4-7 11.6-13.2 14.5s-13.2 3.3-19.6.9c-6.4-2.3-11.6-7-14.5-13.2-2.8-6.1-3.2-13.1-.9-19.5z"/><path d="m242.2 63.1 17.7 6.4c0 .9.1 1.8.1 2.7l-17 8c-2 .9-2.9 3.3-1.9 5.3l11.9 25.3c.5 1 1.3 1.7 2.3 2.1s2.1.3 3.1-.1l17-8c.6.6 1.3 1.2 2 1.8l-6.3 17.6c-.7 2.1.3 4.4 2.4 5.1l26.3 9.5c.4.2.9.2 1.4.2.6 0 1.2-.1 1.7-.4 1-.5 1.7-1.3 2.1-2.3l6.3-17.6c.9 0 1.8-.1 2.7-.1l8 17c.9 2 3.3 2.9 5.3 1.9l25.3-11.9c1-.5 1.7-1.3 2.1-2.3s.3-2.1-.1-3.1l-8-17c.6-.6 1.2-1.3 1.8-2l17.6 6.3c2.1.7 4.4-.3 5.1-2.4l9.5-26.3c.4-1 .3-2.1-.1-3.1-.5-1-1.3-1.7-2.3-2.1l-17.6-6.3c0-.9-.1-1.8-.1-2.7l17-8c2-.9 2.9-3.3 1.9-5.3l-12.3-25.3c-.5-1-1.3-1.7-2.3-2.1s-2.1-.3-3.1.1l-17 8c-.6-.6-1.3-1.2-2-1.8l6.3-17.6c.7-2.1-.3-4.4-2.4-5.1l-26.1-9.5c-2.1-.7-4.4.3-5.1 2.4l-6.4 17.7c-.9 0-1.8.1-2.7.1l-8-17c-.9-2-3.3-2.9-5.3-1.9l-25.3 11.9c-1 .5-1.7 1.3-2.1 2.3s-.3 2.1.1 3.1l8 17c-.6.6-1.2 1.3-1.8 2l-17.6-6.3c-2.1-.7-4.4.3-5.1 2.4l-9.5 26.3c-.7 2 .4 4.3 2.5 5.1zm13.2-25 16.5 5.9c1.6.6 3.5.1 4.5-1.3 1.5-1.9 3.1-3.7 4.9-5.3 1.3-1.2 1.6-3.1.9-4.6l-7.5-15.9 18.1-8.5 7.5 15.9c.7 1.6 2.4 2.5 4.1 2.3 2.5-.3 4.9-.4 7.2-.3 1.7.1 3.3-1 3.9-2.6l6-16.6 18.8 6.8-5.9 16.5c-.6 1.6-.1 3.5 1.3 4.5 1.9 1.5 3.7 3.1 5.3 4.9 1.2 1.3 3.1 1.6 4.6.9l15.9-7.5 8.5 18.1-15.9 7.5c-1.6.7-2.5 2.4-2.3 4.1.3 2.5.4 4.9.3 7.2-.1 1.7 1 3.3 2.6 3.9l16.6 5.9-6.8 18.8-16.5-5.9c-1.6-.6-3.5-.1-4.5 1.3-1.5 1.9-3.1 3.7-4.9 5.3-1.3 1.2-1.6 3.1-.9 4.6l7.5 15.9-18.1 8.5-7.5-15.9c-.7-1.6-2.4-2.5-4.1-2.3-2.5.3-4.9.4-7.2.3-1.8-.1-3.3 1-3.9 2.6l-5.9 16.6-18.8-6.8 5.9-16.5c.6-1.6.1-3.5-1.3-4.5-1.9-1.5-3.7-3.1-5.3-4.9-1.2-1.3-3.1-1.6-4.6-.9l-15.9 7.5-8.5-18 15.9-7.5c1.6-.7 2.5-2.4 2.3-4.1-.3-2.5-.4-4.9-.3-7.2.1-1.7-1-3.3-2.6-3.9l-16.6-6z"/><path d="m399.3 246h-41.5v-27.1c0-2.2-1.8-4-4-4h-34.3c-.9-2.6-2-5.2-3.2-7.8l24.2-24.2c.8-.7 1.2-1.8 1.2-2.8s-.4-2.1-1.2-2.8l-34-34c-.7-.7-1.8-1.2-2.8-1.2s-2.1.4-2.8 1.2l-24.2 24.2c-2.5-1.2-5.1-2.3-7.8-3.2v-34.3c0-2.2-1.8-4-4-4h-48.2c-2.2 0-4 1.8-4 4v34.2c-2.7 1-5.3 2-7.8 3.2l-24.2-24.2c-.7-.7-1.8-1.2-2.8-1.2s-2.1.4-2.8 1.2l-34 34c-.7.7-1.2 1.8-1.2 2.8s.4 2.1 1.2 2.8l24.2 24.2c-1.2 2.5-2.3 5.1-3.2 7.8h-34.2c-2.2 0-4 1.8-4 4v27.2h-3.9c-1.9 0-3.5 1.3-3.9 3.1-.9 4-1.6 7.7-2.1 11.5l-49.1 65.5c-.8 1.1-1 2.4-.6 3.7s1.5 2.2 2.7 2.6l49.3 13.2v89.2c0 2.2 1.8 4 4 4h66.5v71.5c0 2.2 1.8 4 4 4h139.6c1.1 0 2.1-.4 2.8-1.2s1.2-1.8 1.2-2.8l-.4-102.1c44.9-26.4 72.7-74.8 72.7-126.9 0-10.8-1.2-21.6-3.5-32.1-.4-1.9-2-3.2-3.9-3.2zm-234.3-23.1c1.7 0 3.3-1.1 3.8-2.8 1.3-4.1 3-8.1 5-11.9.8-1.5.5-3.4-.7-4.7l-23.4-23.4 28.4-28.4 23.4 23.4c1.2 1.2 3.1 1.5 4.7.7 3.7-1.9 7.7-3.6 11.9-4.9 1.7-.5 2.8-2.1 2.8-3.8v-33.1h40.2v33.1c0 1.7 1.1 3.3 2.8 3.8 4.2 1.3 8.2 3 11.9 5 1.5.8 3.4.5 4.7-.7l23.4-23.4 28.4 28.4-23.4 23.4c-1.2 1.2-1.5 3.1-.7 4.7 2 3.9 3.7 7.9 4.9 11.9.5 1.7 2.1 2.8 3.8 2.8h33.1v23h-54.1c.8-14.3-4-28.3-13.5-39.2-10.4-12-25.5-18.8-41.4-18.8s-31 6.9-41.4 18.8c-9.5 10.8-14.2 24.9-13.5 39.2h-54.1v-23.1zm122.8 23.1h-93.8c-.8-12.3 3.3-24.5 11.5-33.9 8.9-10.2 21.8-16.1 35.4-16.1s26.5 5.9 35.4 16.1c8.2 9.4 12.3 21.6 11.5 33.9zm40.3 156.3c-1.3.7-2 2-2 3.5l.4 100.4h-131.7v-71.5c0-2.2-1.8-4-4-4h-66.5v-88.3c0-1.8-1.2-3.4-3-3.9l-46.5-12.5 46.2-61.6c.4-.6.7-1.2.8-1.9.4-2.8.8-5.7 1.4-8.7h168.1 104.7c1.8 8.9 2.7 18.1 2.7 27.2.1 50.2-27 96.6-70.6 121.3z"/></g></svg>