<svg id="Capa_1" enable-background="new 0 0 512 512" height="512" viewBox="0 0 512 512" width="512" xmlns="http://www.w3.org/2000/svg"><path d="m424.753 512h-337.506c-12.028 0-21.778-9.75-21.778-21.778v-468.444c0-12.028 9.75-21.778 21.778-21.778h337.507c12.028 0 21.778 9.75 21.778 21.778v468.444c-.001 12.028-9.751 21.778-21.779 21.778z" fill="#fff0e1"/><circle cx="145.834" cy="323.258" fill="#fcb143" r="35.39"/><path d="m145.834 287.869c-3.785 0-7.428.6-10.847 1.7 14.238 4.581 24.543 17.929 24.543 33.69s-10.305 29.109-24.543 33.689c3.419 1.1 7.062 1.7 10.847 1.7 19.545 0 35.39-15.845 35.39-35.39s-15.844-35.389-35.39-35.389z" fill="#fba615"/><path d="m424.05 0h-30.163v437.507c0 12.416-10.065 22.481-22.481 22.481h-305.937v29.53c0 12.417 10.065 22.482 22.481 22.482h336.1c12.416 0 22.482-10.065 22.482-22.481v-467.037c-.001-12.417-10.066-22.482-22.482-22.482z" fill="#ffeccf"/><circle cx="257.313" cy="323.258" fill="#fcb143" r="35.39"/><path d="m257.313 287.869c-3.785 0-7.428.6-10.847 1.7 14.238 4.581 24.543 17.929 24.543 33.69s-10.305 29.109-24.543 33.689c3.419 1.1 7.062 1.7 10.847 1.7 19.545 0 35.39-15.845 35.39-35.39-.001-19.545-15.845-35.389-35.39-35.389z" fill="#fba615"/><circle cx="366.991" cy="323.258" fill="#fcb143" r="35.39"/><path d="m366.991 287.869c-3.785 0-7.428.6-10.847 1.7 14.238 4.581 24.543 17.929 24.543 33.69s-10.305 29.109-24.543 33.689c3.419 1.1 7.062 1.7 10.847 1.7 19.545 0 35.39-15.845 35.39-35.39s-15.845-35.389-35.39-35.389z" fill="#fba615"/><path d="m191.375 51.12-59.1 22.501c-7.824 2.979-12.996 10.481-12.996 18.854v44.169h124.758v-49.225c0-27.202-27.24-45.978-52.662-36.299z" fill="#a64c31"/><path d="m191.375 51.12-1.686.642c13.491 5.86 23.454 19.213 23.454 35.658v49.224h30.894v-49.225c0-27.202-27.24-45.978-52.662-36.299z" fill="#8a3e25"/><path d="m245.216 144.674c-.403-.03-.794-.038-1.179-.035v-16.936c0-15.644-12.682-28.326-28.326-28.326h-68.105c-15.644 0-28.326 12.682-28.326 28.326v16.967c-.655-.045-1.335-.048-2.046.004-10.173.749-18.04 6.507-17.151 18.576.887 12.05 10.168 25.834 20.322 25.131 5.507 28.819 30.83 50.605 61.254 50.605 30.415 0 55.732-21.773 61.249-50.579 9.811-.104 18.597-13.448 19.459-25.156.888-12.069-6.979-17.827-17.151-18.577z" fill="#d38678"/><path d="m155.464 182.232c-2.753 0-4.657 2.771-3.66 5.337 4.644 11.954 16.258 20.429 29.854 20.429s25.209-8.475 29.853-20.429c.997-2.566-.907-5.337-3.66-5.337z" fill="#fff"/><path d="m245.216 144.674c-.403-.03-.794-.038-1.179-.035v-16.936c0-15.644-12.682-28.326-28.326-28.326h-.359c3.187 4.582 5.06 10.146 5.06 16.151v48.905c0 34.451-27.928 62.379-62.379 62.379-5.569 0-10.963-.74-16.101-2.109 10.79 8.922 24.631 14.285 39.725 14.285 30.415 0 55.732-21.773 61.249-50.579 9.812-.104 18.597-13.448 19.459-25.156.89-12.071-6.977-17.829-17.149-18.579z" fill="#c86e57"/><path d="m317.629 76.065c14.302 0 11.632 12.395 20.69 12.395 4.672 0 7.056-2.669 7.056-7.055 0-6.675-9.821-17.926-27.746-17.926-22.12 0-33.562 16.591-33.562 35.947 0 23.646 12.682 35.946 34.134 35.946 15.161 0 27.174-9.821 27.174-19.738 0-3.813-3.814-6.007-7.628-6.007-7.532 0-7.246 13.158-19.546 13.158-13.539 0-18.497-10.869-18.497-23.36 0-14.874 8.104-23.36 17.925-23.36z" fill="#f88604"/><path d="m384.445 134.99c4.864 0 7.915-.954 9.535-5.435l19.832-54.158c.667-1.812.953-3.337.953-4.577 0-5.244-4.004-6.96-7.914-6.96-3.623 0-5.912 2.193-7.342 6.865l-14.684 46.719h-.19l-14.112-46.719c-1.43-4.672-3.719-6.865-7.914-6.865-3.909 0-7.914 1.716-7.914 6.96 0 1.239.286 2.765.954 4.577l19.26 54.158c1.623 4.481 4.674 5.435 9.536 5.435z" fill="#f88604"/><g fill="#fbbe66"><path d="m291.633 179.22h115.907c4.276 0 7.742-3.466 7.742-7.742s-3.466-7.742-7.742-7.742h-115.907c-4.276 0-7.742 3.466-7.742 7.742-.001 4.276 3.465 7.742 7.742 7.742z"/><path d="m291.633 208.648h76.187c4.276 0 7.742-3.466 7.742-7.742s-3.466-7.742-7.742-7.742h-76.187c-4.276 0-7.742 3.466-7.742 7.742-.001 4.276 3.465 7.742 7.742 7.742z"/><path d="m291.633 237.799h76.187c4.276 0 7.742-3.466 7.742-7.742s-3.466-7.742-7.742-7.742h-76.187c-4.276 0-7.742 3.466-7.742 7.742-.001 4.276 3.465 7.742 7.742 7.742z"/><path d="m181.224 395.077h-70.78c-4.276 0-7.742 3.466-7.742 7.742s3.466 7.742 7.742 7.742h70.78c4.276 0 7.742-3.466 7.742-7.742s-3.465-7.742-7.742-7.742z"/><path d="m181.224 424.505h-70.78c-4.276 0-7.742 3.466-7.742 7.742s3.466 7.742 7.742 7.742h70.78c4.276 0 7.742-3.466 7.742-7.742s-3.465-7.742-7.742-7.742z"/><path d="m292.702 395.077h-70.78c-4.276 0-7.742 3.466-7.742 7.742s3.466 7.742 7.742 7.742h70.78c4.276 0 7.742-3.466 7.742-7.742.001-4.276-3.465-7.742-7.742-7.742z"/><path d="m292.702 424.505h-70.78c-4.276 0-7.742 3.466-7.742 7.742s3.466 7.742 7.742 7.742h70.78c4.276 0 7.742-3.466 7.742-7.742.001-4.276-3.465-7.742-7.742-7.742z"/><path d="m331.601 395.077c-4.276 0-7.742 3.466-7.742 7.742s3.466 7.742 7.742 7.742h70.78c4.276 0 7.742-3.466 7.742-7.742s-3.466-7.742-7.742-7.742z"/><path d="m402.381 439.99c4.276 0 7.742-3.466 7.742-7.742s-3.466-7.742-7.742-7.742h-70.78c-4.276 0-7.742 3.466-7.742 7.742s3.466 7.742 7.742 7.742z"/></g><circle cx="155.186" cy="155.189" fill="#8a3e25" r="8.377"/><circle cx="208.12" cy="155.189" fill="#8a3e25" r="8.377"/></svg>