<?xml version="1.0"?>
<svg xmlns="http://www.w3.org/2000/svg" xmlns:xlink="http://www.w3.org/1999/xlink" xmlns:svgjs="http://svgjs.com/svgjs" version="1.1" width="512" height="512" x="0" y="0" viewBox="0 0 512 512" style="enable-background:new 0 0 512 512" xml:space="preserve" class=""><g>
<rect xmlns="http://www.w3.org/2000/svg" y="387.864" style="" width="512" height="24.896" fill="#000000" data-original="#22acdd" class=""/>
<g xmlns="http://www.w3.org/2000/svg">
	<path style="" d="M0,103.416c13.44-2.256,31.056-4.176,53.472-4.176c27.552,0,47.744,6.4,60.528,17.92   c11.888,10.256,18.896,25.952,18.896,45.168c0,19.52-5.76,34.88-16.64,46.096C101.52,224.12,77.52,232.12,50.288,232.12   c-8.336,0-16.016-0.32-22.416-1.904v86.48H0V103.416z M27.856,207.464c6.08,1.6,13.76,2.256,23.04,2.256   c33.632,0,54.128-16.336,54.128-46.144c0-28.496-20.144-42.24-50.896-42.24c-12.192,0-21.472,0.944-26.272,2.224   C27.856,123.56,27.856,207.464,27.856,207.464z" fill="#000000" data-original="#ff6600" class=""/>
	<path style="" d="M198.208,100.84v90.288h104.4V100.84h28.176v215.856h-28.176v-101.2h-104.4v101.2h-27.856V100.84   H198.208z" fill="#000000" data-original="#ff6600" class=""/>
	<path style="" d="M379.104,103.416c13.44-2.256,31.056-4.176,53.472-4.176c27.552,0,47.744,6.4,60.528,17.92   C504.976,127.416,512,143.128,512,162.344c0,19.52-5.76,34.88-16.64,46.096c-14.736,15.696-38.736,23.696-65.968,23.696   c-8.336,0-16.016-0.32-22.416-1.904v86.48H379.12V103.416H379.104z M406.976,207.464c6.08,1.6,13.76,2.256,23.04,2.256   c33.632,0,54.128-16.336,54.128-46.144c0-28.496-20.144-42.24-50.896-42.24c-12.192,0-21.472,0.944-26.272,2.224V207.464z" fill="#000000" data-original="#ff6600" class=""/>
</g>
<g xmlns="http://www.w3.org/2000/svg">
</g>
<g xmlns="http://www.w3.org/2000/svg">
</g>
<g xmlns="http://www.w3.org/2000/svg">
</g>
<g xmlns="http://www.w3.org/2000/svg">
</g>
<g xmlns="http://www.w3.org/2000/svg">
</g>
<g xmlns="http://www.w3.org/2000/svg">
</g>
<g xmlns="http://www.w3.org/2000/svg">
</g>
<g xmlns="http://www.w3.org/2000/svg">
</g>
<g xmlns="http://www.w3.org/2000/svg">
</g>
<g xmlns="http://www.w3.org/2000/svg">
</g>
<g xmlns="http://www.w3.org/2000/svg">
</g>
<g xmlns="http://www.w3.org/2000/svg">
</g>
<g xmlns="http://www.w3.org/2000/svg">
</g>
<g xmlns="http://www.w3.org/2000/svg">
</g>
<g xmlns="http://www.w3.org/2000/svg">
</g>
</g></svg>
